<svg width="378" height="498" viewBox="0 0 378 498" fill="none" xmlns="http://www.w3.org/2000/svg">
<rect x="1" y="1" width="376" height="496" rx="6" stroke="url(#paint0_linear_1594_6490)" stroke-opacity="0.7" stroke-width="2"/>
<path d="M11.9139 30V22.3C11.9139 21.824 11.9839 21.404 12.1519 21.026C12.3059 20.662 12.5159 20.354 12.7679 20.102C13.0199 19.85 13.3279 19.668 13.6779 19.528C14.0279 19.402 14.3919 19.332 14.7699 19.332C15.6659 19.332 16.3659 19.584 16.8699 20.06C17.3739 20.536 17.7939 21.166 18.1159 21.95L20.3979 27.522C20.4259 27.592 20.4539 27.662 20.4819 27.718C20.5099 27.774 20.5659 27.802 20.6499 27.802C20.7339 27.802 20.8039 27.788 20.8319 27.732C20.8599 27.676 20.8879 27.606 20.8879 27.508V19.5H23.6879V27.214C23.6879 27.718 23.6039 28.152 23.4499 28.516C23.2819 28.894 23.0719 29.202 22.8199 29.454C22.5679 29.706 22.2599 29.888 21.9099 30C21.5599 30.126 21.1959 30.182 20.8319 30.182C19.9359 30.182 19.2359 29.958 18.7319 29.482C18.2279 29.02 17.8219 28.376 17.4859 27.564L15.2039 21.992C15.1759 21.936 15.1339 21.866 15.1059 21.81C15.0779 21.754 15.0219 21.712 14.9519 21.712C14.8539 21.712 14.7839 21.74 14.7559 21.796C14.7279 21.852 14.7139 21.922 14.7139 22.006V30H11.9139ZM34.2538 25.296V26.304C34.2538 27.48 33.8898 28.404 33.1898 29.104C32.4898 29.804 31.4818 30.14 30.1798 30.14H29.1998C27.8838 30.14 26.8758 29.804 26.1758 29.104C25.4618 28.404 25.1118 27.48 25.1118 26.304V25.296C25.1118 24.134 25.4618 23.21 26.1758 22.51C26.8758 21.81 27.8838 21.46 29.1998 21.46H30.1798C31.4818 21.46 32.4898 21.81 33.1898 22.51C33.8898 23.21 34.2538 24.134 34.2538 25.296ZM31.5238 25.072C31.5238 24.54 31.4118 24.134 31.2158 23.868C31.0198 23.602 30.6558 23.462 30.1518 23.462H29.2278C28.7097 23.462 28.3458 23.602 28.1498 23.868C27.9398 24.134 27.8418 24.54 27.8418 25.072V26.514C27.8418 27.074 27.9398 27.48 28.1498 27.746C28.3458 28.012 28.7097 28.138 29.2278 28.138H30.1518C30.6558 28.138 31.0198 28.012 31.2158 27.746C31.4118 27.48 31.5238 27.074 31.5238 26.514V25.072ZM35.5776 30V21.6H45.5456C46.8196 21.6 47.7436 21.908 48.3176 22.524C48.8776 23.14 49.1716 23.98 49.1716 25.03V30H46.5116V24.96C46.5116 24.54 46.4276 24.232 46.2876 24.05C46.1476 23.868 45.8676 23.77 45.4616 23.77H43.6976V30H41.0376V23.77H38.2376V30H35.5776ZM50.8081 30V19.5H53.4681V21.46H56.7721C57.8081 21.46 58.6201 21.81 59.2081 22.496C59.7961 23.196 60.0901 24.106 60.0901 25.24V26.22C60.0901 27.368 59.7961 28.278 59.2081 28.964C58.6201 29.664 57.8081 30 56.7721 30H50.8081ZM55.8621 23.532H53.4681V27.928H55.8621C56.4221 27.928 56.8141 27.802 57.0381 27.536C57.2481 27.284 57.3601 26.878 57.3601 26.318V25.072C57.3601 24.526 57.2481 24.134 57.0381 23.896C56.8141 23.658 56.4221 23.532 55.8621 23.532ZM61.4175 24.722C61.4175 24.33 61.4735 23.938 61.5995 23.56C61.7115 23.196 61.9075 22.86 62.1735 22.566C62.4255 22.286 62.7615 22.048 63.1815 21.866C63.6015 21.698 64.0915 21.6 64.6795 21.6H67.1435V23.63H65.2815C64.8055 23.63 64.4835 23.714 64.3155 23.882C64.1475 24.05 64.0775 24.344 64.0775 24.75V30H61.4175V24.722ZM76.3119 26.584H70.3059V26.64C70.3059 27.172 70.4179 27.536 70.6559 27.704C70.8799 27.886 71.2859 27.97 71.8599 27.97H76.1159V30H72.0139C71.1879 30 70.4879 29.916 69.9279 29.734C69.3679 29.552 68.9059 29.3 68.5699 28.964C68.2339 28.628 67.9819 28.236 67.8279 27.76C67.6739 27.298 67.6039 26.78 67.6039 26.22V25.156C67.6039 24.05 67.9259 23.168 68.5699 22.496C69.2139 21.824 70.2639 21.488 71.7339 21.488H72.2939C73.0779 21.488 73.7219 21.586 74.2539 21.768C74.7719 21.964 75.1779 22.23 75.4859 22.566C75.7939 22.902 76.0039 23.308 76.1299 23.784C76.2419 24.26 76.3119 24.792 76.3119 25.366V26.584ZM72.6019 23.364H71.5099C71.0619 23.364 70.7399 23.462 70.5719 23.658C70.3899 23.854 70.3059 24.19 70.3059 24.638V24.82H73.7919V24.638C73.7919 24.19 73.6939 23.854 73.5119 23.658C73.3299 23.462 73.0219 23.364 72.6019 23.364ZM90.0383 19.5V30H84.0743C83.0383 30 82.2263 29.664 81.6383 28.964C81.0503 28.278 80.7563 27.368 80.7563 26.22V25.38C80.7563 24.246 81.0503 23.336 81.6383 22.636C82.2263 21.95 83.0383 21.6 84.0743 21.6H87.3783V19.5H90.0383ZM84.9843 27.928H87.3783V23.672H84.9843C84.4103 23.672 84.0183 23.812 83.8083 24.064C83.5843 24.33 83.4863 24.736 83.4863 25.282V26.388C83.4863 26.948 83.5843 27.34 83.8083 27.578C84.0183 27.816 84.4103 27.928 84.9843 27.928ZM100.074 26.584H94.0677V26.64C94.0677 27.172 94.1797 27.536 94.4177 27.704C94.6417 27.886 95.0477 27.97 95.6217 27.97H99.8777V30H95.7757C94.9497 30 94.2497 29.916 93.6897 29.734C93.1297 29.552 92.6677 29.3 92.3317 28.964C91.9957 28.628 91.7437 28.236 91.5897 27.76C91.4357 27.298 91.3657 26.78 91.3657 26.22V25.156C91.3657 24.05 91.6877 23.168 92.3317 22.496C92.9757 21.824 94.0257 21.488 95.4957 21.488H96.0557C96.8397 21.488 97.4837 21.586 98.0157 21.768C98.5337 21.964 98.9397 22.23 99.2477 22.566C99.5557 22.902 99.7657 23.308 99.8917 23.784C100.004 24.26 100.074 24.792 100.074 25.366V26.584ZM96.3637 23.364H95.2717C94.8237 23.364 94.5017 23.462 94.3337 23.658C94.1517 23.854 94.0677 24.19 94.0677 24.638V24.82H97.5537V24.638C97.5537 24.19 97.4557 23.854 97.2737 23.658C97.0917 23.462 96.7837 23.364 96.3637 23.364ZM101.617 19.5H104.277V30H101.617V19.5ZM121.21 26.584H115.204V26.64C115.204 27.172 115.316 27.536 115.554 27.704C115.778 27.886 116.184 27.97 116.758 27.97H121.014V30H116.912C116.086 30 115.386 29.916 114.826 29.734C114.266 29.552 113.804 29.3 113.468 28.964C113.132 28.628 112.88 28.236 112.726 27.76C112.572 27.298 112.502 26.78 112.502 26.22V25.156C112.502 24.05 112.824 23.168 113.468 22.496C114.112 21.824 115.162 21.488 116.632 21.488H117.192C117.976 21.488 118.62 21.586 119.152 21.768C119.67 21.964 120.076 22.23 120.384 22.566C120.692 22.902 120.902 23.308 121.028 23.784C121.14 24.26 121.21 24.792 121.21 25.366V26.584ZM117.5 23.364H116.408C115.96 23.364 115.638 23.462 115.47 23.658C115.288 23.854 115.204 24.19 115.204 24.638V24.82H118.69V24.638C118.69 24.19 118.592 23.854 118.41 23.658C118.228 23.462 117.92 23.364 117.5 23.364ZM124.671 21.6L126.547 27.494C126.603 27.676 126.645 27.788 126.701 27.844C126.743 27.9 126.813 27.914 126.897 27.914C126.953 27.914 127.009 27.886 127.065 27.83C127.107 27.774 127.163 27.648 127.219 27.466L129.081 21.6H131.741L129.473 27.956C129.193 28.712 128.857 29.272 128.451 29.622C128.031 29.972 127.513 30.14 126.897 30.14C126.225 30.14 125.665 29.972 125.245 29.636C124.811 29.3 124.475 28.768 124.223 28.068L121.927 21.6H124.671ZM140.693 26.584H134.687V26.64C134.687 27.172 134.799 27.536 135.037 27.704C135.261 27.886 135.667 27.97 136.241 27.97H140.497V30H136.395C135.569 30 134.869 29.916 134.309 29.734C133.749 29.552 133.287 29.3 132.951 28.964C132.615 28.628 132.363 28.236 132.209 27.76C132.055 27.298 131.985 26.78 131.985 26.22V25.156C131.985 24.05 132.307 23.168 132.951 22.496C133.595 21.824 134.645 21.488 136.115 21.488H136.675C137.459 21.488 138.103 21.586 138.635 21.768C139.153 21.964 139.559 22.23 139.867 22.566C140.175 22.902 140.385 23.308 140.511 23.784C140.623 24.26 140.693 24.792 140.693 25.366V26.584ZM136.983 23.364H135.891C135.443 23.364 135.121 23.462 134.953 23.658C134.771 23.854 134.687 24.19 134.687 24.638V24.82H138.173V24.638C138.173 24.19 138.075 23.854 137.893 23.658C137.711 23.462 137.403 23.364 136.983 23.364ZM142.068 30V21.6H147.276C148.494 21.6 149.376 21.908 149.936 22.524C150.482 23.14 150.762 23.98 150.762 25.03V30H148.102V24.96C148.102 24.54 148.018 24.232 147.878 24.05C147.738 23.868 147.458 23.77 147.052 23.77H144.728V30H142.068ZM151.858 23.63V21.6H153.216V19.892H155.666V21.6H158.536V23.63H155.666V27.032C155.666 27.396 155.736 27.634 155.89 27.774C156.03 27.914 156.282 27.97 156.618 27.97H158.536V30H156.31C155.148 30 154.322 29.762 153.818 29.272C153.314 28.782 153.076 28.04 153.076 27.032V23.63H151.858ZM168.553 25.296V26.304C168.553 27.48 168.189 28.404 167.489 29.104C166.789 29.804 165.781 30.14 164.479 30.14H163.499C162.183 30.14 161.175 29.804 160.475 29.104C159.761 28.404 159.411 27.48 159.411 26.304V25.296C159.411 24.134 159.761 23.21 160.475 22.51C161.175 21.81 162.183 21.46 163.499 21.46H164.479C165.781 21.46 166.789 21.81 167.489 22.51C168.189 23.21 168.553 24.134 168.553 25.296ZM165.823 25.072C165.823 24.54 165.711 24.134 165.515 23.868C165.319 23.602 164.955 23.462 164.451 23.462H163.527C163.009 23.462 162.645 23.602 162.449 23.868C162.239 24.134 162.141 24.54 162.141 25.072V26.514C162.141 27.074 162.239 27.48 162.449 27.746C162.645 28.012 163.009 28.138 163.527 28.138H164.451C164.955 28.138 165.319 28.012 165.515 27.746C165.711 27.48 165.823 27.074 165.823 26.514V25.072Z" fill="white" fill-opacity="0.7"/>
<path d="M173.268 27.032V24.61H176.712V27.032H173.268ZM191.992 19.5V21.81H186.672C185.804 21.81 185.202 21.992 184.894 22.328C184.572 22.664 184.418 23.224 184.418 24.008V25.59C184.418 26.43 184.572 27.018 184.88 27.354C185.188 27.704 185.734 27.872 186.49 27.872H188.198C188.716 27.872 189.094 27.802 189.318 27.648C189.542 27.494 189.668 27.242 189.668 26.906V25.982H186.84V23.77H192.188V27.088C192.188 28.138 191.824 28.908 191.124 29.398C190.424 29.902 189.416 30.14 188.1 30.14H186.574C184.866 30.14 183.578 29.734 182.738 28.908C181.898 28.096 181.478 26.948 181.478 25.478V23.98C181.478 23.308 181.576 22.692 181.8 22.132C182.01 21.572 182.332 21.11 182.752 20.718C183.172 20.326 183.69 20.032 184.334 19.822C184.964 19.612 185.692 19.5 186.532 19.5H191.992ZM193.707 25.002C193.707 24.582 193.777 24.162 193.945 23.742C194.113 23.336 194.351 22.972 194.673 22.65C194.995 22.342 195.401 22.09 195.905 21.894C196.409 21.698 196.997 21.6 197.669 21.6H200.553V23.63H197.501C197.053 23.63 196.745 23.714 196.591 23.882C196.437 24.05 196.367 24.344 196.367 24.75V30H193.707V25.002ZM207.018 25.45V30H201.264C200.424 30 199.78 29.818 199.332 29.454C198.884 29.09 198.66 28.614 198.66 28.026C198.66 27.382 198.87 26.878 199.318 26.486C199.752 26.094 200.284 25.688 200.9 25.268L203.28 23.63H198.856V21.6H202.538C204.134 21.6 205.282 21.95 205.982 22.622C206.668 23.294 207.018 24.246 207.018 25.45ZM202.02 27.97H204.498V25.184L201.964 27.158C201.796 27.284 201.684 27.382 201.628 27.438C201.558 27.494 201.53 27.578 201.53 27.662C201.53 27.774 201.558 27.844 201.642 27.9C201.712 27.956 201.838 27.97 202.02 27.97ZM208.636 30V21.6H213.844C215.062 21.6 215.944 21.908 216.504 22.524C217.05 23.14 217.33 23.98 217.33 25.03V30H214.67V24.96C214.67 24.54 214.586 24.232 214.446 24.05C214.306 23.868 214.026 23.77 213.62 23.77H211.296V30H208.636ZM222.322 32.1V21.6H228.286C229.322 21.6 230.134 21.95 230.722 22.636C231.31 23.336 231.604 24.246 231.604 25.38V26.22C231.604 27.368 231.31 28.278 230.722 28.964C230.134 29.664 229.322 30 228.286 30H224.982V32.1H222.322ZM227.376 23.672H224.982V27.928H227.376C227.936 27.928 228.328 27.802 228.552 27.536C228.762 27.284 228.874 26.878 228.874 26.318V25.212C228.874 24.666 228.762 24.274 228.552 24.036C228.328 23.798 227.936 23.672 227.376 23.672ZM232.931 24.722C232.931 24.33 232.987 23.938 233.113 23.56C233.225 23.196 233.421 22.86 233.687 22.566C233.939 22.286 234.275 22.048 234.695 21.866C235.115 21.698 235.605 21.6 236.193 21.6H238.657V23.63H236.795C236.319 23.63 235.997 23.714 235.829 23.882C235.661 24.05 235.591 24.344 235.591 24.75V30H232.931V24.722ZM247.826 26.584H241.82V26.64C241.82 27.172 241.932 27.536 242.17 27.704C242.394 27.886 242.8 27.97 243.374 27.97H247.63V30H243.528C242.702 30 242.002 29.916 241.442 29.734C240.882 29.552 240.42 29.3 240.084 28.964C239.748 28.628 239.496 28.236 239.342 27.76C239.188 27.298 239.118 26.78 239.118 26.22V25.156C239.118 24.05 239.44 23.168 240.084 22.496C240.728 21.824 241.778 21.488 243.248 21.488H243.808C244.592 21.488 245.236 21.586 245.768 21.768C246.286 21.964 246.692 22.23 247 22.566C247.308 22.902 247.518 23.308 247.644 23.784C247.756 24.26 247.826 24.792 247.826 25.366V26.584ZM244.116 23.364H243.024C242.576 23.364 242.254 23.462 242.086 23.658C241.904 23.854 241.82 24.19 241.82 24.638V24.82H245.306V24.638C245.306 24.19 245.208 23.854 245.026 23.658C244.844 23.462 244.536 23.364 244.116 23.364ZM249.201 30V21.6H259.169C260.443 21.6 261.367 21.908 261.941 22.524C262.501 23.14 262.795 23.98 262.795 25.03V30H260.135V24.96C260.135 24.54 260.051 24.232 259.911 24.05C259.771 23.868 259.491 23.77 259.085 23.77H257.321V30H254.661V23.77H251.861V30H249.201ZM267.259 20.872H264.599V19.22H267.259V20.872ZM264.599 30V21.6H267.259V30H264.599ZM277.9 25.296V26.304C277.9 27.48 277.536 28.404 276.836 29.104C276.136 29.804 275.128 30.14 273.826 30.14H272.846C271.53 30.14 270.522 29.804 269.822 29.104C269.108 28.404 268.758 27.48 268.758 26.304V25.296C268.758 24.134 269.108 23.21 269.822 22.51C270.522 21.81 271.53 21.46 272.846 21.46H273.826C275.128 21.46 276.136 21.81 276.836 22.51C277.536 23.21 277.9 24.134 277.9 25.296ZM275.17 25.072C275.17 24.54 275.058 24.134 274.862 23.868C274.666 23.602 274.302 23.462 273.798 23.462H272.874C272.356 23.462 271.992 23.602 271.796 23.868C271.586 24.134 271.488 24.54 271.488 25.072V26.514C271.488 27.074 271.586 27.48 271.796 27.746C271.992 28.012 272.356 28.138 272.874 28.138H273.798C274.302 28.138 274.666 28.012 274.862 27.746C275.058 27.48 275.17 27.074 275.17 26.514V25.072ZM291.575 19.5V30H285.611C284.575 30 283.763 29.664 283.175 28.964C282.587 28.278 282.293 27.368 282.293 26.22V25.38C282.293 24.246 282.587 23.336 283.175 22.636C283.763 21.95 284.575 21.6 285.611 21.6H288.915V19.5H291.575ZM286.521 27.928H288.915V23.672H286.521C285.947 23.672 285.555 23.812 285.345 24.064C285.121 24.33 285.023 24.736 285.023 25.282V26.388C285.023 26.948 285.121 27.34 285.345 27.578C285.555 27.816 285.947 27.928 286.521 27.928ZM301.611 26.584H295.605V26.64C295.605 27.172 295.717 27.536 295.955 27.704C296.179 27.886 296.585 27.97 297.159 27.97H301.415V30H297.313C296.487 30 295.787 29.916 295.227 29.734C294.667 29.552 294.205 29.3 293.869 28.964C293.533 28.628 293.281 28.236 293.127 27.76C292.973 27.298 292.903 26.78 292.903 26.22V25.156C292.903 24.05 293.225 23.168 293.869 22.496C294.513 21.824 295.563 21.488 297.033 21.488H297.593C298.377 21.488 299.021 21.586 299.553 21.768C300.071 21.964 300.477 22.23 300.785 22.566C301.093 22.902 301.303 23.308 301.429 23.784C301.541 24.26 301.611 24.792 301.611 25.366V26.584ZM297.901 23.364H296.809C296.361 23.364 296.039 23.462 295.871 23.658C295.689 23.854 295.605 24.19 295.605 24.638V24.82H299.091V24.638C299.091 24.19 298.993 23.854 298.811 23.658C298.629 23.462 298.321 23.364 297.901 23.364ZM306.097 30L306.755 22.496C306.839 21.376 307.147 20.578 307.665 20.074C308.183 19.584 308.841 19.332 309.639 19.332C310.479 19.332 311.151 19.598 311.655 20.116C312.159 20.634 312.481 21.334 312.621 22.23L313.447 27.452C313.461 27.564 313.489 27.648 313.531 27.704C313.573 27.76 313.643 27.788 313.741 27.788C313.825 27.788 313.895 27.76 313.951 27.69C313.993 27.634 314.021 27.536 314.035 27.424L314.833 22.216C314.959 21.334 315.267 20.634 315.771 20.116C316.275 19.598 316.947 19.332 317.787 19.332C318.669 19.332 319.327 19.584 319.761 20.088C320.195 20.592 320.461 21.39 320.559 22.496L321.217 30H318.515L317.955 22.09C317.941 22.006 317.927 21.922 317.899 21.852C317.871 21.796 317.815 21.754 317.731 21.754C317.647 21.754 317.591 21.796 317.549 21.852C317.493 21.908 317.465 21.978 317.465 22.062L316.527 27.676C316.401 28.432 316.093 29.034 315.617 29.482C315.141 29.944 314.511 30.168 313.727 30.168C312.915 30.168 312.257 29.944 311.781 29.468C311.291 28.992 310.983 28.39 310.871 27.662L309.891 22.076C309.863 21.978 309.835 21.894 309.793 21.838C309.737 21.782 309.681 21.754 309.611 21.754C309.513 21.754 309.443 21.796 309.415 21.852C309.387 21.922 309.359 22.006 309.359 22.104L308.799 30H306.097ZM330.869 26.584H324.863V26.64C324.863 27.172 324.975 27.536 325.213 27.704C325.437 27.886 325.843 27.97 326.417 27.97H330.673V30H326.571C325.745 30 325.045 29.916 324.485 29.734C323.925 29.552 323.463 29.3 323.127 28.964C322.791 28.628 322.539 28.236 322.385 27.76C322.231 27.298 322.161 26.78 322.161 26.22V25.156C322.161 24.05 322.483 23.168 323.127 22.496C323.771 21.824 324.821 21.488 326.291 21.488H326.851C327.635 21.488 328.279 21.586 328.811 21.768C329.329 21.964 329.735 22.23 330.043 22.566C330.351 22.902 330.561 23.308 330.687 23.784C330.799 24.26 330.869 24.792 330.869 25.366V26.584ZM327.159 23.364H326.067C325.619 23.364 325.297 23.462 325.129 23.658C324.947 23.854 324.863 24.19 324.863 24.638V24.82H328.349V24.638C328.349 24.19 328.251 23.854 328.069 23.658C327.887 23.462 327.579 23.364 327.159 23.364ZM325.563 20.592L326.473 17.96H328.643L327.663 20.592H325.563ZM336.92 27.76C336.822 27.634 336.724 27.564 336.612 27.55C336.5 27.55 336.402 27.62 336.304 27.76L334.708 30H331.824L334.918 25.982L331.712 21.6H334.68L336.332 23.994C336.416 24.134 336.514 24.204 336.598 24.204C336.682 24.204 336.766 24.134 336.864 23.994L338.502 21.6H341.386L338.418 25.744L341.498 30H338.53L336.92 27.76ZM345.421 20.872H342.761V19.22H345.421V20.872ZM342.761 30V21.6H345.421V30H342.761ZM351.246 23.63C350.686 23.63 350.28 23.756 350.028 24.008C349.776 24.26 349.65 24.624 349.65 25.128V26.57C349.65 27.13 349.776 27.508 350.028 27.69C350.28 27.886 350.686 27.97 351.246 27.97H354.396V30H351.162C349.65 30 348.572 29.678 347.914 29.02C347.242 28.376 346.92 27.466 346.92 26.318V25.296C346.92 24.148 347.242 23.252 347.914 22.594C348.572 21.936 349.65 21.6 351.162 21.6H354.396V23.63H351.246ZM364.484 25.296V26.304C364.484 27.48 364.12 28.404 363.42 29.104C362.72 29.804 361.712 30.14 360.41 30.14H359.43C358.114 30.14 357.106 29.804 356.406 29.104C355.692 28.404 355.342 27.48 355.342 26.304V25.296C355.342 24.134 355.692 23.21 356.406 22.51C357.106 21.81 358.114 21.46 359.43 21.46H360.41C361.712 21.46 362.72 21.81 363.42 22.51C364.12 23.21 364.484 24.134 364.484 25.296ZM361.754 25.072C361.754 24.54 361.642 24.134 361.446 23.868C361.25 23.602 360.886 23.462 360.382 23.462H359.458C358.94 23.462 358.576 23.602 358.38 23.868C358.17 24.134 358.072 24.54 358.072 25.072V26.514C358.072 27.074 358.17 27.48 358.38 27.746C358.576 28.012 358.94 28.138 359.458 28.138H360.382C360.886 28.138 361.25 28.012 361.446 27.746C361.642 27.48 361.754 27.074 361.754 26.514V25.072Z" fill="white"/>
<path d="M11.91 82V71.5H20.184V73.81H14.71V75.742H20.184V78.052H14.71V82H11.91ZM30.1108 78.584H24.1048V78.64C24.1048 79.172 24.2168 79.536 24.4548 79.704C24.6788 79.886 25.0848 79.97 25.6588 79.97H29.9148V82H25.8128C24.9868 82 24.2868 81.916 23.7268 81.734C23.1668 81.552 22.7048 81.3 22.3688 80.964C22.0328 80.628 21.7808 80.236 21.6268 79.76C21.4728 79.298 21.4028 78.78 21.4028 78.22V77.156C21.4028 76.05 21.7248 75.168 22.3688 74.496C23.0128 73.824 24.0628 73.488 25.5328 73.488H26.0928C26.8768 73.488 27.5208 73.586 28.0528 73.768C28.5708 73.964 28.9768 74.23 29.2848 74.566C29.5928 74.902 29.8028 75.308 29.9288 75.784C30.0408 76.26 30.1108 76.792 30.1108 77.366V78.584ZM26.4008 75.364H25.3088C24.8608 75.364 24.5388 75.462 24.3708 75.658C24.1888 75.854 24.1048 76.19 24.1048 76.638V76.82H27.5908V76.638C27.5908 76.19 27.4928 75.854 27.3108 75.658C27.1288 75.462 26.8208 75.364 26.4008 75.364ZM35.5178 75.63C34.9578 75.63 34.5518 75.756 34.2998 76.008C34.0478 76.26 33.9218 76.624 33.9218 77.128V78.57C33.9218 79.13 34.0478 79.508 34.2998 79.69C34.5518 79.886 34.9578 79.97 35.5178 79.97H38.6678V82H35.4338C33.9218 82 32.8438 81.678 32.1858 81.02C31.5138 80.376 31.1918 79.466 31.1918 78.318V77.296C31.1918 76.148 31.5138 75.252 32.1858 74.594C32.8438 73.936 33.9218 73.6 35.4338 73.6H38.6678V75.63H35.5178ZM40.1811 82V71.5H42.8411V73.6H45.3891C46.6071 73.6 47.4891 73.908 48.0491 74.524C48.5951 75.14 48.8751 75.98 48.8751 77.03V82H46.2151V76.96C46.2151 76.54 46.1311 76.232 45.9911 76.05C45.8511 75.868 45.5711 75.77 45.1651 75.77H42.8411V82H40.1811ZM58.4694 77.45V82H52.7154C51.8754 82 51.2314 81.818 50.7834 81.454C50.3354 81.09 50.1114 80.614 50.1114 80.026C50.1114 79.382 50.3214 78.878 50.7694 78.486C51.2034 78.094 51.7354 77.688 52.3514 77.268L54.7314 75.63H50.3074V73.6H53.9894C55.5854 73.6 56.7334 73.95 57.4334 74.622C58.1194 75.294 58.4694 76.246 58.4694 77.45ZM53.4714 79.97H55.9494V77.184L53.4154 79.158C53.2474 79.284 53.1354 79.382 53.0794 79.438C53.0094 79.494 52.9814 79.578 52.9814 79.662C52.9814 79.774 53.0094 79.844 53.0934 79.9C53.1634 79.956 53.2894 79.97 53.4714 79.97ZM72.4387 71.5V82H66.4747C65.4387 82 64.6267 81.664 64.0387 80.964C63.4507 80.278 63.1567 79.368 63.1567 78.22V77.38C63.1567 76.246 63.4507 75.336 64.0387 74.636C64.6267 73.95 65.4387 73.6 66.4747 73.6H69.7787V71.5H72.4387ZM67.3847 79.928H69.7787V75.672H67.3847C66.8107 75.672 66.4187 75.812 66.2087 76.064C65.9847 76.33 65.8867 76.736 65.8867 77.282V78.388C65.8867 78.948 65.9847 79.34 66.2087 79.578C66.4187 79.816 66.8107 79.928 67.3847 79.928ZM82.474 78.584H76.468V78.64C76.468 79.172 76.58 79.536 76.818 79.704C77.042 79.886 77.448 79.97 78.022 79.97H82.278V82H78.176C77.35 82 76.65 81.916 76.09 81.734C75.53 81.552 75.068 81.3 74.732 80.964C74.396 80.628 74.144 80.236 73.99 79.76C73.836 79.298 73.766 78.78 73.766 78.22V77.156C73.766 76.05 74.088 75.168 74.732 74.496C75.376 73.824 76.426 73.488 77.896 73.488H78.456C79.24 73.488 79.884 73.586 80.416 73.768C80.934 73.964 81.34 74.23 81.648 74.566C81.956 74.902 82.166 75.308 82.292 75.784C82.404 76.26 82.474 76.792 82.474 77.366V78.584ZM78.764 75.364H77.672C77.224 75.364 76.902 75.462 76.734 75.658C76.552 75.854 76.468 76.19 76.468 76.638V76.82H79.954V76.638C79.954 76.19 79.856 75.854 79.674 75.658C79.492 75.462 79.184 75.364 78.764 75.364ZM84.0171 71.5H86.6771V82H84.0171V71.5ZM100.247 78.584H94.2415V78.64C94.2415 79.172 94.3535 79.536 94.5915 79.704C94.8155 79.886 95.2215 79.97 95.7955 79.97H100.051V82H95.9495C95.1235 82 94.4235 81.916 93.8635 81.734C93.3035 81.552 92.8415 81.3 92.5055 80.964C92.1695 80.628 91.9175 80.236 91.7635 79.76C91.6095 79.298 91.5395 78.78 91.5395 78.22V77.156C91.5395 76.05 91.8615 75.168 92.5055 74.496C93.1495 73.824 94.1995 73.488 95.6695 73.488H96.2295C97.0135 73.488 97.6575 73.586 98.1895 73.768C98.7075 73.964 99.1135 74.23 99.4215 74.566C99.7295 74.902 99.9395 75.308 100.065 75.784C100.177 76.26 100.247 76.792 100.247 77.366V78.584ZM96.5375 75.364H95.4455C94.9975 75.364 94.6755 75.462 94.5075 75.658C94.3255 75.854 94.2415 76.19 94.2415 76.638V76.82H97.7275V76.638C97.7275 76.19 97.6295 75.854 97.4475 75.658C97.2655 75.462 96.9575 75.364 96.5375 75.364ZM103.709 73.6L105.585 79.494C105.641 79.676 105.683 79.788 105.739 79.844C105.781 79.9 105.851 79.914 105.935 79.914C105.991 79.914 106.047 79.886 106.103 79.83C106.145 79.774 106.201 79.648 106.257 79.466L108.119 73.6H110.779L108.511 79.956C108.231 80.712 107.895 81.272 107.489 81.622C107.069 81.972 106.551 82.14 105.935 82.14C105.263 82.14 104.703 81.972 104.283 81.636C103.849 81.3 103.513 80.768 103.261 80.068L100.965 73.6H103.709ZM119.73 78.584H113.724V78.64C113.724 79.172 113.836 79.536 114.074 79.704C114.298 79.886 114.704 79.97 115.278 79.97H119.534V82H115.432C114.606 82 113.906 81.916 113.346 81.734C112.786 81.552 112.324 81.3 111.988 80.964C111.652 80.628 111.4 80.236 111.246 79.76C111.092 79.298 111.022 78.78 111.022 78.22V77.156C111.022 76.05 111.344 75.168 111.988 74.496C112.632 73.824 113.682 73.488 115.152 73.488H115.712C116.496 73.488 117.14 73.586 117.672 73.768C118.19 73.964 118.596 74.23 118.904 74.566C119.212 74.902 119.422 75.308 119.548 75.784C119.66 76.26 119.73 76.792 119.73 77.366V78.584ZM116.02 75.364H114.928C114.48 75.364 114.158 75.462 113.99 75.658C113.808 75.854 113.724 76.19 113.724 76.638V76.82H117.21V76.638C117.21 76.19 117.112 75.854 116.93 75.658C116.748 75.462 116.44 75.364 116.02 75.364ZM121.105 82V73.6H126.313C127.531 73.6 128.413 73.908 128.973 74.524C129.519 75.14 129.799 75.98 129.799 77.03V82H127.139V76.96C127.139 76.54 127.055 76.232 126.915 76.05C126.775 75.868 126.495 75.77 126.089 75.77H123.765V82H121.105ZM130.895 75.63V73.6H132.253V71.892H134.703V73.6H137.573V75.63H134.703V79.032C134.703 79.396 134.773 79.634 134.927 79.774C135.067 79.914 135.319 79.97 135.655 79.97H137.573V82H135.347C134.185 82 133.359 81.762 132.855 81.272C132.351 80.782 132.113 80.04 132.113 79.032V75.63H130.895ZM147.59 77.296V78.304C147.59 79.48 147.226 80.404 146.526 81.104C145.826 81.804 144.818 82.14 143.516 82.14H142.536C141.22 82.14 140.212 81.804 139.512 81.104C138.798 80.404 138.448 79.48 138.448 78.304V77.296C138.448 76.134 138.798 75.21 139.512 74.51C140.212 73.81 141.22 73.46 142.536 73.46H143.516C144.818 73.46 145.826 73.81 146.526 74.51C147.226 75.21 147.59 76.134 147.59 77.296ZM144.86 77.072C144.86 76.54 144.748 76.134 144.552 75.868C144.356 75.602 143.992 75.462 143.488 75.462H142.564C142.046 75.462 141.682 75.602 141.486 75.868C141.276 76.134 141.178 76.54 141.178 77.072V78.514C141.178 79.074 141.276 79.48 141.486 79.746C141.682 80.012 142.046 80.138 142.564 80.138H143.488C143.992 80.138 144.356 80.012 144.552 79.746C144.748 79.48 144.86 79.074 144.86 78.514V77.072Z" fill="white" fill-opacity="0.7"/>
<path d="M152.305 79.032V76.61H155.749V79.032H152.305ZM169.041 79.802V82H160.375V80.292C160.375 79.844 160.417 79.452 160.515 79.088C160.599 78.738 160.767 78.416 161.005 78.108C161.229 77.8 161.537 77.506 161.929 77.226C162.321 76.946 162.811 76.638 163.399 76.33L165.625 75.168C165.863 75.056 166.031 74.93 166.143 74.818C166.241 74.706 166.297 74.552 166.297 74.37C166.297 74.118 166.199 73.936 166.031 73.838C165.849 73.754 165.611 73.698 165.317 73.698H160.599V71.5H165.555C166.801 71.5 167.711 71.738 168.299 72.186C168.873 72.634 169.167 73.25 169.167 74.034C169.167 74.482 169.097 74.86 168.971 75.168C168.831 75.49 168.635 75.77 168.383 76.022C168.131 76.274 167.809 76.526 167.445 76.75C167.067 76.974 166.633 77.226 166.157 77.478L164.127 78.584C163.805 78.752 163.595 78.906 163.511 79.046C163.427 79.186 163.385 79.354 163.385 79.522V79.802H169.041ZM173.995 82H170.943L175.437 74.51C175.507 74.398 175.549 74.286 175.577 74.202C175.605 74.118 175.619 74.034 175.619 73.95C175.619 73.852 175.577 73.782 175.507 73.726C175.423 73.67 175.311 73.642 175.171 73.642H169.879V71.5H176.053C176.921 71.5 177.551 71.682 177.957 72.018C178.349 72.368 178.559 72.844 178.559 73.432C178.559 73.782 178.475 74.132 178.335 74.482C178.195 74.846 178.013 75.21 177.803 75.574L173.995 82ZM178.979 79.032V76.61H182.423V79.032H178.979ZM182.992 82V79.858H185.638V74.23C185.638 74.09 185.596 73.978 185.526 73.894C185.456 73.81 185.358 73.768 185.218 73.768H183.132V71.5H185.82C186.604 71.5 187.248 71.752 187.724 72.228C188.2 72.704 188.438 73.32 188.438 74.048V79.858H190.72V82H182.992ZM201.97 77.45C201.97 78.15 201.872 78.794 201.676 79.368C201.48 79.956 201.2 80.446 200.808 80.852C200.416 81.272 199.94 81.58 199.352 81.804C198.764 82.028 198.078 82.14 197.294 82.14H196.23C195.446 82.14 194.76 82.028 194.172 81.804C193.584 81.58 193.094 81.258 192.702 80.838C192.31 80.432 192.03 79.942 191.834 79.354C191.638 78.766 191.554 78.122 191.554 77.422V75.966C191.554 75.28 191.638 74.65 191.834 74.076C192.03 73.516 192.31 73.026 192.702 72.62C193.094 72.228 193.584 71.92 194.172 71.696C194.76 71.472 195.446 71.36 196.23 71.36H197.294C198.078 71.36 198.764 71.472 199.352 71.696C199.94 71.92 200.416 72.242 200.808 72.634C201.2 73.04 201.48 73.53 201.676 74.104C201.872 74.678 201.97 75.308 201.97 75.994V77.45ZM194.494 77.87C194.494 78.598 194.634 79.116 194.928 79.424C195.222 79.732 195.726 79.872 196.426 79.872H197.098C197.798 79.872 198.288 79.732 198.582 79.424C198.876 79.116 199.03 78.598 199.03 77.87V75.602C199.03 74.874 198.876 74.37 198.582 74.062C198.288 73.768 197.798 73.614 197.098 73.614H196.426C195.726 73.614 195.222 73.768 194.928 74.062C194.634 74.37 194.494 74.874 194.494 75.602V77.87ZM203.506 79.032V76.61H206.95V79.032H203.506ZM216.606 79.802V82H207.94V80.292C207.94 79.844 207.982 79.452 208.08 79.088C208.164 78.738 208.332 78.416 208.57 78.108C208.794 77.8 209.102 77.506 209.494 77.226C209.886 76.946 210.376 76.638 210.964 76.33L213.19 75.168C213.428 75.056 213.596 74.93 213.708 74.818C213.806 74.706 213.862 74.552 213.862 74.37C213.862 74.118 213.764 73.936 213.596 73.838C213.414 73.754 213.176 73.698 212.882 73.698H208.164V71.5H213.12C214.366 71.5 215.276 71.738 215.864 72.186C216.438 72.634 216.732 73.25 216.732 74.034C216.732 74.482 216.662 74.86 216.536 75.168C216.396 75.49 216.2 75.77 215.948 76.022C215.696 76.274 215.374 76.526 215.01 76.75C214.632 76.974 214.198 77.226 213.722 77.478L211.692 78.584C211.37 78.752 211.16 78.906 211.076 79.046C210.992 79.186 210.95 79.354 210.95 79.522V79.802H216.606ZM228.192 77.45C228.192 78.15 228.094 78.794 227.898 79.368C227.702 79.956 227.422 80.446 227.03 80.852C226.638 81.272 226.162 81.58 225.574 81.804C224.986 82.028 224.3 82.14 223.516 82.14H222.452C221.668 82.14 220.982 82.028 220.394 81.804C219.806 81.58 219.316 81.258 218.924 80.838C218.532 80.432 218.252 79.942 218.056 79.354C217.86 78.766 217.776 78.122 217.776 77.422V75.966C217.776 75.28 217.86 74.65 218.056 74.076C218.252 73.516 218.532 73.026 218.924 72.62C219.316 72.228 219.806 71.92 220.394 71.696C220.982 71.472 221.668 71.36 222.452 71.36H223.516C224.3 71.36 224.986 71.472 225.574 71.696C226.162 71.92 226.638 72.242 227.03 72.634C227.422 73.04 227.702 73.53 227.898 74.104C228.094 74.678 228.192 75.308 228.192 75.994V77.45ZM220.716 77.87C220.716 78.598 220.856 79.116 221.15 79.424C221.444 79.732 221.948 79.872 222.648 79.872H223.32C224.02 79.872 224.51 79.732 224.804 79.424C225.098 79.116 225.252 78.598 225.252 77.87V75.602C225.252 74.874 225.098 74.37 224.804 74.062C224.51 73.768 224.02 73.614 223.32 73.614H222.648C221.948 73.614 221.444 73.768 221.15 74.062C220.856 74.37 220.716 74.874 220.716 75.602V77.87ZM237.701 79.802V82H229.035V80.292C229.035 79.844 229.077 79.452 229.175 79.088C229.259 78.738 229.427 78.416 229.665 78.108C229.889 77.8 230.197 77.506 230.589 77.226C230.981 76.946 231.471 76.638 232.059 76.33L234.285 75.168C234.523 75.056 234.691 74.93 234.803 74.818C234.901 74.706 234.957 74.552 234.957 74.37C234.957 74.118 234.859 73.936 234.691 73.838C234.509 73.754 234.271 73.698 233.977 73.698H229.259V71.5H234.215C235.461 71.5 236.371 71.738 236.959 72.186C237.533 72.634 237.827 73.25 237.827 74.034C237.827 74.482 237.757 74.86 237.631 75.168C237.491 75.49 237.295 75.77 237.043 76.022C236.791 76.274 236.469 76.526 236.105 76.75C235.727 76.974 235.293 77.226 234.817 77.478L232.787 78.584C232.465 78.752 232.255 78.906 232.171 79.046C232.087 79.186 232.045 79.354 232.045 79.522V79.802H237.701ZM240.548 80.39C239.68 80.39 239.036 80.222 238.63 79.872C238.224 79.522 238.028 79.074 238.028 78.542C238.028 78.178 238.112 77.828 238.28 77.478C238.448 77.128 238.742 76.694 239.148 76.19L241.682 73.012C242.074 72.508 242.522 72.116 242.998 71.808C243.474 71.514 244.006 71.36 244.566 71.36H244.93C245.574 71.36 246.106 71.57 246.554 71.962C247.002 72.368 247.226 72.998 247.226 73.866V78.248H248.836V80.39H247.226V82H244.496V80.39H240.548ZM241.36 78.248H244.496V74.09C244.496 74.006 244.468 73.936 244.426 73.894C244.37 73.852 244.314 73.824 244.244 73.824C244.188 73.824 244.132 73.852 244.09 73.88C244.048 73.908 244.006 73.95 243.978 74.006L241.108 77.688C241.066 77.744 241.038 77.8 241.01 77.842C240.982 77.898 240.982 77.94 240.982 77.982C240.982 78.066 240.996 78.122 241.052 78.178C241.108 78.234 241.206 78.248 241.36 78.248Z" fill="white"/>
<path d="M11.91 134V123.5H14.71V127.476H19.68V123.5H22.48V134H19.68V129.926H14.71V134H11.91ZM33.0467 129.296V130.304C33.0467 131.48 32.6827 132.404 31.9827 133.104C31.2827 133.804 30.2747 134.14 28.9727 134.14H27.9927C26.6767 134.14 25.6687 133.804 24.9687 133.104C24.2547 132.404 23.9047 131.48 23.9047 130.304V129.296C23.9047 128.134 24.2547 127.21 24.9687 126.51C25.6687 125.81 26.6767 125.46 27.9927 125.46H28.9727C30.2747 125.46 31.2827 125.81 31.9827 126.51C32.6827 127.21 33.0467 128.134 33.0467 129.296ZM30.3167 129.072C30.3167 128.54 30.2047 128.134 30.0087 127.868C29.8127 127.602 29.4487 127.462 28.9447 127.462H28.0207C27.5027 127.462 27.1387 127.602 26.9427 127.868C26.7327 128.134 26.6347 128.54 26.6347 129.072V130.514C26.6347 131.074 26.7327 131.48 26.9427 131.746C27.1387 132.012 27.5027 132.138 28.0207 132.138H28.9447C29.4487 132.138 29.8127 132.012 30.0087 131.746C30.2047 131.48 30.3167 131.074 30.3167 130.514V129.072ZM34.3706 129.002C34.3706 128.582 34.4406 128.162 34.6086 127.742C34.7766 127.336 35.0146 126.972 35.3366 126.65C35.6586 126.342 36.0646 126.09 36.5686 125.894C37.0726 125.698 37.6606 125.6 38.3326 125.6H41.2166V127.63H38.1646C37.7166 127.63 37.4086 127.714 37.2546 127.882C37.1006 128.05 37.0306 128.344 37.0306 128.75V134H34.3706V129.002ZM47.6823 129.45V134H41.9283C41.0883 134 40.4443 133.818 39.9963 133.454C39.5483 133.09 39.3243 132.614 39.3243 132.026C39.3243 131.382 39.5343 130.878 39.9823 130.486C40.4163 130.094 40.9483 129.688 41.5643 129.268L43.9443 127.63H39.5203V125.6H43.2023C44.7983 125.6 45.9463 125.95 46.6463 126.622C47.3323 127.294 47.6823 128.246 47.6823 129.45ZM42.6843 131.97H45.1623V129.184L42.6283 131.158C42.4603 131.284 42.3483 131.382 42.2923 131.438C42.2223 131.494 42.1943 131.578 42.1943 131.662C42.1943 131.774 42.2223 131.844 42.3063 131.9C42.3763 131.956 42.5023 131.97 42.6843 131.97ZM49.3003 128.722C49.3003 128.33 49.3563 127.938 49.4823 127.56C49.5943 127.196 49.7903 126.86 50.0563 126.566C50.3083 126.286 50.6443 126.048 51.0643 125.866C51.4843 125.698 51.9743 125.6 52.5623 125.6H55.0263V127.63H53.1643C52.6883 127.63 52.3663 127.714 52.1983 127.882C52.0303 128.05 51.9603 128.344 51.9603 128.75V134H49.3003V128.722ZM58.8822 124.872H56.2222V123.22H58.8822V124.872ZM56.2222 134V125.6H58.8822V134H56.2222ZM69.5233 129.296V130.304C69.5233 131.48 69.1593 132.404 68.4593 133.104C67.7593 133.804 66.7513 134.14 65.4493 134.14H64.4693C63.1533 134.14 62.1453 133.804 61.4453 133.104C60.7313 132.404 60.3813 131.48 60.3813 130.304V129.296C60.3813 128.134 60.7313 127.21 61.4453 126.51C62.1453 125.81 63.1533 125.46 64.4693 125.46H65.4493C66.7513 125.46 67.7593 125.81 68.4593 126.51C69.1593 127.21 69.5233 128.134 69.5233 129.296ZM66.7933 129.072C66.7933 128.54 66.6813 128.134 66.4853 127.868C66.2893 127.602 65.9253 127.462 65.4213 127.462H64.4973C63.9793 127.462 63.6153 127.602 63.4193 127.868C63.2093 128.134 63.1113 128.54 63.1113 129.072V130.514C63.1113 131.074 63.2093 131.48 63.4193 131.746C63.6153 132.012 63.9793 132.138 64.4973 132.138H65.4213C65.9253 132.138 66.2893 132.012 66.4853 131.746C66.6813 131.48 66.7933 131.074 66.7933 130.514V129.072ZM83.1984 123.5V134H77.2344C76.1984 134 75.3864 133.664 74.7984 132.964C74.2104 132.278 73.9164 131.368 73.9164 130.22V129.38C73.9164 128.246 74.2104 127.336 74.7984 126.636C75.3864 125.95 76.1984 125.6 77.2344 125.6H80.5384V123.5H83.1984ZM78.1444 131.928H80.5384V127.672H78.1444C77.5704 127.672 77.1784 127.812 76.9684 128.064C76.7444 128.33 76.6464 128.736 76.6464 129.282V130.388C76.6464 130.948 76.7444 131.34 76.9684 131.578C77.1784 131.816 77.5704 131.928 78.1444 131.928ZM93.2338 130.584H87.2278V130.64C87.2278 131.172 87.3398 131.536 87.5778 131.704C87.8018 131.886 88.2078 131.97 88.7818 131.97H93.0378V134H88.9358C88.1098 134 87.4098 133.916 86.8498 133.734C86.2898 133.552 85.8278 133.3 85.4918 132.964C85.1558 132.628 84.9038 132.236 84.7498 131.76C84.5958 131.298 84.5258 130.78 84.5258 130.22V129.156C84.5258 128.05 84.8478 127.168 85.4918 126.496C86.1358 125.824 87.1858 125.488 88.6558 125.488H89.2158C89.9998 125.488 90.6438 125.586 91.1758 125.768C91.6938 125.964 92.0998 126.23 92.4078 126.566C92.7158 126.902 92.9258 127.308 93.0518 127.784C93.1638 128.26 93.2338 128.792 93.2338 129.366V130.584ZM89.5238 127.364H88.4318C87.9838 127.364 87.6618 127.462 87.4938 127.658C87.3118 127.854 87.2278 128.19 87.2278 128.638V128.82H90.7138V128.638C90.7138 128.19 90.6158 127.854 90.4338 127.658C90.2518 127.462 89.9438 127.364 89.5238 127.364ZM94.7769 123.5H97.4369V134H94.7769V123.5ZM111.007 130.584H105.001V130.64C105.001 131.172 105.113 131.536 105.351 131.704C105.575 131.886 105.981 131.97 106.555 131.97H110.811V134H106.709C105.883 134 105.183 133.916 104.623 133.734C104.063 133.552 103.601 133.3 103.265 132.964C102.929 132.628 102.677 132.236 102.523 131.76C102.369 131.298 102.299 130.78 102.299 130.22V129.156C102.299 128.05 102.621 127.168 103.265 126.496C103.909 125.824 104.959 125.488 106.429 125.488H106.989C107.773 125.488 108.417 125.586 108.949 125.768C109.467 125.964 109.873 126.23 110.181 126.566C110.489 126.902 110.699 127.308 110.825 127.784C110.937 128.26 111.007 128.792 111.007 129.366V130.584ZM107.297 127.364H106.205C105.757 127.364 105.435 127.462 105.267 127.658C105.085 127.854 105.001 128.19 105.001 128.638V128.82H108.487V128.638C108.487 128.19 108.389 127.854 108.207 127.658C108.025 127.462 107.717 127.364 107.297 127.364ZM114.468 125.6L116.344 131.494C116.4 131.676 116.442 131.788 116.498 131.844C116.54 131.9 116.61 131.914 116.694 131.914C116.75 131.914 116.806 131.886 116.862 131.83C116.904 131.774 116.96 131.648 117.016 131.466L118.878 125.6H121.538L119.27 131.956C118.99 132.712 118.654 133.272 118.248 133.622C117.828 133.972 117.31 134.14 116.694 134.14C116.022 134.14 115.462 133.972 115.042 133.636C114.608 133.3 114.272 132.768 114.02 132.068L111.724 125.6H114.468ZM130.49 130.584H124.484V130.64C124.484 131.172 124.596 131.536 124.834 131.704C125.058 131.886 125.464 131.97 126.038 131.97H130.294V134H126.192C125.366 134 124.666 133.916 124.106 133.734C123.546 133.552 123.084 133.3 122.748 132.964C122.412 132.628 122.16 132.236 122.006 131.76C121.852 131.298 121.782 130.78 121.782 130.22V129.156C121.782 128.05 122.104 127.168 122.748 126.496C123.392 125.824 124.442 125.488 125.912 125.488H126.472C127.256 125.488 127.9 125.586 128.432 125.768C128.95 125.964 129.356 126.23 129.664 126.566C129.972 126.902 130.182 127.308 130.308 127.784C130.42 128.26 130.49 128.792 130.49 129.366V130.584ZM126.78 127.364H125.688C125.24 127.364 124.918 127.462 124.75 127.658C124.568 127.854 124.484 128.19 124.484 128.638V128.82H127.97V128.638C127.97 128.19 127.872 127.854 127.69 127.658C127.508 127.462 127.2 127.364 126.78 127.364ZM131.865 134V125.6H137.073C138.291 125.6 139.173 125.908 139.733 126.524C140.279 127.14 140.559 127.98 140.559 129.03V134H137.899V128.96C137.899 128.54 137.815 128.232 137.675 128.05C137.535 127.868 137.255 127.77 136.849 127.77H134.525V134H131.865ZM141.655 127.63V125.6H143.013V123.892H145.463V125.6H148.333V127.63H145.463V131.032C145.463 131.396 145.533 131.634 145.687 131.774C145.827 131.914 146.079 131.97 146.415 131.97H148.333V134H146.107C144.945 134 144.119 133.762 143.615 133.272C143.111 132.782 142.873 132.04 142.873 131.032V127.63H141.655ZM158.349 129.296V130.304C158.349 131.48 157.985 132.404 157.285 133.104C156.585 133.804 155.577 134.14 154.275 134.14H153.295C151.979 134.14 150.971 133.804 150.271 133.104C149.557 132.404 149.207 131.48 149.207 130.304V129.296C149.207 128.134 149.557 127.21 150.271 126.51C150.971 125.81 151.979 125.46 153.295 125.46H154.275C155.577 125.46 156.585 125.81 157.285 126.51C157.985 127.21 158.349 128.134 158.349 129.296ZM155.619 129.072C155.619 128.54 155.507 128.134 155.311 127.868C155.115 127.602 154.751 127.462 154.247 127.462H153.323C152.805 127.462 152.441 127.602 152.245 127.868C152.035 128.134 151.937 128.54 151.937 129.072V130.514C151.937 131.074 152.035 131.48 152.245 131.746C152.441 132.012 152.805 132.138 153.323 132.138H154.247C154.751 132.138 155.115 132.012 155.311 131.746C155.507 131.48 155.619 131.074 155.619 130.514V129.072Z" fill="white" fill-opacity="0.7"/>
<path d="M163.065 131.032V128.61H166.509V131.032H163.065ZM171.275 134V131.858H173.921V126.23C173.921 126.09 173.879 125.978 173.809 125.894C173.739 125.81 173.641 125.768 173.501 125.768H171.415V123.5H174.103C174.887 123.5 175.531 123.752 176.007 124.228C176.483 124.704 176.721 125.32 176.721 126.048V131.858H179.003V134H171.275ZM180.121 134V131.858H182.767V126.23C182.767 126.09 182.725 125.978 182.655 125.894C182.585 125.81 182.487 125.768 182.347 125.768H180.261V123.5H182.949C183.733 123.5 184.377 123.752 184.853 124.228C185.329 124.704 185.567 125.32 185.567 126.048V131.858H187.849V134H180.121ZM189.246 134V131.06H192.186V134H189.246ZM204.143 129.45C204.143 130.15 204.045 130.794 203.849 131.368C203.653 131.956 203.373 132.446 202.981 132.852C202.589 133.272 202.113 133.58 201.525 133.804C200.937 134.028 200.251 134.14 199.467 134.14H198.403C197.619 134.14 196.933 134.028 196.345 133.804C195.757 133.58 195.267 133.258 194.875 132.838C194.483 132.432 194.203 131.942 194.007 131.354C193.811 130.766 193.727 130.122 193.727 129.422V127.966C193.727 127.28 193.811 126.65 194.007 126.076C194.203 125.516 194.483 125.026 194.875 124.62C195.267 124.228 195.757 123.92 196.345 123.696C196.933 123.472 197.619 123.36 198.403 123.36H199.467C200.251 123.36 200.937 123.472 201.525 123.696C202.113 123.92 202.589 124.242 202.981 124.634C203.373 125.04 203.653 125.53 203.849 126.104C204.045 126.678 204.143 127.308 204.143 127.994V129.45ZM196.667 129.87C196.667 130.598 196.807 131.116 197.101 131.424C197.395 131.732 197.899 131.872 198.599 131.872H199.271C199.971 131.872 200.461 131.732 200.755 131.424C201.049 131.116 201.203 130.598 201.203 129.87V127.602C201.203 126.874 201.049 126.37 200.755 126.062C200.461 125.768 199.971 125.614 199.271 125.614H198.599C197.899 125.614 197.395 125.768 197.101 126.062C196.807 126.37 196.667 126.874 196.667 127.602V129.87ZM215.956 129.45C215.956 130.15 215.858 130.794 215.662 131.368C215.466 131.956 215.186 132.446 214.794 132.852C214.402 133.272 213.926 133.58 213.338 133.804C212.75 134.028 212.064 134.14 211.28 134.14H210.216C209.432 134.14 208.746 134.028 208.158 133.804C207.57 133.58 207.08 133.258 206.688 132.838C206.296 132.432 206.016 131.942 205.82 131.354C205.624 130.766 205.54 130.122 205.54 129.422V127.966C205.54 127.28 205.624 126.65 205.82 126.076C206.016 125.516 206.296 125.026 206.688 124.62C207.08 124.228 207.57 123.92 208.158 123.696C208.746 123.472 209.432 123.36 210.216 123.36H211.28C212.064 123.36 212.75 123.472 213.338 123.696C213.926 123.92 214.402 124.242 214.794 124.634C215.186 125.04 215.466 125.53 215.662 126.104C215.858 126.678 215.956 127.308 215.956 127.994V129.45ZM208.48 129.87C208.48 130.598 208.62 131.116 208.914 131.424C209.208 131.732 209.712 131.872 210.412 131.872H211.084C211.784 131.872 212.274 131.732 212.568 131.424C212.862 131.116 213.016 130.598 213.016 129.87V127.602C213.016 126.874 212.862 126.37 212.568 126.062C212.274 125.768 211.784 125.614 211.084 125.614H210.412C209.712 125.614 209.208 125.768 208.914 126.062C208.62 126.37 208.48 126.874 208.48 127.602V129.87ZM228.794 129.45V134H223.04C222.2 134 221.556 133.818 221.108 133.454C220.66 133.09 220.436 132.614 220.436 132.026C220.436 131.382 220.646 130.878 221.094 130.486C221.528 130.094 222.06 129.688 222.676 129.268L225.056 127.63H220.632V125.6H224.314C225.91 125.6 227.058 125.95 227.758 126.622C228.444 127.294 228.794 128.246 228.794 129.45ZM223.796 131.97H226.274V129.184L223.74 131.158C223.572 131.284 223.46 131.382 223.404 131.438C223.334 131.494 223.306 131.578 223.306 131.662C223.306 131.774 223.334 131.844 223.418 131.9C223.488 131.956 223.614 131.97 223.796 131.97ZM230.412 134V125.6H240.38C241.654 125.6 242.578 125.908 243.152 126.524C243.712 127.14 244.006 127.98 244.006 129.03V134H241.346V128.96C241.346 128.54 241.262 128.232 241.122 128.05C240.982 127.868 240.702 127.77 240.296 127.77H238.532V134H235.872V127.77H233.072V134H230.412ZM249.033 131.032V128.61H252.477V131.032H249.033ZM257.244 134V131.858H259.89V126.23C259.89 126.09 259.848 125.978 259.778 125.894C259.708 125.81 259.61 125.768 259.47 125.768H257.384V123.5H260.072C260.856 123.5 261.5 123.752 261.976 124.228C262.452 124.704 262.69 125.32 262.69 126.048V131.858H264.972V134H257.244ZM274.615 131.802V134H265.949V132.292C265.949 131.844 265.991 131.452 266.089 131.088C266.173 130.738 266.341 130.416 266.579 130.108C266.803 129.8 267.111 129.506 267.503 129.226C267.895 128.946 268.385 128.638 268.973 128.33L271.199 127.168C271.437 127.056 271.605 126.93 271.717 126.818C271.815 126.706 271.871 126.552 271.871 126.37C271.871 126.118 271.773 125.936 271.605 125.838C271.423 125.754 271.185 125.698 270.891 125.698H266.173V123.5H271.129C272.375 123.5 273.285 123.738 273.873 124.186C274.447 124.634 274.741 125.25 274.741 126.034C274.741 126.482 274.671 126.86 274.545 127.168C274.405 127.49 274.209 127.77 273.957 128.022C273.705 128.274 273.383 128.526 273.019 128.75C272.641 128.974 272.207 129.226 271.731 129.478L269.701 130.584C269.379 130.752 269.169 130.906 269.085 131.046C269.001 131.186 268.959 131.354 268.959 131.522V131.802H274.615ZM275.926 134V131.06H278.866V134H275.926ZM290.399 129.45C290.399 130.15 290.301 130.794 290.105 131.368C289.909 131.956 289.629 132.446 289.237 132.852C288.845 133.272 288.369 133.58 287.781 133.804C287.193 134.028 286.507 134.14 285.723 134.14H284.659C283.875 134.14 283.189 134.028 282.601 133.804C282.013 133.58 281.523 133.258 281.131 132.838C280.739 132.432 280.459 131.942 280.263 131.354C280.067 130.766 279.983 130.122 279.983 129.422V127.966C279.983 127.28 280.067 126.65 280.263 126.076C280.459 125.516 280.739 125.026 281.131 124.62C281.523 124.228 282.013 123.92 282.601 123.696C283.189 123.472 283.875 123.36 284.659 123.36H285.723C286.507 123.36 287.193 123.472 287.781 123.696C288.369 123.92 288.845 124.242 289.237 124.634C289.629 125.04 289.909 125.53 290.105 126.104C290.301 126.678 290.399 127.308 290.399 127.994V129.45ZM282.923 129.87C282.923 130.598 283.063 131.116 283.357 131.424C283.651 131.732 284.155 131.872 284.855 131.872H285.527C286.227 131.872 286.717 131.732 287.011 131.424C287.305 131.116 287.459 130.598 287.459 129.87V127.602C287.459 126.874 287.305 126.37 287.011 126.062C286.717 125.768 286.227 125.614 285.527 125.614H284.855C284.155 125.614 283.651 125.768 283.357 126.062C283.063 126.37 282.923 126.874 282.923 127.602V129.87ZM302.212 129.45C302.212 130.15 302.114 130.794 301.918 131.368C301.722 131.956 301.442 132.446 301.05 132.852C300.658 133.272 300.182 133.58 299.594 133.804C299.006 134.028 298.32 134.14 297.536 134.14H296.472C295.688 134.14 295.002 134.028 294.414 133.804C293.826 133.58 293.336 133.258 292.944 132.838C292.552 132.432 292.272 131.942 292.076 131.354C291.88 130.766 291.796 130.122 291.796 129.422V127.966C291.796 127.28 291.88 126.65 292.076 126.076C292.272 125.516 292.552 125.026 292.944 124.62C293.336 124.228 293.826 123.92 294.414 123.696C295.002 123.472 295.688 123.36 296.472 123.36H297.536C298.32 123.36 299.006 123.472 299.594 123.696C300.182 123.92 300.658 124.242 301.05 124.634C301.442 125.04 301.722 125.53 301.918 126.104C302.114 126.678 302.212 127.308 302.212 127.994V129.45ZM294.736 129.87C294.736 130.598 294.876 131.116 295.17 131.424C295.464 131.732 295.968 131.872 296.668 131.872H297.34C298.04 131.872 298.53 131.732 298.824 131.424C299.118 131.116 299.272 130.598 299.272 129.87V127.602C299.272 126.874 299.118 126.37 298.824 126.062C298.53 125.768 298.04 125.614 297.34 125.614H296.668C295.968 125.614 295.464 125.768 295.17 126.062C294.876 126.37 294.736 126.874 294.736 127.602V129.87ZM307.083 136.1V125.6H313.047C314.083 125.6 314.895 125.95 315.483 126.636C316.071 127.336 316.365 128.246 316.365 129.38V130.22C316.365 131.368 316.071 132.278 315.483 132.964C314.895 133.664 314.083 134 313.047 134H309.743V136.1H307.083ZM312.137 127.672H309.743V131.928H312.137C312.697 131.928 313.089 131.802 313.313 131.536C313.523 131.284 313.635 130.878 313.635 130.318V129.212C313.635 128.666 313.523 128.274 313.313 128.036C313.089 127.798 312.697 127.672 312.137 127.672ZM317.693 134V125.6H327.661C328.935 125.6 329.859 125.908 330.433 126.524C330.993 127.14 331.287 127.98 331.287 129.03V134H328.627V128.96C328.627 128.54 328.543 128.232 328.403 128.05C328.263 127.868 327.983 127.77 327.577 127.77H325.813V134H323.153V127.77H320.353V134H317.693Z" fill="white"/>
<path d="M15.34 186V177.81H11.35V175.5H22.13V177.81H18.14V186H15.34ZM26.1244 176.872H23.4644V175.22H26.1244V176.872ZM23.4644 186V177.6H26.1244V186H23.4644ZM27.9175 188.1V177.6H33.8815C34.9175 177.6 35.7295 177.95 36.3175 178.636C36.9055 179.336 37.1995 180.246 37.1995 181.38V182.22C37.1995 183.368 36.9055 184.278 36.3175 184.964C35.7295 185.664 34.9175 186 33.8815 186H30.5775V188.1H27.9175ZM32.9715 179.672H30.5775V183.928H32.9715C33.5315 183.928 33.9235 183.802 34.1475 183.536C34.3575 183.284 34.4695 182.878 34.4695 182.318V181.212C34.4695 180.666 34.3575 180.274 34.1475 180.036C33.9235 179.798 33.5315 179.672 32.9715 179.672ZM47.3748 181.296V182.304C47.3748 183.48 47.0108 184.404 46.3108 185.104C45.6108 185.804 44.6028 186.14 43.3008 186.14H42.3208C41.0048 186.14 39.9968 185.804 39.2968 185.104C38.5828 184.404 38.2328 183.48 38.2328 182.304V181.296C38.2328 180.134 38.5828 179.21 39.2968 178.51C39.9968 177.81 41.0048 177.46 42.3208 177.46H43.3008C44.6028 177.46 45.6108 177.81 46.3108 178.51C47.0108 179.21 47.3748 180.134 47.3748 181.296ZM44.6448 181.072C44.6448 180.54 44.5328 180.134 44.3368 179.868C44.1408 179.602 43.7768 179.462 43.2728 179.462H42.3488C41.8308 179.462 41.4668 179.602 41.2708 179.868C41.0608 180.134 40.9628 180.54 40.9628 181.072V182.514C40.9628 183.074 41.0608 183.48 41.2708 183.746C41.4668 184.012 41.8308 184.138 42.3488 184.138H43.2728C43.7768 184.138 44.1408 184.012 44.3368 183.746C44.5328 183.48 44.6448 183.074 44.6448 182.514V181.072ZM61.05 175.5V186H55.086C54.05 186 53.238 185.664 52.65 184.964C52.062 184.278 51.768 183.368 51.768 182.22V181.38C51.768 180.246 52.062 179.336 52.65 178.636C53.238 177.95 54.05 177.6 55.086 177.6H58.39V175.5H61.05ZM55.996 183.928H58.39V179.672H55.996C55.422 179.672 55.03 179.812 54.82 180.064C54.596 180.33 54.498 180.736 54.498 181.282V182.388C54.498 182.948 54.596 183.34 54.82 183.578C55.03 183.816 55.422 183.928 55.996 183.928ZM71.0854 182.584H65.0794V182.64C65.0794 183.172 65.1914 183.536 65.4294 183.704C65.6534 183.886 66.0594 183.97 66.6334 183.97H70.8894V186H66.7874C65.9614 186 65.2614 185.916 64.7014 185.734C64.1414 185.552 63.6794 185.3 63.3434 184.964C63.0074 184.628 62.7554 184.236 62.6014 183.76C62.4474 183.298 62.3774 182.78 62.3774 182.22V181.156C62.3774 180.05 62.6994 179.168 63.3434 178.496C63.9874 177.824 65.0374 177.488 66.5074 177.488H67.0674C67.8514 177.488 68.4954 177.586 69.0274 177.768C69.5454 177.964 69.9514 178.23 70.2594 178.566C70.5674 178.902 70.7774 179.308 70.9034 179.784C71.0154 180.26 71.0854 180.792 71.0854 181.366V182.584ZM67.3754 179.364H66.2834C65.8354 179.364 65.5134 179.462 65.3454 179.658C65.1634 179.854 65.0794 180.19 65.0794 180.638V180.82H68.5654V180.638C68.5654 180.19 68.4674 179.854 68.2854 179.658C68.1034 179.462 67.7954 179.364 67.3754 179.364ZM75.8237 186V175.5H78.4837V177.46H81.7877C82.8237 177.46 83.6357 177.81 84.2237 178.496C84.8117 179.196 85.1057 180.106 85.1057 181.24V182.22C85.1057 183.368 84.8117 184.278 84.2237 184.964C83.6357 185.664 82.8237 186 81.7877 186H75.8237ZM80.8777 179.532H78.4837V183.928H80.8777C81.4377 183.928 81.8297 183.802 82.0537 183.536C82.2637 183.284 82.3757 182.878 82.3757 182.318V181.072C82.3757 180.526 82.2637 180.134 82.0537 179.896C81.8297 179.658 81.4377 179.532 80.8777 179.532ZM95.2811 181.296V182.304C95.2811 183.48 94.9171 184.404 94.2171 185.104C93.5171 185.804 92.5091 186.14 91.2071 186.14H90.2271C88.9111 186.14 87.9031 185.804 87.2031 185.104C86.4891 184.404 86.1391 183.48 86.1391 182.304V181.296C86.1391 180.134 86.4891 179.21 87.2031 178.51C87.9031 177.81 88.9111 177.46 90.2271 177.46H91.2071C92.5091 177.46 93.5171 177.81 94.2171 178.51C94.9171 179.21 95.2811 180.134 95.2811 181.296ZM92.5511 181.072C92.5511 180.54 92.4391 180.134 92.2431 179.868C92.0471 179.602 91.6831 179.462 91.1791 179.462H90.2551C89.7371 179.462 89.3731 179.602 89.1771 179.868C88.9671 180.134 88.8691 180.54 88.8691 181.072V182.514C88.8691 183.074 88.9671 183.48 89.1771 183.746C89.3731 184.012 89.7371 184.138 90.2551 184.138H91.1791C91.6831 184.138 92.0471 184.012 92.2431 183.746C92.4391 183.48 92.5511 183.074 92.5511 182.514V181.072ZM96.773 175.5H99.433V186H96.773V175.5ZM109.64 182.584H103.634V182.64C103.634 183.172 103.746 183.536 103.984 183.704C104.208 183.886 104.614 183.97 105.188 183.97H109.444V186H105.342C104.516 186 103.816 185.916 103.256 185.734C102.696 185.552 102.234 185.3 101.898 184.964C101.562 184.628 101.31 184.236 101.156 183.76C101.002 183.298 100.932 182.78 100.932 182.22V181.156C100.932 180.05 101.254 179.168 101.898 178.496C102.542 177.824 103.592 177.488 105.062 177.488H105.622C106.406 177.488 107.05 177.586 107.582 177.768C108.1 177.964 108.506 178.23 108.814 178.566C109.122 178.902 109.332 179.308 109.458 179.784C109.57 180.26 109.64 180.792 109.64 181.366V182.584ZM105.93 179.364H104.838C104.39 179.364 104.068 179.462 103.9 179.658C103.718 179.854 103.634 180.19 103.634 180.638V180.82H107.12V180.638C107.12 180.19 107.022 179.854 106.84 179.658C106.658 179.462 106.35 179.364 105.93 179.364ZM110.483 179.63V177.6H111.841V175.892H114.291V177.6H117.161V179.63H114.291V183.032C114.291 183.396 114.361 183.634 114.515 183.774C114.655 183.914 114.907 183.97 115.243 183.97H117.161V186H114.935C113.773 186 112.947 185.762 112.443 185.272C111.939 184.782 111.701 184.04 111.701 183.032V179.63H110.483ZM127.178 181.296V182.304C127.178 183.48 126.814 184.404 126.114 185.104C125.414 185.804 124.406 186.14 123.104 186.14H122.124C120.808 186.14 119.8 185.804 119.1 185.104C118.386 184.404 118.036 183.48 118.036 182.304V181.296C118.036 180.134 118.386 179.21 119.1 178.51C119.8 177.81 120.808 177.46 122.124 177.46H123.104C124.406 177.46 125.414 177.81 126.114 178.51C126.814 179.21 127.178 180.134 127.178 181.296ZM124.448 181.072C124.448 180.54 124.336 180.134 124.14 179.868C123.944 179.602 123.58 179.462 123.076 179.462H122.152C121.634 179.462 121.27 179.602 121.074 179.868C120.864 180.134 120.766 180.54 120.766 181.072V182.514C120.766 183.074 120.864 183.48 121.074 183.746C121.27 184.012 121.634 184.138 122.152 184.138H123.076C123.58 184.138 123.944 184.012 124.14 183.746C124.336 183.48 124.448 183.074 124.448 182.514V181.072Z" fill="white" fill-opacity="0.7"/>
<path d="M131.893 183.032V180.61H135.337V183.032H131.893ZM143.883 186V177.81H139.893V175.5H150.673V177.81H146.683V186H143.883ZM154.667 176.872H152.007V175.22H154.667V176.872ZM152.007 186V177.6H154.667V186H152.007ZM160.492 179.63C159.932 179.63 159.526 179.756 159.274 180.008C159.022 180.26 158.896 180.624 158.896 181.128V182.57C158.896 183.13 159.022 183.508 159.274 183.69C159.526 183.886 159.932 183.97 160.492 183.97H163.642V186H160.408C158.896 186 157.818 185.678 157.16 185.02C156.488 184.376 156.166 183.466 156.166 182.318V181.296C156.166 180.148 156.488 179.252 157.16 178.594C157.818 177.936 158.896 177.6 160.408 177.6H163.642V179.63H160.492ZM165.156 186V175.5H167.816V180.61H168.11C168.362 180.61 168.558 180.596 168.698 180.54C168.838 180.498 168.964 180.4 169.09 180.246L171.162 177.6H174.214L170.742 181.73L174.326 186H171.162L168.978 183.242C168.824 183.06 168.684 182.948 168.572 182.906C168.46 182.878 168.278 182.85 168.054 182.85H167.816V186H165.156ZM183.126 182.584H177.12V182.64C177.12 183.172 177.232 183.536 177.47 183.704C177.694 183.886 178.1 183.97 178.674 183.97H182.93V186H178.828C178.002 186 177.302 185.916 176.742 185.734C176.182 185.552 175.72 185.3 175.384 184.964C175.048 184.628 174.796 184.236 174.642 183.76C174.488 183.298 174.418 182.78 174.418 182.22V181.156C174.418 180.05 174.74 179.168 175.384 178.496C176.028 177.824 177.078 177.488 178.548 177.488H179.108C179.892 177.488 180.536 177.586 181.068 177.768C181.586 177.964 181.992 178.23 182.3 178.566C182.608 178.902 182.818 179.308 182.944 179.784C183.056 180.26 183.126 180.792 183.126 181.366V182.584ZM179.416 179.364H178.324C177.876 179.364 177.554 179.462 177.386 179.658C177.204 179.854 177.12 180.19 177.12 180.638V180.82H180.606V180.638C180.606 180.19 180.508 179.854 180.326 179.658C180.144 179.462 179.836 179.364 179.416 179.364ZM183.969 179.63V177.6H185.327V175.892H187.777V177.6H190.647V179.63H187.777V183.032C187.777 183.396 187.847 183.634 188.001 183.774C188.141 183.914 188.393 183.97 188.729 183.97H190.647V186H188.421C187.259 186 186.433 185.762 185.929 185.272C185.425 184.782 185.187 184.04 185.187 183.032V179.63H183.969ZM205.715 175.5V177.81H200.395C199.527 177.81 198.925 177.992 198.617 178.328C198.295 178.664 198.141 179.224 198.141 180.008V181.59C198.141 182.43 198.295 183.018 198.603 183.354C198.911 183.704 199.457 183.872 200.213 183.872H201.921C202.439 183.872 202.817 183.802 203.041 183.648C203.265 183.494 203.391 183.242 203.391 182.906V181.982H200.563V179.77H205.911V183.088C205.911 184.138 205.547 184.908 204.847 185.398C204.147 185.902 203.139 186.14 201.823 186.14H200.297C198.589 186.14 197.301 185.734 196.461 184.908C195.621 184.096 195.201 182.948 195.201 181.478V179.98C195.201 179.308 195.299 178.692 195.523 178.132C195.733 177.572 196.055 177.11 196.475 176.718C196.895 176.326 197.413 176.032 198.057 175.822C198.687 175.612 199.415 175.5 200.255 175.5H205.715ZM215.843 182.584H209.837V182.64C209.837 183.172 209.949 183.536 210.187 183.704C210.411 183.886 210.817 183.97 211.391 183.97H215.647V186H211.545C210.719 186 210.019 185.916 209.459 185.734C208.899 185.552 208.437 185.3 208.101 184.964C207.765 184.628 207.513 184.236 207.359 183.76C207.205 183.298 207.135 182.78 207.135 182.22V181.156C207.135 180.05 207.457 179.168 208.101 178.496C208.745 177.824 209.795 177.488 211.265 177.488H211.825C212.609 177.488 213.253 177.586 213.785 177.768C214.303 177.964 214.709 178.23 215.017 178.566C215.325 178.902 215.535 179.308 215.661 179.784C215.773 180.26 215.843 180.792 215.843 181.366V182.584ZM212.133 179.364H211.041C210.593 179.364 210.271 179.462 210.103 179.658C209.921 179.854 209.837 180.19 209.837 180.638V180.82H213.323V180.638C213.323 180.19 213.225 179.854 213.043 179.658C212.861 179.462 212.553 179.364 212.133 179.364ZM217.218 186V177.6H222.426C223.644 177.6 224.526 177.908 225.086 178.524C225.632 179.14 225.912 179.98 225.912 181.03V186H223.252V180.96C223.252 180.54 223.168 180.232 223.028 180.05C222.888 179.868 222.608 179.77 222.202 179.77H219.878V186H217.218ZM235.955 182.584H229.949V182.64C229.949 183.172 230.061 183.536 230.299 183.704C230.523 183.886 230.929 183.97 231.503 183.97H235.759V186H231.657C230.831 186 230.131 185.916 229.571 185.734C229.011 185.552 228.549 185.3 228.213 184.964C227.877 184.628 227.625 184.236 227.471 183.76C227.317 183.298 227.247 182.78 227.247 182.22V181.156C227.247 180.05 227.569 179.168 228.213 178.496C228.857 177.824 229.907 177.488 231.377 177.488H231.937C232.721 177.488 233.365 177.586 233.897 177.768C234.415 177.964 234.821 178.23 235.129 178.566C235.437 178.902 235.647 179.308 235.773 179.784C235.885 180.26 235.955 180.792 235.955 181.366V182.584ZM232.245 179.364H231.153C230.705 179.364 230.383 179.462 230.215 179.658C230.033 179.854 229.949 180.19 229.949 180.638V180.82H233.435V180.638C233.435 180.19 233.337 179.854 233.155 179.658C232.973 179.462 232.665 179.364 232.245 179.364ZM237.33 181.002C237.33 180.582 237.4 180.162 237.568 179.742C237.736 179.336 237.974 178.972 238.296 178.65C238.618 178.342 239.024 178.09 239.528 177.894C240.032 177.698 240.62 177.6 241.292 177.6H244.176V179.63H241.124C240.676 179.63 240.368 179.714 240.214 179.882C240.06 180.05 239.99 180.344 239.99 180.75V186H237.33V181.002ZM250.641 181.45V186H244.887C244.047 186 243.403 185.818 242.955 185.454C242.507 185.09 242.283 184.614 242.283 184.026C242.283 183.382 242.493 182.878 242.941 182.486C243.375 182.094 243.907 181.688 244.523 181.268L246.903 179.63H242.479V177.6H246.161C247.757 177.6 248.905 177.95 249.605 178.622C250.291 179.294 250.641 180.246 250.641 181.45ZM245.643 183.97H248.121V181.184L245.587 183.158C245.419 183.284 245.307 183.382 245.251 183.438C245.181 183.494 245.153 183.578 245.153 183.662C245.153 183.774 245.181 183.844 245.265 183.9C245.335 183.956 245.461 183.97 245.643 183.97ZM252.427 175.5H255.087V186H252.427V175.5Z" fill="white"/>
<path d="M11.91 238V227.5H14.71V235.69H20.044V238H11.91ZM29.8475 233.296V234.304C29.8475 235.48 29.4835 236.404 28.7835 237.104C28.0835 237.804 27.0755 238.14 25.7735 238.14H24.7935C23.4775 238.14 22.4695 237.804 21.7695 237.104C21.0555 236.404 20.7055 235.48 20.7055 234.304V233.296C20.7055 232.134 21.0555 231.21 21.7695 230.51C22.4695 229.81 23.4775 229.46 24.7935 229.46H25.7735C27.0755 229.46 28.0835 229.81 28.7835 230.51C29.4835 231.21 29.8475 232.134 29.8475 233.296ZM27.1175 233.072C27.1175 232.54 27.0055 232.134 26.8095 231.868C26.6135 231.602 26.2495 231.462 25.7455 231.462H24.8215C24.3035 231.462 23.9395 231.602 23.7435 231.868C23.5335 232.134 23.4355 232.54 23.4355 233.072V234.514C23.4355 235.074 23.5335 235.48 23.7435 235.746C23.9395 236.012 24.3035 236.138 24.8215 236.138H25.7455C26.2495 236.138 26.6135 236.012 26.8095 235.746C27.0055 235.48 27.1175 235.074 27.1175 234.514V233.072ZM35.2034 231.63C34.6434 231.63 34.2374 231.756 33.9854 232.008C33.7334 232.26 33.6074 232.624 33.6074 233.128V234.57C33.6074 235.13 33.7334 235.508 33.9854 235.69C34.2374 235.886 34.6434 235.97 35.2034 235.97H37.9334V238H35.1194C33.6074 238 32.5294 237.678 31.8714 237.02C31.1994 236.376 30.8774 235.466 30.8774 234.318V233.296C30.8774 232.148 31.1994 231.252 31.8714 230.594C32.5294 229.936 33.6074 229.6 35.1194 229.6H41.1534V231.63H35.2034ZM47.4089 233.45V238H41.6549C40.8149 238 40.1709 237.818 39.7229 237.454C39.2749 237.09 39.0509 236.614 39.0509 236.026C39.0509 235.382 39.2609 234.878 39.7089 234.486C40.1429 234.094 40.6749 233.688 41.2909 233.268L43.6709 231.63H39.2469V229.6H42.9289C44.5249 229.6 45.6729 229.95 46.3729 230.622C47.0589 231.294 47.4089 232.246 47.4089 233.45ZM42.4109 235.97H44.8889V233.184L42.3549 235.158C42.1869 235.284 42.0749 235.382 42.0189 235.438C41.9489 235.494 41.9209 235.578 41.9209 235.662C41.9209 235.774 41.9489 235.844 42.0329 235.9C42.1029 235.956 42.2289 235.97 42.4109 235.97ZM53.0588 231.63C52.4988 231.63 52.0928 231.756 51.8408 232.008C51.5888 232.26 51.4628 232.624 51.4628 233.128V234.57C51.4628 235.13 51.5888 235.508 51.8408 235.69C52.0928 235.886 52.4988 235.97 53.0588 235.97H56.2088V238H52.9748C51.4628 238 50.3848 237.678 49.7268 237.02C49.0548 236.376 48.7328 235.466 48.7328 234.318V233.296C48.7328 232.148 49.0548 231.252 49.7268 230.594C50.3848 229.936 51.4628 229.6 52.9748 229.6H56.2088V231.63H53.0588ZM60.5502 228.872H57.8902V227.22H60.5502V228.872ZM57.8902 238V229.6H60.5502V238H57.8902ZM71.1913 233.296V234.304C71.1913 235.48 70.8273 236.404 70.1273 237.104C69.4273 237.804 68.4193 238.14 67.1173 238.14H66.1373C64.8213 238.14 63.8133 237.804 63.1133 237.104C62.3993 236.404 62.0493 235.48 62.0493 234.304V233.296C62.0493 232.134 62.3993 231.21 63.1133 230.51C63.8133 229.81 64.8213 229.46 66.1373 229.46H67.1173C68.4193 229.46 69.4273 229.81 70.1273 230.51C70.8273 231.21 71.1913 232.134 71.1913 233.296ZM68.4613 233.072C68.4613 232.54 68.3493 232.134 68.1533 231.868C67.9573 231.602 67.5933 231.462 67.0893 231.462H66.1653C65.6472 231.462 65.2833 231.602 65.0873 231.868C64.8773 232.134 64.7793 232.54 64.7793 233.072V234.514C64.7793 235.074 64.8773 235.48 65.0873 235.746C65.2833 236.012 65.6472 236.138 66.1653 236.138H67.0893C67.5933 236.138 67.9573 236.012 68.1533 235.746C68.3493 235.48 68.4613 235.074 68.4613 234.514V233.072ZM65.6193 228.592L66.5293 225.96H68.6993L67.7193 228.592H65.6193ZM72.5151 238V229.6H77.7231C78.9411 229.6 79.8231 229.908 80.3831 230.524C80.9291 231.14 81.2091 231.98 81.2091 233.03V238H78.5491V232.96C78.5491 232.54 78.4651 232.232 78.3251 232.05C78.1851 231.868 77.9051 231.77 77.4991 231.77H75.1751V238H72.5151Z" fill="white" fill-opacity="0.7"/>
<path d="M86.2287 235.032V232.61H89.6727V235.032H86.2287ZM104.953 227.5V229.81H99.6329C98.7649 229.81 98.1629 229.992 97.8549 230.328C97.5329 230.664 97.3789 231.224 97.3789 232.008V233.59C97.3789 234.43 97.5329 235.018 97.8409 235.354C98.1489 235.704 98.6949 235.872 99.4509 235.872H101.159C101.677 235.872 102.055 235.802 102.279 235.648C102.503 235.494 102.629 235.242 102.629 234.906V233.982H99.8009V231.77H105.149V235.088C105.149 236.138 104.785 236.908 104.085 237.398C103.385 237.902 102.377 238.14 101.061 238.14H99.5349C97.8269 238.14 96.5389 237.734 95.6989 236.908C94.8589 236.096 94.4389 234.948 94.4389 233.478V231.98C94.4389 231.308 94.5369 230.692 94.7609 230.132C94.9709 229.572 95.2929 229.11 95.7129 228.718C96.1329 228.326 96.6509 228.032 97.2949 227.822C97.9249 227.612 98.6529 227.5 99.4929 227.5H104.953ZM106.667 233.002C106.667 232.582 106.737 232.162 106.905 231.742C107.073 231.336 107.311 230.972 107.633 230.65C107.955 230.342 108.361 230.09 108.865 229.894C109.369 229.698 109.957 229.6 110.629 229.6H113.513V231.63H110.461C110.013 231.63 109.705 231.714 109.551 231.882C109.397 232.05 109.327 232.344 109.327 232.75V238H106.667V233.002ZM119.979 233.45V238H114.225C113.385 238 112.741 237.818 112.293 237.454C111.845 237.09 111.621 236.614 111.621 236.026C111.621 235.382 111.831 234.878 112.279 234.486C112.713 234.094 113.245 233.688 113.861 233.268L116.241 231.63H111.817V229.6H115.499C117.095 229.6 118.243 229.95 118.943 230.622C119.629 231.294 119.979 232.246 119.979 233.45ZM114.981 235.97H117.459V233.184L114.925 235.158C114.757 235.284 114.645 235.382 114.589 235.438C114.519 235.494 114.491 235.578 114.491 235.662C114.491 235.774 114.519 235.844 114.603 235.9C114.673 235.956 114.799 235.97 114.981 235.97ZM130.585 227.5V238H124.621C123.585 238 122.773 237.664 122.185 236.964C121.597 236.278 121.303 235.368 121.303 234.22V233.38C121.303 232.246 121.597 231.336 122.185 230.636C122.773 229.95 123.585 229.6 124.621 229.6H127.925V227.5H130.585ZM125.531 235.928H127.925V231.672H125.531C124.957 231.672 124.565 231.812 124.355 232.064C124.131 232.33 124.033 232.736 124.033 233.282V234.388C124.033 234.948 124.131 235.34 124.355 235.578C124.565 235.816 124.957 235.928 125.531 235.928ZM140.173 233.45V238H134.419C133.579 238 132.935 237.818 132.487 237.454C132.039 237.09 131.815 236.614 131.815 236.026C131.815 235.382 132.025 234.878 132.473 234.486C132.907 234.094 133.439 233.688 134.055 233.268L136.435 231.63H132.011V229.6H135.693C137.289 229.6 138.437 229.95 139.137 230.622C139.823 231.294 140.173 232.246 140.173 233.45ZM135.175 235.97H137.653V233.184L135.119 235.158C134.951 235.284 134.839 235.382 134.783 235.438C134.713 235.494 134.685 235.578 134.685 235.662C134.685 235.774 134.713 235.844 134.797 235.9C134.867 235.956 134.993 235.97 135.175 235.97ZM153.82 238L152.994 235.802H148.08L147.24 238H144.412L147.898 229.53C148.164 228.872 148.5 228.34 148.892 227.934C149.284 227.542 149.844 227.332 150.544 227.332C151.272 227.332 151.832 227.542 152.252 227.934C152.672 228.326 153.008 228.858 153.274 229.502L156.732 238H153.82ZM150.306 230.034L148.92 233.632H152.168L150.81 230.034C150.782 229.978 150.74 229.922 150.712 229.866C150.684 229.81 150.628 229.782 150.558 229.782C150.488 229.782 150.432 229.81 150.404 229.852C150.362 229.908 150.334 229.964 150.306 230.034ZM156.895 239.82C157.035 239.54 157.147 239.288 157.231 239.092C157.315 238.896 157.371 238.714 157.413 238.532C157.441 238.364 157.469 238.168 157.469 237.958C157.469 237.748 157.483 237.482 157.483 237.16V235.2H160.185V237.146C160.185 237.678 160.129 238.14 160.017 238.504C159.905 238.882 159.653 239.316 159.289 239.82H156.895ZM170.159 227.5C170.887 227.5 171.531 227.542 172.091 227.626C172.651 227.71 173.113 227.836 173.477 228.032C173.841 228.228 174.121 228.494 174.317 228.83C174.513 229.166 174.611 229.6 174.611 230.118V230.58C174.611 231.014 174.485 231.42 174.247 231.784C173.995 232.148 173.561 232.442 172.917 232.638C173.617 232.848 174.121 233.142 174.429 233.52C174.723 233.898 174.877 234.304 174.877 234.752V235.242C174.877 236.236 174.527 236.95 173.841 237.37C173.141 237.79 171.979 238 170.327 238H165.049V227.5H170.159ZM170.355 229.488H167.849V231.644H170.285C170.873 231.644 171.265 231.574 171.461 231.434C171.643 231.294 171.741 231.07 171.741 230.748V230.426C171.741 230.118 171.643 229.88 171.461 229.726C171.279 229.572 170.915 229.488 170.355 229.488ZM170.621 233.716H167.849V236.012H170.551C171.167 236.012 171.559 235.942 171.741 235.774C171.909 235.62 172.007 235.382 172.007 235.06V234.724C172.007 234.416 171.909 234.164 171.741 233.982C171.573 233.814 171.195 233.716 170.621 233.716ZM182.141 235.83V229.6H184.801V238H179.593C178.361 238 177.479 237.692 176.933 237.076C176.373 236.46 176.107 235.634 176.107 234.57V229.6H178.767V234.64C178.767 235.074 178.837 235.382 178.977 235.564C179.117 235.746 179.397 235.83 179.817 235.83H182.141ZM185.897 231.63V229.6H187.255V227.892H189.705V229.6H194.255V231.63H189.705V235.032C189.705 235.396 189.775 235.634 189.929 235.774C190.069 235.914 190.321 235.97 190.657 235.97H192.015V238H190.349C189.187 238 188.361 237.762 187.857 237.272C187.353 236.782 187.115 236.04 187.115 235.032V231.63H185.897ZM201.559 233.45V238H195.805C194.965 238 194.321 237.818 193.873 237.454C193.425 237.09 193.201 236.614 193.201 236.026C193.201 235.382 193.411 234.878 193.859 234.486C194.293 234.094 194.825 233.688 195.441 233.268L197.821 231.63H193.397V229.6H197.079C198.675 229.6 199.823 229.95 200.523 230.622C201.209 231.294 201.559 232.246 201.559 233.45ZM196.561 235.97H199.039V233.184L196.505 235.158C196.337 235.284 196.225 235.382 196.169 235.438C196.099 235.494 196.071 235.578 196.071 235.662C196.071 235.774 196.099 235.844 196.183 235.9C196.253 235.956 196.379 235.97 196.561 235.97ZM207.209 231.63C206.649 231.63 206.243 231.756 205.991 232.008C205.739 232.26 205.613 232.624 205.613 233.128V234.57C205.613 235.13 205.739 235.508 205.991 235.69C206.243 235.886 206.649 235.97 207.209 235.97H209.939V238H207.125C205.613 238 204.535 237.678 203.877 237.02C203.205 236.376 202.883 235.466 202.883 234.318V233.296C202.883 232.148 203.205 231.252 203.877 230.594C204.535 229.936 205.613 229.6 207.125 229.6H213.159V231.63H207.209ZM219.415 233.45V238H213.661C212.821 238 212.177 237.818 211.729 237.454C211.281 237.09 211.057 236.614 211.057 236.026C211.057 235.382 211.267 234.878 211.715 234.486C212.149 234.094 212.681 233.688 213.297 233.268L215.677 231.63H211.253V229.6H214.935C216.531 229.6 217.679 229.95 218.379 230.622C219.065 231.294 219.415 232.246 219.415 233.45ZM214.417 235.97H216.895V233.184L214.361 235.158C214.193 235.284 214.081 235.382 214.025 235.438C213.955 235.494 213.927 235.578 213.927 235.662C213.927 235.774 213.955 235.844 214.039 235.9C214.109 235.956 214.235 235.97 214.417 235.97ZM226.384 236.39C225.516 236.39 224.872 236.222 224.466 235.872C224.06 235.522 223.864 235.074 223.864 234.542C223.864 234.178 223.948 233.828 224.116 233.478C224.284 233.128 224.578 232.694 224.984 232.19L227.518 229.012C227.91 228.508 228.358 228.116 228.834 227.808C229.31 227.514 229.842 227.36 230.402 227.36H230.766C231.41 227.36 231.942 227.57 232.39 227.962C232.838 228.368 233.062 228.998 233.062 229.866V234.248H234.672V236.39H233.062V238H230.332V236.39H226.384ZM227.196 234.248H230.332V230.09C230.332 230.006 230.304 229.936 230.262 229.894C230.206 229.852 230.15 229.824 230.08 229.824C230.024 229.824 229.968 229.852 229.926 229.88C229.884 229.908 229.842 229.95 229.814 230.006L226.944 233.688C226.902 233.744 226.874 233.8 226.846 233.842C226.818 233.898 226.818 233.94 226.818 233.982C226.818 234.066 226.832 234.122 226.888 234.178C226.944 234.234 227.042 234.248 227.196 234.248ZM237.827 236.39C236.959 236.39 236.315 236.222 235.909 235.872C235.503 235.522 235.307 235.074 235.307 234.542C235.307 234.178 235.391 233.828 235.559 233.478C235.727 233.128 236.021 232.694 236.427 232.19L238.961 229.012C239.353 228.508 239.801 228.116 240.277 227.808C240.753 227.514 241.285 227.36 241.845 227.36H242.209C242.853 227.36 243.385 227.57 243.833 227.962C244.281 228.368 244.505 228.998 244.505 229.866V234.248H246.115V236.39H244.505V238H241.775V236.39H237.827ZM238.639 234.248H241.775V230.09C241.775 230.006 241.747 229.936 241.705 229.894C241.649 229.852 241.593 229.824 241.523 229.824C241.467 229.824 241.411 229.852 241.369 229.88C241.327 229.908 241.285 229.95 241.257 230.006L238.387 233.688C238.345 233.744 238.317 233.8 238.289 233.842C238.261 233.898 238.261 233.94 238.261 233.982C238.261 234.066 238.275 234.122 238.331 234.178C238.387 234.234 238.485 234.248 238.639 234.248Z" fill="white"/>
<path d="M20.478 290L19.652 287.802H14.738L13.898 290H11.07L14.556 281.53C14.822 280.872 15.158 280.34 15.55 279.934C15.942 279.542 16.502 279.332 17.202 279.332C17.93 279.332 18.49 279.542 18.91 279.934C19.33 280.326 19.666 280.858 19.932 281.502L23.39 290H20.478ZM16.964 282.034L15.578 285.632H18.826L17.468 282.034C17.44 281.978 17.398 281.922 17.37 281.866C17.342 281.81 17.286 281.782 17.216 281.782C17.146 281.782 17.09 281.81 17.062 281.852C17.02 281.908 16.992 281.964 16.964 282.034ZM27.8753 283.63C27.3153 283.63 26.9093 283.756 26.6573 284.008C26.4053 284.26 26.2793 284.624 26.2793 285.128V286.57C26.2793 287.13 26.4053 287.508 26.6573 287.69C26.9093 287.886 27.3153 287.97 27.8753 287.97H31.0253V290H27.7913C26.2793 290 25.2013 289.678 24.5433 289.02C23.8713 288.376 23.5493 287.466 23.5493 286.318V285.296C23.5493 284.148 23.8713 283.252 24.5433 282.594C25.2013 281.936 26.2793 281.6 27.7913 281.6H31.0253V283.63H27.8753ZM36.2971 283.63C35.7371 283.63 35.3311 283.756 35.0791 284.008C34.8271 284.26 34.7011 284.624 34.7011 285.128V286.57C34.7011 287.13 34.8271 287.508 35.0791 287.69C35.3311 287.886 35.7371 287.97 36.2971 287.97H39.4471V290H36.2131C34.7011 290 33.6231 289.678 32.9651 289.02C32.2931 288.376 31.9711 287.466 31.9711 286.318V285.296C31.9711 284.148 32.2931 283.252 32.9651 282.594C33.6231 281.936 34.7011 281.6 36.2131 281.6H39.4471V283.63H36.2971ZM49.101 286.584H43.095V286.64C43.095 287.172 43.207 287.536 43.445 287.704C43.669 287.886 44.075 287.97 44.649 287.97H48.905V290H44.803C43.977 290 43.277 289.916 42.717 289.734C42.157 289.552 41.695 289.3 41.359 288.964C41.023 288.628 40.771 288.236 40.617 287.76C40.463 287.298 40.393 286.78 40.393 286.22V285.156C40.393 284.05 40.715 283.168 41.359 282.496C42.003 281.824 43.053 281.488 44.523 281.488H45.083C45.867 281.488 46.511 281.586 47.043 281.768C47.561 281.964 47.967 282.23 48.275 282.566C48.583 282.902 48.793 283.308 48.919 283.784C49.031 284.26 49.101 284.792 49.101 285.366V286.584ZM45.391 283.364H44.299C43.851 283.364 43.529 283.462 43.361 283.658C43.179 283.854 43.095 284.19 43.095 284.638V284.82H46.581V284.638C46.581 284.19 46.483 283.854 46.301 283.658C46.119 283.462 45.811 283.364 45.391 283.364ZM54.8095 287.06L52.5275 286.612C51.6875 286.444 51.0435 286.15 50.5955 285.73C50.1475 285.31 49.9375 284.75 49.9375 284.05C49.9375 283.728 49.9935 283.42 50.1195 283.112C50.2455 282.818 50.4415 282.552 50.7075 282.328C50.9735 282.104 51.3095 281.936 51.7295 281.796C52.1495 281.67 52.6395 281.6 53.2135 281.6H57.3855V283.63H53.0035C52.7235 283.63 52.5275 283.672 52.4435 283.756C52.3455 283.84 52.3035 283.938 52.3035 284.05C52.3035 284.176 52.3455 284.274 52.4295 284.344C52.5135 284.428 52.6535 284.484 52.8635 284.512L54.9355 284.918C55.9575 285.128 56.6855 285.436 57.1335 285.842C57.5815 286.248 57.8055 286.78 57.8055 287.452C57.8055 288.208 57.5115 288.824 56.9375 289.3C56.3635 289.776 55.4955 290 54.3335 290H47.4175V287.97H54.7115C55.0055 287.97 55.2155 287.928 55.3275 287.844C55.4395 287.76 55.4955 287.648 55.4955 287.508C55.4955 287.368 55.4255 287.27 55.2995 287.214C55.1735 287.158 55.0055 287.102 54.8095 287.06ZM67.8143 285.296V286.304C67.8143 287.48 67.4503 288.404 66.7503 289.104C66.0503 289.804 65.0423 290.14 63.7403 290.14H62.7603C61.4443 290.14 60.4363 289.804 59.7363 289.104C59.0223 288.404 58.6723 287.48 58.6723 286.304V285.296C58.6723 284.134 59.0223 283.21 59.7363 282.51C60.4363 281.81 61.4443 281.46 62.7603 281.46H63.7403C65.0423 281.46 66.0503 281.81 66.7503 282.51C67.4503 283.21 67.8143 284.134 67.8143 285.296ZM65.0843 285.072C65.0843 284.54 64.9723 284.134 64.7763 283.868C64.5803 283.602 64.2163 283.462 63.7123 283.462H62.7883C62.2703 283.462 61.9063 283.602 61.7103 283.868C61.5003 284.134 61.4023 284.54 61.4023 285.072V286.514C61.4023 287.074 61.5003 287.48 61.7103 287.746C61.9063 288.012 62.2703 288.138 62.7883 288.138H63.7123C64.2163 288.138 64.5803 288.012 64.7763 287.746C64.9723 287.48 65.0843 287.074 65.0843 286.514V285.072ZM73.7582 287.06L71.4762 286.612C70.6362 286.444 69.9922 286.15 69.5442 285.73C69.0962 285.31 68.8862 284.75 68.8862 284.05C68.8862 283.728 68.9422 283.42 69.0682 283.112C69.1942 282.818 69.3902 282.552 69.6562 282.328C69.9222 282.104 70.2582 281.936 70.6782 281.796C71.0982 281.67 71.5882 281.6 72.1622 281.6H76.3342V283.63H71.9522C71.6722 283.63 71.4762 283.672 71.3922 283.756C71.2942 283.84 71.2522 283.938 71.2522 284.036C71.2522 284.148 71.2942 284.246 71.3782 284.33C71.4622 284.414 71.6022 284.484 71.8122 284.512L73.8842 284.918C74.9062 285.128 75.6342 285.436 76.0822 285.842C76.5302 286.248 76.7542 286.78 76.7542 287.452C76.7542 288.208 76.4602 288.824 75.8862 289.3C75.3122 289.776 74.4442 290 73.2822 290H69.1662V287.97H73.7302C74.0242 287.97 74.2202 287.928 74.3042 287.844C74.3882 287.76 74.4442 287.662 74.4442 287.522C74.4442 287.382 74.3742 287.284 74.2482 287.214C74.1222 287.158 73.9542 287.102 73.7582 287.06ZM90.4035 279.5V290H84.4395C83.4035 290 82.5915 289.664 82.0035 288.964C81.4155 288.278 81.1215 287.368 81.1215 286.22V285.38C81.1215 284.246 81.4155 283.336 82.0035 282.636C82.5915 281.95 83.4035 281.6 84.4395 281.6H87.7435V279.5H90.4035ZM85.3495 287.928H87.7435V283.672H85.3495C84.7755 283.672 84.3835 283.812 84.1735 284.064C83.9495 284.33 83.8515 284.736 83.8515 285.282V286.388C83.8515 286.948 83.9495 287.34 84.1735 287.578C84.3835 287.816 84.7755 287.928 85.3495 287.928ZM94.8529 280.872H92.1929V279.22H94.8529V280.872ZM92.1929 290V281.6H94.8529V290H92.1929ZM101.266 287.06L98.984 286.612C98.144 286.444 97.5 286.15 97.052 285.73C96.604 285.31 96.394 284.75 96.394 284.05C96.394 283.728 96.45 283.42 96.576 283.112C96.702 282.818 96.898 282.552 97.164 282.328C97.43 282.104 97.766 281.936 98.186 281.796C98.606 281.67 99.096 281.6 99.67 281.6H103.842V283.63H99.46C99.18 283.63 98.984 283.672 98.9 283.756C98.802 283.84 98.76 283.938 98.76 284.036C98.76 284.148 98.802 284.246 98.886 284.33C98.97 284.414 99.11 284.484 99.32 284.512L101.392 284.918C102.414 285.128 103.142 285.436 103.59 285.842C104.038 286.248 104.262 286.78 104.262 287.452C104.262 288.208 103.968 288.824 103.394 289.3C102.82 289.776 101.952 290 100.79 290H96.674V287.97H101.238C101.532 287.97 101.728 287.928 101.812 287.844C101.896 287.76 101.952 287.662 101.952 287.522C101.952 287.382 101.882 287.284 101.756 287.214C101.63 287.158 101.462 287.102 101.266 287.06ZM105.56 292.1V281.6H111.524C112.56 281.6 113.372 281.95 113.96 282.636C114.548 283.336 114.842 284.246 114.842 285.38V286.22C114.842 287.368 114.548 288.278 113.96 288.964C113.372 289.664 112.56 290 111.524 290H108.22V292.1H105.56ZM110.614 283.672H108.22V287.928H110.614C111.174 287.928 111.566 287.802 111.79 287.536C112 287.284 112.112 286.878 112.112 286.318V285.212C112.112 284.666 112 284.274 111.79 284.036C111.566 283.798 111.174 283.672 110.614 283.672ZM125.017 285.296V286.304C125.017 287.48 124.653 288.404 123.953 289.104C123.253 289.804 122.245 290.14 120.943 290.14H119.963C118.647 290.14 117.639 289.804 116.939 289.104C116.225 288.404 115.875 287.48 115.875 286.304V285.296C115.875 284.134 116.225 283.21 116.939 282.51C117.639 281.81 118.647 281.46 119.963 281.46H120.943C122.245 281.46 123.253 281.81 123.953 282.51C124.653 283.21 125.017 284.134 125.017 285.296ZM122.287 285.072C122.287 284.54 122.175 284.134 121.979 283.868C121.783 283.602 121.419 283.462 120.915 283.462H119.991C119.473 283.462 119.109 283.602 118.913 283.868C118.703 284.134 118.605 284.54 118.605 285.072V286.514C118.605 287.074 118.703 287.48 118.913 287.746C119.109 288.012 119.473 288.138 119.991 288.138H120.915C121.419 288.138 121.783 288.012 121.979 287.746C122.175 287.48 122.287 287.074 122.287 286.514V285.072ZM126.341 290V281.6H131.549C132.767 281.6 133.649 281.908 134.209 282.524C134.755 283.14 135.035 283.98 135.035 285.03V290H132.375V284.96C132.375 284.54 132.291 284.232 132.151 284.05C132.011 283.868 131.731 283.77 131.325 283.77H129.001V290H126.341ZM139.492 280.872H136.832V279.22H139.492V280.872ZM136.832 290V281.6H139.492V290H136.832ZM141.285 290V279.5H143.945V281.46H147.249C148.285 281.46 149.097 281.81 149.685 282.496C150.273 283.196 150.567 284.106 150.567 285.24V286.22C150.567 287.368 150.273 288.278 149.685 288.964C149.097 289.664 148.285 290 147.249 290H141.285ZM146.339 283.532H143.945V287.928H146.339C146.899 287.928 147.291 287.802 147.515 287.536C147.725 287.284 147.837 286.878 147.837 286.318V285.072C147.837 284.526 147.725 284.134 147.515 283.896C147.291 283.658 146.899 283.532 146.339 283.532ZM152.062 279.5H154.722V290H152.062V279.5ZM164.929 286.584H158.923V286.64C158.923 287.172 159.035 287.536 159.273 287.704C159.497 287.886 159.903 287.97 160.477 287.97H164.733V290H160.631C159.805 290 159.105 289.916 158.545 289.734C157.985 289.552 157.523 289.3 157.187 288.964C156.851 288.628 156.599 288.236 156.445 287.76C156.291 287.298 156.221 286.78 156.221 286.22V285.156C156.221 284.05 156.543 283.168 157.187 282.496C157.831 281.824 158.881 281.488 160.351 281.488H160.911C161.695 281.488 162.339 281.586 162.871 281.768C163.389 281.964 163.795 282.23 164.103 282.566C164.411 282.902 164.621 283.308 164.747 283.784C164.859 284.26 164.929 284.792 164.929 285.366V286.584ZM161.219 283.364H160.127C159.679 283.364 159.357 283.462 159.189 283.658C159.007 283.854 158.923 284.19 158.923 284.638V284.82H162.409V284.638C162.409 284.19 162.311 283.854 162.129 283.658C161.947 283.462 161.639 283.364 161.219 283.364ZM170.638 287.06L168.356 286.612C167.516 286.444 166.872 286.15 166.424 285.73C165.976 285.31 165.766 284.75 165.766 284.05C165.766 283.728 165.822 283.42 165.948 283.112C166.074 282.818 166.27 282.552 166.536 282.328C166.802 282.104 167.138 281.936 167.558 281.796C167.978 281.67 168.468 281.6 169.042 281.6H173.214V283.63H168.832C168.552 283.63 168.356 283.672 168.272 283.756C168.174 283.84 168.132 283.938 168.132 284.05C168.132 284.176 168.174 284.274 168.258 284.344C168.342 284.428 168.482 284.484 168.692 284.512L170.764 284.918C171.786 285.128 172.514 285.436 172.962 285.842C173.41 286.248 173.634 286.78 173.634 287.452C173.634 288.208 173.34 288.824 172.766 289.3C172.192 289.776 171.324 290 170.162 290H163.246V287.97H170.54C170.834 287.97 171.044 287.928 171.156 287.844C171.268 287.76 171.324 287.648 171.324 287.508C171.324 287.368 171.254 287.27 171.128 287.214C171.002 287.158 170.834 287.102 170.638 287.06Z" fill="white" fill-opacity="0.7"/>
<path d="M178.322 287.032V284.61H181.766V287.032H178.322ZM195.465 290H189.277C188.745 290 188.283 289.944 187.891 289.818C187.499 289.692 187.191 289.524 186.939 289.314C186.687 289.104 186.505 288.852 186.393 288.572C186.267 288.292 186.211 287.998 186.211 287.69C186.211 287.088 186.393 286.556 186.757 286.08C187.121 285.618 187.695 285.17 188.451 284.736L192.539 282.468C192.623 282.426 192.693 282.37 192.735 282.314C192.763 282.258 192.791 282.202 192.791 282.118C192.791 282.034 192.749 281.95 192.679 281.894C192.609 281.838 192.497 281.81 192.357 281.81H186.575V279.5H192.343C193.547 279.5 194.401 279.682 194.905 280.046C195.409 280.41 195.661 280.956 195.661 281.712C195.661 282.202 195.507 282.678 195.199 283.154C194.891 283.63 194.373 284.078 193.645 284.498L189.389 286.92C189.277 286.99 189.193 287.046 189.137 287.102C189.081 287.158 189.053 287.242 189.053 287.354C189.053 287.48 189.095 287.564 189.179 287.62C189.263 287.676 189.375 287.69 189.529 287.69H195.465V290ZM205.422 285.296V286.304C205.422 287.48 205.058 288.404 204.358 289.104C203.658 289.804 202.65 290.14 201.348 290.14H200.368C199.052 290.14 198.044 289.804 197.344 289.104C196.63 288.404 196.28 287.48 196.28 286.304V285.296C196.28 284.134 196.63 283.21 197.344 282.51C198.044 281.81 199.052 281.46 200.368 281.46H201.348C202.65 281.46 203.658 281.81 204.358 282.51C205.058 283.21 205.422 284.134 205.422 285.296ZM202.692 285.072C202.692 284.54 202.58 284.134 202.384 283.868C202.188 283.602 201.824 283.462 201.32 283.462H200.396C199.878 283.462 199.514 283.602 199.318 283.868C199.108 284.134 199.01 284.54 199.01 285.072V286.514C199.01 287.074 199.108 287.48 199.318 287.746C199.514 288.012 199.878 288.138 200.396 288.138H201.32C201.824 288.138 202.188 288.012 202.384 287.746C202.58 287.48 202.692 287.074 202.692 286.514V285.072ZM206.746 290V281.6H211.954C213.172 281.6 214.054 281.908 214.614 282.524C215.16 283.14 215.44 283.98 215.44 285.03V290H212.78V284.96C212.78 284.54 212.696 284.232 212.556 284.05C212.416 283.868 212.136 283.77 211.73 283.77H209.406V290H206.746ZM225.034 285.45V290H219.28C218.44 290 217.796 289.818 217.348 289.454C216.9 289.09 216.676 288.614 216.676 288.026C216.676 287.382 216.886 286.878 217.334 286.486C217.768 286.094 218.3 285.688 218.916 285.268L221.296 283.63H216.872V281.6H220.554C222.15 281.6 223.298 281.95 223.998 282.622C224.684 283.294 225.034 284.246 225.034 285.45ZM220.036 287.97H222.514V285.184L219.98 287.158C219.812 287.284 219.7 287.382 219.644 287.438C219.574 287.494 219.546 287.578 219.546 287.662C219.546 287.774 219.574 287.844 219.658 287.9C219.728 287.956 219.854 287.97 220.036 287.97ZM238.681 290L237.855 287.802H232.941L232.101 290H229.273L232.759 281.53C233.025 280.872 233.361 280.34 233.753 279.934C234.145 279.542 234.705 279.332 235.405 279.332C236.133 279.332 236.693 279.542 237.113 279.934C237.533 280.326 237.869 280.858 238.135 281.502L241.593 290H238.681ZM235.167 282.034L233.781 285.632H237.029L235.671 282.034C235.643 281.978 235.601 281.922 235.573 281.866C235.545 281.81 235.489 281.782 235.419 281.782C235.349 281.782 235.293 281.81 235.265 281.852C235.223 281.908 235.195 281.964 235.167 282.034Z" fill="white"/>
<defs>
<linearGradient id="paint0_linear_1594_6490" x1="189" y1="0" x2="189" y2="498" gradientUnits="userSpaceOnUse">
<stop stop-color="white"/>
<stop offset="0.485" stop-color="white"/>
<stop offset="1" stop-color="#A90F0F"/>
</linearGradient>
</defs>
</svg>
