<svg width="84" height="47" viewBox="0 0 84 47" fill="none" xmlns="http://www.w3.org/2000/svg">
<path d="M45.2196 46.2583V28.2625C45.6827 28.1635 46.1478 28.1301 46.6137 28.1315C47.6227 28.1343 48.6322 28.1576 49.6413 28.1645C50.6734 28.1714 51.7055 28.1638 52.7377 28.1717C53.4075 28.1769 54.0657 28.28 54.6884 28.5295C56.0477 29.0743 57.03 29.9972 57.3259 31.4675C57.6077 32.8681 57.4876 34.2289 56.5841 35.4284C56.3921 35.6831 56.2318 35.9619 56.0391 36.2575C56.2531 36.3901 56.4362 36.5276 56.6385 36.6249C57.833 37.1978 58.4822 38.2022 58.8569 39.4185C59.3024 40.8642 59.1039 42.25 58.411 43.5733C58.1138 44.1407 57.6703 44.5893 57.1515 44.9629C56.1692 45.6699 55.0583 46.0662 53.8679 46.1796C52.7628 46.2848 51.6488 46.2941 50.5382 46.3367C49.7596 46.3666 48.9803 46.402 48.2018 46.3989C47.3423 46.3955 46.4829 46.3528 45.6238 46.3223C45.4996 46.3178 45.3761 46.2841 45.2199 46.2587L45.2196 46.2583ZM50.3583 35.1796C50.7044 35.1607 51.0247 35.1483 51.3439 35.1246C51.7568 35.0937 52.1607 35.0198 52.546 34.8568C53.1179 34.6152 53.4437 34.1746 53.5021 33.5748C53.5407 33.1809 53.5066 32.7747 53.4588 32.3794C53.4041 31.9264 53.1316 31.6002 52.7177 31.415C52.501 31.318 52.2663 31.2452 52.0324 31.2039C51.11 31.041 50.18 31.1465 49.2528 31.1496C49.2349 31.1496 49.2171 31.175 49.1992 31.1888C49.1252 31.8824 49.1603 42.9903 49.2432 43.2457C50.0273 43.2595 50.8182 43.2901 51.6085 43.2808C52.0654 43.2753 52.5247 43.2289 52.9768 43.1598C54.0368 42.9979 54.8309 42.4968 55.0693 41.3739C55.1329 41.0742 55.1691 40.7611 55.1615 40.4555C55.1405 39.6127 54.7249 39.0233 53.9319 38.727C53.6442 38.6194 53.3391 38.5246 53.0356 38.5008C52.2825 38.4421 51.5259 38.4276 50.7708 38.3957C50.6397 38.3902 50.5083 38.3864 50.3579 38.3809V35.1796H50.3583Z" fill="white"/>
<path d="M3.8748 31.5713V46.7241H0.0596711C-0.00672983 46.469 -0.0246203 28.7945 0.0414367 28.3611C0.0761854 28.3525 0.117815 28.3329 0.159445 28.3329C2.04035 28.3305 3.92125 28.3147 5.80146 28.3357C6.82569 28.347 7.82962 28.5271 8.80533 28.8554C9.75112 29.1733 10.5063 29.7373 11.0757 30.555C11.9117 31.7549 12.3266 33.0754 12.1766 34.5406C12.048 35.7972 11.5137 36.8565 10.5603 37.7055C9.84608 38.3414 8.99731 38.6882 8.05738 38.9411C9.74045 41.5812 11.6905 44.016 13.4004 46.6601C13.3106 46.6759 13.2404 46.6997 13.1699 46.6993C11.7593 46.6921 10.3487 46.6797 8.93814 46.6766C8.77987 46.6766 8.68389 46.6185 8.59925 46.4958C8.20979 45.9297 7.80691 45.3722 7.42536 44.801C6.69977 43.7152 5.99207 42.6174 5.26269 41.5341C4.95683 41.08 4.80304 40.5906 4.80201 40.0496C4.79926 38.8923 4.7996 37.7351 4.80029 36.5781C4.80029 36.5121 4.81405 36.4462 4.82093 36.3863C5.26991 36.3317 5.70238 36.2918 6.12968 36.2221C6.36536 36.1836 6.59828 36.1107 6.82259 36.0268C8.19534 35.5123 8.50911 34.3598 8.20669 33.2328C8.04671 32.6362 7.68615 32.1924 7.13396 31.9137C6.62718 31.658 6.09012 31.4961 5.52003 31.4803C4.98435 31.4655 4.44523 31.4294 3.8748 31.5724V31.5713Z" fill="white"/>
<path d="M35.8082 35.8554V27.2187C36.0906 27.1335 39.015 27.108 39.6044 27.1754V46.2646C39.369 46.3313 36.3263 46.3498 35.8446 46.2811C35.8292 45.9302 35.8137 45.5703 35.7947 45.1413C35.588 45.2819 35.4287 45.3819 35.279 45.494C34.6484 45.9666 33.9685 46.333 33.19 46.5C31.4092 46.8822 29.8111 46.5042 28.4524 45.2902C27.5328 44.4687 26.9603 43.4163 26.6445 42.225C26.2836 40.8639 26.3335 39.5173 26.8685 38.2163C27.6481 36.3208 29.1127 35.2219 31.0854 34.7868C32.0133 34.582 32.9522 34.5957 33.8788 34.8466C34.3377 34.971 34.7609 35.1639 35.1352 35.4618C35.3213 35.61 35.5205 35.7423 35.7136 35.8819C35.7449 35.8729 35.7762 35.8643 35.8075 35.8554H35.8082ZM30.3186 40.4415C30.3282 41.2145 30.4985 41.8469 30.8962 42.3814C31.5213 43.2221 32.346 43.7029 33.4373 43.5754C34.6477 43.4338 35.5883 42.5505 35.8845 41.2922C36.1815 40.0311 35.7345 38.8257 34.7389 38.1452C33.7501 37.4694 32.3013 37.4351 31.3968 38.1833C30.6588 38.7941 30.3784 39.6197 30.3189 40.4415H30.3186Z" fill="white"/>
<path d="M25.0929 41.73H16.9434C16.7198 42.78 17.3986 43.8012 18.4641 44.0435C18.9613 44.1566 19.4649 44.158 19.969 44.0978C20.4778 44.037 20.9072 43.8191 21.2567 43.4403C21.427 43.2557 21.6108 43.0832 21.8113 42.8818C22.7124 43.2925 23.6148 43.7043 24.5372 44.125C24.4361 44.5195 24.1994 44.8007 23.9448 45.0543C22.9722 46.0236 21.8365 46.711 20.4575 46.9111C18.4524 47.2018 16.6069 46.7976 14.9665 45.5751C14.0686 44.9059 13.4816 44.0225 13.2078 42.9423C12.8875 41.6798 12.8462 40.4026 13.1451 39.1319C13.5188 37.543 14.4164 36.3259 15.8645 35.5529C17.573 34.6407 19.372 34.4389 21.2168 35.0559C22.8311 35.5955 23.9898 36.6493 24.6425 38.2524C25.0818 39.3313 25.1703 40.4463 25.1359 41.587C25.1348 41.6197 25.1173 41.6516 25.0932 41.7303L25.0929 41.73ZM21.6345 39.3894C21.5698 37.9087 20.5225 37.0374 19.0005 37.1869C17.851 37.3 16.865 38.4957 17.0005 39.3894H21.6348H21.6345Z" fill="white"/>
<path d="M60.4412 35.2387C61.6822 35.0614 62.8805 35.1253 64.128 35.1635V35.5498C64.128 37.4285 64.1201 39.3076 64.1342 41.1863C64.1373 41.607 64.1923 42.0318 64.2684 42.4466C64.3726 43.0145 64.7291 43.3795 65.2861 43.5427C65.9835 43.7469 66.6832 43.7782 67.3872 43.573C67.9025 43.4228 68.2277 43.0866 68.3887 42.5779C68.5149 42.1792 68.5459 41.7706 68.5459 41.3567C68.5459 39.4437 68.5459 37.5302 68.5459 35.6172C68.5459 35.4824 68.5459 35.3474 68.5459 35.1896H71.9654C71.9847 35.3611 72.0198 35.5285 72.0198 35.6959C72.0235 37.964 72.0263 40.2318 72.0191 42.4999C72.018 42.8653 71.9898 43.2341 71.9331 43.5946C71.8089 44.3814 71.3637 44.9836 70.764 45.4792C69.9971 46.113 69.1115 46.5034 68.1413 46.7004C66.4758 47.0386 64.8367 46.9832 63.2424 46.3409C63.0938 46.2811 62.9486 46.2123 62.8048 46.1412C61.3178 45.4056 60.4856 44.2405 60.4705 42.5529C60.4543 40.7663 60.4491 38.9793 60.4409 37.1927C60.4378 36.5524 60.4405 35.9117 60.4405 35.2387H60.4412Z" fill="white"/>
<path d="M80.3381 27.1156H83.9995V46.3749H80.3381V27.1156Z" fill="white"/>
<path d="M74.1023 27.1141H77.7547V46.3453H74.1023V27.1141Z" fill="white"/>
<path d="M5.52177 3.531C5.16603 3.41105 4.876 3.30725 4.58218 3.21548C4.08641 3.06047 3.61438 2.86112 3.20083 2.53941C2.5124 2.00391 2.24473 1.13502 2.52581 0.251342C2.67238 0.30118 2.82101 0.344831 2.96447 0.401199C3.43203 0.585426 3.89546 0.78134 4.36543 0.959037C4.80443 1.1247 5.26167 1.24706 5.68829 1.43817C5.97557 1.56671 6.24908 1.75438 6.48338 1.96541C6.8116 2.261 6.91826 2.64802 6.81022 3.09209C6.7132 3.4901 6.53705 3.85065 6.28693 4.1648C5.94495 4.59409 5.5689 4.99623 5.20869 5.41143C4.83402 5.84347 4.44456 6.26451 4.09329 6.71477C3.83663 7.04404 3.69832 7.43415 3.69488 7.86379C3.688 8.76396 4.2051 9.38813 5.08793 9.5538C5.6556 9.66035 6.20608 9.57889 6.75311 9.43591C7.30083 9.29292 7.80899 9.05542 8.29272 8.76602C8.71555 8.51305 9.14424 8.26764 9.55193 7.99165C10.6759 7.23102 11.8983 6.69793 13.2198 6.39993C14.0373 6.21571 14.7818 5.88094 15.475 5.4183C15.6846 5.27842 15.9003 5.14746 16.116 5.01685C16.6493 4.69377 17.2163 4.45386 17.828 4.32256C18.6096 4.15449 19.3335 3.85546 19.9986 3.40555C20.3392 3.17492 20.6932 2.95461 21.0661 2.78413C21.4697 2.5999 21.8984 2.46551 22.3243 2.33662C22.6116 2.24966 22.892 2.16339 23.1363 1.98122C23.6499 1.59765 24.1646 1.2151 24.6834 0.838395C24.9611 0.636639 25.2349 0.425258 25.5329 0.257873C26.1116 -0.0669315 26.7147 -0.0940844 27.3061 0.229689C27.6471 0.416322 27.9863 0.612579 28.3025 0.838052C29.7217 1.84821 31.146 2.85218 32.5418 3.89362C33.6404 4.71302 34.5875 5.69499 35.4026 6.79898C36.2279 7.91741 36.7347 9.16438 36.9435 10.5399C37.0791 11.4332 37.2088 12.3289 37.4823 13.1957C37.8226 14.2743 38.2943 15.291 38.9707 16.1984C39.2208 16.5342 39.5545 16.8084 39.8528 17.1082C40.0603 17.3168 40.3186 17.4811 40.4356 17.7698C40.0111 18.0114 39.6739 18.0094 39.3264 17.698C39.0381 17.4398 38.7849 17.1398 38.5341 16.8428C38.2977 16.563 38.0889 16.2602 37.8604 15.9736C37.6426 15.7003 37.3677 15.4982 37.0093 15.3439C37.0282 15.4412 37.0337 15.5144 37.0571 15.5814C37.3382 16.3788 37.7699 17.0913 38.3039 17.7423C38.4188 17.8825 38.5805 17.9843 38.7002 18.1217C38.8478 18.2909 38.9744 18.4785 39.1503 18.7116C38.8441 18.7559 38.6125 18.7067 38.3865 18.6614C37.9251 18.5686 37.5405 18.3266 37.1871 18.0217C36.9363 17.8052 36.6735 17.6014 36.4058 17.4058C36.1323 17.2065 35.8512 17.1989 35.5983 17.4467C35.2515 17.787 34.8194 17.8492 34.3622 17.8585C34.0415 17.865 33.7212 17.897 33.4006 17.9128C32.8322 17.941 32.2941 18.0884 31.7729 18.3101C31.5623 18.3998 31.3524 18.4978 31.1329 18.5579C30.4968 18.7325 30.0327 18.4125 29.9766 17.7612C29.9553 17.5124 29.9732 17.2597 29.9732 17.0154C29.742 16.8727 29.5383 16.7473 29.2933 16.5964C29.4058 16.3527 29.4994 16.0973 29.6353 15.8667C29.9319 15.3642 30.2508 14.8744 30.5598 14.3791C30.7837 14.0196 31.0125 13.6625 31.2269 13.2971C31.317 13.1431 31.3751 12.9706 31.4477 12.8063C31.4319 12.7867 31.4157 12.7671 31.3999 12.7479C31.2578 12.8025 31.1064 12.841 30.9757 12.9153C30.7166 13.062 30.4627 13.2191 30.2181 13.3882C29.6081 13.8099 28.9507 14.0182 28.2048 13.8831C28.0929 13.8629 27.9777 13.8615 27.8559 13.8508C27.762 13.6728 27.7888 13.4899 27.8291 13.3153C27.9089 12.9699 28.0142 12.6307 28.094 12.2856C28.1965 11.8401 28.3056 11.3944 28.3723 10.9427C28.437 10.5055 28.3847 10.0762 28.0919 9.69816C27.8673 9.84561 27.7726 10.0697 27.7186 10.3021C27.6147 10.7475 27.5356 11.1988 27.4458 11.6473C27.4121 11.8157 27.3808 11.9845 27.3426 12.1519C27.2232 12.6709 26.9748 13.1057 26.5434 13.4367C26.2987 13.6243 26.0786 13.8443 25.8539 14.0567C25.6196 14.2784 25.5584 14.5482 25.7029 14.8383C25.8195 15.0727 25.954 15.2999 26.1002 15.5171C26.2409 15.7258 26.4106 15.9141 26.5609 16.1166C26.7615 16.3871 26.8967 16.6861 26.9559 17.0209C26.9793 17.1535 27.0271 17.2869 27.0907 17.4058C27.1231 17.466 27.2146 17.4945 27.3233 17.566C27.3464 17.2511 27.3639 17.0047 27.3825 16.7586C27.4183 16.2826 27.2566 15.8849 26.9184 15.5498C26.789 15.4212 26.6617 15.2834 26.5671 15.1294C26.4804 14.9885 26.4395 14.8194 26.3758 14.6565C26.586 14.4726 26.7924 14.4582 27.0054 14.5444C27.1086 14.5864 27.2149 14.6503 27.2886 14.7321C27.8466 15.3508 28.2402 16.0667 28.3214 16.8971C28.3899 17.5976 28.0954 18.2194 27.6625 18.7621C27.5803 18.8652 27.4148 18.9515 27.2848 18.9556C27.0553 18.9628 26.8602 19.0381 26.6658 19.136C26.5533 19.1927 26.4405 19.2508 26.3362 19.3209C25.4892 19.8894 24.5279 20.1441 23.5419 20.3174C23.2742 20.3644 22.9928 20.3524 22.7189 20.3397C22.3309 20.3218 22.0446 20.1417 21.908 19.7592C21.8619 19.6303 21.801 19.5062 21.7446 19.3811C21.651 19.1742 21.5034 19.0346 21.2863 18.9446C20.622 18.6693 20.3106 18.1207 20.1527 17.4611C20.5294 17.1532 20.9299 17.0951 21.3648 17.2302C21.5179 17.2776 21.6703 17.3271 21.822 17.3783C22.0835 17.4666 22.2748 17.6327 22.41 17.876C22.5208 18.0757 22.6467 18.2689 22.7812 18.4534C23.0368 18.8044 23.3878 18.9346 23.8092 18.8363C24.3841 18.7026 24.8541 18.3806 25.2762 17.9815C25.4338 17.8327 25.4083 17.6461 25.3561 17.4673C25.248 17.0989 25.0024 16.8263 24.6951 16.6139C24.3938 16.4056 24.0913 16.1891 23.7624 16.033C23.2309 15.7808 22.8514 15.3903 22.5576 14.8961C22.464 14.7386 22.3653 14.5826 22.2493 14.4417C22.1433 14.3131 22.0112 14.2059 21.8774 14.076C21.5653 14.4795 21.7935 14.8771 21.799 15.2923C21.6383 15.2923 21.4934 15.3061 21.352 15.2903C20.4413 15.1879 19.5334 15.0487 18.6203 14.9816C17.7643 14.9187 16.9028 14.9332 16.0441 14.9071C15.8273 14.9005 15.6082 14.8861 15.3959 14.8445C14.907 14.7486 14.5619 14.4589 14.4081 13.9866C14.317 13.7068 14.2568 13.4088 14.2385 13.1153C14.2114 12.6819 14.2341 12.2454 14.2351 11.8102C14.2351 11.6996 14.2351 11.5889 14.2351 11.3995C13.9764 11.6191 13.8274 11.8305 13.7465 12.0752C13.5962 12.531 13.4627 12.9926 13.3375 13.4559C13.1913 13.9969 13.0674 14.5441 12.9219 15.0854C12.8716 15.2721 12.7928 15.4525 12.7144 15.6302C12.3335 16.4922 11.6671 16.916 10.7262 16.9686C9.93761 17.0126 9.14871 17.0813 8.36635 17.1865C7.66759 17.2804 7.00702 17.5196 6.43005 17.9396C6.22775 18.0867 6.04094 18.2599 5.87029 18.4428C5.76776 18.5524 5.71065 18.7043 5.60193 18.8903C5.87029 18.8607 6.03509 18.7607 6.19679 18.6624C6.49061 18.484 6.77651 18.2929 7.07067 18.1149C7.65451 17.7615 8.29375 17.6065 8.97256 17.6041C9.47727 17.6024 9.98199 17.6107 10.4864 17.6014C10.7375 17.5969 10.9894 17.5728 11.2388 17.5399C11.9203 17.4498 12.4712 17.1229 12.8888 16.5813C13.1125 16.2912 13.313 15.9835 13.5267 15.6859C13.6382 15.5309 13.7555 15.3803 13.9241 15.1559C13.9733 15.3649 14.0321 15.492 14.0266 15.6158C14.0156 15.8536 13.9967 16.0987 13.9299 16.3255C13.7414 16.9655 13.3801 17.5055 12.8943 17.9612C12.4952 18.3359 12.0022 18.4665 11.4721 18.4699C11.1631 18.472 10.8531 18.4493 10.5452 18.4218C9.42463 18.3214 8.41245 18.6157 7.48524 19.2378C7.24751 19.3973 7.00014 19.5426 6.75621 19.6928C6.49198 19.8551 6.21193 19.9025 5.89988 19.8585C5.57235 19.8125 5.23828 19.8142 4.9073 19.7901C4.75799 19.7791 4.65615 19.8276 4.5581 19.9499C4.34307 20.2173 4.10189 20.4638 3.87792 20.7247C3.6942 20.9388 3.47091 21.0539 3.18569 21.0391C2.86814 21.0223 2.55093 21.0048 2.21032 20.9866C2.18177 20.7865 2.15149 20.6312 2.1391 20.4741C2.11571 20.1806 2.20344 19.9193 2.45253 19.753C3.25519 19.2165 3.84592 18.4644 4.49686 17.7736C4.80237 17.4491 4.99641 17.0693 5.08862 16.6297C5.13988 16.385 5.2252 16.1454 5.31706 15.9121C5.42096 15.6484 5.62258 15.4903 5.9102 15.4494C6.17099 15.4123 6.43109 15.3714 6.69084 15.3288C6.78098 15.314 6.87043 15.2917 6.95816 15.2666C7.47251 15.1198 7.62562 14.9019 7.57986 14.363C7.56437 14.1811 7.53444 13.9993 7.49453 13.8213C7.34763 13.1665 7.29671 12.5093 7.4037 11.8429C7.42916 11.6848 7.44155 11.5246 7.456 11.3648C7.49178 10.9702 7.36827 10.8221 6.97881 10.8441C6.68258 10.8609 6.38911 10.9262 6.09358 10.9589C4.95065 11.0843 3.98044 10.7447 3.25313 9.83908C2.60254 9.02861 2.45219 8.11401 2.77662 7.12207C3.05702 6.26589 3.64087 5.62247 4.25189 4.99692C4.55603 4.68552 4.87118 4.38477 5.16499 4.0641C5.29332 3.92421 5.38037 3.74651 5.52246 3.531H5.52177ZM32.6419 12.0622C32.8917 12.1213 33.0844 12.0106 33.2636 11.8986C33.5272 11.7339 33.7518 11.7786 33.9868 11.956C34.3955 12.265 34.7324 12.6265 34.9353 13.105C35.0224 13.3102 35.1032 13.5274 35.3076 13.6594C35.5412 13.4367 35.5997 13.1775 35.5016 12.8964C35.4232 12.6719 35.3313 12.4468 35.2078 12.245C34.827 11.6233 34.2947 11.1359 33.7453 10.6684C33.652 10.589 33.5389 10.5337 33.4308 10.4646C32.8377 10.8492 32.6333 11.393 32.6423 12.0622H32.6419ZM26.8306 3.48254C26.6927 3.83278 26.7126 4.05035 26.9466 4.3095C27.0904 4.46898 27.2597 4.61128 27.4368 4.73364C27.8211 4.99932 28.117 5.33753 28.3503 5.7383C28.4707 5.94521 28.6001 6.14731 28.7401 6.3415C28.8 6.42434 28.8533 6.5467 28.9995 6.52264C29.0102 6.48346 29.0274 6.45046 29.0263 6.41781C28.984 5.25848 28.5082 4.33047 27.5352 3.67983C27.3274 3.54063 27.088 3.45848 26.831 3.48254H26.8306ZM32.8976 16.881C33.0462 16.8927 33.1807 16.905 33.3152 16.9133C33.7064 16.9377 33.8918 16.8133 33.9603 16.4331C33.9865 16.2874 33.9366 16.1276 33.9228 15.9904C33.2292 15.7722 32.7651 16.2568 32.8976 16.8806V16.881Z" fill="white"/>
<path d="M81.1755 0.423168C81.2708 0.794717 81.3506 1.16214 81.3125 1.54366C81.2588 2.08328 80.9743 2.48232 80.5328 2.7786C80.1083 3.06353 79.6301 3.22267 79.1422 3.35568C78.9217 3.41583 78.6987 3.46739 78.4631 3.52651C78.3815 3.83928 78.4803 4.11872 78.6423 4.36825C78.7717 4.5676 78.942 4.74289 79.1061 4.91749C79.4749 5.31001 79.8664 5.6819 80.2198 6.08713C80.6378 6.5666 80.9643 7.10279 81.0675 7.74827C81.1528 8.28205 81.0978 8.79555 80.8759 9.29187C80.6718 9.74797 80.3883 10.146 80.0281 10.4907C79.6046 10.896 79.0985 11.1321 78.5129 11.129C78.0103 11.1266 77.508 11.0647 77.0053 11.0293C76.7896 11.0142 76.5739 10.9987 76.3241 10.9808C76.2825 11.3809 76.2715 11.7552 76.3062 12.1292C76.3609 12.7159 76.2969 13.2926 76.1958 13.8694C76.1445 14.1615 76.1056 14.4588 76.0988 14.7548C76.0891 15.1676 76.2859 15.3886 76.6978 15.4607C76.9118 15.4982 77.1299 15.5164 77.3466 15.5326C77.9466 15.5773 78.3612 15.8423 78.5178 16.4561C78.6024 16.7881 78.7211 17.1116 78.8267 17.4381C78.9103 17.6962 79.0638 17.9007 79.2785 18.0709C79.4477 18.2052 79.5908 18.3719 79.7498 18.5197C80.1434 18.8858 80.5177 19.2766 80.9399 19.6065C81.4219 19.9836 81.5918 20.4648 81.5898 21.036C80.965 21.4278 80.2057 21.3244 79.747 20.7923C79.6273 20.6535 79.5138 20.5095 79.4013 20.3648C79.1811 20.0812 78.8835 19.9557 78.5346 19.9458C78.3519 19.9403 78.1675 19.9472 77.9852 19.9643C77.3435 20.0252 76.7645 19.9145 76.2619 19.4642C75.5972 18.8693 74.769 18.684 73.9079 18.6311C73.279 18.5923 72.6476 18.5947 72.018 18.5644C71.4383 18.5362 70.9622 18.2846 70.583 17.8478C70.2582 17.4735 69.9823 17.0669 69.7804 16.6132C69.6001 16.208 69.5822 15.7996 69.8443 15.3222C69.8794 15.3913 69.9066 15.4655 69.9507 15.5284C70.1616 15.8282 70.3914 16.1155 70.5882 16.4241C71.1534 17.3113 71.9974 17.7106 73.0065 17.7911C73.5422 17.8337 74.0844 17.7897 74.6225 17.812C75.0677 17.8306 75.5142 17.8677 75.9539 17.9361C76.4019 18.0055 76.8013 18.2094 77.1608 18.4885C77.4492 18.7122 77.743 18.9287 78.0598 19.1676C78.087 19.0446 78.1063 18.9587 78.1211 18.8913C77.9865 18.7985 77.8655 18.7184 77.7485 18.6332C77.3047 18.3097 76.8749 17.9653 76.416 17.6653C75.9168 17.3388 75.3484 17.1934 74.7518 17.1837C74.3393 17.1772 73.9265 17.1879 73.5139 17.1975C73.1107 17.2071 72.7154 17.1776 72.3242 17.0614C71.8367 16.9167 71.4744 16.6259 71.2088 16.2004C70.945 15.7773 70.7846 15.3119 70.6594 14.8352C70.4908 14.1931 70.3473 13.5449 70.1746 12.9039C70.0917 12.5959 69.9792 12.2938 69.8554 11.9993C69.7927 11.8501 69.6758 11.7236 69.5698 11.5672C69.4332 11.7119 69.4704 11.8415 69.4714 11.9597C69.4759 12.4179 69.5065 12.8771 69.4852 13.3339C69.4721 13.615 69.4146 13.9037 69.3204 14.1691C69.1583 14.6245 68.8108 14.9098 68.3312 14.973C67.9359 15.0253 67.5324 15.0304 67.1326 15.0311C66.7087 15.0318 66.2848 14.9988 65.8606 14.9878C65.111 14.9682 64.3764 15.0954 63.6415 15.2208C63.089 15.3153 62.5327 15.3745 61.9409 15.3755C61.8955 14.9854 62.1449 14.5939 61.8907 14.2234C61.6385 14.3004 61.4369 14.4533 61.3316 14.6895C60.9896 15.4559 60.3789 15.9271 59.6558 16.297C59.3516 16.4523 59.0633 16.6462 58.7912 16.8534C58.498 17.0762 58.3353 17.391 58.2816 17.7595C58.2606 17.9042 58.271 18.0238 58.4093 18.1166C58.7599 18.352 59.0839 18.6356 59.4555 18.8284C59.9888 19.1047 60.4078 18.9951 60.8114 18.5469C60.9645 18.3768 61.1111 18.1987 61.2404 18.01C61.5738 17.5237 62.0455 17.3064 62.6173 17.2968C62.9001 17.2924 63.1833 17.3309 63.4633 17.3498C63.5789 17.8767 63.421 18.2499 63.0154 18.5194C62.8437 18.6335 62.6638 18.7349 62.4842 18.8366C62.1948 19.0006 61.9743 19.223 61.8594 19.5409C61.8439 19.5839 61.8181 19.623 61.804 19.6663C61.6106 20.2589 61.1768 20.4703 60.5843 20.4562C60.0858 20.4442 59.5962 20.3703 59.1393 20.1823C58.186 19.7901 57.2402 19.379 56.3006 18.9549C55.7391 18.7012 55.5238 18.1867 55.4577 17.6213C55.3307 16.5328 55.7006 15.5931 56.408 14.7771C56.55 14.6132 56.7128 14.4612 56.9643 14.4901C57.2075 14.5179 57.3211 14.6527 57.2488 14.8878C57.1958 15.0593 57.1095 15.2274 57.0073 15.3755C56.8514 15.6013 56.6711 15.8103 56.4967 16.023C56.2758 16.2922 56.2149 16.5915 56.3099 16.9246C56.3691 17.1322 56.4272 17.3401 56.5105 17.6361C56.6158 17.4113 56.7076 17.2669 56.753 17.1095C56.9134 16.5506 57.1783 16.0547 57.5416 15.5986C57.7318 15.3597 57.8794 15.0803 58.0078 14.8015C58.1519 14.4884 58.0941 14.2952 57.8371 14.0663C57.6919 13.9371 57.5326 13.8237 57.3775 13.7054C56.8968 13.3387 56.5528 12.8706 56.4073 12.2849C56.2693 11.7305 56.1743 11.1654 56.0622 10.6048C56.0051 10.3178 55.9896 10.014 55.725 9.79265C55.4412 9.97344 55.317 10.245 55.318 10.5481C55.3194 10.9114 55.3479 11.2816 55.4233 11.6363C55.5279 12.1278 55.6916 12.6066 55.8203 13.0933C55.8867 13.3449 55.9325 13.602 55.9865 13.8515C55.724 13.9433 54.9974 13.9673 54.6365 13.9144C54.2425 13.8567 53.8919 13.6958 53.5575 13.4882C53.285 13.3191 53.0119 13.15 52.7311 12.9953C52.5949 12.92 52.4408 12.8778 52.2364 12.7973C52.3152 13.1225 52.4339 13.3627 52.5822 13.5882C52.9097 14.0859 53.2603 14.5692 53.5699 15.0775C53.8427 15.526 54.0733 16.0004 54.3206 16.4644C54.3413 16.5029 54.3457 16.5499 54.3643 16.6166C54.2205 16.7077 54.0801 16.8022 53.9339 16.8875C53.7925 16.9703 53.7227 17.0872 53.7141 17.2504C53.7024 17.4676 53.6907 17.6856 53.6628 17.9011C53.5919 18.4531 53.2892 18.6844 52.7339 18.5902C52.4531 18.5428 52.1762 18.4623 51.9047 18.3747C51.6326 18.287 51.3684 18.1736 51.1021 18.0684C50.7563 17.932 50.3992 17.8643 50.0269 17.8743C49.8435 17.8791 49.6598 17.8715 49.4764 17.8763C49.0388 17.8877 48.6366 17.7832 48.2778 17.5261C48.2128 17.4797 48.1412 17.4422 48.071 17.403C47.7655 17.2319 47.4796 17.2611 47.2112 17.4862C47.0268 17.6409 46.8263 17.7794 46.6573 17.9488C46.1179 18.4902 45.4745 18.7607 44.677 18.7229C44.719 18.6507 44.7513 18.5737 44.8022 18.5118C44.8965 18.3967 44.9928 18.2812 45.1036 18.1822C45.9163 17.4553 46.3374 16.4888 46.7475 15.5154C46.7595 15.4869 46.7557 15.4518 46.7619 15.3972C46.4285 15.4229 46.1557 15.5494 45.9627 15.8038C45.7346 16.1042 45.5216 16.4173 45.319 16.7359C45.0427 17.17 44.7035 17.5336 44.2435 17.7735C43.9913 17.9052 43.7281 17.9688 43.4505 17.8516C43.4102 17.8347 43.3762 17.8034 43.3098 17.7595C43.4092 17.6216 43.4911 17.4852 43.595 17.369C43.7477 17.1985 43.9084 17.0332 44.0804 16.8823C45.1624 15.932 45.7776 14.7018 46.1588 13.3486C46.3852 12.5457 46.5214 11.7178 46.7144 10.9052C46.969 9.83492 47.2787 8.78077 47.7459 7.78024C47.9891 7.25918 48.3125 6.79139 48.6769 6.34285C49.8325 4.91887 51.2655 3.82278 52.771 2.80438C53.7013 2.17505 54.6131 1.51891 55.5368 0.8803C55.8097 0.691604 56.0845 0.500503 56.3777 0.347553C57.0479 -0.00131086 57.7219 0.0158745 58.38 0.395328C58.9222 0.707759 59.3733 1.13258 59.7896 1.59006C59.9953 1.81622 60.2121 2.00938 60.4935 2.12246C60.7378 2.22076 60.9841 2.31631 61.2356 2.3933C62.1817 2.68374 63.0911 3.05941 63.9384 3.57222C64.6117 3.97951 65.3363 4.25861 66.0908 4.46242C66.8749 4.67449 67.6022 4.99655 68.2449 5.49733C69.01 6.09366 69.8736 6.46487 70.8238 6.65184C71.825 6.84879 72.7498 7.23512 73.6024 7.7988C74.0899 8.1212 74.5932 8.41919 75.0818 8.73987C75.69 9.1396 76.3461 9.4376 77.0363 9.65723C77.6174 9.84214 78.2109 9.85555 78.7989 9.68335C79.7887 9.3936 80.2614 8.45975 79.9142 7.48843C79.7539 7.0392 79.488 6.65253 79.1704 6.30161C78.5941 5.66403 78.0144 5.02954 77.4309 4.39815C77.0126 3.94549 76.8478 3.42924 76.974 2.81778C77.0528 2.43695 77.24 2.12143 77.562 1.92414C77.97 1.67392 78.3949 1.43951 78.837 1.25872C79.5681 0.959696 80.3188 0.708446 81.0616 0.438292C81.0912 0.427637 81.125 0.428324 81.1721 0.42145L81.1755 0.423168ZM48.4006 13.7508C48.5871 13.647 48.6414 13.4686 48.7113 13.304C48.9273 12.7953 49.2779 12.3959 49.708 12.0594C49.9894 11.8394 50.2808 11.7858 50.5894 12.0082C50.6448 12.0481 50.7064 12.0804 50.769 12.1086C51.0425 12.2316 51.1826 12.1539 51.1568 11.8649C51.1028 11.2555 50.7979 10.8025 50.2674 10.4924C50.1886 10.5536 50.1301 10.5901 50.082 10.6378C49.6268 11.0884 49.1668 11.5342 48.7237 11.9965C48.5836 12.1426 48.4636 12.3213 48.3813 12.5062C48.2011 12.9118 48.1206 13.3291 48.4006 13.7511V13.7508ZM56.9887 3.55057C56.8263 3.587 56.6718 3.59456 56.5425 3.6554C55.5145 4.13934 54.9141 4.95393 54.719 6.06651C54.6881 6.24283 54.7097 6.42465 54.8425 6.62641C54.943 6.53979 55.0366 6.48171 55.0982 6.39956C55.1584 6.31913 55.1931 6.21705 55.2265 6.12013C55.4178 5.56332 55.7835 5.15637 56.2882 4.86422C56.4169 4.78963 56.5418 4.70783 56.6608 4.61915C57.029 4.34488 57.1212 4.06235 56.9887 3.55091V3.55057ZM50.4983 16.9827C50.5636 16.9566 50.7061 16.9146 50.8323 16.8442C50.9383 16.785 50.9875 16.6823 50.9318 16.5517C50.7921 16.2245 50.5578 16.0045 50.2027 15.9461C49.9189 15.8993 49.7162 16.1145 49.7517 16.3997C49.7899 16.7074 50.1064 16.9847 50.4983 16.9827Z" fill="white"/>
<path d="M24.4653 18.1087C24.1994 18.1922 23.9644 18.2836 23.7211 18.338C23.3286 18.4253 23.1036 18.2916 23.0072 17.9001C22.9401 17.6275 22.9216 17.3429 22.8779 17.0398C23.288 16.9332 23.6681 16.8868 24.0535 16.9312C24.2799 16.9573 24.4378 17.1051 24.4598 17.3319C24.4846 17.5876 24.4653 17.8475 24.4653 18.1087Z" fill="white"/>
<path d="M60.7054 17.0284C60.8647 17.4037 60.8087 17.7069 60.6917 17.9935C60.5792 18.2695 60.3549 18.4166 60.0456 18.4056C59.9778 18.4032 59.909 18.396 59.8426 18.3812C59.1786 18.2358 59.1397 17.9853 59.2749 17.4295C59.3324 17.1927 59.4875 17.0394 59.7259 17.0256C60.0511 17.0067 60.3783 17.0256 60.7054 17.0284Z" fill="white"/>
<path d="M1.45787 18.9023C1.62232 19.4963 1.57794 20.0579 1.41865 20.613C1.32576 20.9374 1.19192 21 0.854756 20.9189C0.73434 20.89 0.614955 20.8563 0.475616 20.8195C0.510709 20.271 0.566789 19.742 0.741564 19.2313C0.798676 19.0646 0.909459 18.9639 1.08836 18.9443C1.2105 18.9309 1.33229 18.9168 1.45787 18.9023Z" fill="white"/>
<path d="M83.2701 20.9931C82.9691 21.0584 82.7358 21.1086 82.4836 21.1633C82.1368 20.6226 82.0577 20.0407 82.1808 19.4251C82.2142 19.2581 82.3074 19.1326 82.5046 19.1261C82.7372 19.1182 82.9381 19.2034 82.9763 19.387C83.0857 19.9098 83.1703 20.438 83.2697 20.9931H83.2701Z" fill="white"/>
<path d="M80.3705 17.6512C80.6378 17.456 80.8766 17.4866 81.1105 17.6691C81.1917 17.7324 81.275 17.7932 81.3606 17.8502C81.6675 18.0544 81.8093 18.3287 81.7315 18.6999C80.944 19.057 80.3381 18.5978 80.3705 17.6512Z" fill="white"/>
<path d="M1.91992 18.5266C1.85249 18.119 1.99045 17.8402 2.32039 17.6629C2.52097 17.5549 2.72293 17.4391 2.9383 17.3717C3.20425 17.2889 3.33912 17.4164 3.29542 17.6945C3.2359 18.0746 3.03807 18.384 2.71364 18.5881C2.61111 18.6527 2.4532 18.6548 2.32418 18.6438C2.19138 18.6325 2.06305 18.5706 1.91958 18.5266H1.91992Z" fill="white"/>
<path d="M32.6419 12.0622C32.633 11.393 32.8377 10.8492 33.4305 10.4646C33.5385 10.5337 33.652 10.5894 33.7449 10.6684C34.2947 11.1362 34.8266 11.6236 35.2075 12.245C35.331 12.4468 35.4228 12.6719 35.5013 12.8963C35.5997 13.1775 35.5409 13.4366 35.3072 13.6594C35.1025 13.5274 35.022 13.3102 34.935 13.105C34.7317 12.6265 34.3952 12.2649 33.9864 11.9559C33.7515 11.7783 33.5271 11.7339 33.2633 11.8985C33.084 12.0106 32.8917 12.1209 32.6416 12.0622H32.6419Z" fill="white"/>
<path d="M26.8306 3.48254C27.0876 3.45848 27.3267 3.54097 27.5349 3.67983C28.5078 4.33047 28.9837 5.25848 29.026 6.41781C29.027 6.45012 29.0098 6.48311 28.9991 6.52264C28.8529 6.5467 28.7996 6.42434 28.7397 6.34151C28.6 6.14765 28.4703 5.94521 28.3499 5.7383C28.1167 5.33719 27.8208 4.99933 27.4365 4.73364C27.2596 4.61128 27.0904 4.46899 26.9462 4.3095C26.7126 4.05069 26.6927 3.83278 26.8303 3.48254H26.8306Z" fill="white"/>
<path d="M32.8975 16.881C32.7651 16.2572 33.2295 15.7725 33.9228 15.9908C33.9366 16.1279 33.9868 16.2874 33.9603 16.4335C33.8918 16.8136 33.7064 16.938 33.3152 16.9136C33.1807 16.905 33.0462 16.893 32.8975 16.8813V16.881Z" fill="white"/>
<path d="M48.4006 13.7508C48.1206 13.329 48.2011 12.9114 48.3814 12.5059C48.4636 12.3213 48.5837 12.1422 48.7237 11.9961C49.1668 11.5338 49.6268 11.0881 50.082 10.6375C50.1302 10.59 50.1886 10.5532 50.2674 10.4921C50.7979 10.8021 51.1028 11.2551 51.1568 11.8645C51.1826 12.1536 51.0426 12.2312 50.7691 12.1082C50.7068 12.08 50.6449 12.0477 50.5895 12.0078C50.2805 11.7854 49.9891 11.8387 49.708 12.059C49.278 12.3955 48.927 12.7953 48.7113 13.3036C48.6415 13.4682 48.5871 13.6466 48.4006 13.7504V13.7508Z" fill="white"/>
<path d="M56.9887 3.55064C57.1212 4.06207 57.029 4.3446 56.6608 4.61888C56.5418 4.70756 56.4165 4.78936 56.2882 4.86395C55.7835 5.15644 55.4178 5.56339 55.2265 6.11985C55.1931 6.21678 55.1584 6.3192 55.0982 6.39929C55.0366 6.48143 54.943 6.53952 54.8425 6.62614C54.7097 6.42472 54.6881 6.24256 54.719 6.06624C54.9141 4.95365 55.5145 4.13906 56.5425 3.65512C56.6718 3.59429 56.8267 3.58673 56.9887 3.55029V3.55064Z" fill="white"/>
<path d="M50.4983 16.9827C50.1064 16.9848 49.7899 16.7074 49.7517 16.3998C49.7163 16.1145 49.9189 15.8994 50.2027 15.9461C50.5578 16.0045 50.7921 16.2245 50.9318 16.5517C50.9875 16.682 50.9383 16.7847 50.8324 16.8442C50.7061 16.915 50.5637 16.9566 50.4983 16.9827Z" fill="white"/>
</svg>
