<svg width="35" height="49" viewBox="0 0 35 49" fill="none" xmlns="http://www.w3.org/2000/svg">
<mask id="mask0_1108_3911" style="mask-type:luminance" maskUnits="userSpaceOnUse" x="0" y="0" width="35" height="49">
<path d="M34.7455 0H0V49H34.7455V0Z" fill="white"/>
</mask>
<g mask="url(#mask0_1108_3911)">
<path d="M15.3113 1.62058C15.0497 1.55098 14.834 1.49707 14.6209 1.43498C14.5657 1.41861 14.481 1.40632 14.4918 1.32171C14.5018 1.2412 14.5798 1.27532 14.6296 1.26918C15.078 1.21186 15.5271 1.07266 15.9776 1.23574C16.2398 1.33059 16.4899 1.45955 16.7481 1.56667C16.9995 1.67039 17.2577 1.72702 17.5219 1.61171C17.7243 1.52301 17.7545 1.43907 17.6322 1.25963C17.4997 1.06652 17.4829 0.871373 17.5663 0.655755C17.6376 0.470841 17.7022 0.283881 17.7593 0.0941909C17.7962 -0.0286295 17.8487 -0.0204415 17.9126 0.0628036C18.1492 0.37122 18.4747 0.572509 18.7745 0.804504C19.0434 1.01261 19.2821 1.25212 19.4677 1.54074C19.5282 1.63559 19.5914 1.67926 19.7043 1.66766C20.4426 1.58851 21.006 1.90921 21.4571 2.4735C21.5694 2.61406 21.7018 2.69935 21.882 2.713C22.3285 2.74712 22.7769 2.79079 23.222 2.73688C23.6603 2.68434 24.0221 2.80444 24.3179 3.134C24.3791 3.20224 24.4503 3.28071 24.3784 3.37623C24.3158 3.45879 24.221 3.46835 24.131 3.4199C23.5037 3.08147 22.9759 3.4779 22.4185 3.65736C22.3795 3.66963 22.3392 3.69829 22.3412 3.74743C22.3439 3.80405 22.3984 3.80815 22.4354 3.81293C23.1265 3.90095 23.6892 4.27214 24.2453 4.65698C24.3643 4.73954 24.4967 4.77843 24.6413 4.77366C25.1133 4.75865 25.5153 4.93605 25.8676 5.24106C26.0485 5.398 26.228 5.55493 26.4391 5.67161C26.4989 5.70436 26.5467 5.76032 26.5957 5.81013C26.6253 5.83947 26.6515 5.87837 26.628 5.92339C26.6038 5.96911 26.5581 5.96502 26.5164 5.95752C26.3658 5.92818 26.2098 5.91658 26.078 5.82377C25.6934 5.55289 25.2826 5.45122 24.8087 5.53173C24.3899 5.6027 23.977 5.50581 23.5749 5.35706C23.2542 5.23902 22.9207 5.15441 22.5926 5.0582C22.5073 5.03295 22.3956 4.99201 22.3554 5.10732C22.319 5.21172 22.4185 5.27381 22.4959 5.31885C22.629 5.39595 22.7662 5.46896 22.9073 5.52832C23.2589 5.67639 23.5494 5.90293 23.7626 6.22158C23.944 6.49247 24.1901 6.5955 24.5082 6.61597C25.1664 6.65895 25.7668 6.87185 26.2589 7.33924C26.3557 7.43136 26.4532 7.52347 26.5097 7.64971C26.548 7.73568 26.5594 7.82711 26.4774 7.87966C26.392 7.93425 26.3638 7.8278 26.3188 7.78345C26.228 7.69543 26.1527 7.58762 26.0532 7.51256C25.7943 7.31604 25.5186 7.1864 25.1764 7.29012C25.0043 7.34198 24.8195 7.35494 24.6386 7.37404C24.221 7.41772 23.8775 7.24781 23.5622 6.98648C23.472 6.91211 23.3477 6.73879 23.2589 6.83636C23.1682 6.93667 23.3497 7.03629 23.4304 7.12363C23.5118 7.21165 23.5992 7.29421 23.6826 7.38019C23.9185 7.62515 24.1545 7.84554 24.5175 7.90968C24.7804 7.95608 25.0299 8.098 25.2477 8.26927C25.4131 8.3996 25.5906 8.4842 25.803 8.48967C25.871 8.49171 25.9571 8.49376 25.9677 8.58451C25.9765 8.65616 25.908 8.69368 25.8528 8.72303C25.7123 8.79808 25.5523 8.84448 25.4071 8.78717C24.8578 8.57086 24.2674 8.50945 23.7148 8.30885C23.5097 8.23447 23.3268 8.11711 23.1393 8.00589C22.9262 7.87966 22.6989 7.78072 22.4441 7.8858C22.3809 7.91172 22.2995 7.93971 22.3002 8.02227C22.3002 8.11097 22.3903 8.12257 22.4535 8.14099C22.8233 8.24676 23.1918 8.34911 23.5299 8.5463C23.8634 8.74077 24.166 8.95506 24.3199 9.33574C24.3838 9.49477 24.5048 9.61139 24.6621 9.69603C24.9055 9.82708 25.1179 9.99698 25.245 10.259C25.3385 10.4514 25.5241 10.5292 25.7069 10.6049C25.8104 10.6479 25.918 10.6807 26.0001 10.7639C26.0371 10.8015 26.0592 10.8465 26.0445 10.8983C26.0276 10.9584 25.9732 10.9604 25.9241 10.9611C25.5758 10.9632 25.2383 10.9393 24.9835 10.6432C24.853 10.4916 24.6917 10.3674 24.4947 10.3279C23.8754 10.2037 23.345 9.85568 22.7634 9.63732C22.6686 9.60186 22.553 9.48524 22.4804 9.56711C22.393 9.66395 22.5207 9.76703 22.5772 9.85915C22.7655 10.1669 23.0599 10.3484 23.3592 10.5196C23.6301 10.6745 23.8762 10.858 24.0866 11.09C24.2257 11.2435 24.3306 11.4135 24.3825 11.6202C24.4773 11.9976 24.7213 12.2268 25.0924 12.3251C25.3055 12.3818 25.5375 12.3926 25.7069 12.5687C25.8098 12.6758 25.8111 12.7461 25.6538 12.7857C24.9902 12.9528 24.4342 12.7338 23.9757 12.261C23.77 12.0487 23.5615 11.8932 23.2703 11.8447C23.0216 11.8037 22.7836 11.7171 22.5483 11.6271C22.4064 11.5732 22.2599 11.5575 22.1173 11.6134C22.0144 11.6536 21.952 11.7513 22.0911 11.8011C22.5846 11.9757 22.9207 12.3319 23.2253 12.7386C23.3107 12.8525 23.4573 12.8976 23.5857 12.9501C24.1599 13.1855 24.5041 13.655 24.7946 14.1736C24.8759 14.3182 24.9552 14.4533 25.089 14.5522C25.1341 14.5857 25.1912 14.6232 25.159 14.6887C25.1287 14.7508 25.0655 14.7706 24.9969 14.7576C24.9055 14.7405 24.8107 14.7119 24.7582 14.6355C24.4322 14.1606 23.897 14.0357 23.4257 13.8051C23.1964 13.6925 22.9799 13.5451 22.6673 13.4878C22.8078 13.715 22.9329 13.8836 23.1224 13.9968C23.2066 14.0473 23.2912 14.0978 23.3706 14.1558C23.4297 14.1988 23.5225 14.2411 23.4728 14.3366C23.4318 14.4158 23.3437 14.4028 23.265 14.3919C23.1507 14.3762 23.0485 14.3312 22.9632 14.2547C22.7823 14.0937 22.5543 14.0466 22.3345 13.9798C22.2874 13.9654 22.2303 13.9483 22.1973 13.994C22.1624 14.0425 22.2081 14.0869 22.2323 14.1271C22.3634 14.3441 22.5839 14.4219 22.8038 14.4942C22.9362 14.5379 23.076 14.5563 23.2125 14.5884C23.4479 14.6437 23.6603 14.7412 23.8426 14.9084C24.1196 15.1636 24.414 15.3902 24.8039 15.4365C24.8954 15.4475 24.9338 15.5068 24.9452 15.5942C24.9599 15.7054 24.8813 15.7265 24.8066 15.7436C24.4153 15.8343 24.0428 15.7572 23.6872 15.5894C23.5165 15.5089 23.3584 15.4024 23.1931 15.311C22.8347 15.1131 22.4696 15.1377 22.0864 15.2843C22.1556 15.3888 22.2572 15.384 22.3459 15.3854C22.9181 15.397 23.4149 15.5709 23.7941 16.0315C23.9017 16.1625 24.057 16.2423 24.1962 16.3372C24.2553 16.3782 24.3562 16.4116 24.3071 16.5112C24.2534 16.6204 24.1579 16.559 24.0866 16.5297C23.9448 16.4703 23.8056 16.4027 23.6697 16.3297C23.4304 16.2022 23.1789 16.1701 22.916 16.2151C22.2976 16.3208 21.6911 16.312 21.1075 16.037C21.0221 15.9967 20.8836 15.906 20.8352 16.0267C20.7841 16.1537 20.9475 16.1721 21.0362 16.2137C21.48 16.4232 21.9298 16.6129 22.4058 16.7371C22.6606 16.8033 22.875 16.9547 23.0546 17.1512C23.1783 17.2864 23.3046 17.4194 23.4277 17.5559C23.8862 18.0642 24.4907 18.0287 25.0366 17.7265C25.0917 17.6958 25.1388 17.6514 25.1933 17.62C25.2504 17.5873 25.3169 17.517 25.3774 17.5947C25.4279 17.6596 25.3795 17.7367 25.3364 17.7872C25.0957 18.0724 24.7677 18.1843 24.418 18.2498C24.0106 18.3256 23.6153 18.2683 23.257 18.0697C22.5033 17.6514 21.6655 17.5081 20.8547 17.2775C20.8358 17.2721 20.8137 17.2775 20.7592 17.2775C20.8937 17.4884 21.0887 17.5777 21.283 17.62C21.8813 17.7504 22.36 18.0745 22.7843 18.5029C22.873 18.593 22.9753 18.6694 23.0701 18.7541C23.1171 18.7957 23.1675 18.8373 23.1829 18.9035C23.2051 18.999 23.2563 19.1144 23.1621 19.1798C23.0821 19.2345 23.0055 19.1389 22.947 19.087C22.6404 18.8148 22.3325 18.546 21.9224 18.447C21.8007 18.4177 21.6756 18.3992 21.5512 18.3835C21.4988 18.3768 21.4248 18.3672 21.4134 18.4415C21.4026 18.5111 21.4705 18.535 21.525 18.546C21.8289 18.6081 22.087 18.752 22.3076 18.9731C22.4481 19.1144 22.5645 19.2672 22.6505 19.4514C22.7594 19.6861 22.9281 19.8758 23.1567 20.0034C23.2079 20.0321 23.2919 20.0423 23.2576 20.133C23.2227 20.2251 23.1406 20.232 23.0633 20.2054C22.875 20.1406 22.719 20.0191 22.5651 19.8956C22.28 19.6664 22.0044 19.4234 21.6817 19.2488C21.4221 19.1082 21.1566 18.9902 20.854 18.9669C20.5924 18.9465 20.3518 18.8489 20.1447 18.6769C20.0956 18.6367 20.0479 18.5937 19.9941 18.5609C19.7399 18.4033 19.666 18.432 19.5981 18.7207C19.4112 19.5196 19.5524 20.2777 19.8408 21.0303C20.3491 22.3595 21.2123 23.4396 22.2013 24.4093C22.5994 24.8002 23.1151 25.0814 23.5702 25.4232C24.8033 26.3499 25.7688 27.5207 26.5776 28.8315C26.9232 29.3917 27.0946 30.0235 27.2445 30.6588C27.2795 30.8068 27.3366 30.8628 27.4799 30.8628C27.74 30.8628 27.9989 30.8458 28.2463 30.7611C29.5728 30.3087 30.5423 29.4654 31.0378 28.1109C31.2328 27.5767 31.2685 27.0131 31.2859 26.4542C31.3296 25.0964 31.1454 23.7678 30.7615 22.4626C30.3978 21.2248 30.3252 19.972 30.7911 18.7418C31.1353 17.8329 31.7269 17.1014 32.488 16.5119C32.7052 16.3441 32.925 16.1803 33.147 16.0185C33.2377 15.9523 33.3312 15.8896 33.43 15.8371C33.4945 15.8023 33.5806 15.7531 33.6384 15.8364C33.6962 15.9197 33.623 15.9844 33.5665 16.0343C33.2599 16.3059 32.9715 16.5958 32.7146 16.9159C32.1687 17.5955 31.7512 18.3427 31.571 19.2099C31.5058 19.5251 31.5011 19.843 31.5326 20.1638C31.5488 20.3255 31.6012 20.3255 31.7108 20.2341C32.4759 19.5947 33.2041 18.9226 33.6828 18.0199C33.7783 17.8397 33.902 17.6739 34.0169 17.5047C34.0519 17.4535 34.0983 17.3914 34.1689 17.4133C34.2321 17.433 34.2556 17.5013 34.2731 17.5641C34.3276 17.7599 34.2624 17.9455 34.2146 18.129C34.0935 18.5876 33.8704 18.9943 33.59 19.3723C33.2539 19.8253 32.8908 20.2586 32.6602 20.7847C32.4537 21.2562 32.394 21.7352 32.5136 22.2374C32.5896 22.5574 32.7159 22.6086 32.9553 22.3807C33.508 21.8552 33.943 21.2432 34.2274 20.5261C34.2952 20.3555 34.3665 20.1863 34.4405 20.0185C34.4654 19.9618 34.4923 19.8861 34.5642 19.8902C34.6482 19.895 34.6658 19.9836 34.6852 20.0478C34.7847 20.3794 34.7572 20.707 34.6368 21.0283C34.5265 21.3224 34.3874 21.6083 34.1817 21.8382C33.6182 22.4693 33.4784 23.2343 33.4347 24.0436C33.3984 24.7177 33.51 25.3734 33.6236 26.0312C33.7984 27.0459 33.7964 28.0578 33.4844 29.0444C33.0522 30.4131 32.1398 31.3228 30.8113 31.8071C30.7191 31.8406 30.6251 31.8679 30.5316 31.8966C30.4293 31.9287 30.4045 31.9811 30.4562 32.0856C30.6109 32.3981 30.6916 32.7351 30.7675 33.0756C30.859 33.4871 30.8146 33.8699 30.6331 34.2527C30.5047 34.5229 30.5356 34.8204 30.5995 35.1096C30.6553 35.3621 30.7326 35.6133 30.6748 35.9313C30.424 35.601 30.2397 35.2892 30.1578 34.9186C30.0663 34.5052 30.1443 34.0814 30.0771 33.6666C30.0098 33.2517 29.8687 32.8716 29.5762 32.5639C29.5177 32.5025 29.4458 32.3919 29.3529 32.4581C29.271 32.5168 29.3133 32.6287 29.359 32.7106C30.0804 34.0043 29.6535 35.1881 29.0101 36.3427C28.8561 36.619 28.6484 36.8654 28.4305 37.098C28.2712 37.2686 28.1387 37.461 28.0204 37.663C27.8664 37.925 27.7676 38.1999 27.8107 38.5125C27.8166 38.5589 27.8395 38.6223 27.7857 38.6476C27.7219 38.6777 27.6822 38.6156 27.6533 38.5719C27.463 38.2846 27.3528 37.9803 27.4664 37.6289C27.5914 37.2406 27.8026 36.8981 28.0003 36.5474C28.2786 36.0534 28.5226 35.543 28.6242 34.9774C28.6833 34.645 28.6564 34.3107 28.5832 33.9832C28.5415 33.7948 28.4144 33.7614 28.282 33.8978C28.1851 33.9974 28.1266 34.1223 28.134 34.2629C28.1468 34.5194 28.0829 34.759 27.9753 34.9821C27.8134 35.3192 27.7138 35.6685 27.7017 36.0431C27.7004 36.0834 27.7024 36.1291 27.6378 36.1618C27.5222 35.9811 27.4765 35.7804 27.4664 35.5689C27.4422 35.0803 27.5423 34.6095 27.6594 34.1401C27.7542 33.7593 27.8181 33.3751 27.7292 32.9829C27.7138 32.9146 27.6903 32.8464 27.66 32.7836C27.6043 32.6676 27.5007 32.6205 27.3817 32.6369C27.2526 32.6547 27.2291 32.7651 27.217 32.8764C27.1861 33.1732 27.1417 33.4673 27.0678 33.7566C26.8297 34.6846 26.2945 35.4345 25.6726 36.1264C24.9444 36.9363 24.0583 37.5498 23.1588 38.1406C22.746 38.4122 22.475 38.7896 22.315 39.2467C22.0931 39.8799 22.1839 40.5043 22.5658 41.0304C22.947 41.5557 22.9289 42.1309 22.9221 42.7164C22.9194 42.9675 22.715 43.0917 22.516 43.1899C21.8451 43.5195 21.2359 43.946 20.6503 44.4086C19.9666 44.9497 19.4004 45.6081 18.8559 46.2864C18.7886 46.3703 18.7443 46.4645 18.7166 46.5695C18.6326 46.8923 18.4438 47.1222 18.131 47.2423C18.047 47.2751 17.9657 47.3194 17.8891 47.3672C17.6988 47.4853 17.6336 47.6599 17.6826 47.879C17.6967 47.9411 17.7162 48.0017 17.7344 48.0632C17.8345 48.4009 17.7794 48.5422 17.4709 48.7039C17.1555 48.869 16.8126 48.9373 16.463 48.9714C15.8384 49.0328 15.2186 48.9979 14.608 48.8465C14.3492 48.7816 14.3183 48.7128 14.3929 48.4487C14.4561 48.2242 14.594 48.0455 14.7371 47.8701C15.0484 47.4894 15.4175 47.1754 15.831 46.9162C16.2008 46.6842 16.5175 46.4173 16.6567 45.9684C16.7246 45.7487 16.9343 45.617 17.1125 45.4798C17.9987 44.7962 18.8841 44.1125 19.6902 43.3298C19.9693 43.0596 20.2294 42.7709 20.4707 42.4666C20.7767 42.0805 20.7814 41.8846 20.5253 41.4724C19.8059 40.3152 19.2074 39.1027 18.8848 37.7639C18.4639 36.0199 18.7247 34.3864 19.6546 32.8614C19.9054 32.4506 20.142 32.033 20.2657 31.5609C20.3363 31.2913 20.378 31.019 20.3329 30.7393C20.3229 30.6752 20.3135 30.5987 20.2388 30.5919C20.1669 30.5851 20.1346 30.6548 20.1158 30.7168C20.0493 30.9406 19.9981 31.1699 19.9181 31.3882C19.7561 31.8283 19.5248 32.235 19.2754 32.6287C18.5069 33.8413 18.211 35.1758 18.2568 36.6019C18.281 37.3491 18.4578 38.0601 18.7462 38.7452C18.8888 39.0843 19.0266 39.4234 19.1187 39.7823C19.2135 40.1528 19.1255 40.4858 18.9553 40.8038C18.8572 40.9866 18.6642 41.0125 18.4807 41.0194C18.1761 41.0303 17.885 40.9491 17.5959 40.8652C16.3837 40.5131 15.156 40.2367 13.8954 40.1453C13.2452 40.0982 12.5957 40.0894 11.9604 40.29C11.6746 40.3801 11.3842 40.3889 11.1005 40.2531C10.6958 40.0594 10.5136 40.1549 10.2251 40.5241C10.1868 40.5732 10.1559 40.6311 10.131 40.6899C10.0154 40.9655 9.79819 41.0617 9.52121 41.0392C8.81121 40.9819 8.15165 40.7615 7.55529 40.3678C7.16063 40.1078 7.14785 39.8731 7.53378 39.5947C7.98827 39.2672 8.51068 39.0802 9.05865 38.9758C9.23006 38.9431 9.40557 38.93 9.58036 38.9219C10.1377 38.8966 10.6924 38.8851 11.241 38.7322C11.6323 38.6238 12.0444 38.6899 12.4492 38.7547C12.8492 38.8189 13.2554 38.87 13.6601 38.8776C14.7022 38.8953 15.7443 38.9731 16.7871 38.8899C17.3552 38.8448 17.6846 38.1877 17.3794 37.6998C16.5786 36.4197 15.9104 35.0735 15.4357 33.6338C15.156 32.7843 15.0397 31.9082 15.078 31.0116C15.1069 30.332 15.1325 30.3149 15.6992 30.6581C16.5081 31.148 17.2449 31.7335 17.9314 32.3858C17.9623 32.4151 17.9885 32.4492 18.0222 32.4738C18.0975 32.5284 18.1687 32.6642 18.2601 32.5993C18.3738 32.5182 18.2844 32.3892 18.236 32.293C18.0383 31.902 17.7156 31.6298 17.3714 31.3808C16.6539 30.8614 15.8996 30.3926 15.226 29.8141C14.3929 29.0983 13.5216 28.4269 12.7443 27.6462C12.066 26.9653 11.4353 26.244 10.9324 25.4164C10.6903 25.0173 10.441 24.6242 10.1707 24.2435C10.0429 24.0634 9.88826 23.9562 9.67721 23.92C9.13455 23.8279 8.6364 23.6061 8.3009 23.1708C7.91095 22.6638 7.39729 22.3636 6.86346 22.0689C6.37199 21.7972 5.89732 21.4977 5.46097 21.1381C5.26599 20.9772 5.06228 20.8256 4.78662 20.8366C4.57013 20.8454 4.38524 21.0214 4.44642 21.218C4.70124 22.0286 4.71603 22.8672 4.76108 23.7031C4.79066 24.2496 5.00244 24.734 5.24246 25.209C5.3608 25.4437 5.41122 25.6853 5.40786 25.9459C5.40248 26.3738 5.50333 26.5088 5.9074 26.6412C5.94035 26.6521 5.97463 26.6623 6.00825 26.6699C6.52797 26.7913 6.75521 27.1496 6.7969 27.6641C6.83657 28.1581 6.79421 28.6425 6.65504 29.1181C6.58713 29.3494 6.45602 29.5377 6.27248 29.6899C6.12658 29.8106 5.97934 29.8086 5.83143 29.6974C5.64923 29.5603 5.50871 29.3835 5.37357 29.202C4.93117 28.609 4.60308 27.9526 4.33616 27.2635C4.21716 26.9558 4.05984 26.68 3.82452 26.4447C3.61811 26.238 3.51188 25.9704 3.5334 25.6723C3.55088 25.4253 3.50785 25.196 3.43456 24.9626C3.30413 24.5471 3.29808 24.1097 3.25236 23.6798C3.16159 22.8324 2.98209 21.9993 2.87384 21.1545C2.82946 20.8092 2.80391 20.4627 2.78912 20.114C2.77433 19.7646 2.94713 19.4869 3.11117 19.2078C3.32497 18.8448 3.63425 18.5842 4.00335 18.3925C4.32069 18.2273 4.65417 18.2935 4.97151 18.3535C5.87042 18.5234 6.77471 18.6804 7.60369 19.1075C7.7032 19.1587 7.85851 19.2631 7.92439 19.1587C7.99499 19.0468 7.83027 18.9581 7.74287 18.8871C6.97305 18.2586 6.29601 17.547 5.79647 16.6757C5.63511 16.3939 5.39643 16.3044 5.09522 16.3188C4.99975 16.3236 4.93319 16.3659 4.8942 16.4478C4.48744 17.2973 3.86486 17.983 3.24295 18.6668C2.75483 19.2037 2.40724 19.7988 2.34337 20.5425C2.32925 20.7076 2.2479 20.8495 2.14907 20.9832C1.96014 21.2405 1.95745 21.3783 2.11881 21.6445C2.4617 22.2121 2.43144 22.4421 1.92451 22.8822C1.48883 23.2609 0.985932 23.5222 0.435962 23.686C0.103157 23.7856 -0.0044155 23.7085 0.00365249 23.3482C0.0177715 22.6659 0.1556 22.0102 0.490421 21.4091C0.578497 21.2508 0.630266 21.087 0.629594 20.9034C0.628249 20.4927 0.758009 20.1132 0.979206 19.7817C1.94132 18.3386 2.62709 16.7364 3.526 15.2578C3.78619 14.8293 4.04975 14.4015 4.33212 13.9873C4.6535 13.5151 5.2028 13.3342 5.75747 13.4558C6.44325 13.6059 6.96633 13.9907 7.37577 14.5522C7.42822 14.6239 7.49478 14.6696 7.5647 14.716C8.31368 15.2141 9.06132 15.7136 9.78402 16.2499C9.90109 16.3365 9.9696 16.3202 10.0685 16.2322C10.4039 15.9305 10.7563 15.6502 11.1348 15.4052C11.3593 15.2605 11.5866 15.1179 11.8454 15.0469C12.2858 14.9268 12.6536 14.6717 12.8842 14.2963C13.2869 13.642 13.8241 13.1166 14.3519 12.5817C15.441 11.4776 16.03 10.0856 16.5739 8.66571C16.6539 8.45692 16.6916 8.24197 16.5564 8.03251C16.4973 7.94038 16.4247 7.8742 16.3151 7.91036C15.7187 8.10619 15.1513 7.91719 14.5852 7.77048C14.1986 7.67018 13.8127 7.57397 13.418 7.51734C13.0052 7.45798 12.6079 7.52211 12.2387 7.72408C11.9893 7.86055 11.7258 7.90491 11.4481 7.88853C11.2901 7.87897 11.1468 7.82234 11.0266 7.71999C10.9647 7.66746 10.8827 7.6156 10.9102 7.51256C10.9351 7.41976 11.0097 7.38974 11.0971 7.36518C11.3862 7.28398 11.674 7.19664 11.9604 7.10453C12.068 7.06973 12.1964 7.01309 12.1373 6.87048C12.0875 6.74971 11.9658 6.78519 11.8622 6.8234C11.4407 6.97966 11.0064 7.08405 10.562 7.14615C10.3212 7.18026 10.2567 7.12499 10.1908 6.89095C10.0543 6.40854 10.1129 5.96639 10.408 5.55767C10.5115 5.41506 10.6037 5.26358 10.6937 5.11142C10.892 4.77707 11.1899 4.57305 11.5604 4.54303C12.23 4.48913 12.8298 4.22438 13.4402 3.97942C13.9492 3.77472 14.4359 3.53317 14.8857 3.21315C15.1977 2.99071 15.5513 2.85629 15.9178 2.75599C15.9856 2.73757 16.0986 2.73279 16.0791 2.62703C16.0603 2.52331 15.9568 2.53218 15.8713 2.53764C15.8579 2.53832 15.8444 2.54651 15.8304 2.5472C15.751 2.54856 15.6353 2.61884 15.6031 2.52945C15.5682 2.43256 15.706 2.44894 15.7618 2.408C15.7947 2.38411 15.8404 2.36842 15.831 2.31452C15.825 2.28108 15.7961 2.26948 15.7672 2.27289C15.4613 2.30906 15.1923 2.16645 14.9153 2.08048C14.5839 1.97744 14.2592 1.95561 13.9229 2.03475C13.855 2.05114 13.7515 2.10231 13.7193 2.00405C13.6863 1.90238 13.804 1.89624 13.8651 1.86008C14.1657 1.68199 14.4884 1.67039 14.8205 1.7277C14.9826 1.75569 15.1352 1.73111 15.3134 1.62058H15.3113ZM16.0482 29.0724C16.0482 28.9414 15.9621 28.8916 15.9009 28.8308C15.3725 28.3027 14.8393 27.7793 14.3096 27.2519C13.5491 26.4952 12.856 25.6757 12.1661 24.8541C12.0075 24.6652 11.8467 24.4761 11.6524 24.3226C11.6041 24.2844 11.5436 24.2305 11.4831 24.2715C11.4091 24.3219 11.4515 24.4032 11.4763 24.4638C11.5644 24.6816 11.6908 24.8774 11.8232 25.0691C12.8842 26.5948 14.1865 27.8681 15.7161 28.9038C15.8135 28.97 15.9111 29.041 16.0482 29.0724ZM32.5123 27.1625C32.5216 26.5976 32.4107 26.0482 32.2944 25.5003C32.281 25.4369 32.2635 25.3434 32.1687 25.3632C32.092 25.3789 32.0975 25.4553 32.1062 25.5215C32.1553 25.8818 32.1317 26.2448 32.1445 26.6057C32.1895 27.9042 31.8258 29.0383 30.8408 29.9226C30.6896 30.0584 30.5369 30.1989 30.428 30.3743C30.3635 30.478 30.2579 30.6124 30.3635 30.7182C30.4529 30.8075 30.5732 30.6943 30.662 30.6363C31.0775 30.3654 31.4198 30.0112 31.7424 29.6353C32.0941 29.2259 32.3375 28.7633 32.4235 28.2228C32.48 27.8722 32.5042 27.518 32.5109 27.1632L32.5123 27.1625ZM21.2762 24.8344C21.166 24.7314 21.0685 24.6419 20.9737 24.5505C20.5884 24.1786 20.2112 23.7979 19.8899 23.3667C19.3291 22.614 18.8639 21.8144 18.7509 20.8515C18.7369 20.7329 18.7496 20.6107 18.6992 20.4961C18.6635 20.4155 18.6138 20.3685 18.523 20.378C18.4383 20.3876 18.4094 20.449 18.3919 20.522C18.3475 20.707 18.3744 20.8918 18.4095 21.0712C18.7295 22.6939 19.6351 23.8989 20.9912 24.7784C21.0631 24.8248 21.1391 24.8869 21.2762 24.8344ZM18.3045 10.1328C18.3045 10.0761 18.3092 10.0188 18.3032 9.96286C18.2965 9.9021 18.2999 9.82298 18.2245 9.80864C18.162 9.79706 18.127 9.86049 18.1041 9.91029C18.0571 10.0127 18.0108 10.1164 17.9771 10.2234C17.77 10.871 17.5407 11.5083 17.1744 12.0836C16.9134 12.4943 16.6479 12.9017 16.3817 13.3083C16.3352 13.3799 16.2889 13.4502 16.2714 13.5349C16.266 13.5601 16.2667 13.5942 16.2795 13.6134C16.3084 13.657 16.3433 13.6229 16.3682 13.6044C16.4193 13.5677 16.4684 13.528 16.5128 13.4837C16.8423 13.1548 17.1333 12.7918 17.4184 12.4234C17.9401 11.7492 18.2823 11.0041 18.3039 10.132L18.3045 10.1328ZM14.4601 15.3048C13.8349 15.3117 13.4281 15.3977 13.0496 15.5996C12.9528 15.6508 12.8533 15.7245 12.903 15.846C12.9555 15.9756 13.0684 15.9074 13.1578 15.876C13.5612 15.7341 13.976 15.6938 14.3989 15.7402C14.7963 15.7839 15.1849 15.8643 15.5493 16.0418C15.6125 16.0724 15.6918 16.1045 15.7382 16.0288C15.7813 15.9585 15.7053 15.9135 15.6636 15.8732C15.273 15.4898 14.8063 15.2966 14.4601 15.3048ZM20.0855 28.7053C20.0942 28.7483 20.1003 28.8281 20.1266 28.8997C20.1521 28.9693 20.1636 29.0737 20.2502 29.0792C20.3464 29.0853 20.3484 28.9775 20.3746 28.9093C20.4076 28.824 20.4358 28.7366 20.4593 28.648C20.5327 28.3798 20.6826 28.1846 20.9401 28.0721C21.047 28.0257 21.1438 27.9506 21.2392 27.8803C21.2951 27.8394 21.3549 27.7855 21.33 27.7042C21.3052 27.6238 21.2238 27.6197 21.1573 27.6053C21.1102 27.5951 21.0597 27.5964 21.012 27.602C20.5185 27.6551 20.0788 28.1628 20.0849 28.7045L20.0855 28.7053ZM26.4633 32.1831C26.4673 32.0132 26.4767 31.9048 26.4136 31.8112C26.3564 31.7273 26.3154 31.5949 26.1903 31.6257C26.0592 31.6577 25.9853 31.7669 25.9927 31.9149C25.998 32.0214 25.9933 32.1292 26.0128 32.233C26.0612 32.499 26.0303 32.7529 25.9301 33.0027C25.8965 33.0866 25.8784 33.1787 25.8623 33.2688C25.8494 33.3417 25.8623 33.4113 25.9423 33.4454C26.0256 33.481 26.0767 33.4271 26.1184 33.3711C26.1641 33.3097 26.2064 33.2421 26.2354 33.1711C26.3711 32.8341 26.4397 32.4819 26.4633 32.1831ZM14.7862 39.5865C15.2038 39.5564 15.6213 39.5279 16.0387 39.4958C16.1161 39.4896 16.2135 39.4678 16.2055 39.3716C16.1955 39.2508 16.0831 39.3081 16.022 39.3115C15.2643 39.3531 14.5146 39.2836 13.7676 39.1607C13.6977 39.1491 13.5968 39.1 13.5646 39.1976C13.5323 39.2959 13.6338 39.3408 13.7011 39.3859C13.7407 39.4125 13.7912 39.4234 13.8376 39.4384C14.1455 39.5381 14.4594 39.6028 14.7862 39.5865ZM17.292 4.48298C17.2766 4.33355 17.2093 4.20254 17.1373 4.0729C17.0358 3.89004 16.8765 3.78973 16.6748 3.80405C16.4415 3.82044 16.2183 3.88525 16.0885 4.11248C16.0542 4.17252 16.0166 4.24553 16.065 4.31172C16.1168 4.382 16.1941 4.3513 16.258 4.33014C16.496 4.25235 16.6795 4.33628 16.8349 4.51642C16.8718 4.55873 16.9088 4.60171 16.9505 4.63924C17.0184 4.69997 17.0916 4.77298 17.1898 4.7259C17.2846 4.68018 17.2792 4.57578 17.292 4.48298ZM18.7805 44.9694C18.8592 45.0151 18.8929 44.9701 18.9291 44.9401C19.225 44.691 19.5268 44.4474 19.8146 44.1888C20.1555 43.8825 20.4553 43.5331 20.7613 43.192C20.7908 43.1586 20.8473 43.1251 20.8063 43.0678C20.7673 43.0132 20.7175 43.0501 20.6739 43.0665C20.5535 43.1107 20.4513 43.1838 20.3598 43.2731C19.9471 43.6778 19.5336 44.0817 19.1221 44.4877C18.9809 44.627 18.8586 44.7805 18.7812 44.9701L18.7805 44.9694ZM19.2357 35.4045C19.2384 35.6392 19.2646 35.8712 19.3225 36.0984C19.35 36.2062 19.3823 36.3673 19.4993 36.3536C19.6263 36.3393 19.5746 36.1762 19.5685 36.0827C19.5369 35.5675 19.5443 35.0619 19.8065 34.5966C19.8199 34.5727 19.822 34.5427 19.828 34.5147C19.8428 34.4519 19.8616 34.3816 19.7964 34.3413C19.7319 34.3012 19.6754 34.353 19.6271 34.3905C19.578 34.4287 19.5316 34.4751 19.4946 34.5256C19.305 34.7863 19.2343 35.0852 19.2357 35.4045ZM7.49545 21.8212C7.54521 21.8266 7.59831 21.8287 7.62655 21.7795C7.65882 21.7222 7.63194 21.6683 7.59092 21.6267C7.54655 21.5816 7.49882 21.54 7.44906 21.5018C6.99994 21.1559 6.48494 20.9423 5.96522 20.7376C5.9269 20.7226 5.88387 20.7171 5.84219 20.7151C5.77831 20.7117 5.73394 20.7527 5.71377 20.8066C5.68553 20.8809 5.75209 20.913 5.8005 20.9266C6.29601 21.0658 6.6779 21.4111 7.11088 21.6622C7.2319 21.7325 7.3556 21.7973 7.49545 21.8212ZM4.02958 15.7197C4.02151 15.6774 4.05512 15.5983 3.98319 15.5669C3.9099 15.5348 3.85006 15.584 3.79829 15.6344C3.77812 15.6542 3.75728 15.674 3.74182 15.6972C3.46818 16.108 3.1979 16.5201 3.00764 16.9793C2.97401 17.0605 2.90611 17.1704 3.00427 17.2243C3.08428 17.2686 3.14142 17.1546 3.1979 17.0953C3.2127 17.0803 3.22546 17.0632 3.23757 17.0455C3.48163 16.6832 3.72636 16.3215 3.96839 15.9579C4.0121 15.8923 4.03496 15.8173 4.02958 15.7197ZM3.44801 22.4974C3.46885 22.6714 3.49642 22.8678 3.51524 23.0644C3.54281 23.3551 3.67929 23.6007 3.82048 23.8443C3.84805 23.892 3.88234 23.9515 3.94822 23.931C4.02621 23.9071 3.9852 23.8375 3.98319 23.7863C3.98185 23.7583 3.97243 23.7311 3.9657 23.7037C3.8272 23.1776 3.69408 22.6502 3.72703 22.0975C3.72837 22.0764 3.72703 22.0553 3.72434 22.034C3.71627 21.9624 3.68265 21.9173 3.60601 21.9119C3.52062 21.9058 3.49575 21.9658 3.48835 22.0307C3.47154 22.178 3.46213 22.3261 3.44801 22.4974ZM13.0825 4.71088C13.9169 4.78936 15.0095 4.42362 15.2326 3.61915C14.5758 4.17662 13.8476 4.47957 13.0825 4.71088ZM8.83608 19.244C8.91877 19.2071 8.95913 19.1308 9.00145 19.0611C9.32824 18.5241 9.67311 17.9994 10.0543 17.5006C10.0712 17.4781 10.0893 17.4556 10.1028 17.431C10.1195 17.4003 10.1391 17.3635 10.1095 17.3334C10.0792 17.3021 10.0463 17.33 10.014 17.3403C9.91116 17.3737 9.82777 17.4392 9.75311 17.5136C9.28387 17.9858 9.05392 18.5958 8.81659 19.201C8.81322 19.2092 8.82666 19.2235 8.83608 19.244ZM17.4931 6.04417C17.2302 6.25433 16.9787 6.45699 16.7259 6.65828C16.4805 6.85342 16.1557 6.91688 15.8666 7.14751C16.0489 7.1673 16.1659 7.18777 16.2842 7.19186C16.469 7.198 16.6586 7.17821 16.7877 7.03015C17.0184 6.7654 17.2342 6.48632 17.4527 6.21066C17.4809 6.17518 17.5193 6.13492 17.4931 6.04417ZM21.6581 4.94493C21.7529 4.93469 21.8705 4.96608 21.8827 4.88556C21.8974 4.78389 21.7744 4.77843 21.6971 4.75797C21.6373 4.74159 21.574 4.73613 21.5116 4.73136C21.2628 4.71225 21.0093 4.75319 20.7673 4.65493C20.7075 4.63105 20.6368 4.64197 20.6167 4.72385C20.5804 4.86987 20.4567 5.02885 20.5736 5.16327C20.6866 5.29291 20.8305 5.16805 20.9575 5.12711C20.9905 5.11687 21.0221 5.10118 21.053 5.08412C21.2493 4.97631 21.4396 4.84258 21.6595 4.94424L21.6581 4.94493ZM10.5834 6.25297C10.5794 6.37101 10.5801 6.44811 10.6413 6.47609C10.7125 6.50952 10.7508 6.43379 10.7899 6.3867C10.9136 6.23727 11.0541 6.11786 11.2505 6.07897C11.3559 6.05781 11.3755 5.98276 11.3506 5.88518C11.317 5.75281 11.2228 5.69004 11.1052 5.6491C10.9909 5.60884 10.892 5.64295 10.8215 5.72893C10.6843 5.89406 10.6063 6.08989 10.5834 6.25297ZM21.3771 9.80588C21.2997 9.80454 21.2245 9.80864 21.1532 9.84543C21.09 9.87822 21.0221 9.911 21.006 9.98468C20.9852 10.0795 21.0792 10.0938 21.131 10.13C21.3374 10.274 21.5835 10.3047 21.8188 10.3606C21.8646 10.3715 21.9573 10.4084 21.9338 10.2829C21.8961 10.0822 21.5821 9.80935 21.3771 9.80588ZM6.52057 16.4587C6.49367 16.6764 6.91187 17.3765 7.11222 17.4365C7.20769 17.4651 7.27896 17.4365 7.26484 17.3109C7.23325 17.038 6.79824 16.5392 6.52057 16.4587ZM17.4164 7.80255C17.6712 7.8667 17.9247 7.8469 18.1775 7.82029C18.552 7.7814 18.6495 7.67905 18.7187 7.26078C18.3401 7.59717 17.8615 7.65176 17.4164 7.80255ZM15.1889 48.39C15.277 48.3805 15.3792 48.3607 15.361 48.2229C15.3396 48.0584 15.4397 48.0196 15.5627 47.9868C15.6186 47.9717 15.702 47.9847 15.7113 47.8995C15.7214 47.8087 15.6696 47.7384 15.6058 47.6804C15.5405 47.621 15.4781 47.6537 15.4162 47.6893C15.2266 47.7984 15.1096 47.9745 15.0135 48.1615C14.9422 48.2993 15.0135 48.3893 15.1889 48.39ZM21.9237 8.15123C21.8713 7.94993 21.7623 7.8121 21.6171 7.71727C21.4726 7.62242 21.3112 7.63674 21.1673 7.735C21.0906 7.78754 21.0739 7.85169 21.1673 7.91446C21.3926 8.06662 21.6441 8.11915 21.9237 8.15123ZM21.2144 10.8696C21.1975 10.8724 21.1458 10.8703 21.1014 10.8881C21.0315 10.916 20.9461 10.9454 20.9408 11.0361C20.9361 11.1105 21.0167 11.131 21.0665 11.1631C21.2413 11.275 21.4443 11.305 21.6413 11.348C21.6891 11.3582 21.7623 11.3753 21.7382 11.2729C21.6957 11.0915 21.4262 10.869 21.2144 10.8696ZM21.7704 9.22999C21.8262 9.23819 21.9096 9.25458 21.88 9.16585C21.8248 9.00281 21.7179 8.867 21.566 8.78375C21.4322 8.71074 21.2937 8.73258 21.1673 8.81105C21.0685 8.87246 21.047 8.93386 21.1647 9.01439C21.3502 9.14064 21.5653 9.17066 21.7704 9.22999ZM17.4709 7.44843C18.1727 7.37678 18.443 7.19596 18.4095 6.69717C18.1875 7.05744 17.8359 7.21984 17.4709 7.44843ZM21.683 7.21165C21.716 7.18914 21.8182 7.24372 21.7865 7.14819C21.7374 7.00013 21.6299 6.87935 21.4887 6.81044C21.363 6.74971 21.2312 6.76471 21.1135 6.8466C21.0208 6.91073 21.043 6.96123 21.1276 7.01923C21.2944 7.13319 21.4907 7.15024 21.683 7.21165ZM5.4677 28.5012C5.43543 28.5087 5.41458 28.5367 5.43744 28.5988C5.49997 28.7646 5.58603 28.9161 5.701 29.0492C5.75277 29.1092 5.82672 29.1079 5.89328 29.0737C5.96589 29.0362 5.97463 28.9645 5.96186 28.8916C5.94303 28.7851 5.60351 28.5033 5.4677 28.5012ZM21.5774 12.2343C21.4813 11.9068 21.2466 11.7526 21.0248 11.8529C20.9797 11.8734 20.9334 11.8973 20.9199 11.9491C20.9024 12.0146 20.9636 12.0316 21.0013 12.0556C21.1754 12.1661 21.371 12.2002 21.5774 12.2343ZM0.95231 20.5166C0.950296 20.5043 0.936852 20.5609 0.983242 20.5916C0.998708 20.6018 1.03636 20.5902 1.0572 20.5772C1.15805 20.5172 1.38866 20.0048 1.36378 19.8997C1.34966 19.8389 1.30932 19.8049 1.26428 19.8629C1.1251 20.0423 0.931471 20.1931 0.95231 20.5166ZM21.3529 5.87973C21.2695 5.88314 21.2413 5.88246 21.2137 5.88655C21.135 5.89815 21.0456 5.92339 21.0328 6.00528C21.0201 6.08784 21.1196 6.10285 21.1767 6.13015C21.2521 6.16562 21.334 6.19292 21.4161 6.20316C21.5143 6.21543 21.6588 6.31847 21.6985 6.22636C21.7462 6.11581 21.5949 6.03189 21.5122 5.95C21.4544 5.89269 21.3778 5.87769 21.3529 5.87973ZM20.5744 2.70413C20.5414 2.5779 20.4849 2.51512 20.4331 2.44962C20.3115 2.29609 20.1609 2.25857 19.9881 2.34727C19.8879 2.39844 19.8731 2.4619 19.9833 2.52945C20.1595 2.63726 20.3511 2.6782 20.5744 2.70413ZM21.0853 3.80543C21.0624 3.66622 20.9952 3.60277 20.9414 3.53112C20.8392 3.39466 20.7027 3.37487 20.5501 3.41172C20.4936 3.42536 20.4419 3.45743 20.4244 3.5127C20.4009 3.58776 20.4775 3.60072 20.5192 3.62801C20.6859 3.73719 20.8775 3.75698 21.0853 3.80543ZM5.41861 14.3312C5.52417 14.3175 5.62704 14.3059 5.72991 14.2909C5.77966 14.2834 5.82403 14.2636 5.83143 14.2036C5.84084 14.1333 5.79311 14.1033 5.73999 14.0814C5.61964 14.0316 5.49997 14.0323 5.38231 14.093C5.29625 14.1374 5.16515 14.1783 5.18532 14.2786C5.20683 14.383 5.33861 14.3148 5.41861 14.3312ZM0.669933 22.6291C0.666572 22.5519 0.690103 22.4475 0.581186 22.4251C0.456805 22.3998 0.441341 22.5137 0.416464 22.5984C0.39495 22.672 0.372762 22.7505 0.377469 22.8249C0.38352 22.9177 0.388227 23.05 0.489076 23.0678C0.567067 23.0815 0.592616 22.9545 0.629594 22.8815C0.669933 22.8031 0.661866 22.7177 0.669933 22.6291ZM8.93294 39.3859C8.91004 39.2897 8.81927 39.3163 8.7507 39.3177C8.60614 39.3204 8.42932 39.3224 8.39705 39.4923C8.37688 39.5995 8.52211 39.6465 8.62766 39.6547C8.73792 39.6629 8.93223 39.4923 8.93294 39.3859ZM16.935 3.41444C16.8913 3.43218 16.7669 3.37623 16.7602 3.49359C16.7541 3.60072 16.8718 3.56183 16.9403 3.5782C17.0897 3.61437 17.2362 3.65667 17.3162 3.80884C17.3445 3.86274 17.3881 3.91391 17.4446 3.87775C17.5132 3.83408 17.4433 3.77813 17.4265 3.73242C17.3464 3.51884 17.1931 3.40694 16.935 3.41444ZM3.63694 19.5892C3.83796 19.4691 3.9294 19.3027 4.00067 19.1198C4.01882 19.0734 4.03967 19.0202 3.99327 18.984C3.93948 18.9424 3.88502 18.9731 3.84603 19.0161C3.70619 19.1683 3.62551 19.3436 3.63694 19.5892ZM17.3788 46.0489C17.5065 45.9861 17.6376 45.9213 17.7236 45.7965C17.7526 45.7541 17.7485 45.701 17.7189 45.6566C17.6846 45.6061 17.6275 45.615 17.5879 45.6327C17.4574 45.6913 17.3572 45.7883 17.3028 45.9227C17.2785 45.9813 17.2718 46.0537 17.3788 46.0489ZM21.3818 13.0858C21.2493 12.7973 21.1257 12.7072 20.9522 12.7557C20.8984 12.7706 20.8379 12.7932 20.8292 12.8559C20.8204 12.916 20.8809 12.9344 20.9226 12.9569C21.0584 13.0299 21.2063 13.0606 21.3818 13.0858ZM20.9744 14.5829C20.8809 14.3878 20.7975 14.252 20.5905 14.28C20.5313 14.2881 20.4748 14.3107 20.4641 14.3694C20.4527 14.4281 20.5179 14.4403 20.5575 14.4628C20.6732 14.5283 20.8015 14.5481 20.9744 14.5829ZM12.8708 6.79747C12.9904 6.75175 13.0973 6.68762 13.1303 6.55115C13.1457 6.48701 13.1007 6.43446 13.0374 6.44334C12.9259 6.45971 12.7908 6.45971 12.7665 6.61461C12.7538 6.69375 12.7779 6.76881 12.8708 6.79747ZM21.1485 13.8849C21.0356 13.6208 20.9213 13.5451 20.7545 13.6003C20.7135 13.614 20.6745 13.6345 20.6637 13.6775C20.651 13.73 20.7001 13.7498 20.7337 13.7682C20.8554 13.8338 20.9865 13.8692 21.1485 13.8849ZM17.9401 38.9464C18.0444 38.9028 18.2158 38.9178 18.236 38.7308C18.2434 38.6654 18.1721 38.636 18.1136 38.649C17.9751 38.6797 17.8743 38.7683 17.8292 38.9035C17.8144 38.9479 17.8762 38.9608 17.9401 38.9464ZM22.4219 42.4339C22.4239 42.3527 22.3782 42.3288 22.3143 42.3323C22.1994 42.3377 22.1073 42.3793 22.0938 42.5117C22.0864 42.5827 22.0837 42.6809 22.1778 42.6706C22.3076 42.657 22.3621 42.5335 22.4219 42.4339ZM20.6933 15.2981C20.6013 15.1657 20.5434 15.0476 20.3861 15.0756C20.3477 15.0824 20.2967 15.0879 20.2866 15.139C20.2751 15.1936 20.3249 15.21 20.3592 15.2263C20.4527 15.2707 20.5481 15.313 20.6933 15.2981ZM12.339 39.272C12.4069 39.2672 12.4943 39.2795 12.4929 39.2003C12.4909 39.113 12.3995 39.1075 12.3322 39.1178C12.2643 39.128 12.1419 39.1075 12.1453 39.1914C12.15 39.2897 12.273 39.2576 12.339 39.272ZM20.0667 16.7118C20.0445 16.6306 20.0002 16.5692 19.9255 16.5412C19.8657 16.5187 19.7816 16.5112 19.7547 16.572C19.7178 16.6565 19.8119 16.662 19.863 16.6852C19.9255 16.7139 19.9907 16.7364 20.0667 16.7118ZM20.3767 16.0411C20.3242 15.9122 20.2758 15.8303 20.1642 15.82C20.1158 15.8152 20.0567 15.8166 20.0398 15.8705C20.019 15.936 20.0842 15.9483 20.1253 15.964C20.1945 15.9906 20.2671 16.0083 20.3767 16.0411Z" fill="white"/>
</g>
</svg>
