<svg width="84" height="47" viewBox="0 0 84 47" fill="none" xmlns="http://www.w3.org/2000/svg">
<path d="M45.2196 46.2584V28.2626C45.6827 28.1636 46.1478 28.1303 46.6137 28.1316C47.6227 28.1344 48.6322 28.1578 49.6413 28.1646C50.6734 28.1715 51.7055 28.1639 52.7377 28.1718C53.4075 28.177 54.0657 28.2801 54.6884 28.5296C56.0477 29.0744 57.03 29.9973 57.3259 31.4677C57.6077 32.8683 57.4876 34.229 56.5841 35.4286C56.3921 35.6832 56.2318 35.962 56.0391 36.2576C56.2531 36.3902 56.4362 36.5277 56.6385 36.625C57.833 37.198 58.4822 38.2023 58.8569 39.4187C59.3024 40.8643 59.1039 42.2501 58.411 43.5734C58.1138 44.1409 57.6703 44.5894 57.1515 44.963C56.1692 45.67 55.0583 46.0663 53.8679 46.1797C52.7628 46.2849 51.6488 46.2942 50.5382 46.3368C49.7596 46.3667 48.9803 46.4021 48.2018 46.399C47.3423 46.3956 46.4829 46.353 45.6238 46.3224C45.4996 46.3179 45.3761 46.2842 45.2199 46.2588L45.2196 46.2584ZM50.3583 35.1797C50.7044 35.1608 51.0247 35.1484 51.3439 35.1247C51.7568 35.0938 52.1607 35.0199 52.546 34.857C53.1179 34.6153 53.4437 34.1747 53.5021 33.5749C53.5407 33.181 53.5066 32.7748 53.4588 32.3795C53.4041 31.9265 53.1316 31.6003 52.7177 31.4151C52.501 31.3181 52.2663 31.2453 52.0324 31.204C51.11 31.0411 50.18 31.1466 49.2528 31.1497C49.2349 31.1497 49.2171 31.1752 49.1992 31.1889C49.1252 31.8825 49.1603 42.9905 49.2432 43.2458C50.0273 43.2596 50.8182 43.2902 51.6085 43.2809C52.0654 43.2754 52.5247 43.229 52.9768 43.1599C54.0368 42.998 54.8309 42.4969 55.0693 41.374C55.1329 41.0743 55.1691 40.7612 55.1615 40.4556C55.1405 39.6129 54.7249 39.0234 53.9319 38.7271C53.6442 38.6195 53.3391 38.5247 53.0356 38.501C52.2825 38.4422 51.5259 38.4277 50.7708 38.3958C50.6397 38.3903 50.5083 38.3865 50.3579 38.381V35.1797H50.3583Z" fill="white"/>
<path d="M3.8748 31.5713V46.7241H0.0596711C-0.00672983 46.469 -0.0246203 28.7945 0.0414367 28.3611C0.0761854 28.3525 0.117815 28.3329 0.159445 28.3329C2.04035 28.3305 3.92125 28.3147 5.80146 28.3357C6.82569 28.347 7.82962 28.5271 8.80533 28.8554C9.75112 29.1733 10.5063 29.7373 11.0757 30.555C11.9117 31.7549 12.3266 33.0754 12.1766 34.5406C12.048 35.7972 11.5137 36.8565 10.5603 37.7055C9.84608 38.3414 8.99731 38.6882 8.05738 38.9411C9.74045 41.5812 11.6905 44.016 13.4004 46.6601C13.3106 46.6759 13.2404 46.6997 13.1699 46.6993C11.7593 46.6921 10.3487 46.6797 8.93814 46.6766C8.77987 46.6766 8.68389 46.6185 8.59925 46.4958C8.20979 45.9297 7.80691 45.3722 7.42536 44.801C6.69977 43.7152 5.99207 42.6174 5.26269 41.5341C4.95683 41.08 4.80304 40.5906 4.80201 40.0496C4.79926 38.8923 4.7996 37.7351 4.80029 36.5781C4.80029 36.5121 4.81405 36.4462 4.82093 36.3863C5.26991 36.3317 5.70238 36.2918 6.12968 36.2221C6.36536 36.1836 6.59828 36.1107 6.82259 36.0268C8.19534 35.5123 8.50911 34.3598 8.20669 33.2328C8.04671 32.6362 7.68615 32.1924 7.13396 31.9137C6.62718 31.658 6.09012 31.4961 5.52003 31.4803C4.98435 31.4655 4.44523 31.4294 3.8748 31.5724V31.5713Z" fill="white"/>
<path d="M35.8082 35.8554V27.2187C36.0906 27.1335 39.015 27.108 39.6044 27.1754V46.2646C39.369 46.3313 36.3263 46.3498 35.8446 46.2811C35.8292 45.9302 35.8137 45.5703 35.7947 45.1413C35.588 45.2819 35.4287 45.3819 35.279 45.494C34.6484 45.9666 33.9685 46.333 33.19 46.5C31.4092 46.8822 29.8111 46.5042 28.4524 45.2902C27.5328 44.4687 26.9603 43.4163 26.6445 42.225C26.2836 40.8639 26.3335 39.5173 26.8685 38.2163C27.6481 36.3208 29.1127 35.2219 31.0854 34.7868C32.0133 34.582 32.9522 34.5957 33.8788 34.8466C34.3377 34.971 34.7609 35.1639 35.1352 35.4618C35.3213 35.61 35.5205 35.7423 35.7136 35.8819C35.7449 35.8729 35.7762 35.8643 35.8075 35.8554H35.8082ZM30.3186 40.4415C30.3282 41.2145 30.4985 41.8469 30.8962 42.3814C31.5213 43.2221 32.346 43.7029 33.4373 43.5754C34.6477 43.4338 35.5883 42.5505 35.8845 41.2922C36.1815 40.0311 35.7345 38.8257 34.7389 38.1452C33.7501 37.4694 32.3013 37.4351 31.3968 38.1833C30.6588 38.7941 30.3784 39.6197 30.3189 40.4415H30.3186Z" fill="white"/>
<path d="M25.0929 41.73H16.9434C16.7198 42.78 17.3986 43.8012 18.4641 44.0435C18.9613 44.1566 19.4649 44.158 19.969 44.0978C20.4778 44.037 20.9072 43.8191 21.2567 43.4403C21.427 43.2557 21.6108 43.0832 21.8113 42.8818C22.7124 43.2925 23.6148 43.7043 24.5372 44.125C24.4361 44.5195 24.1994 44.8007 23.9448 45.0543C22.9722 46.0236 21.8365 46.711 20.4575 46.9111C18.4524 47.2018 16.6069 46.7976 14.9665 45.5751C14.0686 44.9059 13.4816 44.0225 13.2078 42.9423C12.8875 41.6798 12.8462 40.4026 13.1451 39.1319C13.5188 37.543 14.4164 36.3259 15.8645 35.5529C17.573 34.6407 19.372 34.4389 21.2168 35.0559C22.8311 35.5955 23.9898 36.6493 24.6425 38.2524C25.0818 39.3313 25.1703 40.4463 25.1359 41.587C25.1348 41.6197 25.1173 41.6516 25.0932 41.7303L25.0929 41.73ZM21.6345 39.3894C21.5698 37.9087 20.5225 37.0374 19.0005 37.1869C17.851 37.3 16.865 38.4957 17.0005 39.3894H21.6348H21.6345Z" fill="white"/>
<path d="M60.4412 35.2386C61.6822 35.0613 62.8805 35.1252 64.128 35.1634V35.5497C64.128 37.4284 64.1201 39.3074 64.1342 41.1861C64.1373 41.6068 64.1923 42.0317 64.2684 42.4465C64.3726 43.0143 64.7291 43.3793 65.2861 43.5426C65.9835 43.7468 66.6832 43.778 67.3872 43.5729C67.9025 43.4227 68.2277 43.0865 68.3887 42.5778C68.5149 42.1791 68.5459 41.7705 68.5459 41.3566C68.5459 39.4435 68.5459 37.5301 68.5459 35.617C68.5459 35.4823 68.5459 35.3472 68.5459 35.1895H71.9654C71.9847 35.361 72.0198 35.5284 72.0198 35.6958C72.0235 37.9639 72.0263 40.2317 72.0191 42.4998C72.018 42.8652 71.9898 43.234 71.9331 43.5945C71.8089 44.3813 71.3637 44.9834 70.764 45.4791C69.9971 46.1129 69.1115 46.5033 68.1413 46.7003C66.4758 47.0385 64.8367 46.9831 63.2424 46.3407C63.0938 46.2809 62.9486 46.2122 62.8048 46.141C61.3178 45.4055 60.4856 44.2403 60.4705 42.5527C60.4543 40.7661 60.4491 38.9792 60.4409 37.1926C60.4378 36.5523 60.4405 35.9116 60.4405 35.2386H60.4412Z" fill="white"/>
<path d="M80.3381 27.1155H83.9995V46.3748H80.3381V27.1155Z" fill="white"/>
<path d="M74.1023 27.1143H77.7547V46.3454H74.1023V27.1143Z" fill="white"/>
<path d="M5.52177 3.53088C5.16603 3.41093 4.876 3.30713 4.58218 3.21536C4.08641 3.06035 3.61438 2.86099 3.20083 2.53928C2.5124 2.00379 2.24473 1.13489 2.52581 0.25122C2.67238 0.301058 2.82101 0.344709 2.96447 0.401077C3.43203 0.585304 3.89546 0.781218 4.36543 0.958915C4.80443 1.12458 5.26167 1.24694 5.68829 1.43804C5.97557 1.56659 6.24908 1.75426 6.48338 1.96529C6.8116 2.26088 6.91826 2.6479 6.81022 3.09197C6.7132 3.48998 6.53705 3.85053 6.28693 4.16468C5.94495 4.59397 5.5689 4.99611 5.20869 5.41131C4.83402 5.84335 4.44456 6.26439 4.09329 6.71465C3.83663 7.04392 3.69832 7.43403 3.69488 7.86367C3.688 8.76384 4.2051 9.38801 5.08793 9.55368C5.6556 9.66023 6.20608 9.57877 6.75311 9.43579C7.30083 9.2928 7.80899 9.0553 8.29272 8.7659C8.71555 8.51293 9.14424 8.26752 9.55193 7.99152C10.6759 7.2309 11.8983 6.69781 13.2198 6.39981C14.0373 6.21558 14.7818 5.88081 15.475 5.41818C15.6846 5.27829 15.9003 5.14734 16.116 5.01673C16.6493 4.69365 17.2163 4.45374 17.828 4.32244C18.6096 4.15437 19.3335 3.85534 19.9986 3.40543C20.3392 3.1748 20.6932 2.95448 21.0661 2.784C21.4697 2.59978 21.8984 2.46539 22.3243 2.3365C22.6116 2.24954 22.892 2.16327 23.1363 1.9811C23.6499 1.59752 24.1646 1.21498 24.6834 0.838273C24.9611 0.636517 25.2349 0.425136 25.5329 0.257751C26.1116 -0.0670535 26.7147 -0.0942065 27.3061 0.229566C27.6471 0.4162 27.9863 0.612457 28.3025 0.83793C29.7217 1.84809 31.146 2.85206 32.5418 3.89349C33.6404 4.71289 34.5875 5.69487 35.4026 6.79886C36.2279 7.91728 36.7347 9.16426 36.9435 10.5398C37.0791 11.4331 37.2088 12.3288 37.4823 13.1956C37.8226 14.2742 38.2943 15.2909 38.9707 16.1982C39.2208 16.534 39.5545 16.8083 39.8528 17.108C40.0603 17.3167 40.3186 17.481 40.4356 17.7697C40.0111 18.0113 39.6739 18.0092 39.3264 17.6978C39.0381 17.4397 38.7849 17.1397 38.5341 16.8427C38.2977 16.5629 38.0889 16.2601 37.8604 15.9735C37.6426 15.7002 37.3677 15.4981 37.0093 15.3438C37.0282 15.4411 37.0337 15.5143 37.0571 15.5813C37.3382 16.3787 37.7699 17.0912 38.3039 17.7422C38.4188 17.8824 38.5805 17.9841 38.7002 18.1216C38.8478 18.2907 38.9744 18.4784 39.1503 18.7114C38.8441 18.7558 38.6125 18.7066 38.3865 18.6612C37.9251 18.5684 37.5405 18.3265 37.1871 18.0216C36.9363 17.8051 36.6735 17.6013 36.4058 17.4057C36.1323 17.2063 35.8512 17.1988 35.5983 17.4466C35.2515 17.7869 34.8194 17.8491 34.3622 17.8583C34.0415 17.8649 33.7212 17.8968 33.4006 17.9127C32.8322 17.9408 32.2941 18.0883 31.7729 18.31C31.5623 18.3997 31.3524 18.4976 31.1329 18.5578C30.4968 18.7324 30.0327 18.4124 29.9766 17.7611C29.9553 17.5122 29.9732 17.2596 29.9732 17.0152C29.742 16.8726 29.5383 16.7471 29.2933 16.5963C29.4058 16.3526 29.4994 16.0972 29.6353 15.8666C29.9319 15.3641 30.2508 14.8743 30.5598 14.379C30.7837 14.0195 31.0125 13.6624 31.2269 13.297C31.317 13.143 31.3751 12.9705 31.4477 12.8062C31.4319 12.7866 31.4157 12.767 31.3999 12.7478C31.2578 12.8024 31.1064 12.8409 30.9757 12.9151C30.7166 13.0619 30.4627 13.219 30.2181 13.3881C29.6081 13.8098 28.9507 14.0181 28.2048 13.883C28.0929 13.8627 27.9777 13.8614 27.8559 13.8507C27.762 13.6727 27.7888 13.4898 27.8291 13.3152C27.9089 12.9698 28.0142 12.6306 28.094 12.2855C28.1965 11.84 28.3056 11.3942 28.3723 10.9426C28.437 10.5054 28.3847 10.0761 28.0919 9.69803C27.8673 9.84548 27.7726 10.0696 27.7186 10.3019C27.6147 10.7474 27.5356 11.1987 27.4458 11.6472C27.4121 11.8156 27.3808 11.9844 27.3426 12.1518C27.2232 12.6708 26.9748 13.1056 26.5434 13.4365C26.2987 13.6242 26.0786 13.8442 25.8539 14.0566C25.6196 14.2783 25.5584 14.5481 25.7029 14.8382C25.8195 15.0726 25.954 15.2998 26.1002 15.517C26.2409 15.7256 26.4106 15.914 26.5609 16.1164C26.7615 16.3869 26.8967 16.686 26.9559 17.0207C26.9793 17.1534 27.0271 17.2868 27.0907 17.4057C27.1231 17.4658 27.2146 17.4944 27.3233 17.5659C27.3464 17.251 27.3639 17.0046 27.3825 16.7585C27.4183 16.2824 27.2566 15.8848 26.9184 15.5497C26.789 15.4211 26.6617 15.2833 26.5671 15.1293C26.4804 14.9884 26.4395 14.8193 26.3758 14.6564C26.586 14.4725 26.7924 14.458 27.0054 14.5443C27.1086 14.5862 27.2149 14.6502 27.2886 14.732C27.8466 15.3507 28.2402 16.0666 28.3214 16.897C28.3899 17.5975 28.0954 18.2192 27.6625 18.762C27.5803 18.8651 27.4148 18.9513 27.2848 18.9555C27.0553 18.9627 26.8602 19.038 26.6658 19.1359C26.5533 19.1926 26.4405 19.2507 26.3362 19.3208C25.4892 19.8893 24.5279 20.144 23.5419 20.3172C23.2742 20.3643 22.9928 20.3523 22.7189 20.3396C22.3309 20.3217 22.0446 20.1416 21.908 19.7591C21.8619 19.6302 21.801 19.5061 21.7446 19.381C21.651 19.1741 21.5034 19.0345 21.2863 18.9445C20.622 18.6692 20.3106 18.1206 20.1527 17.461C20.5294 17.1531 20.9299 17.095 21.3648 17.2301C21.5179 17.2775 21.6703 17.327 21.822 17.3782C22.0835 17.4665 22.2748 17.6325 22.41 17.8759C22.5208 18.0756 22.6467 18.2687 22.7812 18.4533C23.0368 18.8042 23.3878 18.9345 23.8092 18.8362C24.3841 18.7025 24.8541 18.3804 25.2762 17.9814C25.4338 17.8326 25.4083 17.6459 25.3561 17.4672C25.248 17.0988 25.0024 16.8262 24.6951 16.6138C24.3938 16.4055 24.0913 16.189 23.7624 16.0329C23.2309 15.7806 22.8514 15.3902 22.5576 14.8959C22.464 14.7385 22.3653 14.5825 22.2493 14.4415C22.1433 14.313 22.0112 14.2058 21.8774 14.0758C21.5653 14.4794 21.7935 14.877 21.799 15.2922C21.6383 15.2922 21.4934 15.306 21.352 15.2902C20.4413 15.1877 19.5334 15.0485 18.6203 14.9815C17.7643 14.9186 16.9028 14.9331 16.0441 14.9069C15.8273 14.9004 15.6082 14.886 15.3959 14.8444C14.907 14.7485 14.5619 14.4587 14.4081 13.9865C14.317 13.7067 14.2568 13.4087 14.2385 13.1152C14.2114 12.6818 14.2341 12.2453 14.2351 11.8101C14.2351 11.6994 14.2351 11.5888 14.2351 11.3994C13.9764 11.619 13.8274 11.8304 13.7465 12.0751C13.5962 12.5309 13.4627 12.9925 13.3375 13.4558C13.1913 13.9968 13.0674 14.544 12.9219 15.0853C12.8716 15.2719 12.7928 15.4524 12.7144 15.6301C12.3335 16.4921 11.6671 16.9159 10.7262 16.9685C9.93761 17.0125 9.14871 17.0812 8.36635 17.1864C7.66759 17.2802 7.00702 17.5195 6.43005 17.9395C6.22775 18.0866 6.04094 18.2598 5.87029 18.4427C5.76776 18.5523 5.71065 18.7042 5.60193 18.8902C5.87029 18.8606 6.03509 18.7606 6.19679 18.6623C6.49061 18.4839 6.77651 18.2928 7.07067 18.1148C7.65451 17.7614 8.29375 17.6064 8.97256 17.604C9.47727 17.6023 9.98199 17.6105 10.4864 17.6013C10.7375 17.5968 10.9894 17.5727 11.2388 17.5397C11.9203 17.4497 12.4712 17.1228 12.8888 16.5811C13.1125 16.291 13.313 15.9834 13.5267 15.6858C13.6382 15.5308 13.7555 15.3802 13.9241 15.1558C13.9733 15.3647 14.0321 15.4919 14.0266 15.6157C14.0156 15.8535 13.9967 16.0986 13.9299 16.3254C13.7414 16.9654 13.3801 17.5054 12.8943 17.9611C12.4952 18.3358 12.0022 18.4664 11.4721 18.4698C11.1631 18.4719 10.8531 18.4492 10.5452 18.4217C9.42463 18.3213 8.41245 18.6155 7.48524 19.2376C7.24751 19.3971 7.00014 19.5425 6.75621 19.6927C6.49198 19.8549 6.21193 19.9024 5.89988 19.8584C5.57235 19.8123 5.23828 19.814 4.9073 19.79C4.75799 19.779 4.65615 19.8275 4.5581 19.9498C4.34307 20.2172 4.10189 20.4637 3.87792 20.7245C3.6942 20.9387 3.47091 21.0538 3.18569 21.039C2.86814 21.0222 2.55093 21.0047 2.21032 20.9864C2.18177 20.7864 2.15149 20.631 2.1391 20.474C2.11571 20.1804 2.20344 19.9192 2.45253 19.7529C3.25519 19.2163 3.84592 18.4643 4.49686 17.7735C4.80237 17.449 4.99641 17.0692 5.08862 16.6296C5.13988 16.3849 5.2252 16.1453 5.31706 15.9119C5.42096 15.6483 5.62258 15.4902 5.9102 15.4493C6.17099 15.4122 6.43109 15.3713 6.69084 15.3287C6.78098 15.3139 6.87043 15.2915 6.95816 15.2664C7.47251 15.1197 7.62562 14.9018 7.57986 14.3628C7.56437 14.181 7.53444 13.9992 7.49453 13.8212C7.34763 13.1664 7.29671 12.5092 7.4037 11.8428C7.42916 11.6847 7.44155 11.5245 7.456 11.3647C7.49178 10.9701 7.36827 10.822 6.97881 10.844C6.68258 10.8608 6.38911 10.9261 6.09358 10.9588C4.95065 11.0842 3.98044 10.7446 3.25313 9.83895C2.60254 9.02849 2.45219 8.11388 2.77662 7.12194C3.05702 6.26577 3.64087 5.62234 4.25189 4.9968C4.55603 4.6854 4.87118 4.38465 5.16499 4.06397C5.29332 3.92408 5.38037 3.74639 5.52246 3.53088H5.52177ZM32.6419 12.0621C32.8917 12.1212 33.0844 12.0105 33.2636 11.8985C33.5272 11.7338 33.7518 11.7785 33.9868 11.9559C34.3955 12.2648 34.7324 12.6264 34.9353 13.1049C35.0224 13.3101 35.1032 13.5273 35.3076 13.6593C35.5412 13.4365 35.5997 13.1774 35.5016 12.8962C35.4232 12.6718 35.3313 12.4467 35.2078 12.2449C34.827 11.6231 34.2947 11.1358 33.7453 10.6683C33.652 10.5889 33.5389 10.5336 33.4308 10.4645C32.8377 10.8491 32.6333 11.3929 32.6423 12.0621H32.6419ZM26.8306 3.48242C26.6927 3.83266 26.7126 4.05022 26.9466 4.30938C27.0904 4.46886 27.2597 4.61116 27.4368 4.73352C27.8211 4.9992 28.117 5.33741 28.3503 5.73817C28.4707 5.94509 28.6001 6.14719 28.7401 6.34138C28.8 6.42422 28.8533 6.54658 28.9995 6.52252C29.0102 6.48333 29.0274 6.45034 29.0263 6.41769C28.984 5.25836 28.5082 4.33035 27.5352 3.67971C27.3274 3.54051 27.088 3.45836 26.831 3.48242H26.8306ZM32.8976 16.8808C33.0462 16.8925 33.1807 16.9049 33.3152 16.9132C33.7064 16.9376 33.8918 16.8131 33.9603 16.433C33.9865 16.2873 33.9366 16.1274 33.9228 15.9903C33.2292 15.772 32.7651 16.2567 32.8976 16.8805V16.8808Z" fill="white"/>
<path d="M81.1755 0.423291C81.2708 0.794839 81.3506 1.16226 81.3125 1.54378C81.2588 2.0834 80.9743 2.48245 80.5328 2.77872C80.1083 3.06366 79.6301 3.22279 79.1422 3.35581C78.9217 3.41596 78.6987 3.46751 78.4631 3.52663C78.3815 3.8394 78.4803 4.11884 78.6423 4.36837C78.7717 4.56772 78.942 4.74301 79.1061 4.91762C79.4749 5.31013 79.8664 5.68202 80.2198 6.08725C80.6378 6.56673 80.9643 7.10291 81.0675 7.74839C81.1528 8.28217 81.0978 8.79567 80.8759 9.29199C80.6718 9.74809 80.3883 10.1461 80.0281 10.4908C79.6046 10.8961 79.0985 11.1322 78.5129 11.1291C78.0103 11.1267 77.508 11.0648 77.0053 11.0294C76.7896 11.0143 76.5739 10.9988 76.3241 10.981C76.2825 11.381 76.2715 11.7553 76.3062 12.1293C76.3609 12.716 76.2969 13.2927 76.1958 13.8695C76.1445 14.1616 76.1056 14.4589 76.0988 14.7549C76.0891 15.1677 76.2859 15.3887 76.6978 15.4609C76.9118 15.4983 77.1299 15.5165 77.3466 15.5327C77.9466 15.5774 78.3612 15.8424 78.5178 16.4562C78.6024 16.7883 78.7211 17.1117 78.8267 17.4382C78.9103 17.6963 79.0638 17.9008 79.2785 18.071C79.4477 18.2054 79.5908 18.3721 79.7498 18.5199C80.1434 18.8859 80.5177 19.2767 80.9399 19.6067C81.4219 19.9837 81.5918 20.4649 81.5898 21.0361C80.965 21.428 80.2057 21.3245 79.747 20.7925C79.6273 20.6536 79.5138 20.5096 79.4013 20.3649C79.1811 20.0813 78.8835 19.9559 78.5346 19.9459C78.3519 19.9404 78.1675 19.9473 77.9852 19.9645C77.3435 20.0253 76.7645 19.9146 76.2619 19.4644C75.5972 18.8694 74.769 18.6841 73.9079 18.6312C73.279 18.5924 72.6476 18.5948 72.018 18.5645C71.4383 18.5364 70.9622 18.2848 70.583 17.8479C70.2582 17.4736 69.9823 17.067 69.7804 16.6133C69.6001 16.2081 69.5822 15.7998 69.8443 15.3223C69.8794 15.3914 69.9066 15.4657 69.9507 15.5286C70.1616 15.8283 70.3914 16.1156 70.5882 16.4243C71.1534 17.3114 71.9974 17.7108 73.0065 17.7912C73.5422 17.8338 74.0844 17.7898 74.6225 17.8122C75.0677 17.8307 75.5142 17.8678 75.9539 17.9362C76.4019 18.0057 76.8013 18.2095 77.1608 18.4886C77.4492 18.7123 77.743 18.9289 78.0598 19.1677C78.087 19.0447 78.1063 18.9588 78.1211 18.8914C77.9865 18.7986 77.8655 18.7185 77.7485 18.6333C77.3047 18.3099 76.8749 17.9655 76.416 17.6654C75.9168 17.3389 75.3484 17.1935 74.7518 17.1839C74.3393 17.1773 73.9265 17.188 73.5139 17.1976C73.1107 17.2072 72.7154 17.1777 72.3242 17.0615C71.8367 16.9168 71.4744 16.626 71.2088 16.2005C70.945 15.7774 70.7846 15.312 70.6594 14.8353C70.4908 14.1933 70.3473 13.545 70.1746 12.904C70.0917 12.5961 69.9792 12.2939 69.8554 11.9994C69.7927 11.8502 69.6758 11.7237 69.5698 11.5673C69.4332 11.712 69.4704 11.8416 69.4714 11.9598C69.4759 12.418 69.5065 12.8772 69.4852 13.334C69.4721 13.6151 69.4146 13.9039 69.3204 14.1692C69.1583 14.6246 68.8108 14.9099 68.3312 14.9731C67.9359 15.0254 67.5324 15.0305 67.1326 15.0312C66.7087 15.0319 66.2848 14.9989 65.8606 14.9879C65.111 14.9683 64.3764 15.0955 63.6415 15.2209C63.089 15.3155 62.5327 15.3746 61.9409 15.3756C61.8955 14.9855 62.1449 14.594 61.8907 14.2235C61.6385 14.3005 61.4369 14.4534 61.3316 14.6896C60.9896 15.456 60.3789 15.9273 59.6558 16.2971C59.3516 16.4525 59.0633 16.6463 58.7912 16.8536C58.498 17.0763 58.3353 17.3911 58.2816 17.7596C58.2606 17.9043 58.271 18.0239 58.4093 18.1167C58.7599 18.3521 59.0839 18.6357 59.4555 18.8285C59.9888 19.1049 60.4078 18.9952 60.8114 18.547C60.9645 18.3769 61.1111 18.1988 61.2404 18.0101C61.5738 17.5238 62.0455 17.3066 62.6173 17.2969C62.9001 17.2925 63.1833 17.331 63.4633 17.3499C63.5789 17.8768 63.421 18.25 63.0154 18.5195C62.8437 18.6336 62.6638 18.735 62.4842 18.8368C62.1948 19.0007 61.9743 19.2231 61.8594 19.541C61.8439 19.584 61.8181 19.6232 61.804 19.6665C61.6106 20.259 61.1768 20.4704 60.5843 20.4563C60.0858 20.4443 59.5962 20.3704 59.1393 20.1824C58.186 19.7902 57.2402 19.3791 56.3006 18.955C55.7391 18.7013 55.5238 18.1868 55.4577 17.6214C55.3307 16.5329 55.7006 15.5932 56.408 14.7772C56.55 14.6133 56.7128 14.4614 56.9643 14.4902C57.2075 14.5181 57.3211 14.6528 57.2488 14.8879C57.1958 15.0594 57.1095 15.2275 57.0073 15.3756C56.8514 15.6014 56.6711 15.8104 56.4967 16.0232C56.2758 16.2923 56.2149 16.5917 56.3099 16.9247C56.3691 17.1323 56.4272 17.3403 56.5105 17.6362C56.6158 17.4114 56.7076 17.267 56.753 17.1096C56.9134 16.5508 57.1783 16.0548 57.5416 15.5987C57.7318 15.3598 57.8794 15.0804 58.0078 14.8016C58.1519 14.4885 58.0941 14.2953 57.8371 14.0664C57.6919 13.9372 57.5326 13.8238 57.3775 13.7055C56.8968 13.3388 56.5528 12.8707 56.4073 12.285C56.2693 11.7306 56.1743 11.1655 56.0622 10.605C56.0051 10.318 55.9896 10.0141 55.725 9.79277C55.4412 9.97356 55.317 10.2451 55.318 10.5482C55.3194 10.9115 55.3479 11.2817 55.4233 11.6364C55.5279 12.1279 55.6916 12.6067 55.8203 13.0934C55.8867 13.345 55.9325 13.6021 55.9865 13.8516C55.724 13.9434 54.9974 13.9674 54.6365 13.9145C54.2425 13.8568 53.8919 13.6959 53.5575 13.4883C53.285 13.3192 53.0119 13.1501 52.7311 12.9954C52.5949 12.9202 52.4408 12.8779 52.2364 12.7975C52.3152 13.1226 52.4339 13.3629 52.5822 13.5883C52.9097 14.086 53.2603 14.5693 53.5699 15.0776C53.8427 15.5262 54.0733 16.0005 54.3206 16.4645C54.3413 16.503 54.3457 16.5501 54.3643 16.6167C54.2205 16.7078 54.0801 16.8023 53.9339 16.8876C53.7925 16.9704 53.7227 17.0873 53.7141 17.2505C53.7024 17.4678 53.6907 17.6857 53.6628 17.9012C53.5919 18.4532 53.2892 18.6845 52.7339 18.5903C52.4531 18.5429 52.1762 18.4625 51.9047 18.3748C51.6326 18.2872 51.3684 18.1737 51.1021 18.0686C50.7563 17.9321 50.3992 17.8644 50.0269 17.8744C49.8435 17.8792 49.6598 17.8716 49.4764 17.8764C49.0388 17.8878 48.6366 17.7833 48.2778 17.5262C48.2128 17.4798 48.1412 17.4423 48.071 17.4032C47.7655 17.232 47.4796 17.2612 47.2112 17.4863C47.0268 17.641 46.8263 17.7795 46.6573 17.949C46.1179 18.4903 45.4745 18.7608 44.677 18.723C44.719 18.6508 44.7513 18.5738 44.8022 18.512C44.8965 18.3968 44.9928 18.2813 45.1036 18.1823C45.9163 17.4554 46.3374 16.4889 46.7475 15.5155C46.7595 15.487 46.7557 15.4519 46.7619 15.3973C46.4285 15.423 46.1557 15.5495 45.9627 15.8039C45.7346 16.1043 45.5216 16.4174 45.319 16.736C45.0427 17.1701 44.7035 17.5338 44.2435 17.7737C43.9913 17.9053 43.7281 17.9689 43.4505 17.8517C43.4102 17.8348 43.3762 17.8036 43.3098 17.7596C43.4092 17.6217 43.4911 17.4853 43.595 17.3691C43.7477 17.1986 43.9084 17.0333 44.0804 16.8824C45.1624 15.9321 45.7776 14.702 46.1588 13.3488C46.3852 12.5459 46.5214 11.7179 46.7144 10.9054C46.969 9.83505 47.2787 8.78089 47.7459 7.78036C47.9891 7.2593 48.3125 6.79151 48.6769 6.34297C49.8325 4.91899 51.2655 3.82291 52.771 2.8045C53.7013 2.17517 54.6131 1.51903 55.5368 0.880422C55.8097 0.691726 56.0845 0.500625 56.3777 0.347675C57.0479 -0.00118878 57.7219 0.0159966 58.38 0.39545C58.9222 0.707881 59.3733 1.1327 59.7896 1.59018C59.9953 1.81634 60.2121 2.0095 60.4935 2.12258C60.7378 2.22088 60.9841 2.31643 61.2356 2.39342C62.1817 2.68386 63.0911 3.05953 63.9384 3.57234C64.6117 3.97964 65.3363 4.25873 66.0908 4.46255C66.8749 4.67461 67.6022 4.99667 68.2449 5.49745C69.01 6.09378 69.8736 6.46499 70.8238 6.65197C71.825 6.84891 72.7498 7.23524 73.6024 7.79892C74.0899 8.12132 74.5932 8.41931 75.0818 8.73999C75.69 9.13972 76.3461 9.43772 77.0363 9.65735C77.6174 9.84226 78.2109 9.85567 78.7989 9.68347C79.7887 9.39372 80.2614 8.45987 79.9142 7.48855C79.7539 7.03932 79.488 6.65265 79.1704 6.30173C78.5941 5.66415 78.0144 5.02966 77.4309 4.39827C77.0126 3.94561 76.8478 3.42936 76.974 2.8179C77.0528 2.43708 77.24 2.12155 77.562 1.92426C77.97 1.67404 78.3949 1.43963 78.837 1.25884C79.5681 0.959819 80.3188 0.708568 81.0616 0.438414C81.0912 0.427759 81.125 0.428446 81.1721 0.421572L81.1755 0.423291ZM48.4006 13.7509C48.5871 13.6471 48.6414 13.4687 48.7113 13.3041C48.9273 12.7954 49.2779 12.396 49.708 12.0595C49.9894 11.8396 50.2808 11.7859 50.5894 12.0083C50.6448 12.0482 50.7064 12.0805 50.769 12.1087C51.0425 12.2317 51.1826 12.154 51.1568 11.865C51.1028 11.2556 50.7979 10.8026 50.2674 10.4926C50.1886 10.5537 50.1301 10.5902 50.082 10.6379C49.6268 11.0885 49.1668 11.5343 48.7237 11.9966C48.5836 12.1427 48.4636 12.3214 48.3813 12.5063C48.2011 12.9119 48.1206 13.3292 48.4006 13.7513V13.7509ZM56.9887 3.55069C56.8263 3.58712 56.6718 3.59468 56.5425 3.65552C55.5145 4.13946 54.9141 4.95405 54.719 6.06663C54.6881 6.24295 54.7097 6.42478 54.8425 6.62653C54.943 6.53992 55.0366 6.48183 55.0982 6.39968C55.1584 6.31926 55.1931 6.21718 55.2265 6.12025C55.4178 5.56344 55.7835 5.15649 56.2882 4.86434C56.4169 4.78976 56.5418 4.70795 56.6608 4.61928C57.029 4.345 57.1212 4.06247 56.9887 3.55103V3.55069ZM50.4983 16.9828C50.5636 16.9567 50.7061 16.9147 50.8323 16.8443C50.9383 16.7852 50.9875 16.6824 50.9318 16.5518C50.7921 16.2246 50.5578 16.0046 50.2027 15.9462C49.9189 15.8994 49.7162 16.1146 49.7517 16.3999C49.7899 16.7075 50.1064 16.9849 50.4983 16.9828Z" fill="white"/>
<path d="M24.4653 18.1086C24.1994 18.1921 23.9644 18.2835 23.7211 18.3378C23.3286 18.4251 23.1036 18.2914 23.0072 17.8999C22.9401 17.6274 22.9216 17.3428 22.8779 17.0396C23.288 16.9331 23.6681 16.8867 24.0535 16.931C24.2799 16.9572 24.4378 17.1049 24.4598 17.3318C24.4846 17.5875 24.4653 17.8474 24.4653 18.1086Z" fill="white"/>
<path d="M60.7054 17.0284C60.8647 17.4037 60.8087 17.7069 60.6917 17.9935C60.5792 18.2695 60.3549 18.4166 60.0456 18.4056C59.9778 18.4032 59.909 18.396 59.8426 18.3812C59.1786 18.2358 59.1397 17.9853 59.2749 17.4295C59.3324 17.1927 59.4875 17.0394 59.7259 17.0256C60.0511 17.0067 60.3783 17.0256 60.7054 17.0284Z" fill="white"/>
<path d="M1.45787 18.9023C1.62232 19.4963 1.57794 20.0579 1.41865 20.613C1.32576 20.9374 1.19192 21 0.854756 20.9189C0.73434 20.89 0.614955 20.8563 0.475616 20.8195C0.510709 20.271 0.566789 19.742 0.741564 19.2313C0.798676 19.0646 0.909459 18.9639 1.08836 18.9443C1.2105 18.9309 1.33229 18.9168 1.45787 18.9023Z" fill="white"/>
<path d="M83.2701 20.993C82.9691 21.0583 82.7358 21.1085 82.4836 21.1631C82.1368 20.6225 82.0577 20.0406 82.1808 19.425C82.2142 19.258 82.3074 19.1325 82.5046 19.126C82.7372 19.1181 82.9381 19.2033 82.9763 19.3869C83.0857 19.9096 83.1703 20.4379 83.2697 20.993H83.2701Z" fill="white"/>
<path d="M80.3705 17.6511C80.6378 17.4559 80.8766 17.4865 81.1105 17.669C81.1917 17.7322 81.275 17.7931 81.3606 17.8501C81.6675 18.0543 81.8093 18.3286 81.7315 18.6998C80.944 19.0569 80.3381 18.5977 80.3705 17.6511Z" fill="white"/>
<path d="M1.91992 18.5267C1.85249 18.1191 1.99045 17.8403 2.32039 17.663C2.52097 17.5551 2.72293 17.4392 2.9383 17.3719C3.20425 17.289 3.33912 17.4165 3.29542 17.6946C3.2359 18.0747 3.03807 18.3841 2.71364 18.5882C2.61111 18.6529 2.4532 18.6549 2.32418 18.6439C2.19138 18.6326 2.06305 18.5707 1.91958 18.5267H1.91992Z" fill="white"/>
<path d="M32.6419 12.0622C32.633 11.393 32.8377 10.8492 33.4305 10.4646C33.5385 10.5337 33.652 10.5894 33.7449 10.6684C34.2947 11.1362 34.8266 11.6236 35.2075 12.245C35.331 12.4468 35.4228 12.6719 35.5013 12.8963C35.5997 13.1775 35.5409 13.4366 35.3072 13.6594C35.1025 13.5274 35.022 13.3102 34.935 13.105C34.7317 12.6265 34.3952 12.2649 33.9864 11.9559C33.7515 11.7783 33.5271 11.7339 33.2633 11.8985C33.084 12.0106 32.8917 12.1209 32.6416 12.0622H32.6419Z" fill="white"/>
<path d="M26.8306 3.48242C27.0876 3.45836 27.3267 3.54085 27.5349 3.67971C28.5078 4.33035 28.9837 5.25836 29.026 6.41769C29.027 6.45 29.0098 6.48299 28.9991 6.52252C28.8529 6.54658 28.7996 6.42422 28.7397 6.34138C28.6 6.14753 28.4703 5.94509 28.3499 5.73818C28.1167 5.33707 27.8208 4.9992 27.4365 4.73352C27.2596 4.61116 27.0904 4.46886 26.9462 4.30938C26.7126 4.05057 26.6927 3.83266 26.8303 3.48242H26.8306Z" fill="white"/>
<path d="M32.8975 16.8809C32.7651 16.257 33.2295 15.7724 33.9228 15.9907C33.9366 16.1278 33.9868 16.2873 33.9603 16.4334C33.8918 16.8135 33.7064 16.9379 33.3152 16.9135C33.1807 16.9049 33.0462 16.8929 32.8975 16.8812V16.8809Z" fill="white"/>
<path d="M48.4006 13.7509C48.1206 13.3292 48.2011 12.9115 48.3814 12.506C48.4636 12.3214 48.5837 12.1423 48.7237 11.9963C49.1668 11.534 49.6268 11.0882 50.082 10.6376C50.1302 10.5901 50.1886 10.5534 50.2674 10.4922C50.7979 10.8022 51.1028 11.2552 51.1568 11.8646C51.1826 12.1537 51.0426 12.2314 50.7691 12.1083C50.7068 12.0801 50.6449 12.0478 50.5895 12.0079C50.2805 11.7856 49.9891 11.8388 49.708 12.0592C49.278 12.3956 48.927 12.7954 48.7113 13.3037C48.6415 13.4684 48.5871 13.6467 48.4006 13.7505V13.7509Z" fill="white"/>
<path d="M56.9887 3.55064C57.1212 4.06207 57.029 4.3446 56.6608 4.61888C56.5418 4.70756 56.4165 4.78936 56.2882 4.86395C55.7835 5.15644 55.4178 5.56339 55.2265 6.11985C55.1931 6.21678 55.1584 6.3192 55.0982 6.39929C55.0366 6.48143 54.943 6.53952 54.8425 6.62614C54.7097 6.42472 54.6881 6.24256 54.719 6.06624C54.9141 4.95365 55.5145 4.13906 56.5425 3.65512C56.6718 3.59429 56.8267 3.58673 56.9887 3.55029V3.55064Z" fill="white"/>
<path d="M50.4983 16.9827C50.1064 16.9848 49.7899 16.7074 49.7517 16.3998C49.7163 16.1145 49.9189 15.8994 50.2027 15.9461C50.5578 16.0045 50.7921 16.2245 50.9318 16.5517C50.9875 16.682 50.9383 16.7847 50.8324 16.8442C50.7061 16.915 50.5637 16.9566 50.4983 16.9827Z" fill="white"/>
</svg>
