<svg width="373" height="14" viewBox="0 0 373 14" fill="none" xmlns="http://www.w3.org/2000/svg">
<path d="M8.292 9.02V11H4.812C4.092 11 3.468 10.916 2.928 10.736C2.376 10.556 1.932 10.304 1.572 9.968C1.212 9.632 0.936 9.236 0.756 8.756C0.564 8.276 0.48 7.748 0.48 7.16V5.84C0.48 5.264 0.564 4.736 0.756 4.256C0.936 3.776 1.212 3.38 1.572 3.044C1.932 2.708 2.376 2.456 2.928 2.276C3.468 2.096 4.092 2 4.812 2H8.232V3.98H4.932C4.188 3.98 3.672 4.136 3.408 4.424C3.132 4.712 3 5.192 3 5.864V7.136C3 7.808 3.132 8.3 3.42 8.588C3.696 8.876 4.224 9.02 4.992 9.02H8.292ZM16.1724 7.1V11H11.2404C10.5204 11 9.96844 10.844 9.58444 10.532C9.20044 10.22 9.00844 9.812 9.00844 9.308C9.00844 8.756 9.18844 8.324 9.57244 7.988C9.94444 7.652 10.4004 7.304 10.9284 6.944L12.9684 5.54H9.17644V3.8H12.3324C13.7004 3.8 14.6844 4.1 15.2844 4.676C15.8724 5.252 16.1724 6.068 16.1724 7.1ZM11.8884 9.26H14.0124V6.872L11.8404 8.564C11.6964 8.672 11.6004 8.756 11.5524 8.804C11.4924 8.852 11.4684 8.924 11.4684 8.996C11.4684 9.092 11.4924 9.152 11.5644 9.2C11.6244 9.248 11.7324 9.26 11.8884 9.26ZM17.5593 6.476C17.5593 6.14 17.6073 5.804 17.7153 5.48C17.8113 5.168 17.9793 4.88 18.2073 4.628C18.4233 4.388 18.7113 4.184 19.0713 4.028C19.4313 3.884 19.8513 3.8 20.3553 3.8H22.4673V5.54H20.8713C20.4633 5.54 20.1873 5.612 20.0433 5.756C19.8993 5.9 19.8393 6.152 19.8393 6.5V11H17.5593V6.476ZM23.3483 6.476C23.3483 6.14 23.3963 5.804 23.5043 5.48C23.6003 5.168 23.7683 4.88 23.9963 4.628C24.2123 4.388 24.5003 4.184 24.8603 4.028C25.2203 3.884 25.6403 3.8 26.1443 3.8H28.2563V5.54H26.6603C26.2523 5.54 25.9763 5.612 25.8323 5.756C25.6883 5.9 25.6283 6.152 25.6283 6.5V11H23.3483V6.476ZM36.115 8.072H30.967V8.12C30.967 8.576 31.063 8.888 31.267 9.032C31.459 9.188 31.807 9.26 32.299 9.26H35.947V11H32.431C31.723 11 31.123 10.928 30.643 10.772C30.163 10.616 29.767 10.4 29.479 10.112C29.191 9.824 28.975 9.488 28.843 9.08C28.711 8.684 28.651 8.24 28.651 7.76V6.848C28.651 5.9 28.927 5.144 29.479 4.568C30.031 3.992 30.931 3.704 32.191 3.704H32.671C33.343 3.704 33.895 3.788 34.351 3.944C34.795 4.112 35.143 4.34 35.407 4.628C35.671 4.916 35.851 5.264 35.959 5.672C36.055 6.08 36.115 6.536 36.115 7.028V8.072ZM32.935 5.312H31.999C31.615 5.312 31.339 5.396 31.195 5.564C31.039 5.732 30.967 6.02 30.967 6.404V6.56H33.955V6.404C33.955 6.02 33.871 5.732 33.715 5.564C33.559 5.396 33.295 5.312 32.935 5.312ZM37.2937 6.716C37.2937 6.356 37.3537 5.996 37.4977 5.636C37.6417 5.288 37.8457 4.976 38.1217 4.7C38.3977 4.436 38.7457 4.22 39.1777 4.052C39.6097 3.884 40.1137 3.8 40.6897 3.8H43.1617V5.54H40.5457C40.1617 5.54 39.8977 5.612 39.7657 5.756C39.6337 5.9 39.5737 6.152 39.5737 6.5V11H37.2937V6.716ZM48.7037 7.1V11H43.7717C43.0517 11 42.4997 10.844 42.1157 10.532C41.7317 10.22 41.5397 9.812 41.5397 9.308C41.5397 8.756 41.7197 8.324 42.1037 7.988C42.4757 7.652 42.9317 7.304 43.4597 6.944L45.4997 5.54H41.7077V3.8H44.8637C46.2317 3.8 47.2157 4.1 47.8157 4.676C48.4037 5.252 48.7037 6.068 48.7037 7.1ZM44.4197 9.26H46.5437V6.872L44.3717 8.564C44.2277 8.672 44.1317 8.756 44.0837 8.804C44.0237 8.852 43.9997 8.924 43.9997 8.996C43.9997 9.092 44.0237 9.152 44.0957 9.2C44.1557 9.248 44.2637 9.26 44.4197 9.26ZM60.1853 8.072H55.0373V8.12C55.0373 8.576 55.1333 8.888 55.3373 9.032C55.5293 9.188 55.8773 9.26 56.3693 9.26H60.0173V11H56.5013C55.7933 11 55.1933 10.928 54.7133 10.772C54.2333 10.616 53.8373 10.4 53.5493 10.112C53.2613 9.824 53.0453 9.488 52.9133 9.08C52.7813 8.684 52.7213 8.24 52.7213 7.76V6.848C52.7213 5.9 52.9973 5.144 53.5493 4.568C54.1013 3.992 55.0013 3.704 56.2613 3.704H56.7413C57.4133 3.704 57.9653 3.788 58.4213 3.944C58.8653 4.112 59.2133 4.34 59.4773 4.628C59.7413 4.916 59.9213 5.264 60.0293 5.672C60.1253 6.08 60.1853 6.536 60.1853 7.028V8.072ZM57.0053 5.312H56.0693C55.6853 5.312 55.4093 5.396 55.2653 5.564C55.1093 5.732 55.0373 6.02 55.0373 6.404V6.56H58.0253V6.404C58.0253 6.02 57.9413 5.732 57.7853 5.564C57.6293 5.396 57.3653 5.312 57.0053 5.312ZM61.364 11V3.8H65.828C66.872 3.8 67.628 4.064 68.108 4.592C68.576 5.12 68.816 5.84 68.816 6.74V11H66.536V6.68C66.536 6.32 66.464 6.056 66.344 5.9C66.224 5.744 65.984 5.66 65.636 5.66H63.644V11H61.364ZM74.8824 3.8L76.4904 8.852C76.5384 9.008 76.5744 9.104 76.6224 9.152C76.6584 9.2 76.7184 9.212 76.7904 9.212C76.8384 9.212 76.8864 9.188 76.9344 9.14C76.9704 9.092 77.0184 8.984 77.0664 8.828L78.6624 3.8H80.9424L78.9984 9.248C78.7584 9.896 78.4704 10.376 78.1224 10.676C77.7624 10.976 77.3184 11.12 76.7904 11.12C76.2144 11.12 75.7344 10.976 75.3744 10.688C75.0024 10.4 74.7144 9.944 74.4984 9.344L72.5304 3.8H74.8824ZM84.1903 3.176H81.9103V1.76H84.1903V3.176ZM81.9103 11V3.8H84.1903V11H81.9103ZM87.5153 3.8L89.1233 8.852C89.1713 9.008 89.2073 9.104 89.2553 9.152C89.2913 9.2 89.3513 9.212 89.4233 9.212C89.4713 9.212 89.5193 9.188 89.5673 9.14C89.6033 9.092 89.6513 8.984 89.6993 8.828L91.2953 3.8H93.5753L91.6313 9.248C91.3913 9.896 91.1033 10.376 90.7553 10.676C90.3953 10.976 89.9513 11.12 89.4233 11.12C88.8473 11.12 88.3673 10.976 88.0073 10.688C87.6353 10.4 87.3473 9.944 87.1313 9.344L85.1633 3.8H87.5153ZM101.62 6.968V7.832C101.62 8.84 101.308 9.632 100.708 10.232C100.108 10.832 99.2438 11.12 98.1278 11.12H97.2878C96.1598 11.12 95.2958 10.832 94.6958 10.232C94.0838 9.632 93.7838 8.84 93.7838 7.832V6.968C93.7838 5.972 94.0838 5.18 94.6958 4.58C95.2958 3.98 96.1598 3.68 97.2878 3.68H98.1278C99.2438 3.68 100.108 3.98 100.708 4.58C101.308 5.18 101.62 5.972 101.62 6.968ZM99.2798 6.776C99.2798 6.32 99.1838 5.972 99.0158 5.744C98.8478 5.516 98.5358 5.396 98.1038 5.396H97.3118C96.8678 5.396 96.5558 5.516 96.3878 5.744C96.2078 5.972 96.1238 6.32 96.1238 6.776V8.012C96.1238 8.492 96.2078 8.84 96.3878 9.068C96.5558 9.296 96.8678 9.404 97.3118 9.404H98.1038C98.5358 9.404 98.8478 9.296 99.0158 9.068C99.1838 8.84 99.2798 8.492 99.2798 8.012V6.776Z" fill="white"/>
<path d="M115 8L373 7.99998" stroke="url(#paint0_linear_1544_5800)" stroke-opacity="0.7" stroke-width="2"/>
<defs>
<linearGradient id="paint0_linear_1544_5800" x1="244" y1="7.99999" x2="244" y2="8.99999" gradientUnits="userSpaceOnUse">
<stop stop-color="white"/>
<stop offset="0.485" stop-color="white"/>
<stop offset="1" stop-color="#A90F0F"/>
</linearGradient>
</defs>
</svg>
