<svg width="175" height="14" viewBox="0 0 175 14" fill="none" xmlns="http://www.w3.org/2000/svg">
<path d="M10.008 7.124C10.008 7.724 9.912 8.276 9.732 8.768C9.552 9.26 9.288 9.68 8.928 10.028C8.568 10.376 8.112 10.64 7.56 10.832C7.008 11.024 6.36 11.12 5.64 11.12H4.848C4.116 11.12 3.48 11.024 2.928 10.832C2.376 10.64 1.92 10.376 1.56 10.028C1.2 9.68 0.924 9.26 0.744 8.768C0.564 8.276 0.48 7.724 0.48 7.124V5.876C0.48 5.276 0.564 4.736 0.744 4.244C0.924 3.752 1.2 3.332 1.56 2.984C1.92 2.636 2.376 2.36 2.928 2.168C3.48 1.976 4.116 1.88 4.848 1.88H5.64C6.36 1.88 7.008 1.976 7.56 2.168C8.112 2.36 8.568 2.636 8.928 2.984C9.288 3.332 9.552 3.752 9.732 4.244C9.912 4.736 10.008 5.276 10.008 5.876V7.124ZM3 7.22C3 7.94 3.132 8.444 3.396 8.732C3.66 9.032 4.128 9.176 4.776 9.176H5.712C6.36 9.176 6.816 9.032 7.08 8.732C7.344 8.444 7.488 7.94 7.488 7.22V5.756C7.488 5.048 7.344 4.544 7.08 4.256C6.816 3.968 6.36 3.812 5.712 3.812H4.776C4.128 3.812 3.66 3.968 3.396 4.256C3.132 4.544 3 5.048 3 5.756V7.22ZM11.1843 6.476C11.1843 6.14 11.2323 5.804 11.3403 5.48C11.4363 5.168 11.6043 4.88 11.8323 4.628C12.0483 4.388 12.3363 4.184 12.6963 4.028C13.0563 3.884 13.4763 3.8 13.9803 3.8H16.0923V5.54H14.4963C14.0883 5.54 13.8123 5.612 13.6683 5.756C13.5243 5.9 13.4643 6.152 13.4643 6.5V11H11.1843V6.476ZM24.443 2V11H19.331C18.443 11 17.747 10.712 17.243 10.112C16.739 9.524 16.487 8.744 16.487 7.76V7.04C16.487 6.068 16.739 5.288 17.243 4.688C17.747 4.1 18.443 3.8 19.331 3.8H22.163V2H24.443ZM20.111 9.224H22.163V5.576H20.111C19.619 5.576 19.283 5.696 19.103 5.912C18.911 6.14 18.827 6.488 18.827 6.956V7.904C18.827 8.384 18.911 8.72 19.103 8.924C19.283 9.128 19.619 9.224 20.111 9.224ZM33.0447 8.072H27.8967V8.12C27.8967 8.576 27.9927 8.888 28.1967 9.032C28.3887 9.188 28.7367 9.26 29.2287 9.26H32.8767V11H29.3607C28.6527 11 28.0527 10.928 27.5727 10.772C27.0927 10.616 26.6967 10.4 26.4087 10.112C26.1207 9.824 25.9047 9.488 25.7727 9.08C25.6407 8.684 25.5807 8.24 25.5807 7.76V6.848C25.5807 5.9 25.8567 5.144 26.4087 4.568C26.9607 3.992 27.8607 3.704 29.1207 3.704H29.6007C30.2727 3.704 30.8247 3.788 31.2807 3.944C31.7247 4.112 32.0727 4.34 32.3367 4.628C32.6007 4.916 32.7807 5.264 32.8887 5.672C32.9847 6.08 33.0447 6.536 33.0447 7.028V8.072ZM29.8647 5.312H28.9287C28.5447 5.312 28.2687 5.396 28.1247 5.564C27.9687 5.732 27.8967 6.02 27.8967 6.404V6.56H30.8847V6.404C30.8847 6.02 30.8007 5.732 30.6447 5.564C30.4887 5.396 30.2247 5.312 29.8647 5.312ZM34.2233 11V3.8H38.6873C39.7313 3.8 40.4873 4.064 40.9673 4.592C41.4353 5.12 41.6753 5.84 41.6753 6.74V11H39.3953V6.68C39.3953 6.32 39.3233 6.056 39.2033 5.9C39.0833 5.744 38.8433 5.66 38.4953 5.66H36.5033V11H34.2233ZM49.899 7.1V11H44.967C44.247 11 43.695 10.844 43.311 10.532C42.927 10.22 42.735 9.812 42.735 9.308C42.735 8.756 42.915 8.324 43.299 7.988C43.671 7.652 44.127 7.304 44.655 6.944L46.695 5.54H42.903V3.8H46.059C47.427 3.8 48.411 4.1 49.011 4.676C49.599 5.252 49.899 6.068 49.899 7.1ZM45.615 9.26H47.739V6.872L45.567 8.564C45.423 8.672 45.327 8.756 45.279 8.804C45.219 8.852 45.195 8.924 45.195 8.996C45.195 9.092 45.219 9.152 45.291 9.2C45.351 9.248 45.459 9.26 45.615 9.26ZM51.2858 6.476C51.2858 6.14 51.3338 5.804 51.4418 5.48C51.5378 5.168 51.7058 4.88 51.9338 4.628C52.1498 4.388 52.4378 4.184 52.7978 4.028C53.1578 3.884 53.5778 3.8 54.0818 3.8H56.1938V5.54H54.5978C54.1898 5.54 53.9138 5.612 53.7698 5.756C53.6258 5.9 53.5658 6.152 53.5658 6.5V11H51.2858V6.476ZM63.4137 5.54C62.9337 5.54 62.5857 5.648 62.3697 5.864C62.1537 6.08 62.0457 6.392 62.0457 6.824V8.06C62.0457 8.54 62.1537 8.864 62.3697 9.02C62.5857 9.188 62.9337 9.26 63.4137 9.26H66.1137V11H63.3417C62.0457 11 61.1217 10.724 60.5577 10.16C59.9817 9.608 59.7057 8.828 59.7057 7.844V6.968C59.7057 5.984 59.9817 5.216 60.5577 4.652C61.1217 4.088 62.0457 3.8 63.3417 3.8H66.1137V5.54H63.4137ZM74.7605 6.968V7.832C74.7605 8.84 74.4485 9.632 73.8485 10.232C73.2485 10.832 72.3845 11.12 71.2685 11.12H70.4285C69.3005 11.12 68.4365 10.832 67.8365 10.232C67.2245 9.632 66.9245 8.84 66.9245 7.832V6.968C66.9245 5.972 67.2245 5.18 67.8365 4.58C68.4365 3.98 69.3005 3.68 70.4285 3.68H71.2685C72.3845 3.68 73.2485 3.98 73.8485 4.58C74.4485 5.18 74.7605 5.972 74.7605 6.968ZM72.4205 6.776C72.4205 6.32 72.3245 5.972 72.1565 5.744C71.9885 5.516 71.6765 5.396 71.2445 5.396H70.4525C70.0085 5.396 69.6965 5.516 69.5285 5.744C69.3485 5.972 69.2645 6.32 69.2645 6.776V8.012C69.2645 8.492 69.3485 8.84 69.5285 9.068C69.6965 9.296 70.0085 9.404 70.4525 9.404H71.2445C71.6765 9.404 71.9885 9.296 72.1565 9.068C72.3245 8.84 72.4205 8.492 72.4205 8.012V6.776ZM75.8952 11V3.8H84.4392C85.5312 3.8 86.3232 4.064 86.8152 4.592C87.2952 5.12 87.5472 5.84 87.5472 6.74V11H85.2672V6.68C85.2672 6.32 85.1952 6.056 85.0752 5.9C84.9552 5.744 84.7152 5.66 84.3672 5.66H82.8552V11H80.5752V5.66H78.1752V11H75.8952ZM91.3739 3.176H89.0939V1.76H91.3739V3.176ZM89.0939 11V3.8H91.3739V11H89.0939ZM100.615 2V11H95.5028C94.6148 11 93.9188 10.712 93.4148 10.112C92.9108 9.524 92.6588 8.744 92.6588 7.76V7.04C92.6588 6.068 92.9108 5.288 93.4148 4.688C93.9188 4.1 94.6148 3.8 95.5028 3.8H98.3348V2H100.615ZM96.2828 9.224H98.3348V5.576H96.2828C95.7908 5.576 95.4548 5.696 95.2748 5.912C95.0828 6.14 94.9988 6.488 94.9988 6.956V7.904C94.9988 8.384 95.0828 8.72 95.2748 8.924C95.4548 9.128 95.7908 9.224 96.2828 9.224ZM108.833 7.1V11H103.901C103.181 11 102.629 10.844 102.245 10.532C101.861 10.22 101.669 9.812 101.669 9.308C101.669 8.756 101.849 8.324 102.233 7.988C102.605 7.652 103.061 7.304 103.589 6.944L105.629 5.54H101.837V3.8H104.993C106.361 3.8 107.345 4.1 107.945 4.676C108.533 5.252 108.833 6.068 108.833 7.1ZM104.549 9.26H106.673V6.872L104.501 8.564C104.357 8.672 104.261 8.756 104.213 8.804C104.153 8.852 104.129 8.924 104.129 8.996C104.129 9.092 104.153 9.152 104.225 9.2C104.285 9.248 104.393 9.26 104.549 9.26Z" fill="white"/>
<path d="M115 8L175 7.99999" stroke="url(#paint0_linear_1544_5796)" stroke-opacity="0.7" stroke-width="2"/>
<defs>
<linearGradient id="paint0_linear_1544_5796" x1="145" y1="8" x2="145" y2="9" gradientUnits="userSpaceOnUse">
<stop stop-color="white"/>
<stop offset="0.485" stop-color="white"/>
<stop offset="1" stop-color="#A90F0F"/>
</linearGradient>
</defs>
</svg>
