<svg width="372" height="14" viewBox="0 0 372 14" fill="none" xmlns="http://www.w3.org/2000/svg">
<path d="M8.292 9.02V11H4.812C4.092 11 3.468 10.916 2.928 10.736C2.376 10.556 1.932 10.304 1.572 9.968C1.212 9.632 0.936 9.236 0.756 8.756C0.564 8.276 0.48 7.748 0.48 7.16V5.84C0.48 5.264 0.564 4.736 0.756 4.256C0.936 3.776 1.212 3.38 1.572 3.044C1.932 2.708 2.376 2.456 2.928 2.276C3.468 2.096 4.092 2 4.812 2H8.232V3.98H4.932C4.188 3.98 3.672 4.136 3.408 4.424C3.132 4.712 3 5.192 3 5.864V7.136C3 7.808 3.132 8.3 3.42 8.588C3.696 8.876 4.224 9.02 4.992 9.02H8.292ZM16.1724 7.1V11H11.2404C10.5204 11 9.96844 10.844 9.58444 10.532C9.20044 10.22 9.00844 9.812 9.00844 9.308C9.00844 8.756 9.18844 8.324 9.57244 7.988C9.94444 7.652 10.4004 7.304 10.9284 6.944L12.9684 5.54H9.17644V3.8H12.3324C13.7004 3.8 14.6844 4.1 15.2844 4.676C15.8724 5.252 16.1724 6.068 16.1724 7.1ZM11.8884 9.26H14.0124V6.872L11.8404 8.564C11.6964 8.672 11.6004 8.756 11.5524 8.804C11.4924 8.852 11.4684 8.924 11.4684 8.996C11.4684 9.092 11.4924 9.152 11.5644 9.2C11.6244 9.248 11.7324 9.26 11.8884 9.26ZM17.5593 11V3.8H26.1033C27.1953 3.8 27.9873 4.064 28.4793 4.592C28.9593 5.12 29.2113 5.84 29.2113 6.74V11H26.9313V6.68C26.9313 6.32 26.8593 6.056 26.7393 5.9C26.6193 5.744 26.3793 5.66 26.0313 5.66H24.5193V11H22.2393V5.66H19.8393V11H17.5593ZM30.614 12.8V3.8H35.726C36.614 3.8 37.31 4.1 37.814 4.688C38.318 5.288 38.57 6.068 38.57 7.04V7.76C38.57 8.744 38.318 9.524 37.814 10.112C37.31 10.712 36.614 11 35.726 11H32.894V12.8H30.614ZM34.946 5.576H32.894V9.224H34.946C35.426 9.224 35.762 9.116 35.954 8.888C36.134 8.672 36.23 8.324 36.23 7.844V6.896C36.23 6.428 36.134 6.092 35.954 5.888C35.762 5.684 35.426 5.576 34.946 5.576ZM46.9197 8.072H41.7717V8.12C41.7717 8.576 41.8677 8.888 42.0717 9.032C42.2637 9.188 42.6117 9.26 43.1037 9.26H46.7517V11H43.2357C42.5277 11 41.9277 10.928 41.4477 10.772C40.9677 10.616 40.5717 10.4 40.2837 10.112C39.9957 9.824 39.7797 9.488 39.6477 9.08C39.5157 8.684 39.4557 8.24 39.4557 7.76V6.848C39.4557 5.9 39.7317 5.144 40.2837 4.568C40.8357 3.992 41.7357 3.704 42.9957 3.704H43.4757C44.1477 3.704 44.6997 3.788 45.1557 3.944C45.5997 4.112 45.9477 4.34 46.2117 4.628C46.4757 4.916 46.6557 5.264 46.7637 5.672C46.8597 6.08 46.9197 6.536 46.9197 7.028V8.072ZM43.7397 5.312H42.8037C42.4197 5.312 42.1437 5.396 41.9997 5.564C41.8437 5.732 41.7717 6.02 41.7717 6.404V6.56H44.7597V6.404C44.7597 6.02 44.6757 5.732 44.5197 5.564C44.3637 5.396 44.0997 5.312 43.7397 5.312ZM55.6823 6.968V7.832C55.6823 8.84 55.3703 9.632 54.7703 10.232C54.1703 10.832 53.3063 11.12 52.1903 11.12H51.3503C50.2223 11.12 49.3583 10.832 48.7583 10.232C48.1463 9.632 47.8463 8.84 47.8463 7.832V6.968C47.8463 5.972 48.1463 5.18 48.7583 4.58C49.3583 3.98 50.2223 3.68 51.3503 3.68H52.1903C53.3063 3.68 54.1703 3.98 54.7703 4.58C55.3703 5.18 55.6823 5.972 55.6823 6.968ZM53.3423 6.776C53.3423 6.32 53.2463 5.972 53.0783 5.744C52.9103 5.516 52.5983 5.396 52.1663 5.396H51.3743C50.9303 5.396 50.6183 5.516 50.4503 5.744C50.2703 5.972 50.1863 6.32 50.1863 6.776V8.012C50.1863 8.492 50.2703 8.84 50.4503 9.068C50.6183 9.296 50.9303 9.404 51.3743 9.404H52.1663C52.5983 9.404 52.9103 9.296 53.0783 9.068C53.2463 8.84 53.3423 8.492 53.3423 8.012V6.776ZM56.8171 11V3.8H61.2811C62.3251 3.8 63.0811 4.064 63.5611 4.592C64.0291 5.12 64.2691 5.84 64.2691 6.74V11H61.9891V6.68C61.9891 6.32 61.9171 6.056 61.7971 5.9C61.6771 5.744 61.4371 5.66 61.0891 5.66H59.0971V11H56.8171ZM72.4928 7.1V11H67.5608C66.8408 11 66.2888 10.844 65.9048 10.532C65.5208 10.22 65.3288 9.812 65.3288 9.308C65.3288 8.756 65.5088 8.324 65.8928 7.988C66.2648 7.652 66.7208 7.304 67.2488 6.944L69.2888 5.54H65.4968V3.8H68.6528C70.0208 3.8 71.0048 4.1 71.6048 4.676C72.1928 5.252 72.4928 6.068 72.4928 7.1ZM68.2088 9.26H70.3328V6.872L68.1608 8.564C68.0168 8.672 67.9208 8.756 67.8728 8.804C67.8128 8.852 67.7888 8.924 67.7888 8.996C67.7888 9.092 67.8128 9.152 67.8848 9.2C67.9448 9.248 68.0527 9.26 68.2088 9.26ZM73.4236 5.54V3.8H74.5876V2.336H76.6876V3.8H79.1476V5.54H76.6876V8.456C76.6876 8.768 76.7476 8.972 76.8796 9.092C76.9996 9.212 77.2156 9.26 77.5036 9.26H79.1476V11H77.2396C76.2436 11 75.5356 10.796 75.1036 10.376C74.6716 9.956 74.4676 9.32 74.4676 8.456V5.54H73.4236ZM87.7331 6.968V7.832C87.7331 8.84 87.4211 9.632 86.8211 10.232C86.2211 10.832 85.3571 11.12 84.2411 11.12H83.4011C82.2731 11.12 81.4091 10.832 80.8091 10.232C80.1971 9.632 79.8971 8.84 79.8971 7.832V6.968C79.8971 5.972 80.1971 5.18 80.8091 4.58C81.4091 3.98 82.2731 3.68 83.4011 3.68H84.2411C85.3571 3.68 86.2211 3.98 86.8211 4.58C87.4211 5.18 87.7331 5.972 87.7331 6.968ZM85.3931 6.776C85.3931 6.32 85.2971 5.972 85.1291 5.744C84.9611 5.516 84.6491 5.396 84.2171 5.396H83.4251C82.9811 5.396 82.6691 5.516 82.5011 5.744C82.3211 5.972 82.2371 6.32 82.2371 6.776V8.012C82.2371 8.492 82.3211 8.84 82.5011 9.068C82.6691 9.296 82.9811 9.404 83.4251 9.404H84.2171C84.6491 9.404 84.9611 9.296 85.1291 9.068C85.2971 8.84 85.3931 8.492 85.3931 8.012V6.776Z" fill="white"/>
<path d="M96 6H372" stroke="url(#paint0_linear_1546_5805)" stroke-opacity="0.7" stroke-width="2"/>
<defs>
<linearGradient id="paint0_linear_1546_5805" x1="234" y1="6" x2="234" y2="7" gradientUnits="userSpaceOnUse">
<stop stop-color="white"/>
<stop offset="0.485" stop-color="white"/>
<stop offset="1" stop-color="#A90F0F"/>
</linearGradient>
</defs>
</svg>
