<svg width="373" height="14" viewBox="0 0 373 14" fill="none" xmlns="http://www.w3.org/2000/svg">
<path d="M0.78 11V2H7.872V3.98H3.18V5.636H7.872V7.616H3.18V11H0.78ZM16.7527 6.968V7.832C16.7527 8.84 16.4407 9.632 15.8407 10.232C15.2407 10.832 14.3767 11.12 13.2607 11.12H12.4207C11.2927 11.12 10.4287 10.832 9.82866 10.232C9.21666 9.632 8.91666 8.84 8.91666 7.832V6.968C8.91666 5.972 9.21666 5.18 9.82866 4.58C10.4287 3.98 11.2927 3.68 12.4207 3.68H13.2607C14.3767 3.68 15.2407 3.98 15.8407 4.58C16.4407 5.18 16.7527 5.972 16.7527 6.968ZM14.4127 6.776C14.4127 6.32 14.3167 5.972 14.1487 5.744C13.9807 5.516 13.6687 5.396 13.2367 5.396H12.4447C12.0007 5.396 11.6887 5.516 11.5207 5.744C11.3407 5.972 11.2567 6.32 11.2567 6.776V8.012C11.2567 8.492 11.3407 8.84 11.5207 9.068C11.6887 9.296 12.0007 9.404 12.4447 9.404H13.2367C13.6687 9.404 13.9807 9.296 14.1487 9.068C14.3167 8.84 14.4127 8.492 14.4127 8.012V6.776ZM17.8874 6.476C17.8874 6.14 17.9354 5.804 18.0434 5.48C18.1394 5.168 18.3074 4.88 18.5354 4.628C18.7514 4.388 19.0394 4.184 19.3994 4.028C19.7594 3.884 20.1794 3.8 20.6834 3.8H22.7954V5.54H21.1994C20.7914 5.54 20.5154 5.612 20.3714 5.756C20.2274 5.9 20.1674 6.152 20.1674 6.5V11H17.8874V6.476ZM23.6765 11V3.8H32.2205C33.3125 3.8 34.1045 4.064 34.5965 4.592C35.0765 5.12 35.3285 5.84 35.3285 6.74V11H33.0485V6.68C33.0485 6.32 32.9765 6.056 32.8565 5.9C32.7365 5.744 32.4965 5.66 32.1485 5.66H30.6365V11H28.3565V5.66H25.9565V11H23.6765ZM43.5592 7.1V11H38.6272C37.9072 11 37.3552 10.844 36.9712 10.532C36.5872 10.22 36.3952 9.812 36.3952 9.308C36.3952 8.756 36.5752 8.324 36.9592 7.988C37.3312 7.652 37.7872 7.304 38.3152 6.944L40.3552 5.54H36.5632V3.8H39.7192C41.0872 3.8 42.0712 4.1 42.6712 4.676C43.2592 5.252 43.5592 6.068 43.5592 7.1ZM39.2752 9.26H41.3992V6.872L39.2272 8.564C39.0832 8.672 38.9872 8.756 38.9392 8.804C38.8792 8.852 38.8552 8.924 38.8552 8.996C38.8552 9.092 38.8792 9.152 38.9512 9.2C39.0112 9.248 39.1192 9.26 39.2752 9.26ZM47.8288 12.8V3.8H52.9408C53.8288 3.8 54.5248 4.1 55.0288 4.688C55.5328 5.288 55.7848 6.068 55.7848 7.04V7.76C55.7848 8.744 55.5328 9.524 55.0288 10.112C54.5248 10.712 53.8288 11 52.9408 11H50.1088V12.8H47.8288ZM52.1608 5.576H50.1088V9.224H52.1608C52.6408 9.224 52.9768 9.116 53.1688 8.888C53.3488 8.672 53.4448 8.324 53.4448 7.844V6.896C53.4448 6.428 53.3488 6.092 53.1688 5.888C52.9768 5.684 52.6408 5.576 52.1608 5.576ZM63.7506 7.1V11H58.8186C58.0986 11 57.5466 10.844 57.1626 10.532C56.7786 10.22 56.5866 9.812 56.5866 9.308C56.5866 8.756 56.7666 8.324 57.1506 7.988C57.5226 7.652 57.9786 7.304 58.5066 6.944L60.5466 5.54H56.7546V3.8H59.9106C61.2786 3.8 62.2626 4.1 62.8626 4.676C63.4506 5.252 63.7506 6.068 63.7506 7.1ZM59.4666 9.26H61.5906V6.872L59.4186 8.564C59.2746 8.672 59.1786 8.756 59.1306 8.804C59.0706 8.852 59.0466 8.924 59.0466 8.996C59.0466 9.092 59.0706 9.152 59.1426 9.2C59.2026 9.248 59.3106 9.26 59.4666 9.26ZM65.1374 6.716C65.1374 6.356 65.1974 5.996 65.3414 5.636C65.4854 5.288 65.6894 4.976 65.9654 4.7C66.2414 4.436 66.5894 4.22 67.0214 4.052C67.4534 3.884 67.9574 3.8 68.5334 3.8H71.0054V5.54H68.3894C68.0054 5.54 67.7414 5.612 67.6094 5.756C67.4774 5.9 67.4174 6.152 67.4174 6.5V11H65.1374V6.716ZM69.2634 5.54V3.8H70.4274V2.336H72.5274V3.8H74.9874V5.54H72.5274V8.456C72.5274 8.768 72.5874 8.972 72.7194 9.092C72.8394 9.212 73.0554 9.26 73.3434 9.26H74.9874V11H73.0794C72.0834 11 71.3754 10.796 70.9434 10.376C70.5114 9.956 70.3074 9.32 70.3074 8.456V5.54H69.2634ZM83.201 8.072H78.053V8.12C78.053 8.576 78.149 8.888 78.353 9.032C78.545 9.188 78.893 9.26 79.385 9.26H83.033V11H79.517C78.809 11 78.209 10.928 77.729 10.772C77.249 10.616 76.853 10.4 76.565 10.112C76.277 9.824 76.061 9.488 75.929 9.08C75.797 8.684 75.737 8.24 75.737 7.76V6.848C75.737 5.9 76.013 5.144 76.565 4.568C77.117 3.992 78.017 3.704 79.277 3.704H79.757C80.429 3.704 80.981 3.788 81.437 3.944C81.881 4.112 82.229 4.34 82.493 4.628C82.757 4.916 82.937 5.264 83.045 5.672C83.141 6.08 83.201 6.536 83.201 7.028V8.072ZM80.021 5.312H79.085C78.701 5.312 78.425 5.396 78.281 5.564C78.125 5.732 78.053 6.02 78.053 6.404V6.56H81.041V6.404C81.041 6.02 80.957 5.732 80.801 5.564C80.645 5.396 80.381 5.312 80.021 5.312ZM94.9664 2V11H89.8544C88.9664 11 88.2704 10.712 87.7664 10.112C87.2624 9.524 87.0104 8.744 87.0104 7.76V7.04C87.0104 6.068 87.2624 5.288 87.7664 4.688C88.2704 4.1 88.9664 3.8 89.8544 3.8H92.6864V2H94.9664ZM90.6344 9.224H92.6864V5.576H90.6344C90.1424 5.576 89.8064 5.696 89.6264 5.912C89.4344 6.14 89.3504 6.488 89.3504 6.956V7.904C89.3504 8.384 89.4344 8.72 89.6264 8.924C89.8064 9.128 90.1424 9.224 90.6344 9.224ZM103.568 8.072H98.4202V8.12C98.4202 8.576 98.5162 8.888 98.7202 9.032C98.9122 9.188 99.2602 9.26 99.7522 9.26H103.4V11H99.8842C99.1762 11 98.5762 10.928 98.0962 10.772C97.6162 10.616 97.2202 10.4 96.9322 10.112C96.6442 9.824 96.4282 9.488 96.2962 9.08C96.1642 8.684 96.1042 8.24 96.1042 7.76V6.848C96.1042 5.9 96.3802 5.144 96.9322 4.568C97.4842 3.992 98.3842 3.704 99.6442 3.704H100.124C100.796 3.704 101.348 3.788 101.804 3.944C102.248 4.112 102.596 4.34 102.86 4.628C103.124 4.916 103.304 5.264 103.412 5.672C103.508 6.08 103.568 6.536 103.568 7.028V8.072ZM100.388 5.312H99.4522C99.0682 5.312 98.7922 5.396 98.6482 5.564C98.4922 5.732 98.4202 6.02 98.4202 6.404V6.56H101.408V6.404C101.408 6.02 101.324 5.732 101.168 5.564C101.012 5.396 100.748 5.312 100.388 5.312ZM107.774 2H110.054V11H107.774V2ZM118.419 7.1V11H113.487C112.767 11 112.215 10.844 111.831 10.532C111.447 10.22 111.255 9.812 111.255 9.308C111.255 8.756 111.435 8.324 111.819 7.988C112.191 7.652 112.647 7.304 113.175 6.944L115.215 5.54H111.423V3.8H114.579C115.947 3.8 116.931 4.1 117.531 4.676C118.119 5.252 118.419 6.068 118.419 7.1ZM114.135 9.26H116.259V6.872L114.087 8.564C113.943 8.672 113.847 8.756 113.799 8.804C113.739 8.852 113.715 8.924 113.715 8.996C113.715 9.092 113.739 9.152 113.811 9.2C113.871 9.248 113.979 9.26 114.135 9.26ZM123.765 8.48L121.809 8.096C121.089 7.952 120.537 7.7 120.153 7.34C119.769 6.98 119.589 6.5 119.589 5.9C119.589 5.624 119.637 5.36 119.745 5.096C119.853 4.844 120.021 4.616 120.249 4.424C120.477 4.232 120.765 4.088 121.125 3.968C121.485 3.86 121.905 3.8 122.397 3.8H125.973V5.54H122.217C121.977 5.54 121.809 5.576 121.737 5.648C121.653 5.72 121.617 5.804 121.617 5.888C121.617 5.984 121.653 6.068 121.725 6.14C121.797 6.212 121.917 6.272 122.097 6.296L123.873 6.644C124.749 6.824 125.373 7.088 125.757 7.436C126.141 7.784 126.333 8.24 126.333 8.816C126.333 9.464 126.081 9.992 125.589 10.4C125.097 10.808 124.353 11 123.357 11H119.829V9.26H123.741C123.993 9.26 124.161 9.224 124.233 9.152C124.305 9.08 124.353 8.996 124.353 8.876C124.353 8.756 124.293 8.672 124.185 8.612C124.077 8.564 123.933 8.516 123.765 8.48ZM137.541 8.072H132.393V8.12C132.393 8.576 132.489 8.888 132.693 9.032C132.885 9.188 133.233 9.26 133.725 9.26H137.373V11H133.857C133.149 11 132.549 10.928 132.069 10.772C131.589 10.616 131.193 10.4 130.905 10.112C130.617 9.824 130.401 9.488 130.269 9.08C130.137 8.684 130.077 8.24 130.077 7.76V6.848C130.077 5.9 130.353 5.144 130.905 4.568C131.457 3.992 132.357 3.704 133.617 3.704H134.097C134.769 3.704 135.321 3.788 135.777 3.944C136.221 4.112 136.569 4.34 136.833 4.628C137.097 4.916 137.277 5.264 137.385 5.672C137.481 6.08 137.541 6.536 137.541 7.028V8.072ZM134.361 5.312H133.425C133.041 5.312 132.765 5.396 132.621 5.564C132.465 5.732 132.393 6.02 132.393 6.404V6.56H135.381V6.404C135.381 6.02 135.297 5.732 135.141 5.564C134.985 5.396 134.721 5.312 134.361 5.312ZM140.243 5.54H138.623V3.8H140.315C141.035 3.8 141.623 3.908 142.079 4.124C142.535 4.34 142.895 4.652 143.147 5.06C143.387 4.652 143.747 4.34 144.203 4.124C144.659 3.908 145.259 3.8 145.979 3.8H149.471V5.54H146.051C145.571 5.54 145.223 5.648 145.007 5.864C144.791 6.08 144.683 6.392 144.683 6.824V8.06C144.683 8.54 144.791 8.864 145.007 9.02C145.223 9.188 145.571 9.26 146.051 9.26H147.311V11H145.979C145.259 11 144.659 10.892 144.203 10.676C143.747 10.46 143.387 10.16 143.147 9.752C142.895 10.16 142.535 10.46 142.079 10.676C141.623 10.892 141.035 11 140.315 11H138.623V9.26H140.243C140.711 9.26 141.059 9.188 141.275 9.02C141.491 8.864 141.611 8.54 141.611 8.06V6.824C141.611 6.392 141.491 6.08 141.275 5.864C141.059 5.648 140.711 5.54 140.243 5.54ZM148.962 12.8V3.8H154.074C154.962 3.8 155.658 4.1 156.162 4.688C156.666 5.288 156.918 6.068 156.918 7.04V7.76C156.918 8.744 156.666 9.524 156.162 10.112C155.658 10.712 154.962 11 154.074 11H151.242V12.8H148.962ZM153.294 5.576H151.242V9.224H153.294C153.774 9.224 154.11 9.116 154.302 8.888C154.482 8.672 154.578 8.324 154.578 7.844V6.896C154.578 6.428 154.482 6.092 154.302 5.888C154.11 5.684 153.774 5.576 153.294 5.576ZM165.267 8.072H160.119V8.12C160.119 8.576 160.215 8.888 160.419 9.032C160.611 9.188 160.959 9.26 161.451 9.26H165.099V11H161.583C160.875 11 160.275 10.928 159.795 10.772C159.315 10.616 158.919 10.4 158.631 10.112C158.343 9.824 158.127 9.488 157.995 9.08C157.863 8.684 157.803 8.24 157.803 7.76V6.848C157.803 5.9 158.079 5.144 158.631 4.568C159.183 3.992 160.083 3.704 161.343 3.704H161.823C162.495 3.704 163.047 3.788 163.503 3.944C163.947 4.112 164.295 4.34 164.559 4.628C164.823 4.916 165.003 5.264 165.111 5.672C165.207 6.08 165.267 6.536 165.267 7.028V8.072ZM162.087 5.312H161.151C160.767 5.312 160.491 5.396 160.347 5.564C160.191 5.732 160.119 6.02 160.119 6.404V6.56H163.107V6.404C163.107 6.02 163.023 5.732 162.867 5.564C162.711 5.396 162.447 5.312 162.087 5.312ZM166.446 6.476C166.446 6.14 166.494 5.804 166.602 5.48C166.698 5.168 166.866 4.88 167.094 4.628C167.31 4.388 167.598 4.184 167.958 4.028C168.318 3.884 168.738 3.8 169.242 3.8H171.354V5.54H169.758C169.35 5.54 169.074 5.612 168.93 5.756C168.786 5.9 168.726 6.152 168.726 6.5V11H166.446V6.476ZM174.659 3.176H172.379V1.76H174.659V3.176ZM172.379 11V3.8H174.659V11H172.379ZM183.408 8.072H178.26V8.12C178.26 8.576 178.356 8.888 178.56 9.032C178.752 9.188 179.1 9.26 179.592 9.26H183.24V11H179.724C179.016 11 178.416 10.928 177.936 10.772C177.456 10.616 177.06 10.4 176.772 10.112C176.484 9.824 176.268 9.488 176.136 9.08C176.004 8.684 175.944 8.24 175.944 7.76V6.848C175.944 5.9 176.22 5.144 176.772 4.568C177.324 3.992 178.224 3.704 179.484 3.704H179.964C180.636 3.704 181.188 3.788 181.644 3.944C182.088 4.112 182.436 4.34 182.7 4.628C182.964 4.916 183.144 5.264 183.252 5.672C183.348 6.08 183.408 6.536 183.408 7.028V8.072ZM180.228 5.312H179.292C178.908 5.312 178.632 5.396 178.488 5.564C178.332 5.732 178.26 6.02 178.26 6.404V6.56H181.248V6.404C181.248 6.02 181.164 5.732 181.008 5.564C180.852 5.396 180.588 5.312 180.228 5.312ZM184.587 11V3.8H189.051C190.095 3.8 190.851 4.064 191.331 4.592C191.799 5.12 192.039 5.84 192.039 6.74V11H189.759V6.68C189.759 6.32 189.687 6.056 189.567 5.9C189.447 5.744 189.207 5.66 188.859 5.66H186.867V11H184.587ZM196.89 5.54C196.41 5.54 196.062 5.648 195.846 5.864C195.63 6.08 195.522 6.392 195.522 6.824V8.06C195.522 8.54 195.63 8.864 195.846 9.02C196.062 9.188 196.41 9.26 196.89 9.26H199.59V11H196.818C195.522 11 194.598 10.724 194.034 10.16C193.458 9.608 193.182 8.828 193.182 7.844V6.968C193.182 5.984 193.458 5.216 194.034 4.652C194.598 4.088 195.522 3.8 196.818 3.8H199.59V5.54H196.89ZM203.311 3.176H201.031V1.76H203.311V3.176ZM201.031 11V3.8H203.311V11H201.031ZM211.676 7.1V11H206.744C206.024 11 205.472 10.844 205.088 10.532C204.704 10.22 204.512 9.812 204.512 9.308C204.512 8.756 204.692 8.324 205.076 7.988C205.448 7.652 205.904 7.304 206.432 6.944L208.472 5.54H204.68V3.8H207.836C209.204 3.8 210.188 4.1 210.788 4.676C211.376 5.252 211.676 6.068 211.676 7.1ZM207.392 9.26H209.516V6.872L207.344 8.564C207.2 8.672 207.104 8.756 207.056 8.804C206.996 8.852 206.972 8.924 206.972 8.996C206.972 9.092 206.996 9.152 207.068 9.2C207.128 9.248 207.236 9.26 207.392 9.26ZM217.023 8.48L215.067 8.096C214.347 7.952 213.795 7.7 213.411 7.34C213.027 6.98 212.847 6.5 212.847 5.9C212.847 5.624 212.895 5.36 213.003 5.096C213.111 4.844 213.279 4.616 213.507 4.424C213.735 4.232 214.023 4.088 214.383 3.968C214.743 3.86 215.163 3.8 215.655 3.8H219.231V5.54H215.475C215.235 5.54 215.067 5.576 214.995 5.648C214.911 5.72 214.875 5.804 214.875 5.888C214.875 5.984 214.911 6.068 214.983 6.14C215.055 6.212 215.175 6.272 215.355 6.296L217.131 6.644C218.007 6.824 218.631 7.088 219.015 7.436C219.399 7.784 219.591 8.24 219.591 8.816C219.591 9.464 219.339 9.992 218.847 10.4C218.355 10.808 217.611 11 216.615 11H213.087V9.26H216.999C217.251 9.26 217.419 9.224 217.491 9.152C217.563 9.08 217.611 8.996 217.611 8.876C217.611 8.756 217.551 8.672 217.443 8.612C217.335 8.564 217.191 8.516 217.023 8.48ZM223.671 11V2H230.763V3.98H226.071V5.636H230.763V7.616H226.071V11H223.671ZM231.96 11V9.164H234.228V4.34C234.228 4.22 234.192 4.124 234.132 4.052C234.072 3.98 233.988 3.944 233.868 3.944H232.08V2H234.384C235.056 2 235.608 2.216 236.016 2.624C236.424 3.032 236.628 3.56 236.628 4.184V9.164H238.584V11H231.96Z" fill="white"/>
<path d="M242 7L373 7.00001" stroke="url(#paint0_linear_1544_5772)" stroke-opacity="0.7" stroke-width="2"/>
<defs>
<linearGradient id="paint0_linear_1544_5772" x1="307.5" y1="7.00001" x2="307.5" y2="8.00001" gradientUnits="userSpaceOnUse">
<stop stop-color="white"/>
<stop offset="0.485" stop-color="white"/>
<stop offset="1" stop-color="#A90F0F"/>
</linearGradient>
</defs>
</svg>
