<svg width="373" height="14" viewBox="0 0 373 14" fill="none" xmlns="http://www.w3.org/2000/svg">
<path d="M8.292 9.02V11H4.812C4.092 11 3.468 10.916 2.928 10.736C2.376 10.556 1.932 10.304 1.572 9.968C1.212 9.632 0.936 9.236 0.756 8.756C0.564 8.276 0.48 7.748 0.48 7.16V5.84C0.48 5.264 0.564 4.736 0.756 4.256C0.936 3.776 1.212 3.38 1.572 3.044C1.932 2.708 2.376 2.456 2.928 2.276C3.468 2.096 4.092 2 4.812 2H8.232V3.98H4.932C4.188 3.98 3.672 4.136 3.408 4.424C3.132 4.712 3 5.192 3 5.864V7.136C3 7.808 3.132 8.3 3.42 8.588C3.696 8.876 4.224 9.02 4.992 9.02H8.292ZM14.5164 9.14V3.8H16.7964V11H12.3324C11.2764 11 10.5204 10.736 10.0524 10.208C9.57244 9.68 9.34444 8.972 9.34444 8.06V3.8H11.6244V8.12C11.6244 8.492 11.6844 8.756 11.8044 8.912C11.9244 9.068 12.1644 9.14 12.5244 9.14H14.5164ZM25.4041 8.072H20.2561V8.12C20.2561 8.576 20.3521 8.888 20.5561 9.032C20.7481 9.188 21.0961 9.26 21.5881 9.26H25.2361V11H21.7201C21.0121 11 20.4121 10.928 19.9321 10.772C19.4521 10.616 19.0561 10.4 18.7681 10.112C18.4801 9.824 18.2641 9.488 18.1321 9.08C18.0001 8.684 17.9401 8.24 17.9401 7.76V6.848C17.9401 5.9 18.2161 5.144 18.7681 4.568C19.3201 3.992 20.2201 3.704 21.4801 3.704H21.9601C22.6321 3.704 23.1841 3.788 23.6401 3.944C24.0841 4.112 24.4321 4.34 24.6961 4.628C24.9601 4.916 25.1401 5.264 25.2481 5.672C25.3441 6.08 25.4041 6.536 25.4041 7.028V8.072ZM22.2241 5.312H21.2881C20.9041 5.312 20.6281 5.396 20.4841 5.564C20.3281 5.732 20.2561 6.02 20.2561 6.404V6.56H23.2441V6.404C23.2441 6.02 23.1601 5.732 23.0041 5.564C22.8481 5.396 22.5841 5.312 22.2241 5.312ZM26.5827 11V3.8H31.0467C32.0907 3.8 32.8467 4.064 33.3267 4.592C33.7947 5.12 34.0347 5.84 34.0347 6.74V11H31.7547V6.68C31.7547 6.32 31.6827 6.056 31.5627 5.9C31.4427 5.744 31.2027 5.66 30.8547 5.66H28.8627V11H26.5827ZM34.9744 5.54V3.8H36.1384V2.336H38.2384V3.8H42.1384V5.54H38.2384V8.456C38.2384 8.768 38.2984 8.972 38.4304 9.092C38.5504 9.212 38.7664 9.26 39.0544 9.26H40.2184V11H38.7904C37.7944 11 37.0864 10.796 36.6544 10.376C36.2224 9.956 36.0184 9.32 36.0184 8.456V5.54H34.9744ZM48.399 7.1V11H43.467C42.747 11 42.195 10.844 41.811 10.532C41.427 10.22 41.235 9.812 41.235 9.308C41.235 8.756 41.415 8.324 41.799 7.988C42.171 7.652 42.627 7.304 43.155 6.944L45.195 5.54H41.403V3.8H44.559C45.927 3.8 46.911 4.1 47.511 4.676C48.099 5.252 48.399 6.068 48.399 7.1ZM44.115 9.26H46.239V6.872L44.067 8.564C43.923 8.672 43.827 8.756 43.779 8.804C43.719 8.852 43.695 8.924 43.695 8.996C43.695 9.092 43.719 9.152 43.791 9.2C43.851 9.248 43.959 9.26 44.115 9.26ZM52.6687 6.476C52.6687 6.14 52.7167 5.804 52.8247 5.48C52.9207 5.168 53.0887 4.88 53.3167 4.628C53.5327 4.388 53.8207 4.184 54.1807 4.028C54.5407 3.884 54.9607 3.8 55.4647 3.8H57.5767V5.54H55.9807C55.5727 5.54 55.2967 5.612 55.1527 5.756C55.0087 5.9 54.9487 6.152 54.9487 6.5V11H52.6687V6.476ZM65.4353 8.072H60.2873V8.12C60.2873 8.576 60.3833 8.888 60.5873 9.032C60.7793 9.188 61.1273 9.26 61.6193 9.26H65.2673V11H61.7513C61.0433 11 60.4433 10.928 59.9633 10.772C59.4833 10.616 59.0873 10.4 58.7993 10.112C58.5113 9.824 58.2953 9.488 58.1633 9.08C58.0313 8.684 57.9713 8.24 57.9713 7.76V6.848C57.9713 5.9 58.2473 5.144 58.7993 4.568C59.3513 3.992 60.2513 3.704 61.5113 3.704H61.9913C62.6633 3.704 63.2153 3.788 63.6713 3.944C64.1153 4.112 64.4633 4.34 64.7273 4.628C64.9913 4.916 65.1713 5.264 65.2793 5.672C65.3753 6.08 65.4353 6.536 65.4353 7.028V8.072ZM62.2553 5.312H61.3193C60.9353 5.312 60.6593 5.396 60.5153 5.564C60.3593 5.732 60.2873 6.02 60.2873 6.404V6.56H63.2753V6.404C63.2753 6.02 63.1913 5.732 63.0353 5.564C62.8793 5.396 62.6153 5.312 62.2553 5.312ZM70.298 12.8H66.854V11.096H70.322C70.934 11.096 71.33 11.024 71.522 10.88C71.702 10.736 71.798 10.52 71.798 10.232V10.076H69.146C68.294 10.076 67.622 9.824 67.118 9.296C66.614 8.78 66.362 8.06 66.362 7.136V6.86C66.362 5.912 66.614 5.168 67.118 4.616C67.622 4.076 68.294 3.8 69.146 3.8H74.078V10.016C74.078 11.024 73.778 11.732 73.202 12.164C72.614 12.596 71.642 12.8 70.298 12.8ZM69.854 8.444H71.798V5.552H69.854C69.422 5.552 69.122 5.648 68.954 5.816C68.786 5.984 68.702 6.284 68.702 6.692V7.244C68.702 7.652 68.786 7.964 68.954 8.156C69.122 8.348 69.422 8.444 69.854 8.444ZM75.4733 6.476C75.4733 6.14 75.5213 5.804 75.6293 5.48C75.7253 5.168 75.8933 4.88 76.1213 4.628C76.3373 4.388 76.6253 4.184 76.9853 4.028C77.3453 3.884 77.7653 3.8 78.2693 3.8H80.3813V5.54H78.7853C78.3773 5.54 78.1013 5.612 77.9573 5.756C77.8133 5.9 77.7533 6.152 77.7533 6.5V11H75.4733V6.476ZM88.24 8.072H83.092V8.12C83.092 8.576 83.188 8.888 83.392 9.032C83.584 9.188 83.932 9.26 84.424 9.26H88.072V11H84.556C83.848 11 83.248 10.928 82.768 10.772C82.288 10.616 81.892 10.4 81.604 10.112C81.316 9.824 81.1 9.488 80.968 9.08C80.836 8.684 80.776 8.24 80.776 7.76V6.848C80.776 5.9 81.052 5.144 81.604 4.568C82.156 3.992 83.056 3.704 84.316 3.704H84.796C85.468 3.704 86.02 3.788 86.476 3.944C86.92 4.112 87.268 4.34 87.532 4.628C87.796 4.916 87.976 5.264 88.084 5.672C88.18 6.08 88.24 6.536 88.24 7.028V8.072ZM85.06 5.312H84.124C83.74 5.312 83.464 5.396 83.32 5.564C83.164 5.732 83.092 6.02 83.092 6.404V6.56H86.08V6.404C86.08 6.02 85.996 5.732 85.84 5.564C85.684 5.396 85.42 5.312 85.06 5.312ZM93.133 8.48L91.177 8.096C90.457 7.952 89.905 7.7 89.521 7.34C89.137 6.98 88.957 6.5 88.957 5.9C88.957 5.624 89.005 5.36 89.113 5.096C89.221 4.844 89.389 4.616 89.617 4.424C89.845 4.232 90.133 4.088 90.493 3.968C90.853 3.86 91.273 3.8 91.765 3.8H95.341V5.54H91.585C91.345 5.54 91.177 5.576 91.105 5.648C91.021 5.72 90.985 5.804 90.985 5.9C90.985 6.008 91.021 6.092 91.093 6.152C91.165 6.224 91.285 6.272 91.465 6.296L93.241 6.644C94.117 6.824 94.741 7.088 95.125 7.436C95.509 7.784 95.701 8.24 95.701 8.816C95.701 9.464 95.449 9.992 94.957 10.4C94.465 10.808 93.721 11 92.725 11H86.797V9.26H93.049C93.301 9.26 93.481 9.224 93.577 9.152C93.673 9.08 93.721 8.984 93.721 8.864C93.721 8.744 93.661 8.66 93.553 8.612C93.445 8.564 93.301 8.516 93.133 8.48ZM99.2372 3.176H96.9572V1.76H99.2372V3.176ZM96.9572 11V3.8H99.2372V11H96.9572ZM102.562 3.8L104.17 8.852C104.218 9.008 104.254 9.104 104.302 9.152C104.338 9.2 104.398 9.212 104.47 9.212C104.518 9.212 104.566 9.188 104.614 9.14C104.65 9.092 104.698 8.984 104.746 8.828L106.342 3.8H108.622L106.678 9.248C106.438 9.896 106.15 10.376 105.802 10.676C105.442 10.976 104.998 11.12 104.47 11.12C103.894 11.12 103.414 10.976 103.054 10.688C102.682 10.4 102.394 9.944 102.178 9.344L100.21 3.8H102.562ZM116.274 7.1V11H111.342C110.622 11 110.07 10.844 109.686 10.532C109.302 10.22 109.11 9.812 109.11 9.308C109.11 8.756 109.29 8.324 109.674 7.988C110.046 7.652 110.502 7.304 111.03 6.944L113.07 5.54H109.278V3.8H112.434C113.802 3.8 114.786 4.1 115.386 4.676C115.974 5.252 116.274 6.068 116.274 7.1ZM111.99 9.26H114.114V6.872L111.942 8.564C111.798 8.672 111.702 8.756 111.654 8.804C111.594 8.852 111.57 8.924 111.57 8.996C111.57 9.092 111.594 9.152 111.666 9.2C111.726 9.248 111.834 9.26 111.99 9.26Z" fill="white"/>
<path d="M132 7L373 7.00002" stroke="url(#paint0_linear_1526_6369)" stroke-opacity="0.7" stroke-width="2"/>
<defs>
<linearGradient id="paint0_linear_1526_6369" x1="252.5" y1="7.00001" x2="252.5" y2="8.00001" gradientUnits="userSpaceOnUse">
<stop stop-color="white"/>
<stop offset="0.485" stop-color="white"/>
<stop offset="1" stop-color="#A90F0F"/>
</linearGradient>
</defs>
</svg>
