<svg width="376" height="14" viewBox="0 0 376 14" fill="none" xmlns="http://www.w3.org/2000/svg">
<path d="M1.134 12V2.396H2.702V10.642H7.49V12H1.134ZM11.7986 12.168C11.0333 12.168 10.3846 12.0327 9.85261 11.762C9.32994 11.482 8.93328 11.0573 8.66261 10.488C8.40128 9.91867 8.27061 9.19533 8.27061 8.318C8.27061 7.43133 8.40128 6.708 8.66261 6.148C8.93328 5.57867 9.32994 5.15867 9.85261 4.888C10.3846 4.608 11.0333 4.468 11.7986 4.468C12.5826 4.468 13.2359 4.608 13.7586 4.888C14.2813 5.15867 14.6733 5.57867 14.9346 6.148C15.2053 6.708 15.3406 7.43133 15.3406 8.318C15.3406 9.19533 15.2053 9.91867 14.9346 10.488C14.6733 11.0573 14.2813 11.482 13.7586 11.762C13.2359 12.0327 12.5826 12.168 11.7986 12.168ZM11.7986 10.964C12.2653 10.964 12.6479 10.8753 12.9466 10.698C13.2453 10.5113 13.4646 10.2313 13.6046 9.858C13.7539 9.48467 13.8286 9.01333 13.8286 8.444V8.192C13.8286 7.62267 13.7539 7.15133 13.6046 6.778C13.4646 6.40467 13.2453 6.12933 12.9466 5.952C12.6479 5.76533 12.2653 5.672 11.7986 5.672C11.3413 5.672 10.9633 5.76533 10.6646 5.952C10.3659 6.12933 10.1419 6.40467 9.99261 6.778C9.85261 7.15133 9.78261 7.62267 9.78261 8.192V8.444C9.78261 9.01333 9.85261 9.48467 9.99261 9.858C10.1419 10.2313 10.3659 10.5113 10.6646 10.698C10.9633 10.8753 11.3413 10.964 11.7986 10.964ZM19.7507 12.168C19.0134 12.168 18.3974 12.0327 17.9027 11.762C17.4081 11.482 17.0347 11.0573 16.7827 10.488C16.5401 9.91867 16.4187 9.19533 16.4187 8.318C16.4187 7.44067 16.5447 6.722 16.7967 6.162C17.0487 5.59267 17.4221 5.168 17.9167 4.888C18.4207 4.608 19.0367 4.468 19.7647 4.468C20.2687 4.468 20.7074 4.53333 21.0807 4.664C21.4541 4.78533 21.7714 4.972 22.0327 5.224C22.2941 5.46667 22.4854 5.77 22.6067 6.134C22.7374 6.498 22.8027 6.91333 22.8027 7.38H21.3327C21.3327 6.988 21.2767 6.666 21.1647 6.414C21.0527 6.162 20.8801 5.97533 20.6467 5.854C20.4134 5.72333 20.1101 5.658 19.7367 5.658C19.3447 5.658 19.0134 5.75133 18.7427 5.938C18.4721 6.11533 18.2667 6.39067 18.1267 6.764C17.9867 7.128 17.9167 7.60867 17.9167 8.206V8.444C17.9167 9.01333 17.9821 9.48933 18.1127 9.872C18.2527 10.2453 18.4581 10.5253 18.7287 10.712C19.0087 10.8893 19.3634 10.978 19.7927 10.978C20.1661 10.978 20.4647 10.9127 20.6887 10.782C20.9221 10.642 21.0947 10.446 21.2067 10.194C21.3281 9.93267 21.3887 9.62 21.3887 9.256H22.8027C22.8027 9.69467 22.7374 10.0913 22.6067 10.446C22.4854 10.8007 22.2941 11.1087 22.0327 11.37C21.7807 11.622 21.4634 11.818 21.0807 11.958C20.6981 12.098 20.2547 12.168 19.7507 12.168ZM26.1379 12.168C25.9046 12.168 25.6526 12.14 25.3819 12.084C25.1112 12.028 24.8546 11.9253 24.6119 11.776C24.3786 11.6267 24.1872 11.4213 24.0379 11.16C23.8886 10.8893 23.8139 10.5393 23.8139 10.11C23.8139 9.606 23.9306 9.19067 24.1639 8.864C24.3972 8.53733 24.7239 8.28067 25.1439 8.094C25.5639 7.90733 26.0632 7.77667 26.6419 7.702C27.2299 7.62733 27.8692 7.59 28.5599 7.59V6.862C28.5599 6.61933 28.5179 6.40467 28.4339 6.218C28.3592 6.03133 28.2146 5.88667 27.9999 5.784C27.7946 5.68133 27.4959 5.63 27.1039 5.63C26.7119 5.63 26.4039 5.68133 26.1799 5.784C25.9652 5.87733 25.8112 5.99867 25.7179 6.148C25.6339 6.288 25.5919 6.442 25.5919 6.61V6.82H24.1919C24.1826 6.77333 24.1779 6.72667 24.1779 6.68C24.1779 6.63333 24.1779 6.57733 24.1779 6.512C24.1779 6.07333 24.2992 5.70467 24.5419 5.406C24.7939 5.098 25.1439 4.86467 25.5919 4.706C26.0399 4.54733 26.5579 4.468 27.1459 4.468C27.7806 4.468 28.3079 4.56133 28.7279 4.748C29.1572 4.92533 29.4792 5.182 29.6939 5.518C29.9086 5.854 30.0159 6.26 30.0159 6.736V10.474C30.0159 10.6513 30.0579 10.7773 30.1419 10.852C30.2352 10.9267 30.3426 10.964 30.4639 10.964H30.9679V11.944C30.8559 11.9907 30.7159 12.0373 30.5479 12.084C30.3799 12.1307 30.1839 12.154 29.9599 12.154C29.7079 12.154 29.4932 12.1073 29.3159 12.014C29.1479 11.93 29.0079 11.8087 28.8959 11.65C28.7932 11.482 28.7232 11.2953 28.6859 11.09H28.6019C28.4339 11.3047 28.2286 11.496 27.9859 11.664C27.7526 11.8227 27.4819 11.944 27.1739 12.028C26.8659 12.1213 26.5206 12.168 26.1379 12.168ZM26.5439 10.964C26.8332 10.964 27.0992 10.922 27.3419 10.838C27.5939 10.7447 27.8086 10.6187 27.9859 10.46C28.1632 10.292 28.3032 10.096 28.4059 9.872C28.5086 9.63867 28.5599 9.38667 28.5599 9.116V8.626C27.9159 8.626 27.3512 8.66333 26.8659 8.738C26.3806 8.81267 26.0026 8.95267 25.7319 9.158C25.4612 9.354 25.3259 9.62933 25.3259 9.984C25.3259 10.1987 25.3726 10.3807 25.4659 10.53C25.5592 10.67 25.6992 10.7773 25.8859 10.852C26.0726 10.9267 26.2919 10.964 26.5439 10.964ZM34.8992 12.168C34.1618 12.168 33.5458 12.0327 33.0512 11.762C32.5565 11.482 32.1832 11.0573 31.9312 10.488C31.6885 9.91867 31.5672 9.19533 31.5672 8.318C31.5672 7.44067 31.6932 6.722 31.9452 6.162C32.1972 5.59267 32.5705 5.168 33.0652 4.888C33.5692 4.608 34.1852 4.468 34.9132 4.468C35.4172 4.468 35.8558 4.53333 36.2292 4.664C36.6025 4.78533 36.9198 4.972 37.1812 5.224C37.4425 5.46667 37.6338 5.77 37.7552 6.134C37.8858 6.498 37.9512 6.91333 37.9512 7.38H36.4812C36.4812 6.988 36.4252 6.666 36.3132 6.414C36.2012 6.162 36.0285 5.97533 35.7952 5.854C35.5618 5.72333 35.2585 5.658 34.8852 5.658C34.4932 5.658 34.1618 5.75133 33.8912 5.938C33.6205 6.11533 33.4152 6.39067 33.2752 6.764C33.1352 7.128 33.0652 7.60867 33.0652 8.206V8.444C33.0652 9.01333 33.1305 9.48933 33.2612 9.872C33.4012 10.2453 33.6065 10.5253 33.8772 10.712C34.1572 10.8893 34.5118 10.978 34.9412 10.978C35.3145 10.978 35.6132 10.9127 35.8372 10.782C36.0705 10.642 36.2432 10.446 36.3552 10.194C36.4765 9.93267 36.5372 9.62 36.5372 9.256H37.9512C37.9512 9.69467 37.8858 10.0913 37.7552 10.446C37.6338 10.8007 37.4425 11.1087 37.1812 11.37C36.9292 11.622 36.6118 11.818 36.2292 11.958C35.8465 12.098 35.4032 12.168 34.8992 12.168ZM39.4243 3.362V1.878H40.8803V3.362H39.4243ZM39.4243 12V4.636H40.8803V12H39.4243ZM45.8963 12.168C45.1309 12.168 44.4823 12.0327 43.9503 11.762C43.4276 11.482 43.0309 11.0573 42.7603 10.488C42.4989 9.91867 42.3683 9.19533 42.3683 8.318C42.3683 7.43133 42.4989 6.708 42.7603 6.148C43.0309 5.57867 43.4276 5.15867 43.9503 4.888C44.4823 4.608 45.1309 4.468 45.8963 4.468C46.6803 4.468 47.3336 4.608 47.8563 4.888C48.3789 5.15867 48.7709 5.57867 49.0323 6.148C49.3029 6.708 49.4383 7.43133 49.4383 8.318C49.4383 9.19533 49.3029 9.91867 49.0323 10.488C48.7709 11.0573 48.3789 11.482 47.8563 11.762C47.3336 12.0327 46.6803 12.168 45.8963 12.168ZM45.8963 10.964C46.3629 10.964 46.7456 10.8753 47.0443 10.698C47.3429 10.5113 47.5623 10.2313 47.7023 9.858C47.8516 9.48467 47.9263 9.01333 47.9263 8.444V8.192C47.9263 7.62267 47.8516 7.15133 47.7023 6.778C47.5623 6.40467 47.3429 6.12933 47.0443 5.952C46.7456 5.76533 46.3629 5.672 45.8963 5.672C45.4389 5.672 45.0609 5.76533 44.7623 5.952C44.4636 6.12933 44.2396 6.40467 44.0903 6.778C43.9503 7.15133 43.8803 7.62267 43.8803 8.192V8.444C43.8803 9.01333 43.9503 9.48467 44.0903 9.858C44.2396 10.2313 44.4636 10.5113 44.7623 10.698C45.0609 10.8753 45.4389 10.964 45.8963 10.964ZM50.9224 12V4.636H52.1264L52.2524 5.686H52.3504C52.5277 5.41533 52.7377 5.19133 52.9804 5.014C53.223 4.83667 53.489 4.70133 53.7784 4.608C54.077 4.51467 54.4037 4.468 54.7584 4.468C55.225 4.468 55.6357 4.552 55.9904 4.72C56.345 4.87867 56.6204 5.14 56.8164 5.504C57.0217 5.868 57.1244 6.358 57.1244 6.974V12H55.6684V7.198C55.6684 6.918 55.631 6.68467 55.5564 6.498C55.491 6.31133 55.393 6.162 55.2624 6.05C55.1317 5.938 54.9777 5.85867 54.8004 5.812C54.623 5.76533 54.427 5.742 54.2124 5.742C53.8764 5.742 53.5684 5.826 53.2884 5.994C53.0177 6.15267 52.7984 6.37667 52.6304 6.666C52.4624 6.95533 52.3784 7.296 52.3784 7.688V12H50.9224ZM61.9998 12.168C61.2438 12.168 60.6091 12.0327 60.0958 11.762C59.5918 11.482 59.2091 11.0573 58.9478 10.488C58.6864 9.91867 58.5558 9.19533 58.5558 8.318C58.5558 7.43133 58.6864 6.708 58.9478 6.148C59.2091 5.57867 59.5964 5.15867 60.1098 4.888C60.6231 4.608 61.2624 4.468 62.0278 4.468C62.7278 4.468 63.3111 4.60333 63.7778 4.874C64.2538 5.13533 64.6131 5.53667 64.8558 6.078C65.0984 6.61933 65.2198 7.30067 65.2198 8.122V8.682H60.0538C60.0724 9.20467 60.1518 9.64333 60.2918 9.998C60.4318 10.3433 60.6418 10.6 60.9218 10.768C61.2111 10.9267 61.5751 11.006 62.0138 11.006C62.2844 11.006 62.5271 10.9733 62.7418 10.908C62.9564 10.8333 63.1384 10.7307 63.2878 10.6C63.4371 10.46 63.5538 10.2967 63.6378 10.11C63.7218 9.914 63.7638 9.69467 63.7638 9.452H65.1918C65.1918 9.89067 65.1171 10.278 64.9678 10.614C64.8184 10.95 64.5991 11.2347 64.3098 11.468C64.0298 11.692 63.6938 11.8647 63.3018 11.986C62.9098 12.1073 62.4758 12.168 61.9998 12.168ZM60.0818 7.618H63.6938C63.6938 7.254 63.6518 6.95067 63.5678 6.708C63.4931 6.456 63.3811 6.25067 63.2318 6.092C63.0824 5.93333 62.9051 5.82133 62.6998 5.756C62.4944 5.68133 62.2611 5.644 61.9998 5.644C61.6078 5.644 61.2718 5.714 60.9918 5.854C60.7211 5.994 60.5111 6.21333 60.3618 6.512C60.2124 6.80133 60.1191 7.17 60.0818 7.618ZM69.4157 12.168C68.9024 12.168 68.4497 12.112 68.0577 12C67.6657 11.888 67.3391 11.734 67.0777 11.538C66.8164 11.342 66.6157 11.1087 66.4757 10.838C66.3451 10.558 66.2797 10.25 66.2797 9.914C66.2797 9.86733 66.2797 9.82533 66.2797 9.788C66.2891 9.75067 66.2937 9.718 66.2937 9.69H67.7357C67.7357 9.718 67.7357 9.746 67.7357 9.774C67.7357 9.79267 67.7357 9.816 67.7357 9.844C67.7357 10.1333 67.8151 10.3667 67.9737 10.544C68.1324 10.712 68.3424 10.8333 68.6037 10.908C68.8744 10.9733 69.1684 11.006 69.4857 11.006C69.7657 11.006 70.0224 10.9733 70.2557 10.908C70.4984 10.8333 70.6944 10.726 70.8437 10.586C71.0024 10.446 71.0817 10.2687 71.0817 10.054C71.0817 9.774 70.9837 9.55933 70.7877 9.41C70.5917 9.26067 70.3351 9.144 70.0177 9.06C69.7004 8.96667 69.3691 8.86867 69.0237 8.766C68.7157 8.682 68.4077 8.59333 68.0997 8.5C67.8011 8.39733 67.5304 8.26667 67.2877 8.108C67.0451 7.94933 66.8491 7.74867 66.6997 7.506C66.5504 7.26333 66.4757 6.96 66.4757 6.596C66.4757 6.25067 66.5504 5.94733 66.6997 5.686C66.8491 5.42467 67.0544 5.20533 67.3157 5.028C67.5864 4.85067 67.9037 4.71533 68.2677 4.622C68.6411 4.52867 69.0471 4.482 69.4857 4.482C69.9431 4.482 70.3491 4.53333 70.7037 4.636C71.0584 4.72933 71.3571 4.86467 71.5997 5.042C71.8517 5.21933 72.0431 5.434 72.1737 5.686C72.3044 5.92867 72.3697 6.19 72.3697 6.47C72.3697 6.526 72.3651 6.58667 72.3557 6.652C72.3557 6.708 72.3557 6.74533 72.3557 6.764H70.9277V6.638C70.9277 6.45133 70.8764 6.28333 70.7737 6.134C70.6711 5.98467 70.5077 5.86333 70.2837 5.77C70.0691 5.67667 69.7797 5.63 69.4157 5.63C69.1731 5.63 68.9584 5.65333 68.7717 5.7C68.5851 5.73733 68.4311 5.79333 68.3097 5.868C68.1884 5.94267 68.0951 6.03133 68.0297 6.134C67.9737 6.23667 67.9457 6.35333 67.9457 6.484C67.9457 6.69867 68.0204 6.86667 68.1697 6.988C68.3284 7.1 68.5337 7.198 68.7857 7.282C69.0377 7.35667 69.3084 7.44067 69.5977 7.534C69.9337 7.62733 70.2744 7.72533 70.6197 7.828C70.9651 7.92133 71.2824 8.04267 71.5717 8.192C71.8704 8.34133 72.1084 8.54667 72.2857 8.808C72.4724 9.06933 72.5657 9.41933 72.5657 9.858C72.5657 10.2593 72.4864 10.6093 72.3277 10.908C72.1691 11.2067 71.9451 11.4493 71.6557 11.636C71.3757 11.8133 71.0444 11.944 70.6617 12.028C70.2791 12.1213 69.8637 12.168 69.4157 12.168Z" fill="white"/>
<path d="M80 8L376 8.00003" stroke="url(#paint0_linear_1206_4393)" stroke-opacity="0.7" stroke-width="2"/>
<defs>
<linearGradient id="paint0_linear_1206_4393" x1="228" y1="8.00001" x2="228" y2="9.00001" gradientUnits="userSpaceOnUse">
<stop stop-color="white"/>
<stop offset="0.485" stop-color="white"/>
<stop offset="1" stop-color="#A90F0F"/>
</linearGradient>
</defs>
</svg>
