<svg width="376" height="14" viewBox="0 0 376 14" fill="none" xmlns="http://www.w3.org/2000/svg">
<path d="M9.42 11H6.732L4.344 8.252C4.14 8.024 3.996 7.796 3.924 7.568C3.84 7.352 3.804 7.148 3.804 6.968C3.804 6.584 3.924 6.284 4.164 6.08C4.404 5.876 4.728 5.768 5.136 5.768H6.324C6.588 5.768 6.78 5.696 6.912 5.552C7.032 5.408 7.104 5.216 7.104 4.988V4.592C7.104 4.352 7.032 4.172 6.912 4.04C6.792 3.92 6.588 3.848 6.3 3.848H3.18V11H0.78V2H6.06C7.212 2 8.076 2.192 8.628 2.576C9.18 2.96 9.456 3.584 9.456 4.436V4.952C9.456 5.336 9.372 5.672 9.228 5.96C9.072 6.248 8.868 6.5 8.616 6.692C8.364 6.896 8.064 7.052 7.728 7.16C7.392 7.268 7.032 7.316 6.66 7.316H6.372L9.42 11ZM17.4236 8.072H12.2756V8.12C12.2756 8.576 12.3716 8.888 12.5756 9.032C12.7676 9.188 13.1156 9.26 13.6076 9.26H17.2556V11H13.7396C13.0316 11 12.4316 10.928 11.9516 10.772C11.4716 10.616 11.0756 10.4 10.7876 10.112C10.4996 9.824 10.2836 9.488 10.1516 9.08C10.0196 8.684 9.95963 8.24 9.95963 7.76V6.848C9.95963 5.9 10.2356 5.144 10.7876 4.568C11.3396 3.992 12.2396 3.704 13.4996 3.704H13.9796C14.6516 3.704 15.2036 3.788 15.6596 3.944C16.1036 4.112 16.4516 4.34 16.7156 4.628C16.9796 4.916 17.1596 5.264 17.2676 5.672C17.3636 6.08 17.4236 6.536 17.4236 7.028V8.072ZM14.2436 5.312H13.3076C12.9236 5.312 12.6476 5.396 12.5036 5.564C12.3476 5.732 12.2756 6.02 12.2756 6.404V6.56H15.2636V6.404C15.2636 6.02 15.1796 5.732 15.0236 5.564C14.8676 5.396 14.6036 5.312 14.2436 5.312ZM22.2863 12.8H18.8423V11.096H22.3103C22.9223 11.096 23.3183 11.024 23.5103 10.88C23.6903 10.736 23.7863 10.52 23.7863 10.232V10.076H21.1343C20.2823 10.076 19.6103 9.824 19.1063 9.296C18.6023 8.78 18.3503 8.06 18.3503 7.136V6.86C18.3503 5.912 18.6023 5.168 19.1063 4.616C19.6103 4.076 20.2823 3.8 21.1343 3.8H26.0663V10.016C26.0663 11.024 25.7663 11.732 25.1903 12.164C24.6023 12.596 23.6303 12.8 22.2863 12.8ZM21.8423 8.444H23.7863V5.552H21.8423C21.4103 5.552 21.1103 5.648 20.9423 5.816C20.7743 5.984 20.6903 6.284 20.6903 6.692V7.244C20.6903 7.652 20.7743 7.964 20.9423 8.156C21.1103 8.348 21.4103 8.444 21.8423 8.444ZM29.8856 3.176H27.6056V1.76H29.8856V3.176ZM27.6056 11V3.8H29.8856V11H27.6056ZM35.3826 8.48L33.4266 8.096C32.7066 7.952 32.1546 7.7 31.7706 7.34C31.3866 6.98 31.2066 6.5 31.2066 5.9C31.2066 5.624 31.2546 5.36 31.3626 5.096C31.4706 4.844 31.6386 4.616 31.8666 4.424C32.0946 4.232 32.3826 4.088 32.7426 3.968C33.1026 3.86 33.5226 3.8 34.0146 3.8H39.9906V5.54H33.8346C33.5946 5.54 33.4266 5.576 33.3546 5.648C33.2706 5.72 33.2346 5.804 33.2346 5.888C33.2346 5.984 33.2706 6.068 33.3426 6.14C33.4146 6.212 33.5346 6.272 33.7146 6.296L35.4906 6.644C36.3666 6.824 36.9906 7.088 37.3746 7.436C37.7586 7.784 37.9506 8.24 37.9506 8.816C37.9506 9.464 37.6986 9.992 37.2066 10.4C36.7146 10.808 35.9706 11 34.9746 11H31.4466V9.26H35.2986C35.5506 9.26 35.7306 9.224 35.8266 9.152C35.9226 9.08 35.9706 8.996 35.9706 8.876C35.9706 8.756 35.9106 8.672 35.8026 8.612C35.6946 8.564 35.5506 8.516 35.3826 8.48ZM38.1267 5.54V3.8H39.2907V2.336H41.3907V3.8H43.8507V5.54H41.3907V8.456C41.3907 8.768 41.4507 8.972 41.5827 9.092C41.7027 9.212 41.9187 9.26 42.2067 9.26H43.8507V11H41.9427C40.9467 11 40.2387 10.796 39.8067 10.376C39.3747 9.956 39.1707 9.32 39.1707 8.456V5.54H38.1267ZM45.0866 6.716C45.0866 6.356 45.1466 5.996 45.2906 5.636C45.4346 5.288 45.6386 4.976 45.9146 4.7C46.1906 4.436 46.5386 4.22 46.9706 4.052C47.4026 3.884 47.9066 3.8 48.4826 3.8H50.9546V5.54H48.3386C47.9546 5.54 47.6906 5.612 47.5586 5.756C47.4266 5.9 47.3666 6.152 47.3666 6.5V11H45.0866V6.716ZM56.4967 7.1V11H51.5647C50.8447 11 50.2927 10.844 49.9087 10.532C49.5247 10.22 49.3327 9.812 49.3327 9.308C49.3327 8.756 49.5127 8.324 49.8967 7.988C50.2687 7.652 50.7247 7.304 51.2527 6.944L53.2927 5.54H49.5007V3.8H52.6567C54.0247 3.8 55.0087 4.1 55.6087 4.676C56.1967 5.252 56.4967 6.068 56.4967 7.1ZM52.2127 9.26H54.3367V6.872L52.1647 8.564C52.0207 8.672 51.9247 8.756 51.8767 8.804C51.8167 8.852 51.7927 8.924 51.7927 8.996C51.7927 9.092 51.8167 9.152 51.8887 9.2C51.9487 9.248 52.0567 9.26 52.2127 9.26ZM57.8835 6.476C57.8835 6.14 57.9315 5.804 58.0395 5.48C58.1355 5.168 58.3035 4.88 58.5315 4.628C58.7475 4.388 59.0355 4.184 59.3955 4.028C59.7555 3.884 60.1755 3.8 60.6795 3.8H62.7915V5.54H61.1955C60.7875 5.54 60.5115 5.612 60.3675 5.756C60.2235 5.9 60.1635 6.152 60.1635 6.5V11H57.8835V6.476ZM67.6326 8.48L65.6766 8.096C64.9566 7.952 64.4046 7.7 64.0206 7.34C63.6366 6.98 63.4566 6.5 63.4566 5.9C63.4566 5.624 63.5046 5.36 63.6126 5.096C63.7206 4.844 63.8886 4.616 64.1166 4.424C64.3446 4.232 64.6326 4.088 64.9926 3.968C65.3526 3.86 65.7726 3.8 66.2646 3.8H69.8406V5.54H66.0846C65.8446 5.54 65.6766 5.576 65.6046 5.648C65.5206 5.72 65.4846 5.804 65.4846 5.888C65.4846 5.984 65.5206 6.068 65.5926 6.14C65.6646 6.212 65.7846 6.272 65.9646 6.296L67.7406 6.644C68.6166 6.824 69.2406 7.088 69.6246 7.436C70.0086 7.784 70.2006 8.24 70.2006 8.816C70.2006 9.464 69.9486 9.992 69.4566 10.4C68.9646 10.808 68.2206 11 67.2246 11H63.6966V9.26H67.6086C67.8606 9.26 68.0286 9.224 68.1006 9.152C68.1726 9.08 68.2206 8.996 68.2206 8.876C68.2206 8.756 68.1606 8.672 68.0526 8.612C67.9446 8.564 67.8006 8.516 67.6326 8.48ZM78.408 8.072H73.26V8.12C73.26 8.576 73.356 8.888 73.56 9.032C73.752 9.188 74.1 9.26 74.592 9.26H78.24V11H74.724C74.016 11 73.416 10.928 72.936 10.772C72.456 10.616 72.06 10.4 71.772 10.112C71.484 9.824 71.268 9.488 71.136 9.08C71.004 8.684 70.944 8.24 70.944 7.76V6.848C70.944 5.9 71.22 5.144 71.772 4.568C72.324 3.992 73.224 3.704 74.484 3.704H74.964C75.636 3.704 76.188 3.788 76.644 3.944C77.088 4.112 77.436 4.34 77.7 4.628C77.964 4.916 78.144 5.264 78.252 5.672C78.348 6.08 78.408 6.536 78.408 7.028V8.072ZM75.228 5.312H74.292C73.908 5.312 73.632 5.396 73.488 5.564C73.332 5.732 73.26 6.02 73.26 6.404V6.56H76.248V6.404C76.248 6.02 76.164 5.732 76.008 5.564C75.852 5.396 75.588 5.312 75.228 5.312Z" fill="white"/>
<path d="M87 8L376 8.00003" stroke="url(#paint0_linear_1652_6245)" stroke-opacity="0.7" stroke-width="2"/>
<defs>
<linearGradient id="paint0_linear_1652_6245" x1="231.5" y1="8.00001" x2="231.5" y2="9.00001" gradientUnits="userSpaceOnUse">
<stop stop-color="white"/>
<stop offset="0.485" stop-color="white"/>
<stop offset="1" stop-color="#A90F0F"/>
</linearGradient>
</defs>
</svg>
