<svg width="372" height="14" viewBox="0 0 372 14" fill="none" xmlns="http://www.w3.org/2000/svg">
<path d="M8.292 9.02V11H4.812C4.092 11 3.468 10.916 2.928 10.736C2.376 10.556 1.932 10.304 1.572 9.968C1.212 9.632 0.936 9.236 0.756 8.756C0.564 8.276 0.48 7.748 0.48 7.16V5.84C0.48 5.264 0.564 4.736 0.756 4.256C0.936 3.776 1.212 3.38 1.572 3.044C1.932 2.708 2.376 2.456 2.928 2.276C3.468 2.096 4.092 2 4.812 2H8.232V3.98H4.932C4.188 3.98 3.672 4.136 3.408 4.424C3.132 4.712 3 5.192 3 5.864V7.136C3 7.808 3.132 8.3 3.42 8.588C3.696 8.876 4.224 9.02 4.992 9.02H8.292ZM16.1724 7.1V11H11.2404C10.5204 11 9.96844 10.844 9.58444 10.532C9.20044 10.22 9.00844 9.812 9.00844 9.308C9.00844 8.756 9.18844 8.324 9.57244 7.988C9.94444 7.652 10.4004 7.304 10.9284 6.944L12.9684 5.54H9.17644V3.8H12.3324C13.7004 3.8 14.6844 4.1 15.2844 4.676C15.8724 5.252 16.1724 6.068 16.1724 7.1ZM11.8884 9.26H14.0124V6.872L11.8404 8.564C11.6964 8.672 11.6004 8.756 11.5524 8.804C11.4924 8.852 11.4684 8.924 11.4684 8.996C11.4684 9.092 11.4924 9.152 11.5644 9.2C11.6244 9.248 11.7324 9.26 11.8884 9.26ZM17.5593 6.476C17.5593 6.14 17.6073 5.804 17.7153 5.48C17.8113 5.168 17.9793 4.88 18.2073 4.628C18.4233 4.388 18.7113 4.184 19.0713 4.028C19.4313 3.884 19.8513 3.8 20.3553 3.8H22.4673V5.54H20.8713C20.4633 5.54 20.1873 5.612 20.0433 5.756C19.8993 5.9 19.8393 6.152 19.8393 6.5V11H17.5593V6.476ZM23.3483 6.476C23.3483 6.14 23.3963 5.804 23.5043 5.48C23.6003 5.168 23.7683 4.88 23.9963 4.628C24.2123 4.388 24.5003 4.184 24.8603 4.028C25.2203 3.884 25.6403 3.8 26.1443 3.8H28.2563V5.54H26.6603C26.2523 5.54 25.9763 5.612 25.8323 5.756C25.6883 5.9 25.6283 6.152 25.6283 6.5V11H23.3483V6.476ZM36.115 8.072H30.967V8.12C30.967 8.576 31.063 8.888 31.267 9.032C31.459 9.188 31.807 9.26 32.299 9.26H35.947V11H32.431C31.723 11 31.123 10.928 30.643 10.772C30.163 10.616 29.767 10.4 29.479 10.112C29.191 9.824 28.975 9.488 28.843 9.08C28.711 8.684 28.651 8.24 28.651 7.76V6.848C28.651 5.9 28.927 5.144 29.479 4.568C30.031 3.992 30.931 3.704 32.191 3.704H32.671C33.343 3.704 33.895 3.788 34.351 3.944C34.795 4.112 35.143 4.34 35.407 4.628C35.671 4.916 35.851 5.264 35.959 5.672C36.055 6.08 36.115 6.536 36.115 7.028V8.072ZM32.935 5.312H31.999C31.615 5.312 31.339 5.396 31.195 5.564C31.039 5.732 30.967 6.02 30.967 6.404V6.56H33.955V6.404C33.955 6.02 33.871 5.732 33.715 5.564C33.559 5.396 33.295 5.312 32.935 5.312ZM37.2937 6.716C37.2937 6.356 37.3537 5.996 37.4977 5.636C37.6417 5.288 37.8457 4.976 38.1217 4.7C38.3977 4.436 38.7457 4.22 39.1777 4.052C39.6097 3.884 40.1137 3.8 40.6897 3.8H43.1617V5.54H40.5457C40.1617 5.54 39.8977 5.612 39.7657 5.756C39.6337 5.9 39.5737 6.152 39.5737 6.5V11H37.2937V6.716ZM48.7037 7.1V11H43.7717C43.0517 11 42.4997 10.844 42.1157 10.532C41.7317 10.22 41.5397 9.812 41.5397 9.308C41.5397 8.756 41.7197 8.324 42.1037 7.988C42.4757 7.652 42.9317 7.304 43.4597 6.944L45.4997 5.54H41.7077V3.8H44.8637C46.2317 3.8 47.2157 4.1 47.8157 4.676C48.4037 5.252 48.7037 6.068 48.7037 7.1ZM44.4197 9.26H46.5437V6.872L44.3717 8.564C44.2277 8.672 44.1317 8.756 44.0837 8.804C44.0237 8.852 43.9997 8.924 43.9997 8.996C43.9997 9.092 44.0237 9.152 44.0957 9.2C44.1557 9.248 44.2637 9.26 44.4197 9.26ZM60.1853 8.072H55.0373V8.12C55.0373 8.576 55.1333 8.888 55.3373 9.032C55.5293 9.188 55.8773 9.26 56.3693 9.26H60.0173V11H56.5013C55.7933 11 55.1933 10.928 54.7133 10.772C54.2333 10.616 53.8373 10.4 53.5493 10.112C53.2613 9.824 53.0453 9.488 52.9133 9.08C52.7813 8.684 52.7213 8.24 52.7213 7.76V6.848C52.7213 5.9 52.9973 5.144 53.5493 4.568C54.1013 3.992 55.0013 3.704 56.2613 3.704H56.7413C57.4133 3.704 57.9653 3.788 58.4213 3.944C58.8653 4.112 59.2133 4.34 59.4773 4.628C59.7413 4.916 59.9213 5.264 60.0293 5.672C60.1253 6.08 60.1853 6.536 60.1853 7.028V8.072ZM57.0053 5.312H56.0693C55.6853 5.312 55.4093 5.396 55.2653 5.564C55.1093 5.732 55.0373 6.02 55.0373 6.404V6.56H58.0253V6.404C58.0253 6.02 57.9413 5.732 57.7853 5.564C57.6293 5.396 57.3653 5.312 57.0053 5.312ZM61.364 11V3.8H65.828C66.872 3.8 67.628 4.064 68.108 4.592C68.576 5.12 68.816 5.84 68.816 6.74V11H66.536V6.68C66.536 6.32 66.464 6.056 66.344 5.9C66.224 5.744 65.984 5.66 65.636 5.66H63.644V11H61.364ZM75.1584 2L77.0784 8.852C77.1024 8.948 77.1264 9.02 77.1624 9.068C77.1984 9.116 77.2584 9.14 77.3304 9.14C77.4024 9.14 77.4624 9.116 77.4984 9.068C77.5344 9.02 77.5704 8.948 77.6064 8.84L79.5744 2H81.9984L79.7664 9.02C79.5504 9.668 79.2624 10.184 78.9024 10.556C78.5304 10.94 78.0144 11.12 77.3424 11.12C76.6104 11.12 76.0584 10.952 75.6984 10.592C75.3384 10.244 75.0384 9.716 74.8224 9.02L72.5184 2H75.1584ZM85.2333 3.176H82.9533V1.76H85.2333V3.176ZM82.9533 11V3.8H85.2333V11H82.9533ZM88.5582 3.8L90.1662 8.852C90.2142 9.008 90.2502 9.104 90.2982 9.152C90.3342 9.2 90.3942 9.212 90.4662 9.212C90.5142 9.212 90.5622 9.188 90.6102 9.14C90.6462 9.092 90.6942 8.984 90.7422 8.828L92.3382 3.8H94.6182L92.6742 9.248C92.4342 9.896 92.1462 10.376 91.7982 10.676C91.4382 10.976 90.9942 11.12 90.4662 11.12C89.8902 11.12 89.4102 10.976 89.0502 10.688C88.6782 10.4 88.3902 9.944 88.1742 9.344L86.2062 3.8H88.5582ZM102.663 6.968V7.832C102.663 8.84 102.351 9.632 101.751 10.232C101.151 10.832 100.287 11.12 99.1708 11.12H98.3308C97.2028 11.12 96.3388 10.832 95.7388 10.232C95.1268 9.632 94.8268 8.84 94.8268 7.832V6.968C94.8268 5.972 95.1268 5.18 95.7388 4.58C96.3388 3.98 97.2028 3.68 98.3308 3.68H99.1708C100.287 3.68 101.151 3.98 101.751 4.58C102.351 5.18 102.663 5.972 102.663 6.968ZM100.323 6.776C100.323 6.32 100.227 5.972 100.059 5.744C99.8908 5.516 99.5788 5.396 99.1468 5.396H98.3548C97.9108 5.396 97.5988 5.516 97.4308 5.744C97.2508 5.972 97.1668 6.32 97.1668 6.776V8.012C97.1668 8.492 97.2508 8.84 97.4308 9.068C97.5988 9.296 97.9108 9.404 98.3548 9.404H99.1468C99.5788 9.404 99.8908 9.296 100.059 9.068C100.227 8.84 100.323 8.492 100.323 8.012V6.776Z" fill="white"/>
<path d="M109 7L372 6.99998" stroke="url(#paint0_linear_1674_6227)" stroke-opacity="0.7" stroke-width="2"/>
<defs>
<linearGradient id="paint0_linear_1674_6227" x1="240.5" y1="6.99999" x2="240.5" y2="7.99999" gradientUnits="userSpaceOnUse">
<stop stop-color="white"/>
<stop offset="0.485" stop-color="white"/>
<stop offset="1" stop-color="#A90F0F"/>
</linearGradient>
</defs>
</svg>
