<svg width="171" height="14" viewBox="0 0 171 14" fill="none" xmlns="http://www.w3.org/2000/svg">
<path d="M8.292 9.02V11H4.812C4.092 11 3.468 10.916 2.928 10.736C2.376 10.556 1.932 10.304 1.572 9.968C1.212 9.632 0.936 9.236 0.756 8.756C0.564 8.276 0.48 7.748 0.48 7.16V5.84C0.48 5.264 0.564 4.736 0.756 4.256C0.936 3.776 1.212 3.38 1.572 3.044C1.932 2.708 2.376 2.456 2.928 2.276C3.468 2.096 4.092 2 4.812 2H8.232V3.98H4.932C4.188 3.98 3.672 4.136 3.408 4.424C3.132 4.712 3 5.192 3 5.864V7.136C3 7.808 3.132 8.3 3.42 8.588C3.696 8.876 4.224 9.02 4.992 9.02H8.292ZM9.48844 2H11.7684V11H9.48844V2ZM15.7294 3.176H13.4494V1.76H15.7294V3.176ZM13.4494 11V3.8H15.7294V11H13.4494ZM17.2663 11V3.8H25.8103C26.9023 3.8 27.6943 4.064 28.1863 4.592C28.6663 5.12 28.9183 5.84 28.9183 6.74V11H26.6383V6.68C26.6383 6.32 26.5663 6.056 26.4463 5.9C26.3263 5.744 26.0863 5.66 25.7383 5.66H24.2263V11H21.9463V5.66H19.5463V11H17.2663ZM37.149 7.1V11H32.217C31.497 11 30.945 10.844 30.561 10.532C30.177 10.22 29.985 9.812 29.985 9.308C29.985 8.756 30.165 8.324 30.549 7.988C30.921 7.652 31.377 7.304 31.905 6.944L33.945 5.54H30.153V3.8H33.309C34.677 3.8 35.661 4.1 36.261 4.676C36.849 5.252 37.149 6.068 37.149 7.1ZM32.865 9.26H34.989V6.872L32.817 8.564C32.673 8.672 32.577 8.756 32.529 8.804C32.469 8.852 32.445 8.924 32.445 8.996C32.445 9.092 32.469 9.152 32.541 9.2C32.601 9.248 32.709 9.26 32.865 9.26ZM49.6387 4.544V5.432C49.6387 6.416 49.3387 7.088 48.7507 7.448C48.1507 7.82 47.2387 8 46.0027 8H43.9027V11H41.5027V2H46.0027C47.2387 2 48.1507 2.204 48.7507 2.588C49.3387 2.984 49.6387 3.632 49.6387 4.544ZM47.2387 5.36V4.652C47.2387 4.376 47.1427 4.16 46.9747 4.004C46.8067 3.848 46.5067 3.764 46.0747 3.764H43.9027V6.236H46.0747C46.5067 6.236 46.8067 6.164 46.9747 6.008C47.1427 5.852 47.2387 5.636 47.2387 5.36ZM50.5241 6.476C50.5241 6.14 50.5721 5.804 50.6801 5.48C50.7761 5.168 50.9441 4.88 51.1721 4.628C51.3881 4.388 51.6761 4.184 52.0361 4.028C52.3961 3.884 52.8161 3.8 53.3201 3.8H55.4321V5.54H53.8361C53.4281 5.54 53.1521 5.612 53.0081 5.756C52.8641 5.9 52.8041 6.152 52.8041 6.5V11H50.5241V6.476ZM63.6628 6.968V7.832C63.6628 8.84 63.3508 9.632 62.7508 10.232C62.1508 10.832 61.2868 11.12 60.1708 11.12H59.3308C58.2028 11.12 57.3388 10.832 56.7388 10.232C56.1268 9.632 55.8268 8.84 55.8268 7.832V6.968C55.8268 5.972 56.1268 5.18 56.7388 4.58C57.3388 3.98 58.2028 3.68 59.3308 3.68H60.1708C61.2868 3.68 62.1508 3.98 62.7508 4.58C63.3508 5.18 63.6628 5.972 63.6628 6.968ZM61.3228 6.776C61.3228 6.32 61.2268 5.972 61.0588 5.744C60.8908 5.516 60.5788 5.396 60.1468 5.396H59.3548C58.9108 5.396 58.5988 5.516 58.4308 5.744C58.2508 5.972 58.1668 6.32 58.1668 6.776V8.012C58.1668 8.492 58.2508 8.84 58.4308 9.068C58.5988 9.296 58.9108 9.404 59.3548 9.404H60.1468C60.5788 9.404 60.8908 9.296 61.0588 9.068C61.2268 8.84 61.3228 8.492 61.3228 8.012V6.776ZM64.7976 11V3.8H69.2616C70.3056 3.8 71.0616 4.064 71.5416 4.592C72.0096 5.12 72.2496 5.84 72.2496 6.74V11H69.9696V6.68C69.9696 6.32 69.8976 6.056 69.7776 5.9C69.6576 5.744 69.4176 5.66 69.0696 5.66H67.0776V11H64.7976ZM81.2292 6.968V7.832C81.2292 8.84 80.9172 9.632 80.3172 10.232C79.7172 10.832 78.8532 11.12 77.7372 11.12H76.8972C75.7692 11.12 74.9052 10.832 74.3052 10.232C73.6932 9.632 73.3932 8.84 73.3932 7.832V6.968C73.3932 5.972 73.6932 5.18 74.3052 4.58C74.9052 3.98 75.7692 3.68 76.8972 3.68H77.7372C78.8532 3.68 79.7172 3.98 80.3172 4.58C80.9172 5.18 81.2292 5.972 81.2292 6.968ZM78.8892 6.776C78.8892 6.32 78.7932 5.972 78.6252 5.744C78.4572 5.516 78.1452 5.396 77.7132 5.396H76.9212C76.4772 5.396 76.1652 5.516 75.9972 5.744C75.8172 5.972 75.7332 6.32 75.7332 6.776V8.012C75.7332 8.492 75.8172 8.84 75.9972 9.068C76.1652 9.296 76.4772 9.404 76.9212 9.404H77.7132C78.1452 9.404 78.4572 9.296 78.6252 9.068C78.7932 8.84 78.8892 8.492 78.8892 8.012V6.776ZM86.324 8.48L84.368 8.096C83.648 7.952 83.096 7.7 82.712 7.34C82.328 6.98 82.148 6.5 82.148 5.9C82.148 5.624 82.196 5.36 82.304 5.096C82.412 4.844 82.58 4.616 82.808 4.424C83.036 4.232 83.324 4.088 83.684 3.968C84.044 3.86 84.464 3.8 84.956 3.8H90.932V5.54H84.776C84.536 5.54 84.368 5.576 84.296 5.648C84.212 5.72 84.176 5.804 84.176 5.888C84.176 5.984 84.212 6.068 84.284 6.14C84.356 6.212 84.476 6.272 84.656 6.296L86.432 6.644C87.308 6.824 87.932 7.088 88.316 7.436C88.7 7.784 88.892 8.24 88.892 8.816C88.892 9.464 88.64 9.992 88.148 10.4C87.656 10.808 86.912 11 85.916 11H82.388V9.26H86.24C86.492 9.26 86.672 9.224 86.768 9.152C86.864 9.08 86.912 8.996 86.912 8.876C86.912 8.756 86.852 8.672 86.744 8.612C86.636 8.564 86.492 8.516 86.324 8.48ZM89.0681 5.54V3.8H90.2321V2.336H92.3321V3.8H96.2321V5.54H92.3321V8.456C92.3321 8.768 92.3921 8.972 92.5241 9.092C92.6441 9.212 92.8601 9.26 93.1481 9.26H94.3121V11H92.8841C91.8881 11 91.1801 10.796 90.7481 10.376C90.3161 9.956 90.1121 9.32 90.1121 8.456V5.54H89.0681ZM98.0888 3.176H95.8088V1.76H98.0888V3.176ZM95.8088 11V3.8H98.0888V11H95.8088ZM103.082 5.54C102.602 5.54 102.254 5.648 102.038 5.864C101.822 6.08 101.714 6.392 101.714 6.824V8.06C101.714 8.54 101.822 8.864 102.038 9.02C102.254 9.188 102.602 9.26 103.082 9.26H105.422V11H103.01C101.714 11 100.79 10.724 100.226 10.16C99.6497 9.608 99.3737 8.828 99.3737 7.844V6.968C99.3737 5.984 99.6497 5.216 100.226 4.652C100.79 4.088 101.714 3.8 103.01 3.8H108.182V5.54H103.082ZM113.544 7.1V11H108.612C107.892 11 107.34 10.844 106.956 10.532C106.572 10.22 106.38 9.812 106.38 9.308C106.38 8.756 106.56 8.324 106.944 7.988C107.316 7.652 107.772 7.304 108.3 6.944L110.34 5.54H106.548V3.8H109.704C111.072 3.8 112.056 4.1 112.656 4.676C113.244 5.252 113.544 6.068 113.544 7.1ZM109.26 9.26H111.384V6.872L109.212 8.564C109.068 8.672 108.972 8.756 108.924 8.804C108.864 8.852 108.84 8.924 108.84 8.996C108.84 9.092 108.864 9.152 108.936 9.2C108.996 9.248 109.104 9.26 109.26 9.26ZM122.634 2V11H117.522C116.634 11 115.938 10.712 115.434 10.112C114.93 9.524 114.678 8.744 114.678 7.76V7.04C114.678 6.068 114.93 5.288 115.434 4.688C115.938 4.1 116.634 3.8 117.522 3.8H120.354V2H122.634ZM118.302 9.224H120.354V5.576H118.302C117.81 5.576 117.474 5.696 117.294 5.912C117.102 6.14 117.018 6.488 117.018 6.956V7.904C117.018 8.384 117.102 8.72 117.294 8.924C117.474 9.128 117.81 9.224 118.302 9.224ZM131.608 6.968V7.832C131.608 8.84 131.296 9.632 130.696 10.232C130.096 10.832 129.232 11.12 128.116 11.12H127.276C126.148 11.12 125.284 10.832 124.684 10.232C124.072 9.632 123.772 8.84 123.772 7.832V6.968C123.772 5.972 124.072 5.18 124.684 4.58C125.284 3.98 126.148 3.68 127.276 3.68H128.116C129.232 3.68 130.096 3.98 130.696 4.58C131.296 5.18 131.608 5.972 131.608 6.968ZM129.268 6.776C129.268 6.32 129.172 5.972 129.004 5.744C128.836 5.516 128.524 5.396 128.092 5.396H127.3C126.856 5.396 126.544 5.516 126.376 5.744C126.196 5.972 126.112 6.32 126.112 6.776V8.012C126.112 8.492 126.196 8.84 126.376 9.068C126.544 9.296 126.856 9.404 127.3 9.404H128.092C128.524 9.404 128.836 9.296 129.004 9.068C129.172 8.84 129.268 8.492 129.268 8.012V6.776Z" fill="white"/>
<path d="M136 7L171 7" stroke="url(#paint0_linear_1518_6355)" stroke-opacity="0.7" stroke-width="2"/>
<defs>
<linearGradient id="paint0_linear_1518_6355" x1="153.5" y1="7" x2="153.5" y2="8" gradientUnits="userSpaceOnUse">
<stop stop-color="white"/>
<stop offset="0.485" stop-color="white"/>
<stop offset="1" stop-color="#A90F0F"/>
</linearGradient>
</defs>
</svg>
