<svg width="372" height="14" viewBox="0 0 372 14" fill="none" xmlns="http://www.w3.org/2000/svg">
<path d="M9.42 11H6.732L4.344 8.252C4.14 8.024 3.996 7.796 3.924 7.568C3.84 7.352 3.804 7.148 3.804 6.968C3.804 6.584 3.924 6.284 4.164 6.08C4.404 5.876 4.728 5.768 5.136 5.768H6.324C6.588 5.768 6.78 5.696 6.912 5.552C7.032 5.408 7.104 5.216 7.104 4.988V4.592C7.104 4.352 7.032 4.172 6.912 4.04C6.792 3.92 6.588 3.848 6.3 3.848H3.18V11H0.78V2H6.06C7.212 2 8.076 2.192 8.628 2.576C9.18 2.96 9.456 3.584 9.456 4.436V4.952C9.456 5.336 9.372 5.672 9.228 5.96C9.072 6.248 8.868 6.5 8.616 6.692C8.364 6.896 8.064 7.052 7.728 7.16C7.392 7.268 7.032 7.316 6.66 7.316H6.372L9.42 11ZM17.4236 8.072H12.2756V8.12C12.2756 8.576 12.3716 8.888 12.5756 9.032C12.7676 9.188 13.1156 9.26 13.6076 9.26H17.2556V11H13.7396C13.0316 11 12.4316 10.928 11.9516 10.772C11.4716 10.616 11.0756 10.4 10.7876 10.112C10.4996 9.824 10.2836 9.488 10.1516 9.08C10.0196 8.684 9.95963 8.24 9.95963 7.76V6.848C9.95963 5.9 10.2356 5.144 10.7876 4.568C11.3396 3.992 12.2396 3.704 13.4996 3.704H13.9796C14.6516 3.704 15.2036 3.788 15.6596 3.944C16.1036 4.112 16.4516 4.34 16.7156 4.628C16.9796 4.916 17.1596 5.264 17.2676 5.672C17.3636 6.08 17.4236 6.536 17.4236 7.028V8.072ZM14.2436 5.312H13.3076C12.9236 5.312 12.6476 5.396 12.5036 5.564C12.3476 5.732 12.2756 6.02 12.2756 6.404V6.56H15.2636V6.404C15.2636 6.02 15.1796 5.732 15.0236 5.564C14.8676 5.396 14.6036 5.312 14.2436 5.312ZM22.3166 8.48L20.3606 8.096C19.6406 7.952 19.0886 7.7 18.7046 7.34C18.3206 6.98 18.1406 6.5 18.1406 5.9C18.1406 5.624 18.1886 5.36 18.2966 5.096C18.4046 4.844 18.5726 4.616 18.8006 4.424C19.0286 4.232 19.3166 4.088 19.6766 3.968C20.0366 3.86 20.4566 3.8 20.9486 3.8H24.5246V5.54H20.7686C20.5286 5.54 20.3606 5.576 20.2886 5.648C20.2046 5.72 20.1686 5.804 20.1686 5.9C20.1686 6.008 20.2046 6.092 20.2766 6.152C20.3486 6.224 20.4686 6.272 20.6486 6.296L22.4246 6.644C23.3006 6.824 23.9246 7.088 24.3086 7.436C24.6926 7.784 24.8846 8.24 24.8846 8.816C24.8846 9.464 24.6326 9.992 24.1406 10.4C23.6486 10.808 22.9046 11 21.9086 11H15.9806V9.26H22.2326C22.4846 9.26 22.6646 9.224 22.7606 9.152C22.8566 9.08 22.9046 8.984 22.9046 8.864C22.9046 8.744 22.8446 8.66 22.7366 8.612C22.6286 8.564 22.4846 8.516 22.3166 8.48ZM31.1688 9.14V3.8H33.4488V11H28.9848C27.9288 11 27.1728 10.736 26.7048 10.208C26.2248 9.68 25.9968 8.972 25.9968 8.06V3.8H28.2768V8.12C28.2768 8.492 28.3368 8.756 28.4568 8.912C28.5768 9.068 28.8168 9.14 29.1768 9.14H31.1688ZM34.9884 2H37.2684V11H34.9884V2ZM38.3494 5.54V3.8H39.5134V2.336H41.6134V3.8H45.5134V5.54H41.6134V8.456C41.6134 8.768 41.6734 8.972 41.8054 9.092C41.9254 9.212 42.1414 9.26 42.4294 9.26H43.5934V11H42.1654C41.1694 11 40.4614 10.796 40.0294 10.376C39.5974 9.956 39.3934 9.32 39.3934 8.456V5.54H38.3494ZM51.774 7.1V11H46.842C46.122 11 45.57 10.844 45.186 10.532C44.802 10.22 44.61 9.812 44.61 9.308C44.61 8.756 44.79 8.324 45.174 7.988C45.546 7.652 46.002 7.304 46.53 6.944L48.57 5.54H44.778V3.8H47.934C49.302 3.8 50.286 4.1 50.886 4.676C51.474 5.252 51.774 6.068 51.774 7.1ZM47.49 9.26H49.614V6.872L47.442 8.564C47.298 8.672 47.202 8.756 47.154 8.804C47.094 8.852 47.07 8.924 47.07 8.996C47.07 9.092 47.094 9.152 47.166 9.2C47.226 9.248 47.334 9.26 47.49 9.26ZM60.8648 2V11H55.7528C54.8648 11 54.1688 10.712 53.6648 10.112C53.1608 9.524 52.9088 8.744 52.9088 7.76V7.04C52.9088 6.068 53.1608 5.288 53.6648 4.688C54.1688 4.1 54.8648 3.8 55.7528 3.8H58.5848V2H60.8648ZM56.5328 9.224H58.5848V5.576H56.5328C56.0408 5.576 55.7048 5.696 55.5248 5.912C55.3328 6.14 55.2488 6.488 55.2488 6.956V7.904C55.2488 8.384 55.3328 8.72 55.5248 8.924C55.7048 9.128 56.0408 9.224 56.5328 9.224ZM69.8386 6.968V7.832C69.8386 8.84 69.5266 9.632 68.9266 10.232C68.3266 10.832 67.4626 11.12 66.3466 11.12H65.5066C64.3786 11.12 63.5146 10.832 62.9146 10.232C62.3026 9.632 62.0026 8.84 62.0026 7.832V6.968C62.0026 5.972 62.3026 5.18 62.9146 4.58C63.5146 3.98 64.3786 3.68 65.5066 3.68H66.3466C67.4626 3.68 68.3266 3.98 68.9266 4.58C69.5266 5.18 69.8386 5.972 69.8386 6.968ZM67.4986 6.776C67.4986 6.32 67.4026 5.972 67.2346 5.744C67.0666 5.516 66.7546 5.396 66.3226 5.396H65.5306C65.0866 5.396 64.7746 5.516 64.6066 5.744C64.4266 5.972 64.3426 6.32 64.3426 6.776V8.012C64.3426 8.492 64.4266 8.84 64.6066 9.068C64.7746 9.296 65.0866 9.404 65.5306 9.404H66.3226C66.7546 9.404 67.0666 9.296 67.2346 9.068C67.4026 8.84 67.4986 8.492 67.4986 8.012V6.776ZM74.9333 8.48L72.9773 8.096C72.2573 7.952 71.7053 7.7 71.3213 7.34C70.9373 6.98 70.7573 6.5 70.7573 5.9C70.7573 5.624 70.8053 5.36 70.9133 5.096C71.0213 4.844 71.1893 4.616 71.4173 4.424C71.6453 4.232 71.9333 4.088 72.2933 3.968C72.6533 3.86 73.0733 3.8 73.5653 3.8H77.1413V5.54H73.3853C73.1453 5.54 72.9773 5.576 72.9053 5.648C72.8213 5.72 72.7853 5.804 72.7853 5.888C72.7853 5.984 72.8213 6.068 72.8933 6.14C72.9653 6.212 73.0853 6.272 73.2653 6.296L75.0413 6.644C75.9173 6.824 76.5413 7.088 76.9253 7.436C77.3093 7.784 77.5013 8.24 77.5013 8.816C77.5013 9.464 77.2493 9.992 76.7573 10.4C76.2653 10.808 75.5213 11 74.5253 11H70.9973V9.26H74.9093C75.1613 9.26 75.3293 9.224 75.4013 9.152C75.4733 9.08 75.5213 8.996 75.5213 8.876C75.5213 8.756 75.4613 8.672 75.3533 8.612C75.2453 8.564 75.1013 8.516 74.9333 8.48Z" fill="white"/>
<path d="M96 7H372" stroke="url(#paint0_linear_1558_5778)" stroke-opacity="0.7" stroke-width="2"/>
<defs>
<linearGradient id="paint0_linear_1558_5778" x1="234" y1="7" x2="234" y2="8" gradientUnits="userSpaceOnUse">
<stop stop-color="white"/>
<stop offset="0.485" stop-color="white"/>
<stop offset="1" stop-color="#A90F0F"/>
</linearGradient>
</defs>
</svg>
