<svg width="372" height="14" viewBox="0 0 372 14" fill="none" xmlns="http://www.w3.org/2000/svg">
<path d="M0.78 11V2H8.292V3.98H3.12V5.54H8.292V7.46H3.12V9.02H8.292V11H0.78ZM13.6326 8.48L11.6766 8.096C10.9566 7.952 10.4046 7.7 10.0206 7.34C9.63656 6.98 9.45656 6.5 9.45656 5.9C9.45656 5.624 9.50456 5.36 9.61256 5.096C9.72056 4.844 9.88856 4.616 10.1166 4.424C10.3446 4.232 10.6326 4.088 10.9926 3.968C11.3526 3.86 11.7726 3.8 12.2646 3.8H15.8406V5.54H12.0846C11.8446 5.54 11.6766 5.576 11.6046 5.648C11.5206 5.72 11.4846 5.804 11.4846 5.888C11.4846 5.984 11.5206 6.068 11.5926 6.14C11.6646 6.212 11.7846 6.272 11.9646 6.296L13.7406 6.644C14.6166 6.824 15.2406 7.088 15.6246 7.436C16.0086 7.784 16.2006 8.24 16.2006 8.816C16.2006 9.464 15.9486 9.992 15.4566 10.4C14.9646 10.808 14.2206 11 13.2246 11H9.69656V9.26H13.6086C13.8606 9.26 14.0286 9.224 14.1006 9.152C14.1726 9.08 14.2206 8.996 14.2206 8.876C14.2206 8.756 14.1606 8.672 14.0526 8.612C13.9446 8.564 13.8006 8.516 13.6326 8.48ZM20.652 5.54C20.172 5.54 19.824 5.648 19.608 5.864C19.392 6.08 19.284 6.392 19.284 6.824V8.06C19.284 8.54 19.392 8.864 19.608 9.02C19.824 9.188 20.172 9.26 20.652 9.26H23.352V11H20.58C19.284 11 18.36 10.724 17.796 10.16C17.22 9.608 16.944 8.828 16.944 7.844V6.968C16.944 5.984 17.22 5.216 17.796 4.652C18.36 4.088 19.284 3.8 20.58 3.8H23.352V5.54H20.652ZM29.8211 9.14V3.8H32.1011V11H27.6371C26.5811 11 25.8251 10.736 25.3571 10.208C24.8771 9.68 24.6491 8.972 24.6491 8.06V3.8H26.9291V8.12C26.9291 8.492 26.9891 8.756 27.1091 8.912C27.2291 9.068 27.4691 9.14 27.8291 9.14H29.8211ZM41.2008 2V11H36.0888C35.2008 11 34.5048 10.712 34.0008 10.112C33.4968 9.524 33.2448 8.744 33.2448 7.76V7.04C33.2448 6.068 33.4968 5.288 34.0008 4.688C34.5048 4.1 35.2008 3.8 36.0888 3.8H38.9208V2H41.2008ZM36.8688 9.224H38.9208V5.576H36.8688C36.3768 5.576 36.0408 5.696 35.8608 5.912C35.6688 6.14 35.5848 6.488 35.5848 6.956V7.904C35.5848 8.384 35.6688 8.72 35.8608 8.924C36.0408 9.128 36.3768 9.224 36.8688 9.224ZM49.8025 8.072H44.6545V8.12C44.6545 8.576 44.7505 8.888 44.9545 9.032C45.1465 9.188 45.4945 9.26 45.9865 9.26H49.6345V11H46.1185C45.4105 11 44.8105 10.928 44.3305 10.772C43.8505 10.616 43.4545 10.4 43.1665 10.112C42.8785 9.824 42.6625 9.488 42.5305 9.08C42.3985 8.684 42.3385 8.24 42.3385 7.76V6.848C42.3385 5.9 42.6145 5.144 43.1665 4.568C43.7185 3.992 44.6185 3.704 45.8785 3.704H46.3585C47.0305 3.704 47.5825 3.788 48.0385 3.944C48.4825 4.112 48.8305 4.34 49.0945 4.628C49.3585 4.916 49.5385 5.264 49.6465 5.672C49.7425 6.08 49.8025 6.536 49.8025 7.028V8.072ZM46.6225 5.312H45.6865C45.3025 5.312 45.0265 5.396 44.8825 5.564C44.7265 5.732 44.6545 6.02 44.6545 6.404V6.56H47.6425V6.404C47.6425 6.02 47.5585 5.732 47.4025 5.564C47.2465 5.396 46.9825 5.312 46.6225 5.312ZM50.9812 6.476C50.9812 6.14 51.0292 5.804 51.1372 5.48C51.2332 5.168 51.4012 4.88 51.6292 4.628C51.8452 4.388 52.1332 4.184 52.4932 4.028C52.8532 3.884 53.2732 3.8 53.7772 3.8H55.8892V5.54H54.2932C53.8852 5.54 53.6092 5.612 53.4652 5.756C53.3212 5.9 53.2612 6.152 53.2612 6.5V11H50.9812V6.476ZM59.1942 3.176H56.9142V1.76H59.1942V3.176ZM56.9142 11V3.8H59.1942V11H56.9142ZM67.5592 7.1V11H62.6272C61.9072 11 61.3552 10.844 60.9712 10.532C60.5872 10.22 60.3952 9.812 60.3952 9.308C60.3952 8.756 60.5752 8.324 60.9592 7.988C61.3312 7.652 61.7872 7.304 62.3152 6.944L64.3552 5.54H60.5632V3.8H63.7192C65.0872 3.8 66.0712 4.1 66.6712 4.676C67.2592 5.252 67.5592 6.068 67.5592 7.1ZM63.2752 9.26H65.3992V6.872L63.2272 8.564C63.0832 8.672 62.9872 8.756 62.9392 8.804C62.8792 8.852 62.8552 8.924 62.8552 8.996C62.8552 9.092 62.8792 9.152 62.9512 9.2C63.0112 9.248 63.1192 9.26 63.2752 9.26ZM72.906 8.48L70.95 8.096C70.23 7.952 69.678 7.7 69.294 7.34C68.91 6.98 68.73 6.5 68.73 5.9C68.73 5.624 68.778 5.36 68.886 5.096C68.994 4.844 69.162 4.616 69.39 4.424C69.618 4.232 69.906 4.088 70.266 3.968C70.626 3.86 71.046 3.8 71.538 3.8H75.114V5.54H71.358C71.118 5.54 70.95 5.576 70.878 5.648C70.794 5.72 70.758 5.804 70.758 5.888C70.758 5.984 70.794 6.068 70.866 6.14C70.938 6.212 71.058 6.272 71.238 6.296L73.014 6.644C73.89 6.824 74.514 7.088 74.898 7.436C75.282 7.784 75.474 8.24 75.474 8.816C75.474 9.464 75.222 9.992 74.73 10.4C74.238 10.808 73.494 11 72.498 11H68.97V9.26H72.882C73.134 9.26 73.302 9.224 73.374 9.152C73.446 9.08 73.494 8.996 73.494 8.876C73.494 8.756 73.434 8.672 73.326 8.612C73.218 8.564 73.074 8.516 72.906 8.48Z" fill="white"/>
<path d="M96 7H372" stroke="url(#paint0_linear_1563_6432)" stroke-opacity="0.7" stroke-width="2"/>
<defs>
<linearGradient id="paint0_linear_1563_6432" x1="234" y1="7" x2="234" y2="8" gradientUnits="userSpaceOnUse">
<stop stop-color="white"/>
<stop offset="0.485" stop-color="white"/>
<stop offset="1" stop-color="#A90F0F"/>
</linearGradient>
</defs>
</svg>
