<svg width="373" height="14" viewBox="0 0 373 14" fill="none" xmlns="http://www.w3.org/2000/svg">
<path d="M8.916 4.544V5.432C8.916 6.416 8.616 7.088 8.028 7.448C7.428 7.82 6.516 8 5.28 8H3.18V11H0.78V2H5.28C6.516 2 7.428 2.204 8.028 2.588C8.616 2.984 8.916 3.632 8.916 4.544ZM6.516 5.36V4.652C6.516 4.376 6.42 4.16 6.252 4.004C6.084 3.848 5.784 3.764 5.352 3.764H3.18V6.236H5.352C5.784 6.236 6.084 6.164 6.252 6.008C6.42 5.852 6.516 5.636 6.516 5.36ZM12.4598 3.176H10.1798V1.76H12.4598V3.176ZM10.1798 11V3.8H12.4598V11H10.1798ZM13.5408 5.54V3.8H14.7048V2.336H16.8048V3.8H19.2648V5.54H16.8048V8.456C16.8048 8.768 16.8648 8.972 16.9968 9.092C17.1168 9.212 17.3328 9.26 17.6208 9.26H19.2648V11H17.3568C16.3608 11 15.6528 10.796 15.2208 10.376C14.7888 9.956 14.5848 9.32 14.5848 8.456V5.54H13.5408ZM27.8955 7.652L25.7355 7.016C24.8955 6.776 24.2835 6.428 23.8875 5.996C23.4795 5.564 23.2875 5.048 23.2875 4.448C23.2875 3.704 23.5515 3.104 24.0795 2.66C24.6075 2.228 25.3515 2 26.3115 2H30.9315V3.98H26.2995C26.0355 3.98 25.8555 4.028 25.7595 4.124C25.6515 4.22 25.6035 4.316 25.6035 4.424C25.6035 4.568 25.6515 4.688 25.7475 4.784C25.8435 4.88 26.0115 4.952 26.2395 5.012L28.4355 5.648C29.3595 5.924 30.0555 6.26 30.5235 6.656C30.9915 7.052 31.2315 7.604 31.2315 8.312C31.2315 8.684 31.1595 9.032 31.0155 9.356C30.8715 9.692 30.6675 9.968 30.3795 10.208C30.0915 10.448 29.7315 10.64 29.2995 10.784C28.8675 10.928 28.3515 11 27.7755 11H23.5275V9.02H28.1355C28.4355 9.02 28.6515 8.96 28.7715 8.84C28.8915 8.72 28.9515 8.588 28.9515 8.42C28.9515 8.228 28.8675 8.084 28.7235 7.988C28.5795 7.892 28.3035 7.772 27.8955 7.652ZM31.9509 5.54V3.8H33.1149V2.336H35.2149V3.8H37.6749V5.54H35.2149V8.456C35.2149 8.768 35.2749 8.972 35.4069 9.092C35.5269 9.212 35.7429 9.26 36.0309 9.26H37.6749V11H35.7669C34.7709 11 34.0629 10.796 33.6309 10.376C33.1989 9.956 32.9949 9.32 32.9949 8.456V5.54H31.9509ZM46.2605 6.968V7.832C46.2605 8.84 45.9485 9.632 45.3485 10.232C44.7485 10.832 43.8845 11.12 42.7685 11.12H41.9285C40.8005 11.12 39.9365 10.832 39.3365 10.232C38.7245 9.632 38.4245 8.84 38.4245 7.832V6.968C38.4245 5.972 38.7245 5.18 39.3365 4.58C39.9365 3.98 40.8005 3.68 41.9285 3.68H42.7685C43.8845 3.68 44.7485 3.98 45.3485 4.58C45.9485 5.18 46.2605 5.972 46.2605 6.968ZM43.9205 6.776C43.9205 6.32 43.8245 5.972 43.6565 5.744C43.4885 5.516 43.1765 5.396 42.7445 5.396H41.9525C41.5085 5.396 41.1965 5.516 41.0285 5.744C40.8485 5.972 40.7645 6.32 40.7645 6.776V8.012C40.7645 8.492 40.8485 8.84 41.0285 9.068C41.1965 9.296 41.5085 9.404 41.9525 9.404H42.7445C43.1765 9.404 43.4885 9.296 43.6565 9.068C43.8245 8.84 43.9205 8.492 43.9205 8.012V6.776ZM47.3952 12.8V3.8H52.5072C53.3952 3.8 54.0912 4.1 54.5952 4.688C55.0992 5.288 55.3512 6.068 55.3512 7.04V7.76C55.3512 8.744 55.0992 9.524 54.5952 10.112C54.0912 10.712 53.3952 11 52.5072 11H49.6752V12.8H47.3952ZM51.7272 5.576H49.6752V9.224H51.7272C52.2072 9.224 52.5432 9.116 52.7352 8.888C52.9152 8.672 53.0112 8.324 53.0112 7.844V6.896C53.0112 6.428 52.9152 6.092 52.7352 5.888C52.5432 5.684 52.2072 5.576 51.7272 5.576ZM66.9678 9.02V11H63.4878C62.7678 11 62.1438 10.916 61.6038 10.736C61.0518 10.556 60.6078 10.304 60.2478 9.968C59.8878 9.632 59.6118 9.236 59.4318 8.756C59.2398 8.276 59.1558 7.748 59.1558 7.16V5.84C59.1558 5.264 59.2398 4.736 59.4318 4.256C59.6118 3.776 59.8878 3.38 60.2478 3.044C60.6078 2.708 61.0518 2.456 61.6038 2.276C62.1438 2.096 62.7678 2 63.4878 2H66.9078V3.98H63.6078C62.8638 3.98 62.3478 4.136 62.0838 4.424C61.8078 4.712 61.6758 5.192 61.6758 5.864V7.136C61.6758 7.808 61.8078 8.3 62.0958 8.588C62.3718 8.876 62.8998 9.02 63.6678 9.02H66.9678ZM68.0202 11V2H70.3002V3.8H72.4842C73.5282 3.8 74.2842 4.064 74.7642 4.592C75.2322 5.12 75.4722 5.84 75.4722 6.74V11H73.1922V6.68C73.1922 6.32 73.1202 6.056 73.0002 5.9C72.8802 5.744 72.6402 5.66 72.2922 5.66H70.3002V11H68.0202ZM83.6959 7.1V11H78.7639C78.0439 11 77.4919 10.844 77.1079 10.532C76.7239 10.22 76.5319 9.812 76.5319 9.308C76.5319 8.756 76.7119 8.324 77.0959 7.988C77.4679 7.652 77.9239 7.304 78.4519 6.944L80.4919 5.54H76.6999V3.8H79.8559C81.2239 3.8 82.2079 4.1 82.8079 4.676C83.3959 5.252 83.6959 6.068 83.6959 7.1ZM79.4119 9.26H81.5359V6.872L79.3639 8.564C79.2199 8.672 79.1239 8.756 79.0759 8.804C79.0159 8.852 78.9919 8.924 78.9919 8.996C78.9919 9.092 79.0159 9.152 79.0879 9.2C79.1479 9.248 79.2559 9.26 79.4119 9.26ZM85.2267 2H87.5067V11H85.2267V2ZM89.1877 2H91.4677V11H89.1877V2ZM100.217 8.072H95.0686V8.12C95.0686 8.576 95.1646 8.888 95.3686 9.032C95.5606 9.188 95.9086 9.26 96.4006 9.26H100.049V11H96.5326C95.8246 11 95.2246 10.928 94.7446 10.772C94.2646 10.616 93.8686 10.4 93.5806 10.112C93.2926 9.824 93.0766 9.488 92.9446 9.08C92.8126 8.684 92.7526 8.24 92.7526 7.76V6.848C92.7526 5.9 93.0286 5.144 93.5806 4.568C94.1326 3.992 95.0326 3.704 96.2926 3.704H96.7726C97.4446 3.704 97.9966 3.788 98.4526 3.944C98.8966 4.112 99.2446 4.34 99.5086 4.628C99.7726 4.916 99.9526 5.264 100.061 5.672C100.157 6.08 100.217 6.536 100.217 7.028V8.072ZM97.0366 5.312H96.1006C95.7166 5.312 95.4406 5.396 95.2966 5.564C95.1406 5.732 95.0686 6.02 95.0686 6.404V6.56H98.0566V6.404C98.0566 6.02 97.9726 5.732 97.8166 5.564C97.6606 5.396 97.3966 5.312 97.0366 5.312ZM101.395 11V3.8H105.859C106.903 3.8 107.659 4.064 108.139 4.592C108.607 5.12 108.847 5.84 108.847 6.74V11H106.567V6.68C106.567 6.32 106.495 6.056 106.375 5.9C106.255 5.744 106.015 5.66 105.667 5.66H103.675V11H101.395ZM113.927 12.8H110.483V11.096H113.951C114.563 11.096 114.959 11.024 115.151 10.88C115.331 10.736 115.427 10.52 115.427 10.232V10.076H112.775C111.923 10.076 111.251 9.824 110.747 9.296C110.243 8.78 109.991 8.06 109.991 7.136V6.86C109.991 5.912 110.243 5.168 110.747 4.616C111.251 4.076 111.923 3.8 112.775 3.8H117.707V10.016C117.707 11.024 117.407 11.732 116.831 12.164C116.243 12.596 115.271 12.8 113.927 12.8ZM113.483 8.444H115.427V5.552H113.483C113.051 5.552 112.751 5.648 112.583 5.816C112.415 5.984 112.331 6.284 112.331 6.692V7.244C112.331 7.652 112.415 7.964 112.583 8.156C112.751 8.348 113.051 8.444 113.483 8.444ZM126.314 8.072H121.166V8.12C121.166 8.576 121.262 8.888 121.466 9.032C121.658 9.188 122.006 9.26 122.498 9.26H126.146V11H122.63C121.922 11 121.322 10.928 120.842 10.772C120.362 10.616 119.966 10.4 119.678 10.112C119.39 9.824 119.174 9.488 119.042 9.08C118.91 8.684 118.85 8.24 118.85 7.76V6.848C118.85 5.9 119.126 5.144 119.678 4.568C120.23 3.992 121.13 3.704 122.39 3.704H122.87C123.542 3.704 124.094 3.788 124.55 3.944C124.994 4.112 125.342 4.34 125.606 4.628C125.87 4.916 126.05 5.264 126.158 5.672C126.254 6.08 126.314 6.536 126.314 7.028V8.072ZM123.134 5.312H122.198C121.814 5.312 121.538 5.396 121.394 5.564C121.238 5.732 121.166 6.02 121.166 6.404V6.56H124.154V6.404C124.154 6.02 124.07 5.732 123.914 5.564C123.758 5.396 123.494 5.312 123.134 5.312Z" fill="white"/>
<path d="M130 7L373 6.99998" stroke="url(#paint0_linear_1635_6219)" stroke-opacity="0.7" stroke-width="2"/>
<defs>
<linearGradient id="paint0_linear_1635_6219" x1="251.5" y1="6.99999" x2="251.5" y2="7.99999" gradientUnits="userSpaceOnUse">
<stop stop-color="white"/>
<stop offset="0.485" stop-color="white"/>
<stop offset="1" stop-color="#A90F0F"/>
</linearGradient>
</defs>
</svg>
