<svg width="376" height="14" viewBox="0 0 376 14" fill="none" xmlns="http://www.w3.org/2000/svg">
<path d="M0.48 11L1.044 4.568C1.116 3.608 1.38 2.924 1.824 2.492C2.268 2.072 2.832 1.856 3.516 1.856C4.236 1.856 4.812 2.084 5.244 2.528C5.676 2.972 5.952 3.572 6.072 4.34L6.78 8.816C6.792 8.912 6.816 8.984 6.852 9.032C6.888 9.08 6.948 9.104 7.032 9.104C7.104 9.104 7.164 9.08 7.212 9.02C7.248 8.972 7.272 8.888 7.284 8.792L7.968 4.328C8.076 3.572 8.34 2.972 8.772 2.528C9.204 2.084 9.78 1.856 10.5 1.856C11.256 1.856 11.82 2.072 12.192 2.504C12.564 2.936 12.792 3.62 12.876 4.568L13.44 11H11.124L10.644 4.22C10.632 4.148 10.62 4.076 10.596 4.016C10.572 3.968 10.524 3.932 10.452 3.932C10.38 3.932 10.332 3.968 10.296 4.016C10.248 4.064 10.224 4.124 10.224 4.196L9.42 9.008C9.312 9.656 9.048 10.172 8.64 10.556C8.232 10.952 7.692 11.144 7.02 11.144C6.324 11.144 5.76 10.952 5.352 10.544C4.932 10.136 4.668 9.62 4.572 8.996L3.732 4.208C3.708 4.124 3.684 4.052 3.648 4.004C3.6 3.956 3.552 3.932 3.492 3.932C3.408 3.932 3.348 3.968 3.324 4.016C3.3 4.076 3.276 4.148 3.276 4.232L2.796 11H0.48ZM17.0419 3.176H14.7619V1.76H17.0419V3.176ZM14.7619 11V3.8H17.0419V11H14.7619ZM22.5388 8.48L20.5828 8.096C19.8628 7.952 19.3108 7.7 18.9268 7.34C18.5428 6.98 18.3628 6.5 18.3628 5.9C18.3628 5.624 18.4108 5.36 18.5188 5.096C18.6268 4.844 18.7948 4.616 19.0228 4.424C19.2508 4.232 19.5388 4.088 19.8988 3.968C20.2588 3.86 20.6788 3.8 21.1708 3.8H24.7468V5.54H20.9908C20.7508 5.54 20.5828 5.576 20.5108 5.648C20.4268 5.72 20.3908 5.804 20.3908 5.888C20.3908 5.984 20.4268 6.068 20.4988 6.14C20.5708 6.212 20.6908 6.272 20.8708 6.296L22.6468 6.644C23.5228 6.824 24.1468 7.088 24.5308 7.436C24.9148 7.784 25.1068 8.24 25.1068 8.816C25.1068 9.464 24.8548 9.992 24.3628 10.4C23.8708 10.808 23.1268 11 22.1308 11H18.6028V9.26H22.5148C22.7668 9.26 22.9348 9.224 23.0068 9.152C23.0788 9.08 23.1268 8.996 23.1268 8.876C23.1268 8.756 23.0668 8.672 22.9588 8.612C22.8508 8.564 22.7068 8.516 22.5388 8.48ZM29.1023 12.8V3.8H34.2143C35.1023 3.8 35.7983 4.1 36.3023 4.688C36.8063 5.288 37.0583 6.068 37.0583 7.04V7.76C37.0583 8.744 36.8063 9.524 36.3023 10.112C35.7983 10.712 35.1023 11 34.2143 11H31.3823V12.8H29.1023ZM33.4343 5.576H31.3823V9.224H33.4343C33.9143 9.224 34.2503 9.116 34.4423 8.888C34.6223 8.672 34.7183 8.324 34.7183 7.844V6.896C34.7183 6.428 34.6223 6.092 34.4423 5.888C34.2503 5.684 33.9143 5.576 33.4343 5.576ZM45.408 8.072H40.26V8.12C40.26 8.576 40.356 8.888 40.56 9.032C40.752 9.188 41.1 9.26 41.592 9.26H45.24V11H41.724C41.016 11 40.416 10.928 39.936 10.772C39.456 10.616 39.06 10.4 38.772 10.112C38.484 9.824 38.268 9.488 38.136 9.08C38.004 8.684 37.944 8.24 37.944 7.76V6.848C37.944 5.9 38.22 5.144 38.772 4.568C39.324 3.992 40.224 3.704 41.484 3.704H41.964C42.636 3.704 43.188 3.788 43.644 3.944C44.088 4.112 44.436 4.34 44.7 4.628C44.964 4.916 45.144 5.264 45.252 5.672C45.348 6.08 45.408 6.536 45.408 7.028V8.072ZM42.228 5.312H41.292C40.908 5.312 40.632 5.396 40.488 5.564C40.332 5.732 40.26 6.02 40.26 6.404V6.56H43.248V6.404C43.248 6.02 43.164 5.732 43.008 5.564C42.852 5.396 42.588 5.312 42.228 5.312ZM54.2906 2V11H49.1786C48.2906 11 47.5946 10.712 47.0906 10.112C46.5866 9.524 46.3346 8.744 46.3346 7.76V7.04C46.3346 6.068 46.5866 5.288 47.0906 4.688C47.5946 4.1 48.2906 3.8 49.1786 3.8H52.0106V2H54.2906ZM49.9586 9.224H52.0106V5.576H49.9586C49.4666 5.576 49.1306 5.696 48.9506 5.912C48.7586 6.14 48.6746 6.488 48.6746 6.956V7.904C48.6746 8.384 48.7586 8.72 48.9506 8.924C49.1306 9.128 49.4666 9.224 49.9586 9.224ZM58.1044 3.176H55.8244V1.76H58.1044V3.176ZM55.8244 11V3.8H58.1044V11H55.8244ZM67.3453 2V11H62.2333C61.3453 11 60.6493 10.712 60.1453 10.112C59.6413 9.524 59.3893 8.744 59.3893 7.76V7.04C59.3893 6.068 59.6413 5.288 60.1453 4.688C60.6493 4.1 61.3453 3.8 62.2333 3.8H65.0653V2H67.3453ZM63.0133 9.224H65.0653V5.576H63.0133C62.5213 5.576 62.1853 5.696 62.0053 5.912C61.8133 6.14 61.7293 6.488 61.7293 6.956V7.904C61.7293 8.384 61.8133 8.72 62.0053 8.924C62.1853 9.128 62.5213 9.224 63.0133 9.224ZM76.3191 6.968V7.832C76.3191 8.84 76.0071 9.632 75.4071 10.232C74.8071 10.832 73.9431 11.12 72.8271 11.12H71.9871C70.8591 11.12 69.9951 10.832 69.3951 10.232C68.7831 9.632 68.4831 8.84 68.4831 7.832V6.968C68.4831 5.972 68.7831 5.18 69.3951 4.58C69.9951 3.98 70.8591 3.68 71.9871 3.68H72.8271C73.9431 3.68 74.8071 3.98 75.4071 4.58C76.0071 5.18 76.3191 5.972 76.3191 6.968ZM73.9791 6.776C73.9791 6.32 73.8831 5.972 73.7151 5.744C73.5471 5.516 73.2351 5.396 72.8031 5.396H72.0111C71.5671 5.396 71.2551 5.516 71.0871 5.744C70.9071 5.972 70.8231 6.32 70.8231 6.776V8.012C70.8231 8.492 70.9071 8.84 71.0871 9.068C71.2551 9.296 71.5671 9.404 72.0111 9.404H72.8031C73.2351 9.404 73.5471 9.296 73.7151 9.068C73.8831 8.84 73.9791 8.492 73.9791 8.012V6.776ZM81.4138 8.48L79.4578 8.096C78.7378 7.952 78.1858 7.7 77.8018 7.34C77.4178 6.98 77.2378 6.5 77.2378 5.9C77.2378 5.624 77.2858 5.36 77.3938 5.096C77.5018 4.844 77.6698 4.616 77.8978 4.424C78.1258 4.232 78.4138 4.088 78.7738 3.968C79.1338 3.86 79.5538 3.8 80.0458 3.8H83.6218V5.54H79.8658C79.6258 5.54 79.4578 5.576 79.3858 5.648C79.3018 5.72 79.2658 5.804 79.2658 5.888C79.2658 5.984 79.3018 6.068 79.3738 6.14C79.4458 6.212 79.5658 6.272 79.7458 6.296L81.5218 6.644C82.3978 6.824 83.0218 7.088 83.4058 7.436C83.7898 7.784 83.9818 8.24 83.9818 8.816C83.9818 9.464 83.7298 9.992 83.2378 10.4C82.7458 10.808 82.0018 11 81.0058 11H77.4778V9.26H81.3898C81.6418 9.26 81.8098 9.224 81.8818 9.152C81.9538 9.08 82.0018 8.996 82.0018 8.876C82.0018 8.756 81.9418 8.672 81.8338 8.612C81.7258 8.564 81.5818 8.516 81.4138 8.48Z" fill="white"/>
<path d="M97 8L376 8.00002" stroke="url(#paint0_linear_1178_6969)" stroke-opacity="0.7" stroke-width="2"/>
<defs>
<linearGradient id="paint0_linear_1178_6969" x1="236.5" y1="8.00001" x2="236.5" y2="9.00001" gradientUnits="userSpaceOnUse">
<stop stop-color="white"/>
<stop offset="0.485" stop-color="white"/>
<stop offset="1" stop-color="#A90F0F"/>
</linearGradient>
</defs>
</svg>
