<svg width="244" height="14" viewBox="0 0 244 14" fill="none" xmlns="http://www.w3.org/2000/svg">
<path d="M0.78 11V4.4C0.78 3.992 0.84 3.632 0.984 3.308C1.116 2.996 1.296 2.732 1.512 2.516C1.728 2.3 1.992 2.144 2.292 2.024C2.592 1.916 2.904 1.856 3.228 1.856C3.996 1.856 4.596 2.072 5.028 2.48C5.46 2.888 5.82 3.428 6.096 4.1L8.052 8.876C8.076 8.936 8.1 8.996 8.124 9.044C8.148 9.092 8.196 9.116 8.268 9.116C8.34 9.116 8.4 9.104 8.424 9.056C8.448 9.008 8.472 8.948 8.472 8.864V2H10.872V8.612C10.872 9.044 10.8 9.416 10.668 9.728C10.524 10.052 10.344 10.316 10.128 10.532C9.912 10.748 9.648 10.904 9.348 11C9.048 11.108 8.736 11.156 8.424 11.156C7.656 11.156 7.056 10.964 6.624 10.556C6.192 10.16 5.844 9.608 5.556 8.912L3.6 4.136C3.576 4.088 3.54 4.028 3.516 3.98C3.492 3.932 3.444 3.896 3.384 3.896C3.3 3.896 3.24 3.92 3.216 3.968C3.192 4.016 3.18 4.076 3.18 4.148V11H0.78ZM19.9284 6.968V7.832C19.9284 8.84 19.6164 9.632 19.0164 10.232C18.4164 10.832 17.5524 11.12 16.4364 11.12H15.5964C14.4684 11.12 13.6044 10.832 13.0044 10.232C12.3924 9.632 12.0924 8.84 12.0924 7.832V6.968C12.0924 5.972 12.3924 5.18 13.0044 4.58C13.6044 3.98 14.4684 3.68 15.5964 3.68H16.4364C17.5524 3.68 18.4164 3.98 19.0164 4.58C19.6164 5.18 19.9284 5.972 19.9284 6.968ZM17.5884 6.776C17.5884 6.32 17.4924 5.972 17.3244 5.744C17.1564 5.516 16.8444 5.396 16.4124 5.396H15.6204C15.1764 5.396 14.8644 5.516 14.6964 5.744C14.5164 5.972 14.4324 6.32 14.4324 6.776V8.012C14.4324 8.492 14.5164 8.84 14.6964 9.068C14.8644 9.296 15.1764 9.404 15.6204 9.404H16.4124C16.8444 9.404 17.1564 9.296 17.3244 9.068C17.4924 8.84 17.5884 8.492 17.5884 8.012V6.776ZM20.6072 5.54V3.8H21.7712V2.336H23.8712V3.8H27.7712V5.54H23.8712V8.456C23.8712 8.768 23.9312 8.972 24.0632 9.092C24.1832 9.212 24.3992 9.26 24.6872 9.26H25.8512V11H24.4232C23.4272 11 22.7192 10.796 22.2872 10.376C21.8552 9.956 21.6512 9.32 21.6512 8.456V5.54H20.6072ZM29.6278 3.176H27.3478V1.76H29.6278V3.176ZM27.3478 11V3.8H29.6278V11H27.3478ZM31.9328 11V5.54H30.8288V3.8H31.9448C31.9928 3.056 32.2208 2.48 32.6168 2.096C33.0008 1.712 33.6608 1.52 34.5968 1.52H36.2528V3.008H34.5008C34.3208 3.008 34.1888 3.056 34.1048 3.14C34.0088 3.236 33.9728 3.38 33.9728 3.572V3.8H36.2528V5.54H34.2128V11H31.9328ZM39.495 3.176H37.215V1.76H39.495V3.176ZM37.215 11V3.8H39.495V11H37.215ZM44.4879 5.54C44.0079 5.54 43.6599 5.648 43.4439 5.864C43.2279 6.08 43.1199 6.392 43.1199 6.824V8.06C43.1199 8.54 43.2279 8.864 43.4439 9.02C43.6599 9.188 44.0079 9.26 44.4879 9.26H46.8279V11H44.4159C43.1199 11 42.1959 10.724 41.6319 10.16C41.0559 9.608 40.7799 8.828 40.7799 7.844V6.968C40.7799 5.984 41.0559 5.216 41.6319 4.652C42.1959 4.088 43.1199 3.8 44.4159 3.8H49.5879V5.54H44.4879ZM54.9498 7.1V11H50.0178C49.2978 11 48.7458 10.844 48.3618 10.532C47.9778 10.22 47.7858 9.812 47.7858 9.308C47.7858 8.756 47.9658 8.324 48.3498 7.988C48.7218 7.652 49.1778 7.304 49.7058 6.944L51.7458 5.54H47.9538V3.8H51.1098C52.4778 3.8 53.4618 4.1 54.0618 4.676C54.6498 5.252 54.9498 6.068 54.9498 7.1ZM50.6658 9.26H52.7898V6.872L50.6178 8.564C50.4738 8.672 50.3778 8.756 50.3298 8.804C50.2698 8.852 50.2458 8.924 50.2458 8.996C50.2458 9.092 50.2698 9.152 50.3418 9.2C50.4018 9.248 50.5098 9.26 50.6658 9.26ZM59.7926 5.54C59.3126 5.54 58.9646 5.648 58.7486 5.864C58.5326 6.08 58.4246 6.392 58.4246 6.824V8.06C58.4246 8.54 58.5326 8.864 58.7486 9.02C58.9646 9.188 59.3126 9.26 59.7926 9.26H62.4926V11H59.7206C58.4246 11 57.5006 10.724 56.9366 10.16C56.3606 9.608 56.0846 8.828 56.0846 7.844V6.968C56.0846 5.984 56.3606 5.216 56.9366 4.652C57.5006 4.088 58.4246 3.8 59.7206 3.8H62.4926V5.54H59.7926ZM66.2138 3.176H63.9338V1.76H66.2138V3.176ZM63.9338 11V3.8H66.2138V11H63.9338ZM75.3347 6.968V7.832C75.3347 8.84 75.0227 9.632 74.4227 10.232C73.8227 10.832 72.9587 11.12 71.8427 11.12H71.0027C69.8747 11.12 69.0107 10.832 68.4107 10.232C67.7987 9.632 67.4987 8.84 67.4987 7.832V6.968C67.4987 5.972 67.7987 5.18 68.4107 4.58C69.0107 3.98 69.8747 3.68 71.0027 3.68H71.8427C72.9587 3.68 73.8227 3.98 74.4227 4.58C75.0227 5.18 75.3347 5.972 75.3347 6.968ZM72.9947 6.776C72.9947 6.32 72.8987 5.972 72.7307 5.744C72.5627 5.516 72.2507 5.396 71.8187 5.396H71.0267C70.5827 5.396 70.2707 5.516 70.1027 5.744C69.9227 5.972 69.8387 6.32 69.8387 6.776V8.012C69.8387 8.492 69.9227 8.84 70.1027 9.068C70.2707 9.296 70.5827 9.404 71.0267 9.404H71.8187C72.2507 9.404 72.5627 9.296 72.7307 9.068C72.8987 8.84 72.9947 8.492 72.9947 8.012V6.776ZM76.4694 11V3.8H80.9334C81.9774 3.8 82.7334 4.064 83.2134 4.592C83.6814 5.12 83.9214 5.84 83.9214 6.74V11H81.6414V6.68C81.6414 6.32 81.5694 6.056 81.4494 5.9C81.3294 5.744 81.0894 5.66 80.7414 5.66H78.7494V11H76.4694ZM92.5291 8.072H87.3811V8.12C87.3811 8.576 87.4771 8.888 87.6811 9.032C87.8731 9.188 88.2211 9.26 88.7131 9.26H92.3611V11H88.8451C88.1371 11 87.5371 10.928 87.0571 10.772C86.5771 10.616 86.1811 10.4 85.8931 10.112C85.6051 9.824 85.3891 9.488 85.2571 9.08C85.1251 8.684 85.0651 8.24 85.0651 7.76V6.848C85.0651 5.9 85.3411 5.144 85.8931 4.568C86.4451 3.992 87.3451 3.704 88.6051 3.704H89.0851C89.7571 3.704 90.3091 3.788 90.7651 3.944C91.2091 4.112 91.5571 4.34 91.8211 4.628C92.0851 4.916 92.2651 5.264 92.3731 5.672C92.4691 6.08 92.5291 6.536 92.5291 7.028V8.072ZM89.3491 5.312H88.4131C88.0291 5.312 87.7531 5.396 87.6091 5.564C87.4531 5.732 87.3811 6.02 87.3811 6.404V6.56H90.3691V6.404C90.3691 6.02 90.2851 5.732 90.1291 5.564C89.9731 5.396 89.7091 5.312 89.3491 5.312ZM97.4221 8.48L95.4661 8.096C94.7461 7.952 94.1941 7.7 93.8101 7.34C93.4261 6.98 93.2461 6.5 93.2461 5.9C93.2461 5.624 93.2941 5.36 93.4021 5.096C93.5101 4.844 93.6781 4.616 93.9061 4.424C94.1341 4.232 94.4221 4.088 94.7821 3.968C95.1421 3.86 95.5621 3.8 96.0541 3.8H99.6301V5.54H95.8741C95.6341 5.54 95.4661 5.576 95.3941 5.648C95.3101 5.72 95.2741 5.804 95.2741 5.9C95.2741 6.008 95.3101 6.092 95.3821 6.152C95.4541 6.224 95.5741 6.272 95.7541 6.296L97.5301 6.644C98.4061 6.824 99.0301 7.088 99.4141 7.436C99.7981 7.784 99.9901 8.24 99.9901 8.816C99.9901 9.464 99.7381 9.992 99.2461 10.4C98.7541 10.808 98.0101 11 97.0141 11H91.0861V9.26H97.3381C97.5901 9.26 97.7701 9.224 97.8661 9.152C97.9621 9.08 98.0101 8.984 98.0101 8.864C98.0101 8.744 97.9501 8.66 97.8421 8.612C97.7341 8.564 97.5901 8.516 97.4221 8.48Z" fill="white"/>
<path d="M108 7.00002L244 7" stroke="url(#paint0_linear_1635_6223)" stroke-opacity="0.7" stroke-width="2"/>
<defs>
<linearGradient id="paint0_linear_1635_6223" x1="176" y1="7.00001" x2="176" y2="8.00001" gradientUnits="userSpaceOnUse">
<stop stop-color="white"/>
<stop offset="0.485" stop-color="white"/>
<stop offset="1" stop-color="#A90F0F"/>
</linearGradient>
</defs>
</svg>
