<svg width="179" height="11" viewBox="0 0 179 11" fill="none" xmlns="http://www.w3.org/2000/svg">
    <path d="M0.78 10V0.999999H7.872V2.98H3.18V4.636H7.872V6.616H3.18V10H0.78ZM16.3807 7.072H11.2327V7.12C11.2327 7.576 11.3287 7.888 11.5327 8.032C11.7247 8.188 12.0727 8.26 12.5647 8.26H16.2127V10H12.6967C11.9887 10 11.3887 9.928 10.9087 9.772C10.4287 9.616 10.0327 9.4 9.74466 9.112C9.45666 8.824 9.24066 8.488 9.10866 8.08C8.97666 7.684 8.91666 7.24 8.91666 6.76V5.848C8.91666 4.9 9.19266 4.144 9.74466 3.568C10.2967 2.992 11.1967 2.704 12.4567 2.704H12.9367C13.6087 2.704 14.1607 2.788 14.6167 2.944C15.0607 3.112 15.4087 3.34 15.6727 3.628C15.9367 3.916 16.1167 4.264 16.2247 4.672C16.3207 5.08 16.3807 5.536 16.3807 6.028V7.072ZM13.2007 4.312H12.2647C11.8807 4.312 11.6047 4.396 11.4607 4.564C11.3047 4.732 11.2327 5.02 11.2327 5.404V5.56H14.2207V5.404C14.2207 5.02 14.1367 4.732 13.9807 4.564C13.8247 4.396 13.5607 4.312 13.2007 4.312ZM21.0153 4.54C20.5353 4.54 20.1873 4.648 19.9713 4.864C19.7553 5.08 19.6473 5.392 19.6473 5.824V7.06C19.6473 7.54 19.7553 7.864 19.9713 8.02C20.1873 8.188 20.5353 8.26 21.0153 8.26H23.7153V10H20.9433C19.6473 10 18.7233 9.724 18.1593 9.16C17.5833 8.608 17.3073 7.828 17.3073 6.844V5.968C17.3073 4.984 17.5833 4.216 18.1593 3.652C18.7233 3.088 19.6473 2.8 20.9433 2.8H23.7153V4.54H21.0153ZM25.0124 10V0.999999H27.2924V2.8H29.4764C30.5204 2.8 31.2764 3.064 31.7564 3.592C32.2244 4.12 32.4644 4.84 32.4644 5.74V10H30.1844V5.68C30.1844 5.32 30.1124 5.056 29.9924 4.9C29.8724 4.744 29.6324 4.66 29.2844 4.66H27.2924V10H25.0124ZM40.6881 6.1V10H35.7561C35.0361 10 34.4841 9.844 34.1001 9.532C33.7161 9.22 33.5241 8.812 33.5241 8.308C33.5241 7.756 33.7041 7.324 34.0881 6.988C34.4601 6.652 34.9161 6.304 35.4441 5.944L37.4841 4.54H33.6921V2.8H36.8481C38.2161 2.8 39.2001 3.1 39.8001 3.676C40.3881 4.252 40.6881 5.068 40.6881 6.1ZM36.4041 8.26H38.5281V5.872L36.3561 7.564C36.2121 7.672 36.1161 7.756 36.0681 7.804C36.0081 7.852 35.9841 7.924 35.9841 7.996C35.9841 8.092 36.0081 8.152 36.0801 8.2C36.1401 8.248 36.2481 8.26 36.4041 8.26ZM53.7537 0.999999V2.98H49.1937C48.4497 2.98 47.9337 3.136 47.6697 3.424C47.3937 3.712 47.2617 4.192 47.2617 4.864V6.22C47.2617 6.94 47.3937 7.444 47.6577 7.732C47.9217 8.032 48.3897 8.176 49.0377 8.176H50.5017C50.9457 8.176 51.2697 8.116 51.4617 7.984C51.6537 7.852 51.7617 7.636 51.7617 7.348V6.556H49.3377V4.66H53.9217V7.504C53.9217 8.404 53.6097 9.064 53.0097 9.484C52.4097 9.916 51.5457 10.12 50.4177 10.12H49.1097C47.6457 10.12 46.5417 9.772 45.8217 9.064C45.1017 8.368 44.7417 7.384 44.7417 6.124V4.84C44.7417 4.264 44.8257 3.736 45.0177 3.256C45.1977 2.776 45.4737 2.38 45.8337 2.044C46.1937 1.708 46.6377 1.456 47.1897 1.276C47.7297 1.096 48.3537 0.999999 49.0737 0.999999H53.7537ZM55.2233 5.716C55.2233 5.356 55.2833 4.996 55.4273 4.636C55.5713 4.288 55.7753 3.976 56.0513 3.7C56.3273 3.436 56.6753 3.22 57.1073 3.052C57.5393 2.884 58.0433 2.8 58.6193 2.8H61.0913V4.54H58.4753C58.0913 4.54 57.8273 4.612 57.6953 4.756C57.5633 4.9 57.5033 5.152 57.5033 5.5V10H55.2233V5.716ZM66.6334 6.1V10H61.7014C60.9814 10 60.4294 9.844 60.0454 9.532C59.6614 9.22 59.4694 8.812 59.4694 8.308C59.4694 7.756 59.6494 7.324 60.0334 6.988C60.4054 6.652 60.8614 6.304 61.3894 5.944L63.4294 4.54H59.6374V2.8H62.7934C64.1614 2.8 65.1454 3.1 65.7454 3.676C66.3334 4.252 66.6334 5.068 66.6334 6.1ZM62.3494 8.26H64.4734V5.872L62.3014 7.564C62.1574 7.672 62.0614 7.756 62.0134 7.804C61.9534 7.852 61.9294 7.924 61.9294 7.996C61.9294 8.092 61.9534 8.152 62.0254 8.2C62.0854 8.248 62.1934 8.26 62.3494 8.26ZM68.0202 10V2.8H72.4842C73.5282 2.8 74.2842 3.064 74.7642 3.592C75.2322 4.12 75.4722 4.84 75.4722 5.74V10H73.1922V5.68C73.1922 5.32 73.1202 5.056 73.0002 4.9C72.8802 4.744 72.6402 4.66 72.2922 4.66H70.3002V10H68.0202ZM87.9707 3.544V4.432C87.9707 5.416 87.6707 6.088 87.0827 6.448C86.4827 6.82 85.5707 7 84.3347 7H82.2347V10H79.8347V0.999999H84.3347C85.5707 0.999999 86.4827 1.204 87.0827 1.588C87.6707 1.984 87.9707 2.632 87.9707 3.544ZM85.5707 4.36V3.652C85.5707 3.376 85.4747 3.16 85.3067 3.004C85.1387 2.848 84.8387 2.764 84.4067 2.764H82.2347V5.236H84.4067C84.8387 5.236 85.1387 5.164 85.3067 5.008C85.4747 4.852 85.5707 4.636 85.5707 4.36ZM88.8562 5.476C88.8562 5.14 88.9042 4.804 89.0122 4.48C89.1082 4.168 89.2762 3.88 89.5042 3.628C89.7202 3.388 90.0082 3.184 90.3682 3.028C90.7282 2.884 91.1482 2.8 91.6522 2.8H93.7642V4.54H92.1682C91.7602 4.54 91.4842 4.612 91.3402 4.756C91.1962 4.9 91.1362 5.152 91.1362 5.5V10H88.8562V5.476ZM101.623 7.072H96.4748V7.12C96.4748 7.576 96.5708 7.888 96.7748 8.032C96.9668 8.188 97.3148 8.26 97.8068 8.26H101.455V10H97.9388C97.2308 10 96.6308 9.928 96.1508 9.772C95.6708 9.616 95.2748 9.4 94.9868 9.112C94.6988 8.824 94.4828 8.488 94.3508 8.08C94.2188 7.684 94.1588 7.24 94.1588 6.76V5.848C94.1588 4.9 94.4348 4.144 94.9868 3.568C95.5388 2.992 96.4388 2.704 97.6988 2.704H98.1788C98.8508 2.704 99.4028 2.788 99.8588 2.944C100.303 3.112 100.651 3.34 100.915 3.628C101.179 3.916 101.359 4.264 101.467 4.672C101.563 5.08 101.623 5.536 101.623 6.028V7.072ZM98.4428 4.312H97.5068C97.1228 4.312 96.8468 4.396 96.7028 4.564C96.5468 4.732 96.4748 5.02 96.4748 5.404V5.56H99.4628V5.404C99.4628 5.02 99.3788 4.732 99.2228 4.564C99.0668 4.396 98.8028 4.312 98.4428 4.312ZM102.801 10V2.8H111.345C112.437 2.8 113.229 3.064 113.721 3.592C114.201 4.12 114.453 4.84 114.453 5.74V10H112.173V5.68C112.173 5.32 112.101 5.056 111.981 4.9C111.861 4.744 111.621 4.66 111.273 4.66H109.761V10H107.481V4.66H105.081V10H102.801ZM118.28 2.176H116V0.76H118.28V2.176ZM116 10V2.8H118.28V10H116ZM127.401 5.968V6.832C127.401 7.84 127.089 8.632 126.489 9.232C125.889 9.832 125.025 10.12 123.909 10.12H123.069C121.941 10.12 121.077 9.832 120.477 9.232C119.865 8.632 119.565 7.84 119.565 6.832V5.968C119.565 4.972 119.865 4.18 120.477 3.58C121.077 2.98 121.941 2.68 123.069 2.68H123.909C125.025 2.68 125.889 2.98 126.489 3.58C127.089 4.18 127.401 4.972 127.401 5.968ZM125.061 5.776C125.061 5.32 124.965 4.972 124.797 4.744C124.629 4.516 124.317 4.396 123.885 4.396H123.093C122.649 4.396 122.337 4.516 122.169 4.744C121.989 4.972 121.905 5.32 121.905 5.776V7.012C121.905 7.492 121.989 7.84 122.169 8.068C122.337 8.296 122.649 8.404 123.093 8.404H123.885C124.317 8.404 124.629 8.296 124.797 8.068C124.965 7.84 125.061 7.492 125.061 7.012V5.776ZM139.123 0.999999V10H134.011C133.123 10 132.427 9.712 131.923 9.112C131.419 8.524 131.167 7.744 131.167 6.76V6.04C131.167 5.068 131.419 4.288 131.923 3.688C132.427 3.1 133.123 2.8 134.011 2.8H136.843V0.999999H139.123ZM134.791 8.224H136.843V4.576H134.791C134.299 4.576 133.963 4.696 133.783 4.912C133.591 5.14 133.507 5.488 133.507 5.956V6.904C133.507 7.384 133.591 7.72 133.783 7.924C133.963 8.128 134.299 8.224 134.791 8.224ZM147.724 7.072H142.576V7.12C142.576 7.576 142.672 7.888 142.876 8.032C143.068 8.188 143.416 8.26 143.908 8.26H147.556V10H144.04C143.332 10 142.732 9.928 142.252 9.772C141.772 9.616 141.376 9.4 141.088 9.112C140.8 8.824 140.584 8.488 140.452 8.08C140.32 7.684 140.26 7.24 140.26 6.76V5.848C140.26 4.9 140.536 4.144 141.088 3.568C141.64 2.992 142.54 2.704 143.8 2.704H144.28C144.952 2.704 145.504 2.788 145.96 2.944C146.404 3.112 146.752 3.34 147.016 3.628C147.28 3.916 147.46 4.264 147.568 4.672C147.664 5.08 147.724 5.536 147.724 6.028V7.072ZM144.544 4.312H143.608C143.224 4.312 142.948 4.396 142.804 4.564C142.648 4.732 142.576 5.02 142.576 5.404V5.56H145.564V5.404C145.564 5.02 145.48 4.732 145.324 4.564C145.168 4.396 144.904 4.312 144.544 4.312ZM151.57 10L152.134 3.568C152.206 2.608 152.47 1.924 152.914 1.492C153.358 1.072 153.922 0.856 154.606 0.856C155.326 0.856 155.902 1.084 156.334 1.528C156.766 1.972 157.042 2.572 157.162 3.34L157.87 7.816C157.882 7.912 157.906 7.984 157.942 8.032C157.978 8.08 158.038 8.104 158.122 8.104C158.194 8.104 158.254 8.08 158.302 8.02C158.338 7.972 158.362 7.888 158.374 7.792L159.058 3.328C159.166 2.572 159.43 1.972 159.862 1.528C160.294 1.084 160.87 0.856 161.59 0.856C162.346 0.856 162.91 1.072 163.282 1.504C163.654 1.936 163.882 2.62 163.966 3.568L164.53 10H162.214L161.734 3.22C161.722 3.148 161.71 3.076 161.686 3.016C161.662 2.968 161.614 2.932 161.542 2.932C161.47 2.932 161.422 2.968 161.386 3.016C161.338 3.064 161.314 3.124 161.314 3.196L160.51 8.008C160.402 8.656 160.138 9.172 159.73 9.556C159.322 9.952 158.782 10.144 158.11 10.144C157.414 10.144 156.85 9.952 156.442 9.544C156.022 9.136 155.758 8.62 155.662 7.996L154.822 3.208C154.798 3.124 154.774 3.052 154.738 3.004C154.69 2.956 154.642 2.932 154.582 2.932C154.498 2.932 154.438 2.968 154.414 3.016C154.39 3.076 154.366 3.148 154.366 3.232L153.886 10H151.57ZM170.484 7.312C170.424 7.24 170.364 7.168 170.292 7.12C170.22 7.072 170.16 7.048 170.088 7.048C170.016 7.048 169.956 7.072 169.884 7.12C169.812 7.168 169.74 7.228 169.692 7.312L167.844 10H165.228L168.456 5.5L165.132 0.999999H167.94L169.74 3.652C169.788 3.724 169.836 3.784 169.896 3.82C169.944 3.868 170.004 3.892 170.064 3.892C170.112 3.892 170.172 3.88 170.232 3.832C170.292 3.796 170.352 3.736 170.412 3.652L172.212 0.999999H174.912L171.684 5.5L175.008 10H172.356L170.484 7.312ZM175.845 10V7.48H178.365V10H175.845Z" fill="white"/>
</svg>
