<svg width="372" height="14" viewBox="0 0 372 14" fill="none" xmlns="http://www.w3.org/2000/svg">
<path d="M8.292 9.02V11H4.812C4.092 11 3.468 10.916 2.928 10.736C2.376 10.556 1.932 10.304 1.572 9.968C1.212 9.632 0.936 9.236 0.756 8.756C0.564 8.276 0.48 7.748 0.48 7.16V5.84C0.48 5.264 0.564 4.736 0.756 4.256C0.936 3.776 1.212 3.38 1.572 3.044C1.932 2.708 2.376 2.456 2.928 2.276C3.468 2.096 4.092 2 4.812 2H8.232V3.98H4.932C4.188 3.98 3.672 4.136 3.408 4.424C3.132 4.712 3 5.192 3 5.864V7.136C3 7.808 3.132 8.3 3.42 8.588C3.696 8.876 4.224 9.02 4.992 9.02H8.292ZM9.48844 2H11.7684V11H9.48844V2ZM20.1334 7.1V11H15.2014C14.4814 11 13.9294 10.844 13.5454 10.532C13.1614 10.22 12.9694 9.812 12.9694 9.308C12.9694 8.756 13.1494 8.324 13.5334 7.988C13.9054 7.652 14.3614 7.304 14.8894 6.944L16.9294 5.54H13.1374V3.8H16.2934C17.6614 3.8 18.6454 4.1 19.2454 4.676C19.8334 5.252 20.1334 6.068 20.1334 7.1ZM15.8494 9.26H17.9734V6.872L15.8014 8.564C15.6574 8.672 15.5614 8.756 15.5134 8.804C15.4534 8.852 15.4294 8.924 15.4294 8.996C15.4294 9.092 15.4534 9.152 15.5254 9.2C15.5854 9.248 15.6934 9.26 15.8494 9.26ZM25.4802 8.48L23.5242 8.096C22.8042 7.952 22.2522 7.7 21.8682 7.34C21.4842 6.98 21.3042 6.5 21.3042 5.9C21.3042 5.624 21.3522 5.36 21.4602 5.096C21.5682 4.844 21.7362 4.616 21.9642 4.424C22.1922 4.232 22.4802 4.088 22.8402 3.968C23.2002 3.86 23.6202 3.8 24.1122 3.8H27.6882V5.54H23.9322C23.6922 5.54 23.5242 5.576 23.4522 5.648C23.3682 5.72 23.3322 5.804 23.3322 5.888C23.3322 5.984 23.3682 6.068 23.4402 6.14C23.5122 6.212 23.6322 6.272 23.8122 6.296L25.5882 6.644C26.4642 6.824 27.0882 7.088 27.4722 7.436C27.8562 7.784 28.0482 8.24 28.0482 8.816C28.0482 9.464 27.7962 9.992 27.3042 10.4C26.8122 10.808 26.0682 11 25.0722 11H21.5442V9.26H25.4562C25.7082 9.26 25.8762 9.224 25.9482 9.152C26.0202 9.08 26.0682 8.996 26.0682 8.876C26.0682 8.756 26.0082 8.672 25.9002 8.612C25.7922 8.564 25.6482 8.516 25.4802 8.48ZM31.5848 3.176H29.3048V1.76H31.5848V3.176ZM29.3048 11V3.8H31.5848V11H29.3048ZM33.8898 11V5.54H32.7858V3.8H33.9018C33.9498 3.056 34.1778 2.48 34.5738 2.096C34.9578 1.712 35.6178 1.52 36.5538 1.52H38.2098V3.008H36.4578C36.2778 3.008 36.1458 3.056 36.0618 3.14C35.9658 3.236 35.9298 3.38 35.9298 3.572V3.8H38.2098V5.54H36.1698V11H33.8898ZM41.452 3.176H39.172V1.76H41.452V3.176ZM39.172 11V3.8H41.452V11H39.172ZM46.445 5.54C45.965 5.54 45.617 5.648 45.401 5.864C45.185 6.08 45.077 6.392 45.077 6.824V8.06C45.077 8.54 45.185 8.864 45.401 9.02C45.617 9.188 45.965 9.26 46.445 9.26H48.785V11H46.373C45.077 11 44.153 10.724 43.589 10.16C43.013 9.608 42.737 8.828 42.737 7.844V6.968C42.737 5.984 43.013 5.216 43.589 4.652C44.153 4.088 45.077 3.8 46.373 3.8H51.545V5.54H46.445ZM56.9068 7.1V11H51.9748C51.2548 11 50.7028 10.844 50.3188 10.532C49.9348 10.22 49.7428 9.812 49.7428 9.308C49.7428 8.756 49.9228 8.324 50.3068 7.988C50.6788 7.652 51.1348 7.304 51.6628 6.944L53.7028 5.54H49.9108V3.8H53.0668C54.4348 3.8 55.4188 4.1 56.0188 4.676C56.6068 5.252 56.9068 6.068 56.9068 7.1ZM52.6228 9.26H54.7468V6.872L52.5748 8.564C52.4308 8.672 52.3348 8.756 52.2868 8.804C52.2268 8.852 52.2028 8.924 52.2028 8.996C52.2028 9.092 52.2268 9.152 52.2988 9.2C52.3588 9.248 52.4668 9.26 52.6228 9.26ZM61.7497 5.54C61.2697 5.54 60.9217 5.648 60.7057 5.864C60.4897 6.08 60.3817 6.392 60.3817 6.824V8.06C60.3817 8.54 60.4897 8.864 60.7057 9.02C60.9217 9.188 61.2697 9.26 61.7497 9.26H64.4497V11H61.6777C60.3817 11 59.4577 10.724 58.8937 10.16C58.3177 9.608 58.0417 8.828 58.0417 7.844V6.968C58.0417 5.984 58.3177 5.216 58.8937 4.652C59.4577 4.088 60.3817 3.8 61.6777 3.8H64.4497V5.54H61.7497ZM68.1708 3.176H65.8908V1.76H68.1708V3.176ZM65.8908 11V3.8H68.1708V11H65.8908ZM77.2917 6.968V7.832C77.2917 8.84 76.9797 9.632 76.3797 10.232C75.7797 10.832 74.9157 11.12 73.7997 11.12H72.9597C71.8317 11.12 70.9677 10.832 70.3677 10.232C69.7557 9.632 69.4557 8.84 69.4557 7.832V6.968C69.4557 5.972 69.7557 5.18 70.3677 4.58C70.9677 3.98 71.8317 3.68 72.9597 3.68H73.7997C74.9157 3.68 75.7797 3.98 76.3797 4.58C76.9797 5.18 77.2917 5.972 77.2917 6.968ZM74.9517 6.776C74.9517 6.32 74.8557 5.972 74.6877 5.744C74.5197 5.516 74.2077 5.396 73.7757 5.396H72.9837C72.5397 5.396 72.2277 5.516 72.0597 5.744C71.8797 5.972 71.7957 6.32 71.7957 6.776V8.012C71.7957 8.492 71.8797 8.84 72.0597 9.068C72.2277 9.296 72.5397 9.404 72.9837 9.404H73.7757C74.2077 9.404 74.5197 9.296 74.6877 9.068C74.8557 8.84 74.9517 8.492 74.9517 8.012V6.776ZM72.5157 2.936L73.2957 0.68H75.1557L74.3157 2.936H72.5157ZM78.4265 11V3.8H82.8905C83.9345 3.8 84.6905 4.064 85.1705 4.592C85.6385 5.12 85.8785 5.84 85.8785 6.74V11H83.5985V6.68C83.5985 6.32 83.5265 6.056 83.4065 5.9C83.2865 5.744 83.0465 5.66 82.6985 5.66H80.7065V11H78.4265Z" fill="white"/>
<path d="M96 7H372" stroke="url(#paint0_linear_1555_5837)" stroke-opacity="0.7" stroke-width="2"/>
<defs>
<linearGradient id="paint0_linear_1555_5837" x1="234" y1="7" x2="234" y2="8" gradientUnits="userSpaceOnUse">
<stop stop-color="white"/>
<stop offset="0.485" stop-color="white"/>
<stop offset="1" stop-color="#A90F0F"/>
</linearGradient>
</defs>
</svg>
