<svg width="171" height="14" viewBox="0 0 171 14" fill="none" xmlns="http://www.w3.org/2000/svg">
<path d="M0.78 11V2H3.18V9.02H7.752V11H0.78ZM16.155 6.968V7.832C16.155 8.84 15.843 9.632 15.243 10.232C14.643 10.832 13.779 11.12 12.663 11.12H11.823C10.695 11.12 9.831 10.832 9.231 10.232C8.619 9.632 8.319 8.84 8.319 7.832V6.968C8.319 5.972 8.619 5.18 9.231 4.58C9.831 3.98 10.695 3.68 11.823 3.68H12.663C13.779 3.68 14.643 3.98 15.243 4.58C15.843 5.18 16.155 5.972 16.155 6.968ZM13.815 6.776C13.815 6.32 13.719 5.972 13.551 5.744C13.383 5.516 13.071 5.396 12.639 5.396H11.847C11.403 5.396 11.091 5.516 10.923 5.744C10.743 5.972 10.659 6.32 10.659 6.776V8.012C10.659 8.492 10.743 8.84 10.923 9.068C11.091 9.296 11.403 9.404 11.847 9.404H12.639C13.071 9.404 13.383 9.296 13.551 9.068C13.719 8.84 13.815 8.492 13.815 8.012V6.776ZM20.7458 5.54C20.2658 5.54 19.9178 5.648 19.7018 5.864C19.4858 6.08 19.3778 6.392 19.3778 6.824V8.06C19.3778 8.54 19.4858 8.864 19.7018 9.02C19.9178 9.188 20.2658 9.26 20.7458 9.26H23.0858V11H20.6738C19.3778 11 18.4538 10.724 17.8898 10.16C17.3138 9.608 17.0378 8.828 17.0378 7.844V6.968C17.0378 5.984 17.3138 5.216 17.8898 4.652C18.4538 4.088 19.3778 3.8 20.6738 3.8H25.8458V5.54H20.7458ZM31.2076 7.1V11H26.2756C25.5556 11 25.0036 10.844 24.6196 10.532C24.2356 10.22 24.0436 9.812 24.0436 9.308C24.0436 8.756 24.2236 8.324 24.6076 7.988C24.9796 7.652 25.4356 7.304 25.9636 6.944L28.0036 5.54H24.2116V3.8H27.3676C28.7356 3.8 29.7196 4.1 30.3196 4.676C30.9076 5.252 31.2076 6.068 31.2076 7.1ZM26.9236 9.26H29.0476V6.872L26.8756 8.564C26.7316 8.672 26.6356 8.756 26.5876 8.804C26.5276 8.852 26.5036 8.924 26.5036 8.996C26.5036 9.092 26.5276 9.152 26.5996 9.2C26.6596 9.248 26.7676 9.26 26.9236 9.26ZM36.0504 5.54C35.5704 5.54 35.2224 5.648 35.0064 5.864C34.7904 6.08 34.6824 6.392 34.6824 6.824V8.06C34.6824 8.54 34.7904 8.864 35.0064 9.02C35.2224 9.188 35.5704 9.26 36.0504 9.26H38.7504V11H35.9784C34.6824 11 33.7584 10.724 33.1944 10.16C32.6184 9.608 32.3424 8.828 32.3424 7.844V6.968C32.3424 5.984 32.6184 5.216 33.1944 4.652C33.7584 4.088 34.6824 3.8 35.9784 3.8H38.7504V5.54H36.0504ZM42.4716 3.176H40.1916V1.76H42.4716V3.176ZM40.1916 11V3.8H42.4716V11H40.1916ZM51.5925 6.968V7.832C51.5925 8.84 51.2805 9.632 50.6805 10.232C50.0805 10.832 49.2165 11.12 48.1005 11.12H47.2605C46.1325 11.12 45.2685 10.832 44.6685 10.232C44.0565 9.632 43.7565 8.84 43.7565 7.832V6.968C43.7565 5.972 44.0565 5.18 44.6685 4.58C45.2685 3.98 46.1325 3.68 47.2605 3.68H48.1005C49.2165 3.68 50.0805 3.98 50.6805 4.58C51.2805 5.18 51.5925 5.972 51.5925 6.968ZM49.2525 6.776C49.2525 6.32 49.1565 5.972 48.9885 5.744C48.8205 5.516 48.5085 5.396 48.0765 5.396H47.2845C46.8405 5.396 46.5285 5.516 46.3605 5.744C46.1805 5.972 46.0965 6.32 46.0965 6.776V8.012C46.0965 8.492 46.1805 8.84 46.3605 9.068C46.5285 9.296 46.8405 9.404 47.2845 9.404H48.0765C48.5085 9.404 48.8205 9.296 48.9885 9.068C49.1565 8.84 49.2525 8.492 49.2525 8.012V6.776ZM52.7273 11V3.8H57.1913C58.2353 3.8 58.9913 4.064 59.4713 4.592C59.9393 5.12 60.1793 5.84 60.1793 6.74V11H57.8993V6.68C57.8993 6.32 57.8273 6.056 57.7073 5.9C57.5873 5.744 57.3473 5.66 56.9993 5.66H55.0073V11H52.7273ZM68.7869 8.072H63.6389V8.12C63.6389 8.576 63.7349 8.888 63.9389 9.032C64.1309 9.188 64.4789 9.26 64.9709 9.26H68.6189V11H65.1029C64.3949 11 63.7949 10.928 63.3149 10.772C62.8349 10.616 62.4389 10.4 62.1509 10.112C61.8629 9.824 61.6469 9.488 61.5149 9.08C61.3829 8.684 61.3229 8.24 61.3229 7.76V6.848C61.3229 5.9 61.5989 5.144 62.1509 4.568C62.7029 3.992 63.6029 3.704 64.8629 3.704H65.3429C66.0149 3.704 66.5669 3.788 67.0229 3.944C67.4669 4.112 67.8149 4.34 68.0789 4.628C68.3429 4.916 68.5229 5.264 68.6309 5.672C68.7269 6.08 68.7869 6.536 68.7869 7.028V8.072ZM65.6069 5.312H64.6709C64.2869 5.312 64.0109 5.396 63.8669 5.564C63.7109 5.732 63.6389 6.02 63.6389 6.404V6.56H66.6269V6.404C66.6269 6.02 66.5429 5.732 66.3869 5.564C66.2309 5.396 65.9669 5.312 65.6069 5.312ZM73.6799 8.48L71.7239 8.096C71.0039 7.952 70.4519 7.7 70.0679 7.34C69.6839 6.98 69.5039 6.5 69.5039 5.9C69.5039 5.624 69.5519 5.36 69.6599 5.096C69.7679 4.844 69.9359 4.616 70.1639 4.424C70.3919 4.232 70.6799 4.088 71.0399 3.968C71.3999 3.86 71.8199 3.8 72.3119 3.8H75.8879V5.54H72.1319C71.8919 5.54 71.7239 5.576 71.6519 5.648C71.5679 5.72 71.5319 5.804 71.5319 5.9C71.5319 6.008 71.5679 6.092 71.6399 6.152C71.7119 6.224 71.8319 6.272 72.0119 6.296L73.7879 6.644C74.6639 6.824 75.2879 7.088 75.6719 7.436C76.0559 7.784 76.2479 8.24 76.2479 8.816C76.2479 9.464 75.9959 9.992 75.5039 10.4C75.0119 10.808 74.2679 11 73.2719 11H67.3439V9.26H73.5959C73.8479 9.26 74.0279 9.224 74.1239 9.152C74.2199 9.08 74.2679 8.984 74.2679 8.864C74.2679 8.744 74.2079 8.66 74.0999 8.612C73.9919 8.564 73.8479 8.516 73.6799 8.48Z" fill="white"/>
<path d="M86 7.5L171 7" stroke="url(#paint0_linear_1491_5719)" stroke-opacity="0.7" stroke-width="2"/>
<defs>
<linearGradient id="paint0_linear_1491_5719" x1="128.5" y1="7.25" x2="128.506" y2="8.24998" gradientUnits="userSpaceOnUse">
<stop stop-color="white"/>
<stop offset="0.485" stop-color="white"/>
<stop offset="1" stop-color="#A90F0F"/>
</linearGradient>
</defs>
</svg>
