<svg width="376" height="14" viewBox="0 0 376 14" fill="none" xmlns="http://www.w3.org/2000/svg">
<path d="M0.48 11L1.044 4.568C1.116 3.608 1.38 2.924 1.824 2.492C2.268 2.072 2.832 1.856 3.516 1.856C4.236 1.856 4.812 2.084 5.244 2.528C5.676 2.972 5.952 3.572 6.072 4.34L6.78 8.816C6.792 8.912 6.816 8.984 6.852 9.032C6.888 9.08 6.948 9.104 7.032 9.104C7.104 9.104 7.164 9.08 7.212 9.02C7.248 8.972 7.272 8.888 7.284 8.792L7.968 4.328C8.076 3.572 8.34 2.972 8.772 2.528C9.204 2.084 9.78 1.856 10.5 1.856C11.256 1.856 11.82 2.072 12.192 2.504C12.564 2.936 12.792 3.62 12.876 4.568L13.44 11H11.124L10.644 4.22C10.632 4.148 10.62 4.076 10.596 4.016C10.572 3.968 10.524 3.932 10.452 3.932C10.38 3.932 10.332 3.968 10.296 4.016C10.248 4.064 10.224 4.124 10.224 4.196L9.42 9.008C9.312 9.656 9.048 10.172 8.64 10.556C8.232 10.952 7.692 11.144 7.02 11.144C6.324 11.144 5.76 10.952 5.352 10.544C4.932 10.136 4.668 9.62 4.572 8.996L3.732 4.208C3.708 4.124 3.684 4.052 3.648 4.004C3.6 3.956 3.552 3.932 3.492 3.932C3.408 3.932 3.348 3.968 3.324 4.016C3.3 4.076 3.276 4.148 3.276 4.232L2.796 11H0.48ZM17.0419 3.176H14.7619V1.76H17.0419V3.176ZM14.7619 11V3.8H17.0419V11H14.7619ZM22.5388 8.48L20.5828 8.096C19.8628 7.952 19.3108 7.7 18.9268 7.34C18.5428 6.98 18.3628 6.5 18.3628 5.9C18.3628 5.624 18.4108 5.36 18.5188 5.096C18.6268 4.844 18.7948 4.616 19.0228 4.424C19.2508 4.232 19.5388 4.088 19.8988 3.968C20.2588 3.86 20.6788 3.8 21.1708 3.8H24.7468V5.54H20.9908C20.7508 5.54 20.5828 5.576 20.5108 5.648C20.4268 5.72 20.3908 5.804 20.3908 5.888C20.3908 5.984 20.4268 6.068 20.4988 6.14C20.5708 6.212 20.6908 6.272 20.8708 6.296L22.6468 6.644C23.5228 6.824 24.1468 7.088 24.5308 7.436C24.9148 7.784 25.1068 8.24 25.1068 8.816C25.1068 9.464 24.8548 9.992 24.3628 10.4C23.8708 10.808 23.1268 11 22.1308 11H18.6028V9.26H22.5148C22.7668 9.26 22.9348 9.224 23.0068 9.152C23.0788 9.08 23.1268 8.996 23.1268 8.876C23.1268 8.756 23.0668 8.672 22.9588 8.612C22.8508 8.564 22.7068 8.516 22.5388 8.48ZM28.6463 5.54V3.8H29.8103V2.336H31.9103V3.8H35.8103V5.54H31.9103V8.456C31.9103 8.768 31.9703 8.972 32.1023 9.092C32.2223 9.212 32.4383 9.26 32.7263 9.26H33.8903V11H32.4623C31.4663 11 30.7583 10.796 30.3263 10.376C29.8943 9.956 29.6903 9.32 29.6903 8.456V5.54H28.6463ZM37.6669 3.176H35.3869V1.76H37.6669V3.176ZM35.3869 11V3.8H37.6669V11H35.3869ZM42.6598 5.54C42.1798 5.54 41.8318 5.648 41.6158 5.864C41.3998 6.08 41.2918 6.392 41.2918 6.824V8.06C41.2918 8.54 41.3998 8.864 41.6158 9.02C41.8318 9.188 42.1798 9.26 42.6598 9.26H45.3598V11H42.5878C41.2918 11 40.3678 10.724 39.8038 10.16C39.2278 9.608 38.9518 8.828 38.9518 7.844V6.968C38.9518 5.984 39.2278 5.216 39.8038 4.652C40.3678 4.088 41.2918 3.8 42.5878 3.8H45.3598V5.54H42.6598ZM46.6569 11V2H48.9369V6.38H49.1889C49.4049 6.38 49.5729 6.368 49.6929 6.32C49.8129 6.284 49.9209 6.2 50.0289 6.068L51.8049 3.8H54.4209L51.4449 7.34L54.5169 11H51.8049L49.9329 8.636C49.8009 8.48 49.6809 8.384 49.5849 8.348C49.4889 8.324 49.3329 8.3 49.1409 8.3H48.9369V11H46.6569ZM62.0603 8.072H56.9123V8.12C56.9123 8.576 57.0083 8.888 57.2123 9.032C57.4043 9.188 57.7523 9.26 58.2443 9.26H61.8923V11H58.3763C57.6683 11 57.0683 10.928 56.5883 10.772C56.1083 10.616 55.7123 10.4 55.4243 10.112C55.1363 9.824 54.9203 9.488 54.7883 9.08C54.6563 8.684 54.5963 8.24 54.5963 7.76V6.848C54.5963 5.9 54.8723 5.144 55.4243 4.568C55.9763 3.992 56.8763 3.704 58.1363 3.704H58.6163C59.2883 3.704 59.8403 3.788 60.2963 3.944C60.7403 4.112 61.0883 4.34 61.3523 4.628C61.6163 4.916 61.7963 5.264 61.9043 5.672C62.0003 6.08 62.0603 6.536 62.0603 7.028V8.072ZM58.8803 5.312H57.9443C57.5603 5.312 57.2843 5.396 57.1403 5.564C56.9843 5.732 56.9123 6.02 56.9123 6.404V6.56H59.9003V6.404C59.9003 6.02 59.8163 5.732 59.6603 5.564C59.5043 5.396 59.2403 5.312 58.8803 5.312ZM62.783 5.54V3.8H63.947V2.336H66.047V3.8H68.507V5.54H66.047V8.456C66.047 8.768 66.107 8.972 66.239 9.092C66.359 9.212 66.575 9.26 66.863 9.26H68.507V11H66.599C65.603 11 64.895 10.796 64.463 10.376C64.031 9.956 63.827 9.32 63.827 8.456V5.54H62.783ZM73.2229 8.48L71.2669 8.096C70.5469 7.952 69.9949 7.7 69.6109 7.34C69.2269 6.98 69.0469 6.5 69.0469 5.9C69.0469 5.624 69.0949 5.36 69.2029 5.096C69.3109 4.844 69.4789 4.616 69.7069 4.424C69.9349 4.232 70.2229 4.088 70.5829 3.968C70.9429 3.86 71.3629 3.8 71.8549 3.8H75.4309V5.54H71.6749C71.4349 5.54 71.2669 5.576 71.1949 5.648C71.1109 5.72 71.0749 5.804 71.0749 5.9C71.0749 6.008 71.1109 6.092 71.1829 6.152C71.2549 6.224 71.3749 6.272 71.5549 6.296L73.3309 6.644C74.2069 6.824 74.8309 7.088 75.2149 7.436C75.5989 7.784 75.7909 8.24 75.7909 8.816C75.7909 9.464 75.5389 9.992 75.0469 10.4C74.5549 10.808 73.8109 11 72.8149 11H66.8869V9.26H73.1389C73.3909 9.26 73.5709 9.224 73.6669 9.152C73.7629 9.08 73.8109 8.984 73.8109 8.864C73.8109 8.744 73.7509 8.66 73.6429 8.612C73.5349 8.564 73.3909 8.516 73.2229 8.48Z" fill="white"/>
<path d="M86 7L376 7.00003" stroke="url(#paint0_linear_1586_6402)" stroke-opacity="0.7" stroke-width="2"/>
<defs>
<linearGradient id="paint0_linear_1586_6402" x1="231" y1="7.00001" x2="231" y2="8.00001" gradientUnits="userSpaceOnUse">
<stop stop-color="white"/>
<stop offset="0.485" stop-color="white"/>
<stop offset="1" stop-color="#A90F0F"/>
</linearGradient>
</defs>
</svg>
