<svg width="175" height="14" viewBox="0 0 175 14" fill="none" xmlns="http://www.w3.org/2000/svg">
<path d="M4.464 11.156C3.12 11.156 2.16 10.856 1.584 10.256C1.008 9.656 0.72 8.828 0.72 7.748V2H3.12V7.976C3.12 8.408 3.216 8.732 3.408 8.936C3.6 9.14 3.948 9.236 4.428 9.236H5.796C6.24 9.236 6.564 9.14 6.768 8.936C6.972 8.732 7.08 8.408 7.08 7.976V2H9.48V7.748C9.48 8.288 9.408 8.768 9.288 9.188C9.168 9.62 8.964 9.98 8.676 10.268C8.388 10.556 8.016 10.784 7.536 10.928C7.056 11.084 6.456 11.156 5.76 11.156H4.464ZM10.8913 11V2H13.1713V3.68H16.0033C16.8913 3.68 17.5873 3.98 18.0913 4.568C18.5953 5.168 18.8473 5.948 18.8473 6.92V7.76C18.8473 8.744 18.5953 9.524 18.0913 10.112C17.5873 10.712 16.8913 11 16.0033 11H10.8913ZM15.2233 5.456H13.1713V9.224H15.2233C15.7033 9.224 16.0393 9.116 16.2313 8.888C16.4113 8.672 16.5073 8.324 16.5073 7.844V6.776C16.5073 6.308 16.4113 5.972 16.2313 5.768C16.0393 5.564 15.7033 5.456 15.2233 5.456ZM22.4091 3.176H20.1291V1.76H22.4091V3.176ZM20.1291 11V3.8H22.4091V11H20.1291ZM27.402 5.54C26.922 5.54 26.574 5.648 26.358 5.864C26.142 6.08 26.034 6.392 26.034 6.824V8.06C26.034 8.54 26.142 8.864 26.358 9.02C26.574 9.188 26.922 9.26 27.402 9.26H29.742V11H27.33C26.034 11 25.11 10.724 24.546 10.16C23.97 9.608 23.694 8.828 23.694 7.844V6.968C23.694 5.984 23.97 5.216 24.546 4.652C25.11 4.088 26.034 3.8 27.33 3.8H32.502V5.54H27.402ZM37.8638 7.1V11H32.9318C32.2118 11 31.6598 10.844 31.2758 10.532C30.8918 10.22 30.6998 9.812 30.6998 9.308C30.6998 8.756 30.8798 8.324 31.2638 7.988C31.6358 7.652 32.0918 7.304 32.6198 6.944L34.6598 5.54H30.8678V3.8H34.0238C35.3918 3.8 36.3758 4.1 36.9758 4.676C37.5638 5.252 37.8638 6.068 37.8638 7.1ZM33.5798 9.26H35.7038V6.872L33.5318 8.564C33.3878 8.672 33.2918 8.756 33.2438 8.804C33.1838 8.852 33.1598 8.924 33.1598 8.996C33.1598 9.092 33.1838 9.152 33.2558 9.2C33.3158 9.248 33.4238 9.26 33.5798 9.26ZM39.2507 6.476C39.2507 6.14 39.2987 5.804 39.4067 5.48C39.5027 5.168 39.6707 4.88 39.8987 4.628C40.1147 4.388 40.4027 4.184 40.7627 4.028C41.1227 3.884 41.5427 3.8 42.0467 3.8H44.1587V5.54H42.5627C42.1547 5.54 41.8787 5.612 41.7347 5.756C41.5907 5.9 41.5307 6.152 41.5307 6.5V11H39.2507V6.476ZM48.0066 11V2H50.4066V9.02H54.9786V11H48.0066ZM63.3816 6.968V7.832C63.3816 8.84 63.0696 9.632 62.4696 10.232C61.8696 10.832 61.0056 11.12 59.8896 11.12H59.0496C57.9216 11.12 57.0576 10.832 56.4576 10.232C55.8456 9.632 55.5456 8.84 55.5456 7.832V6.968C55.5456 5.972 55.8456 5.18 56.4576 4.58C57.0576 3.98 57.9216 3.68 59.0496 3.68H59.8896C61.0056 3.68 61.8696 3.98 62.4696 4.58C63.0696 5.18 63.3816 5.972 63.3816 6.968ZM61.0416 6.776C61.0416 6.32 60.9456 5.972 60.7776 5.744C60.6096 5.516 60.2976 5.396 59.8656 5.396H59.0736C58.6296 5.396 58.3176 5.516 58.1496 5.744C57.9696 5.972 57.8856 6.32 57.8856 6.776V8.012C57.8856 8.492 57.9696 8.84 58.1496 9.068C58.3176 9.296 58.6296 9.404 59.0736 9.404H59.8656C60.2976 9.404 60.6096 9.296 60.7776 9.068C60.9456 8.84 61.0416 8.492 61.0416 8.012V6.776ZM67.9723 5.54C67.4923 5.54 67.1443 5.648 66.9283 5.864C66.7123 6.08 66.6043 6.392 66.6043 6.824V8.06C66.6043 8.54 66.7123 8.864 66.9283 9.02C67.1443 9.188 67.4923 9.26 67.9723 9.26H70.3123V11H67.9003C66.6043 11 65.6803 10.724 65.1163 10.16C64.5403 9.608 64.2643 8.828 64.2643 7.844V6.968C64.2643 5.984 64.5403 5.216 65.1163 4.652C65.6803 4.088 66.6043 3.8 67.9003 3.8H73.0723V5.54H67.9723ZM78.4342 7.1V11H73.5022C72.7822 11 72.2302 10.844 71.8462 10.532C71.4622 10.22 71.2702 9.812 71.2702 9.308C71.2702 8.756 71.4502 8.324 71.8342 7.988C72.2062 7.652 72.6622 7.304 73.1902 6.944L75.2302 5.54H71.4382V3.8H74.5942C75.9622 3.8 76.9462 4.1 77.5462 4.676C78.1342 5.252 78.4342 6.068 78.4342 7.1ZM74.1502 9.26H76.2742V6.872L74.1022 8.564C73.9582 8.672 73.8622 8.756 73.8142 8.804C73.7542 8.852 73.7302 8.924 73.7302 8.996C73.7302 9.092 73.7542 9.152 73.8262 9.2C73.8862 9.248 73.9942 9.26 74.1502 9.26ZM83.277 5.54C82.797 5.54 82.449 5.648 82.233 5.864C82.017 6.08 81.909 6.392 81.909 6.824V8.06C81.909 8.54 82.017 8.864 82.233 9.02C82.449 9.188 82.797 9.26 83.277 9.26H85.977V11H83.205C81.909 11 80.985 10.724 80.421 10.16C79.845 9.608 79.569 8.828 79.569 7.844V6.968C79.569 5.984 79.845 5.216 80.421 4.652C80.985 4.088 81.909 3.8 83.205 3.8H85.977V5.54H83.277ZM89.6981 3.176H87.4181V1.76H89.6981V3.176ZM87.4181 11V3.8H89.6981V11H87.4181ZM98.8191 6.968V7.832C98.8191 8.84 98.5071 9.632 97.9071 10.232C97.3071 10.832 96.4431 11.12 95.3271 11.12H94.4871C93.3591 11.12 92.4951 10.832 91.8951 10.232C91.2831 9.632 90.9831 8.84 90.9831 7.832V6.968C90.9831 5.972 91.2831 5.18 91.8951 4.58C92.4951 3.98 93.3591 3.68 94.4871 3.68H95.3271C96.4431 3.68 97.3071 3.98 97.9071 4.58C98.5071 5.18 98.8191 5.972 98.8191 6.968ZM96.4791 6.776C96.4791 6.32 96.3831 5.972 96.2151 5.744C96.0471 5.516 95.7351 5.396 95.3031 5.396H94.5111C94.0671 5.396 93.7551 5.516 93.5871 5.744C93.4071 5.972 93.3231 6.32 93.3231 6.776V8.012C93.3231 8.492 93.4071 8.84 93.5871 9.068C93.7551 9.296 94.0671 9.404 94.5111 9.404H95.3031C95.7351 9.404 96.0471 9.296 96.2151 9.068C96.3831 8.84 96.4791 8.492 96.4791 8.012V6.776ZM94.0431 2.936L94.8231 0.68H96.6831L95.8431 2.936H94.0431ZM99.9538 11V3.8H104.418C105.462 3.8 106.218 4.064 106.698 4.592C107.166 5.12 107.406 5.84 107.406 6.74V11H105.126V6.68C105.126 6.32 105.054 6.056 104.934 5.9C104.814 5.744 104.574 5.66 104.226 5.66H102.234V11H99.9538Z" fill="white"/>
<path d="M115 8L175 7.99999" stroke="url(#paint0_linear_1544_5785)" stroke-opacity="0.7" stroke-width="2"/>
<defs>
<linearGradient id="paint0_linear_1544_5785" x1="145" y1="8" x2="145" y2="9" gradientUnits="userSpaceOnUse">
<stop stop-color="white"/>
<stop offset="0.485" stop-color="white"/>
<stop offset="1" stop-color="#A90F0F"/>
</linearGradient>
</defs>
</svg>
