<svg width="372" height="14" viewBox="0 0 372 14" fill="none" xmlns="http://www.w3.org/2000/svg">
<path d="M0.48 11L1.044 4.568C1.116 3.608 1.38 2.924 1.824 2.492C2.268 2.072 2.832 1.856 3.516 1.856C4.236 1.856 4.812 2.084 5.244 2.528C5.676 2.972 5.952 3.572 6.072 4.34L6.78 8.816C6.792 8.912 6.816 8.984 6.852 9.032C6.888 9.08 6.948 9.104 7.032 9.104C7.104 9.104 7.164 9.08 7.212 9.02C7.248 8.972 7.272 8.888 7.284 8.792L7.968 4.328C8.076 3.572 8.34 2.972 8.772 2.528C9.204 2.084 9.78 1.856 10.5 1.856C11.256 1.856 11.82 2.072 12.192 2.504C12.564 2.936 12.792 3.62 12.876 4.568L13.44 11H11.124L10.644 4.22C10.632 4.148 10.62 4.076 10.596 4.016C10.572 3.968 10.524 3.932 10.452 3.932C10.38 3.932 10.332 3.968 10.296 4.016C10.248 4.064 10.224 4.124 10.224 4.196L9.42 9.008C9.312 9.656 9.048 10.172 8.64 10.556C8.232 10.952 7.692 11.144 7.02 11.144C6.324 11.144 5.76 10.952 5.352 10.544C4.932 10.136 4.668 9.62 4.572 8.996L3.732 4.208C3.708 4.124 3.684 4.052 3.648 4.004C3.6 3.956 3.552 3.932 3.492 3.932C3.408 3.932 3.348 3.968 3.324 4.016C3.3 4.076 3.276 4.148 3.276 4.232L2.796 11H0.48ZM21.7127 8.072H16.5647V8.12C16.5647 8.576 16.6607 8.888 16.8647 9.032C17.0567 9.188 17.4047 9.26 17.8967 9.26H21.5447V11H18.0287C17.3207 11 16.7207 10.928 16.2407 10.772C15.7607 10.616 15.3647 10.4 15.0767 10.112C14.7887 9.824 14.5727 9.488 14.4407 9.08C14.3087 8.684 14.2487 8.24 14.2487 7.76V6.848C14.2487 5.9 14.5247 5.144 15.0767 4.568C15.6287 3.992 16.5287 3.704 17.7887 3.704H18.2687C18.9407 3.704 19.4927 3.788 19.9487 3.944C20.3927 4.112 20.7407 4.34 21.0047 4.628C21.2687 4.916 21.4487 5.264 21.5567 5.672C21.6527 6.08 21.7127 6.536 21.7127 7.028V8.072ZM18.5327 5.312H17.5967C17.2127 5.312 16.9367 5.396 16.7927 5.564C16.6367 5.732 16.5647 6.02 16.5647 6.404V6.56H19.5527V6.404C19.5527 6.02 19.4687 5.732 19.3127 5.564C19.1567 5.396 18.8927 5.312 18.5327 5.312ZM17.1647 2.936L17.9447 0.68H19.8047L18.9647 2.936H17.1647ZM22.4353 5.54V3.8H23.5993V2.336H25.6993V3.8H28.1593V5.54H25.6993V8.456C25.6993 8.768 25.7593 8.972 25.8913 9.092C26.0113 9.212 26.2273 9.26 26.5153 9.26H28.1593V11H26.2513C25.2553 11 24.5473 10.796 24.1153 10.376C23.6833 9.956 23.4793 9.32 23.4793 8.456V5.54H22.4353ZM29.3952 6.476C29.3952 6.14 29.4432 5.804 29.5512 5.48C29.6472 5.168 29.8152 4.88 30.0432 4.628C30.2592 4.388 30.5472 4.184 30.9072 4.028C31.2672 3.884 31.6872 3.8 32.1912 3.8H34.3032V5.54H32.7072C32.2992 5.54 32.0232 5.612 31.8792 5.756C31.7352 5.9 31.6752 6.152 31.6752 6.5V11H29.3952V6.476ZM37.6083 3.176H35.3283V1.76H37.6083V3.176ZM35.3283 11V3.8H37.6083V11H35.3283ZM42.6012 5.54C42.1212 5.54 41.7732 5.648 41.5572 5.864C41.3412 6.08 41.2332 6.392 41.2332 6.824V8.06C41.2332 8.54 41.3412 8.864 41.5572 9.02C41.7732 9.188 42.1212 9.26 42.6012 9.26H44.9412V11H42.5292C41.2332 11 40.3092 10.724 39.7452 10.16C39.1692 9.608 38.8932 8.828 38.8932 7.844V6.968C38.8932 5.984 39.1692 5.216 39.7452 4.652C40.3092 4.088 41.2332 3.8 42.5292 3.8H47.7012V5.54H42.6012ZM53.0631 7.1V11H48.1311C47.4111 11 46.8591 10.844 46.4751 10.532C46.0911 10.22 45.8991 9.812 45.8991 9.308C45.8991 8.756 46.0791 8.324 46.4631 7.988C46.8351 7.652 47.2911 7.304 47.8191 6.944L49.8591 5.54H46.0671V3.8H49.2231C50.5911 3.8 51.5751 4.1 52.1751 4.676C52.7631 5.252 53.0631 6.068 53.0631 7.1ZM48.7791 9.26H50.9031V6.872L48.7311 8.564C48.5871 8.672 48.4911 8.756 48.4431 8.804C48.3831 8.852 48.3591 8.924 48.3591 8.996C48.3591 9.092 48.3831 9.152 48.4551 9.2C48.5151 9.248 48.6231 9.26 48.7791 9.26ZM58.4099 8.48L56.4539 8.096C55.7339 7.952 55.1819 7.7 54.7979 7.34C54.4139 6.98 54.2339 6.5 54.2339 5.9C54.2339 5.624 54.2819 5.36 54.3899 5.096C54.4979 4.844 54.6659 4.616 54.8939 4.424C55.1219 4.232 55.4099 4.088 55.7699 3.968C56.1299 3.86 56.5499 3.8 57.0419 3.8H60.6179V5.54H56.8619C56.6219 5.54 56.4539 5.576 56.3819 5.648C56.2979 5.72 56.2619 5.804 56.2619 5.888C56.2619 5.984 56.2979 6.068 56.3699 6.14C56.4419 6.212 56.5619 6.272 56.7419 6.296L58.5179 6.644C59.3939 6.824 60.0179 7.088 60.4019 7.436C60.7859 7.784 60.9779 8.24 60.9779 8.816C60.9779 9.464 60.7259 9.992 60.2339 10.4C59.7419 10.808 58.9979 11 58.0019 11H54.4739V9.26H58.3859C58.6379 9.26 58.8059 9.224 58.8779 9.152C58.9499 9.08 58.9979 8.996 58.9979 8.876C58.9979 8.756 58.9379 8.672 58.8299 8.612C58.7219 8.564 58.5779 8.516 58.4099 8.48Z" fill="white"/>
<path d="M96 7H372" stroke="url(#paint0_linear_1549_5819)" stroke-opacity="0.7" stroke-width="2"/>
<defs>
<linearGradient id="paint0_linear_1549_5819" x1="234" y1="7" x2="234" y2="8" gradientUnits="userSpaceOnUse">
<stop stop-color="white"/>
<stop offset="0.485" stop-color="white"/>
<stop offset="1" stop-color="#A90F0F"/>
</linearGradient>
</defs>
</svg>
