<svg width="315" height="81" viewBox="0 0 315 81" fill="none" xmlns="http://www.w3.org/2000/svg">
<g filter="url(#filter0_b_1741_6388)">
<rect width="315" height="81" rx="20" fill="#2D2D2F" fill-opacity="0.88"/>
</g>
<path fill-rule="evenodd" clip-rule="evenodd" d="M26 25C29.866 25 33 21.866 33 18C33 14.134 29.866 11 26 11C22.134 11 19 14.134 19 18C19 21.866 22.134 25 26 25ZM26 21C27.6569 21 29 19.6569 29 18C29 16.3431 27.6569 15 26 15C24.3431 15 23 16.3431 23 18C23 19.6569 24.3431 21 26 21Z" fill="#73D5F4"/>
<path d="M44.1426 13.4688V22H43.0293V13.4688H44.1426ZM46.8848 13.4688V14.3945H40.293V13.4688H46.8848ZM51.3027 20.5352V15.6602H52.3926V22H51.3555L51.3027 20.5352ZM51.5078 19.1992L51.959 19.1875C51.959 19.6094 51.9141 20 51.8242 20.3594C51.7383 20.7148 51.5977 21.0234 51.4023 21.2852C51.207 21.5469 50.9512 21.752 50.6348 21.9004C50.3184 22.0449 49.9336 22.1172 49.4805 22.1172C49.1719 22.1172 48.8887 22.0723 48.6309 21.9824C48.377 21.8926 48.1582 21.7539 47.9746 21.5664C47.791 21.3789 47.6484 21.1348 47.5469 20.834C47.4492 20.5332 47.4004 20.1719 47.4004 19.75V15.6602H48.4844V19.7617C48.4844 20.0469 48.5156 20.2832 48.5781 20.4707C48.6445 20.6543 48.7324 20.8008 48.8418 20.9102C48.9551 21.0156 49.0801 21.0898 49.2168 21.1328C49.3574 21.1758 49.502 21.1973 49.6504 21.1973C50.1113 21.1973 50.4766 21.1094 50.7461 20.9336C51.0156 20.7539 51.209 20.5137 51.3262 20.2129C51.4473 19.9082 51.5078 19.5703 51.5078 19.1992ZM58.1055 16.8789V24.4375H57.0156V15.6602H58.0117L58.1055 16.8789ZM62.377 18.7773V18.9004C62.377 19.3613 62.3223 19.7891 62.2129 20.1836C62.1035 20.5742 61.9434 20.9141 61.7324 21.2031C61.5254 21.4922 61.2695 21.7168 60.9648 21.877C60.6602 22.0371 60.3105 22.1172 59.916 22.1172C59.5137 22.1172 59.1582 22.0508 58.8496 21.918C58.541 21.7852 58.2793 21.5918 58.0645 21.3379C57.8496 21.084 57.6777 20.7793 57.5488 20.4238C57.4238 20.0684 57.3379 19.668 57.291 19.2227V18.5664C57.3379 18.0977 57.4258 17.6777 57.5547 17.3066C57.6836 16.9355 57.8535 16.6191 58.0645 16.3574C58.2793 16.0918 58.5391 15.8906 58.8438 15.7539C59.1484 15.6133 59.5 15.543 59.8984 15.543C60.2969 15.543 60.6504 15.6211 60.959 15.7773C61.2676 15.9297 61.5273 16.1484 61.7383 16.4336C61.9492 16.7188 62.1074 17.0605 62.2129 17.459C62.3223 17.8535 62.377 18.293 62.377 18.7773ZM61.2871 18.9004V18.7773C61.2871 18.4609 61.2539 18.1641 61.1875 17.8867C61.1211 17.6055 61.0176 17.3594 60.877 17.1484C60.7402 16.9336 60.5645 16.7656 60.3496 16.6445C60.1348 16.5195 59.8789 16.457 59.582 16.457C59.3086 16.457 59.0703 16.5039 58.8672 16.5977C58.668 16.6914 58.498 16.8184 58.3574 16.9785C58.2168 17.1348 58.1016 17.3145 58.0117 17.5176C57.9258 17.7168 57.8613 17.9238 57.8184 18.1387V19.6562C57.8965 19.9297 58.0059 20.1875 58.1465 20.4297C58.2871 20.668 58.4746 20.8613 58.709 21.0098C58.9434 21.1543 59.2383 21.2266 59.5938 21.2266C59.8867 21.2266 60.1387 21.166 60.3496 21.0449C60.5645 20.9199 60.7402 20.75 60.877 20.5352C61.0176 20.3203 61.1211 20.0742 61.1875 19.7969C61.2539 19.5156 61.2871 19.2168 61.2871 18.9004ZM66.3906 22.1172C65.9492 22.1172 65.5488 22.043 65.1895 21.8945C64.834 21.7422 64.5273 21.5293 64.2695 21.2559C64.0156 20.9824 63.8203 20.6582 63.6836 20.2832C63.5469 19.9082 63.4785 19.498 63.4785 19.0527V18.8066C63.4785 18.291 63.5547 17.832 63.707 17.4297C63.8594 17.0234 64.0664 16.6797 64.3281 16.3984C64.5898 16.1172 64.8867 15.9043 65.2188 15.7598C65.5508 15.6152 65.8945 15.543 66.25 15.543C66.7031 15.543 67.0938 15.6211 67.4219 15.7773C67.7539 15.9336 68.0254 16.1523 68.2363 16.4336C68.4473 16.7109 68.6035 17.0391 68.7051 17.418C68.8066 17.793 68.8574 18.2031 68.8574 18.6484V19.1348H64.123V18.25H67.7734V18.168C67.7578 17.8867 67.6992 17.6133 67.5977 17.3477C67.5 17.082 67.3438 16.8633 67.1289 16.6914C66.9141 16.5195 66.6211 16.4336 66.25 16.4336C66.0039 16.4336 65.7773 16.4863 65.5703 16.5918C65.3633 16.6934 65.1855 16.8457 65.0371 17.0488C64.8887 17.252 64.7734 17.5 64.6914 17.793C64.6094 18.0859 64.5684 18.4238 64.5684 18.8066V19.0527C64.5684 19.3535 64.6094 19.6367 64.6914 19.9023C64.7773 20.1641 64.9004 20.3945 65.0605 20.5938C65.2246 20.793 65.4219 20.9492 65.6523 21.0625C65.8867 21.1758 66.1523 21.2324 66.4492 21.2324C66.832 21.2324 67.1562 21.1543 67.4219 20.998C67.6875 20.8418 67.9199 20.6328 68.1191 20.3711L68.7754 20.8926C68.6387 21.0996 68.4648 21.2969 68.2539 21.4844C68.043 21.6719 67.7832 21.8242 67.4746 21.9414C67.1699 22.0586 66.8086 22.1172 66.3906 22.1172ZM74.1191 20.7695V13H75.209V22H74.2129L74.1191 20.7695ZM69.8535 18.9004V18.7773C69.8535 18.293 69.9121 17.8535 70.0293 17.459C70.1504 17.0605 70.3203 16.7188 70.5391 16.4336C70.7617 16.1484 71.0254 15.9297 71.3301 15.7773C71.6387 15.6211 71.9824 15.543 72.3613 15.543C72.7598 15.543 73.1074 15.6133 73.4043 15.7539C73.7051 15.8906 73.959 16.0918 74.166 16.3574C74.377 16.6191 74.543 16.9355 74.6641 17.3066C74.7852 17.6777 74.8691 18.0977 74.916 18.5664V19.1055C74.873 19.5703 74.7891 19.9883 74.6641 20.3594C74.543 20.7305 74.377 21.0469 74.166 21.3086C73.959 21.5703 73.7051 21.7715 73.4043 21.9121C73.1035 22.0488 72.752 22.1172 72.3496 22.1172C71.9785 22.1172 71.6387 22.0371 71.3301 21.877C71.0254 21.7168 70.7617 21.4922 70.5391 21.2031C70.3203 20.9141 70.1504 20.5742 70.0293 20.1836C69.9121 19.7891 69.8535 19.3613 69.8535 18.9004ZM70.9434 18.7773V18.9004C70.9434 19.2168 70.9746 19.5137 71.0371 19.791C71.1035 20.0684 71.2051 20.3125 71.3418 20.5234C71.4785 20.7344 71.6523 20.9004 71.8633 21.0215C72.0742 21.1387 72.3262 21.1973 72.6191 21.1973C72.9785 21.1973 73.2734 21.1211 73.5039 20.9688C73.7383 20.8164 73.9258 20.6152 74.0664 20.3652C74.207 20.1152 74.3164 19.8438 74.3945 19.5508V18.1387C74.3477 17.9238 74.2793 17.7168 74.1895 17.5176C74.1035 17.3145 73.9902 17.1348 73.8496 16.9785C73.7129 16.8184 73.543 16.6914 73.3398 16.5977C73.1406 16.5039 72.9043 16.457 72.6309 16.457C72.334 16.457 72.0781 16.5195 71.8633 16.6445C71.6523 16.7656 71.4785 16.9336 71.3418 17.1484C71.2051 17.3594 71.1035 17.6055 71.0371 17.8867C70.9746 18.1641 70.9434 18.4609 70.9434 18.7773ZM78.0742 15.6602V22H76.9844V15.6602H78.0742ZM76.9023 13.9785C76.9023 13.8027 76.9551 13.6543 77.0605 13.5332C77.1699 13.4121 77.3301 13.3516 77.541 13.3516C77.748 13.3516 77.9062 13.4121 78.0156 13.5332C78.1289 13.6543 78.1855 13.8027 78.1855 13.9785C78.1855 14.1465 78.1289 14.291 78.0156 14.4121C77.9062 14.5293 77.748 14.5879 77.541 14.5879C77.3301 14.5879 77.1699 14.5293 77.0605 14.4121C76.9551 14.291 76.9023 14.1465 76.9023 13.9785ZM83.8105 20.7695V13H84.9004V22H83.9043L83.8105 20.7695ZM79.5449 18.9004V18.7773C79.5449 18.293 79.6035 17.8535 79.7207 17.459C79.8418 17.0605 80.0117 16.7188 80.2305 16.4336C80.4531 16.1484 80.7168 15.9297 81.0215 15.7773C81.3301 15.6211 81.6738 15.543 82.0527 15.543C82.4512 15.543 82.7988 15.6133 83.0957 15.7539C83.3965 15.8906 83.6504 16.0918 83.8574 16.3574C84.0684 16.6191 84.2344 16.9355 84.3555 17.3066C84.4766 17.6777 84.5605 18.0977 84.6074 18.5664V19.1055C84.5645 19.5703 84.4805 19.9883 84.3555 20.3594C84.2344 20.7305 84.0684 21.0469 83.8574 21.3086C83.6504 21.5703 83.3965 21.7715 83.0957 21.9121C82.7949 22.0488 82.4434 22.1172 82.041 22.1172C81.6699 22.1172 81.3301 22.0371 81.0215 21.877C80.7168 21.7168 80.4531 21.4922 80.2305 21.2031C80.0117 20.9141 79.8418 20.5742 79.7207 20.1836C79.6035 19.7891 79.5449 19.3613 79.5449 18.9004ZM80.6348 18.7773V18.9004C80.6348 19.2168 80.666 19.5137 80.7285 19.791C80.7949 20.0684 80.8965 20.3125 81.0332 20.5234C81.1699 20.7344 81.3438 20.9004 81.5547 21.0215C81.7656 21.1387 82.0176 21.1973 82.3105 21.1973C82.6699 21.1973 82.9648 21.1211 83.1953 20.9688C83.4297 20.8164 83.6172 20.6152 83.7578 20.3652C83.8984 20.1152 84.0078 19.8438 84.0859 19.5508V18.1387C84.0391 17.9238 83.9707 17.7168 83.8809 17.5176C83.7949 17.3145 83.6816 17.1348 83.541 16.9785C83.4043 16.8184 83.2344 16.6914 83.0312 16.5977C82.832 16.5039 82.5957 16.457 82.3223 16.457C82.0254 16.457 81.7695 16.5195 81.5547 16.6445C81.3438 16.7656 81.1699 16.9336 81.0332 17.1484C80.8965 17.3594 80.7949 17.6055 80.7285 17.8867C80.666 18.1641 80.6348 18.4609 80.6348 18.7773ZM86.3008 18.9004V18.7656C86.3008 18.3086 86.3672 17.8848 86.5 17.4941C86.6328 17.0996 86.8242 16.7578 87.0742 16.4688C87.3242 16.1758 87.627 15.9492 87.9824 15.7891C88.3379 15.625 88.7363 15.543 89.1777 15.543C89.623 15.543 90.0234 15.625 90.3789 15.7891C90.7383 15.9492 91.043 16.1758 91.293 16.4688C91.5469 16.7578 91.7402 17.0996 91.873 17.4941C92.0059 17.8848 92.0723 18.3086 92.0723 18.7656V18.9004C92.0723 19.3574 92.0059 19.7812 91.873 20.1719C91.7402 20.5625 91.5469 20.9043 91.293 21.1973C91.043 21.4863 90.7402 21.7129 90.3848 21.877C90.0332 22.0371 89.6348 22.1172 89.1895 22.1172C88.7441 22.1172 88.3438 22.0371 87.9883 21.877C87.6328 21.7129 87.3281 21.4863 87.0742 21.1973C86.8242 20.9043 86.6328 20.5625 86.5 20.1719C86.3672 19.7812 86.3008 19.3574 86.3008 18.9004ZM87.3848 18.7656V18.9004C87.3848 19.2168 87.4219 19.5156 87.4961 19.7969C87.5703 20.0742 87.6816 20.3203 87.8301 20.5352C87.9824 20.75 88.1719 20.9199 88.3984 21.0449C88.625 21.166 88.8887 21.2266 89.1895 21.2266C89.4863 21.2266 89.7461 21.166 89.9688 21.0449C90.1953 20.9199 90.3828 20.75 90.5312 20.5352C90.6797 20.3203 90.791 20.0742 90.8652 19.7969C90.9434 19.5156 90.9824 19.2168 90.9824 18.9004V18.7656C90.9824 18.4531 90.9434 18.1582 90.8652 17.8809C90.791 17.5996 90.6777 17.3516 90.5254 17.1367C90.377 16.918 90.1895 16.7461 89.9629 16.6211C89.7402 16.4961 89.4785 16.4336 89.1777 16.4336C88.8809 16.4336 88.6191 16.4961 88.3926 16.6211C88.1699 16.7461 87.9824 16.918 87.8301 17.1367C87.6816 17.3516 87.5703 17.5996 87.4961 17.8809C87.4219 18.1582 87.3848 18.4531 87.3848 18.7656ZM97.4922 13V22H96.4082V13H97.4922ZM97.2344 18.5898L96.7832 18.5723C96.7871 18.1387 96.8516 17.7383 96.9766 17.3711C97.1016 17 97.2773 16.6777 97.5039 16.4043C97.7305 16.1309 98 15.9199 98.3125 15.7715C98.6289 15.6191 98.9785 15.543 99.3613 15.543C99.6738 15.543 99.9551 15.5859 100.205 15.6719C100.455 15.7539 100.668 15.8867 100.844 16.0703C101.023 16.2539 101.16 16.4922 101.254 16.7852C101.348 17.0742 101.395 17.4277 101.395 17.8457V22H100.305V17.834C100.305 17.502 100.256 17.2363 100.158 17.0371C100.061 16.834 99.918 16.6875 99.7305 16.5977C99.543 16.5039 99.3125 16.457 99.0391 16.457C98.7695 16.457 98.5234 16.5137 98.3008 16.627C98.082 16.7402 97.8926 16.8965 97.7324 17.0957C97.5762 17.2949 97.4531 17.5234 97.3633 17.7812C97.2773 18.0352 97.2344 18.3047 97.2344 18.5898ZM106.756 20.916V17.6523C106.756 17.4023 106.705 17.1855 106.604 17.002C106.506 16.8145 106.357 16.6699 106.158 16.5684C105.959 16.4668 105.713 16.416 105.42 16.416C105.146 16.416 104.906 16.4629 104.699 16.5566C104.496 16.6504 104.336 16.7734 104.219 16.9258C104.105 17.0781 104.049 17.2422 104.049 17.418H102.965C102.965 17.1914 103.023 16.9668 103.141 16.7441C103.258 16.5215 103.426 16.3203 103.645 16.1406C103.867 15.957 104.133 15.8125 104.441 15.707C104.754 15.5977 105.102 15.543 105.484 15.543C105.945 15.543 106.352 15.6211 106.703 15.7773C107.059 15.9336 107.336 16.1699 107.535 16.4863C107.738 16.7988 107.84 17.1914 107.84 17.6641V20.6172C107.84 20.8281 107.857 21.0527 107.893 21.291C107.932 21.5293 107.988 21.7344 108.062 21.9062V22H106.932C106.877 21.875 106.834 21.709 106.803 21.502C106.771 21.291 106.756 21.0957 106.756 20.916ZM106.943 18.1562L106.955 18.918H105.859C105.551 18.918 105.275 18.9434 105.033 18.9941C104.791 19.041 104.588 19.1133 104.424 19.2109C104.26 19.3086 104.135 19.4316 104.049 19.5801C103.963 19.7246 103.92 19.8945 103.92 20.0898C103.92 20.2891 103.965 20.4707 104.055 20.6348C104.145 20.7988 104.279 20.9297 104.459 21.0273C104.643 21.1211 104.867 21.168 105.133 21.168C105.465 21.168 105.758 21.0977 106.012 20.957C106.266 20.8164 106.467 20.6445 106.615 20.4414C106.768 20.2383 106.85 20.041 106.861 19.8496L107.324 20.3711C107.297 20.5352 107.223 20.7168 107.102 20.916C106.98 21.1152 106.818 21.3066 106.615 21.4902C106.416 21.6699 106.178 21.8203 105.9 21.9414C105.627 22.0586 105.318 22.1172 104.975 22.1172C104.545 22.1172 104.168 22.0332 103.844 21.8652C103.523 21.6973 103.273 21.4727 103.094 21.1914C102.918 20.9062 102.83 20.5879 102.83 20.2363C102.83 19.8965 102.896 19.5977 103.029 19.3398C103.162 19.0781 103.354 18.8613 103.604 18.6895C103.854 18.5137 104.154 18.3809 104.506 18.291C104.857 18.2012 105.25 18.1562 105.684 18.1562H106.943ZM116.213 20.3184C116.213 20.1621 116.178 20.0176 116.107 19.8848C116.041 19.748 115.902 19.625 115.691 19.5156C115.484 19.4023 115.172 19.3047 114.754 19.2227C114.402 19.1484 114.084 19.0605 113.799 18.959C113.518 18.8574 113.277 18.7344 113.078 18.5898C112.883 18.4453 112.732 18.2754 112.627 18.0801C112.521 17.8848 112.469 17.6562 112.469 17.3945C112.469 17.1445 112.523 16.9082 112.633 16.6855C112.746 16.4629 112.904 16.2656 113.107 16.0938C113.314 15.9219 113.562 15.7871 113.852 15.6895C114.141 15.5918 114.463 15.543 114.818 15.543C115.326 15.543 115.76 15.6328 116.119 15.8125C116.479 15.9922 116.754 16.2324 116.945 16.5332C117.137 16.8301 117.232 17.1602 117.232 17.5234H116.148C116.148 17.3477 116.096 17.1777 115.99 17.0137C115.889 16.8457 115.738 16.707 115.539 16.5977C115.344 16.4883 115.104 16.4336 114.818 16.4336C114.518 16.4336 114.273 16.4805 114.086 16.5742C113.902 16.6641 113.768 16.7793 113.682 16.9199C113.6 17.0605 113.559 17.209 113.559 17.3652C113.559 17.4824 113.578 17.5879 113.617 17.6816C113.66 17.7715 113.734 17.8555 113.84 17.9336C113.945 18.0078 114.094 18.0781 114.285 18.1445C114.477 18.2109 114.721 18.2773 115.018 18.3438C115.537 18.4609 115.965 18.6016 116.301 18.7656C116.637 18.9297 116.887 19.1309 117.051 19.3691C117.215 19.6074 117.297 19.8965 117.297 20.2363C117.297 20.5137 117.238 20.7676 117.121 20.998C117.008 21.2285 116.842 21.4277 116.623 21.5957C116.408 21.7598 116.15 21.8887 115.85 21.9824C115.553 22.0723 115.219 22.1172 114.848 22.1172C114.289 22.1172 113.816 22.0176 113.43 21.8184C113.043 21.6191 112.75 21.3613 112.551 21.0449C112.352 20.7285 112.252 20.3945 112.252 20.043H113.342C113.357 20.3398 113.443 20.5762 113.6 20.752C113.756 20.9238 113.947 21.0469 114.174 21.1211C114.4 21.1914 114.625 21.2266 114.848 21.2266C115.145 21.2266 115.393 21.1875 115.592 21.1094C115.795 21.0312 115.949 20.9238 116.055 20.7871C116.16 20.6504 116.213 20.4941 116.213 20.3184ZM119.898 15.6602V22H118.809V15.6602H119.898ZM118.727 13.9785C118.727 13.8027 118.779 13.6543 118.885 13.5332C118.994 13.4121 119.154 13.3516 119.365 13.3516C119.572 13.3516 119.73 13.4121 119.84 13.5332C119.953 13.6543 120.01 13.8027 120.01 13.9785C120.01 14.1465 119.953 14.291 119.84 14.4121C119.73 14.5293 119.572 14.5879 119.365 14.5879C119.154 14.5879 118.994 14.5293 118.885 14.4121C118.779 14.291 118.727 14.1465 118.727 13.9785ZM125.635 20.7695V13H126.725V22H125.729L125.635 20.7695ZM121.369 18.9004V18.7773C121.369 18.293 121.428 17.8535 121.545 17.459C121.666 17.0605 121.836 16.7188 122.055 16.4336C122.277 16.1484 122.541 15.9297 122.846 15.7773C123.154 15.6211 123.498 15.543 123.877 15.543C124.275 15.543 124.623 15.6133 124.92 15.7539C125.221 15.8906 125.475 16.0918 125.682 16.3574C125.893 16.6191 126.059 16.9355 126.18 17.3066C126.301 17.6777 126.385 18.0977 126.432 18.5664V19.1055C126.389 19.5703 126.305 19.9883 126.18 20.3594C126.059 20.7305 125.893 21.0469 125.682 21.3086C125.475 21.5703 125.221 21.7715 124.92 21.9121C124.619 22.0488 124.268 22.1172 123.865 22.1172C123.494 22.1172 123.154 22.0371 122.846 21.877C122.541 21.7168 122.277 21.4922 122.055 21.2031C121.836 20.9141 121.666 20.5742 121.545 20.1836C121.428 19.7891 121.369 19.3613 121.369 18.9004ZM122.459 18.7773V18.9004C122.459 19.2168 122.49 19.5137 122.553 19.791C122.619 20.0684 122.721 20.3125 122.857 20.5234C122.994 20.7344 123.168 20.9004 123.379 21.0215C123.59 21.1387 123.842 21.1973 124.135 21.1973C124.494 21.1973 124.789 21.1211 125.02 20.9688C125.254 20.8164 125.441 20.6152 125.582 20.3652C125.723 20.1152 125.832 19.8438 125.91 19.5508V18.1387C125.863 17.9238 125.795 17.7168 125.705 17.5176C125.619 17.3145 125.506 17.1348 125.365 16.9785C125.229 16.8184 125.059 16.6914 124.855 16.5977C124.656 16.5039 124.42 16.457 124.146 16.457C123.85 16.457 123.594 16.5195 123.379 16.6445C123.168 16.7656 122.994 16.9336 122.857 17.1484C122.721 17.3594 122.619 17.6055 122.553 17.8867C122.49 18.1641 122.459 18.4609 122.459 18.7773ZM128.125 18.9004V18.7656C128.125 18.3086 128.191 17.8848 128.324 17.4941C128.457 17.0996 128.648 16.7578 128.898 16.4688C129.148 16.1758 129.451 15.9492 129.807 15.7891C130.162 15.625 130.561 15.543 131.002 15.543C131.447 15.543 131.848 15.625 132.203 15.7891C132.562 15.9492 132.867 16.1758 133.117 16.4688C133.371 16.7578 133.564 17.0996 133.697 17.4941C133.83 17.8848 133.896 18.3086 133.896 18.7656V18.9004C133.896 19.3574 133.83 19.7812 133.697 20.1719C133.564 20.5625 133.371 20.9043 133.117 21.1973C132.867 21.4863 132.564 21.7129 132.209 21.877C131.857 22.0371 131.459 22.1172 131.014 22.1172C130.568 22.1172 130.168 22.0371 129.812 21.877C129.457 21.7129 129.152 21.4863 128.898 21.1973C128.648 20.9043 128.457 20.5625 128.324 20.1719C128.191 19.7812 128.125 19.3574 128.125 18.9004ZM129.209 18.7656V18.9004C129.209 19.2168 129.246 19.5156 129.32 19.7969C129.395 20.0742 129.506 20.3203 129.654 20.5352C129.807 20.75 129.996 20.9199 130.223 21.0449C130.449 21.166 130.713 21.2266 131.014 21.2266C131.311 21.2266 131.57 21.166 131.793 21.0449C132.02 20.9199 132.207 20.75 132.355 20.5352C132.504 20.3203 132.615 20.0742 132.689 19.7969C132.768 19.5156 132.807 19.2168 132.807 18.9004V18.7656C132.807 18.4531 132.768 18.1582 132.689 17.8809C132.615 17.5996 132.502 17.3516 132.35 17.1367C132.201 16.918 132.014 16.7461 131.787 16.6211C131.564 16.4961 131.303 16.4336 131.002 16.4336C130.705 16.4336 130.443 16.4961 130.217 16.6211C129.994 16.7461 129.807 16.918 129.654 17.1367C129.506 17.3516 129.395 17.5996 129.32 17.8809C129.246 18.1582 129.209 18.4531 129.209 18.7656ZM140.863 22.1172C140.422 22.1172 140.021 22.043 139.662 21.8945C139.307 21.7422 139 21.5293 138.742 21.2559C138.488 20.9824 138.293 20.6582 138.156 20.2832C138.02 19.9082 137.951 19.498 137.951 19.0527V18.8066C137.951 18.291 138.027 17.832 138.18 17.4297C138.332 17.0234 138.539 16.6797 138.801 16.3984C139.062 16.1172 139.359 15.9043 139.691 15.7598C140.023 15.6152 140.367 15.543 140.723 15.543C141.176 15.543 141.566 15.6211 141.895 15.7773C142.227 15.9336 142.498 16.1523 142.709 16.4336C142.92 16.7109 143.076 17.0391 143.178 17.418C143.279 17.793 143.33 18.2031 143.33 18.6484V19.1348H138.596V18.25H142.246V18.168C142.23 17.8867 142.172 17.6133 142.07 17.3477C141.973 17.082 141.816 16.8633 141.602 16.6914C141.387 16.5195 141.094 16.4336 140.723 16.4336C140.477 16.4336 140.25 16.4863 140.043 16.5918C139.836 16.6934 139.658 16.8457 139.51 17.0488C139.361 17.252 139.246 17.5 139.164 17.793C139.082 18.0859 139.041 18.4238 139.041 18.8066V19.0527C139.041 19.3535 139.082 19.6367 139.164 19.9023C139.25 20.1641 139.373 20.3945 139.533 20.5938C139.697 20.793 139.895 20.9492 140.125 21.0625C140.359 21.1758 140.625 21.2324 140.922 21.2324C141.305 21.2324 141.629 21.1543 141.895 20.998C142.16 20.8418 142.393 20.6328 142.592 20.3711L143.248 20.8926C143.111 21.0996 142.938 21.2969 142.727 21.4844C142.516 21.6719 142.256 21.8242 141.947 21.9414C141.643 22.0586 141.281 22.1172 140.863 22.1172ZM145.68 17.0137V22H144.596V15.6602H145.621L145.68 17.0137ZM145.422 18.5898L144.971 18.5723C144.975 18.1387 145.039 17.7383 145.164 17.3711C145.289 17 145.465 16.6777 145.691 16.4043C145.918 16.1309 146.188 15.9199 146.5 15.7715C146.816 15.6191 147.166 15.543 147.549 15.543C147.861 15.543 148.143 15.5859 148.393 15.6719C148.643 15.7539 148.855 15.8867 149.031 16.0703C149.211 16.2539 149.348 16.4922 149.441 16.7852C149.535 17.0742 149.582 17.4277 149.582 17.8457V22H148.492V17.834C148.492 17.502 148.443 17.2363 148.346 17.0371C148.248 16.834 148.105 16.6875 147.918 16.5977C147.73 16.5039 147.5 16.457 147.227 16.457C146.957 16.457 146.711 16.5137 146.488 16.627C146.27 16.7402 146.08 16.8965 145.92 17.0957C145.764 17.2949 145.641 17.5234 145.551 17.7812C145.465 18.0352 145.422 18.3047 145.422 18.5898ZM153.156 21.0215L154.891 15.6602H155.998L153.719 22H152.992L153.156 21.0215ZM151.709 15.6602L153.496 21.0508L153.619 22H152.893L150.596 15.6602H151.709ZM158.219 15.6602V22H157.129V15.6602H158.219ZM157.047 13.9785C157.047 13.8027 157.1 13.6543 157.205 13.5332C157.314 13.4121 157.475 13.3516 157.686 13.3516C157.893 13.3516 158.051 13.4121 158.16 13.5332C158.273 13.6543 158.33 13.8027 158.33 13.9785C158.33 14.1465 158.273 14.291 158.16 14.4121C158.051 14.5293 157.893 14.5879 157.686 14.5879C157.475 14.5879 157.314 14.5293 157.205 14.4121C157.1 14.291 157.047 14.1465 157.047 13.9785ZM163.697 20.916V17.6523C163.697 17.4023 163.646 17.1855 163.545 17.002C163.447 16.8145 163.299 16.6699 163.1 16.5684C162.9 16.4668 162.654 16.416 162.361 16.416C162.088 16.416 161.848 16.4629 161.641 16.5566C161.438 16.6504 161.277 16.7734 161.16 16.9258C161.047 17.0781 160.99 17.2422 160.99 17.418H159.906C159.906 17.1914 159.965 16.9668 160.082 16.7441C160.199 16.5215 160.367 16.3203 160.586 16.1406C160.809 15.957 161.074 15.8125 161.383 15.707C161.695 15.5977 162.043 15.543 162.426 15.543C162.887 15.543 163.293 15.6211 163.645 15.7773C164 15.9336 164.277 16.1699 164.477 16.4863C164.68 16.7988 164.781 17.1914 164.781 17.6641V20.6172C164.781 20.8281 164.799 21.0527 164.834 21.291C164.873 21.5293 164.93 21.7344 165.004 21.9062V22H163.873C163.818 21.875 163.775 21.709 163.744 21.502C163.713 21.291 163.697 21.0957 163.697 20.916ZM163.885 18.1562L163.896 18.918H162.801C162.492 18.918 162.217 18.9434 161.975 18.9941C161.732 19.041 161.529 19.1133 161.365 19.2109C161.201 19.3086 161.076 19.4316 160.99 19.5801C160.904 19.7246 160.861 19.8945 160.861 20.0898C160.861 20.2891 160.906 20.4707 160.996 20.6348C161.086 20.7988 161.221 20.9297 161.4 21.0273C161.584 21.1211 161.809 21.168 162.074 21.168C162.406 21.168 162.699 21.0977 162.953 20.957C163.207 20.8164 163.408 20.6445 163.557 20.4414C163.709 20.2383 163.791 20.041 163.803 19.8496L164.266 20.3711C164.238 20.5352 164.164 20.7168 164.043 20.916C163.922 21.1152 163.76 21.3066 163.557 21.4902C163.357 21.6699 163.119 21.8203 162.842 21.9414C162.568 22.0586 162.26 22.1172 161.916 22.1172C161.486 22.1172 161.109 22.0332 160.785 21.8652C160.465 21.6973 160.215 21.4727 160.035 21.1914C159.859 20.9062 159.771 20.5879 159.771 20.2363C159.771 19.8965 159.838 19.5977 159.971 19.3398C160.104 19.0781 160.295 18.8613 160.545 18.6895C160.795 18.5137 161.096 18.3809 161.447 18.291C161.799 18.2012 162.191 18.1562 162.625 18.1562H163.885ZM170.482 20.7695V13H171.572V22H170.576L170.482 20.7695ZM166.217 18.9004V18.7773C166.217 18.293 166.275 17.8535 166.393 17.459C166.514 17.0605 166.684 16.7188 166.902 16.4336C167.125 16.1484 167.389 15.9297 167.693 15.7773C168.002 15.6211 168.346 15.543 168.725 15.543C169.123 15.543 169.471 15.6133 169.768 15.7539C170.068 15.8906 170.322 16.0918 170.529 16.3574C170.74 16.6191 170.906 16.9355 171.027 17.3066C171.148 17.6777 171.232 18.0977 171.279 18.5664V19.1055C171.236 19.5703 171.152 19.9883 171.027 20.3594C170.906 20.7305 170.74 21.0469 170.529 21.3086C170.322 21.5703 170.068 21.7715 169.768 21.9121C169.467 22.0488 169.115 22.1172 168.713 22.1172C168.342 22.1172 168.002 22.0371 167.693 21.877C167.389 21.7168 167.125 21.4922 166.902 21.2031C166.684 20.9141 166.514 20.5742 166.393 20.1836C166.275 19.7891 166.217 19.3613 166.217 18.9004ZM167.307 18.7773V18.9004C167.307 19.2168 167.338 19.5137 167.4 19.791C167.467 20.0684 167.568 20.3125 167.705 20.5234C167.842 20.7344 168.016 20.9004 168.227 21.0215C168.438 21.1387 168.689 21.1973 168.982 21.1973C169.342 21.1973 169.637 21.1211 169.867 20.9688C170.102 20.8164 170.289 20.6152 170.43 20.3652C170.57 20.1152 170.68 19.8438 170.758 19.5508V18.1387C170.711 17.9238 170.643 17.7168 170.553 17.5176C170.467 17.3145 170.354 17.1348 170.213 16.9785C170.076 16.8184 169.906 16.6914 169.703 16.5977C169.504 16.5039 169.268 16.457 168.994 16.457C168.697 16.457 168.441 16.5195 168.227 16.6445C168.016 16.7656 167.842 16.9336 167.705 17.1484C167.568 17.3594 167.467 17.6055 167.4 17.8867C167.338 18.1641 167.307 18.4609 167.307 18.7773ZM172.973 18.9004V18.7656C172.973 18.3086 173.039 17.8848 173.172 17.4941C173.305 17.0996 173.496 16.7578 173.746 16.4688C173.996 16.1758 174.299 15.9492 174.654 15.7891C175.01 15.625 175.408 15.543 175.85 15.543C176.295 15.543 176.695 15.625 177.051 15.7891C177.41 15.9492 177.715 16.1758 177.965 16.4688C178.219 16.7578 178.412 17.0996 178.545 17.4941C178.678 17.8848 178.744 18.3086 178.744 18.7656V18.9004C178.744 19.3574 178.678 19.7812 178.545 20.1719C178.412 20.5625 178.219 20.9043 177.965 21.1973C177.715 21.4863 177.412 21.7129 177.057 21.877C176.705 22.0371 176.307 22.1172 175.861 22.1172C175.416 22.1172 175.016 22.0371 174.66 21.877C174.305 21.7129 174 21.4863 173.746 21.1973C173.496 20.9043 173.305 20.5625 173.172 20.1719C173.039 19.7812 172.973 19.3574 172.973 18.9004ZM174.057 18.7656V18.9004C174.057 19.2168 174.094 19.5156 174.168 19.7969C174.242 20.0742 174.354 20.3203 174.502 20.5352C174.654 20.75 174.844 20.9199 175.07 21.0449C175.297 21.166 175.561 21.2266 175.861 21.2266C176.158 21.2266 176.418 21.166 176.641 21.0449C176.867 20.9199 177.055 20.75 177.203 20.5352C177.352 20.3203 177.463 20.0742 177.537 19.7969C177.615 19.5156 177.654 19.2168 177.654 18.9004V18.7656C177.654 18.4531 177.615 18.1582 177.537 17.8809C177.463 17.5996 177.35 17.3516 177.197 17.1367C177.049 16.918 176.861 16.7461 176.635 16.6211C176.412 16.4961 176.15 16.4336 175.85 16.4336C175.553 16.4336 175.291 16.4961 175.064 16.6211C174.842 16.7461 174.654 16.918 174.502 17.1367C174.354 17.3516 174.242 17.5996 174.168 17.8809C174.094 18.1582 174.057 18.4531 174.057 18.7656Z" fill="white"/>
<path d="M268.148 14.2246L265.324 22H264.17L267.422 13.4688H268.166L268.148 14.2246ZM270.516 22L267.686 14.2246L267.668 13.4688H268.412L271.676 22H270.516ZM270.369 18.8418V19.7676H265.576V18.8418H270.369ZM273.738 13V22H272.654V13H273.738ZM273.48 18.5898L273.029 18.5723C273.033 18.1387 273.098 17.7383 273.223 17.3711C273.348 17 273.523 16.6777 273.75 16.4043C273.977 16.1309 274.246 15.9199 274.559 15.7715C274.875 15.6191 275.225 15.543 275.607 15.543C275.92 15.543 276.201 15.5859 276.451 15.6719C276.701 15.7539 276.914 15.8867 277.09 16.0703C277.27 16.2539 277.406 16.4922 277.5 16.7852C277.594 17.0742 277.641 17.4277 277.641 17.8457V22H276.551V17.834C276.551 17.502 276.502 17.2363 276.404 17.0371C276.307 16.834 276.164 16.6875 275.977 16.5977C275.789 16.5039 275.559 16.457 275.285 16.457C275.016 16.457 274.77 16.5137 274.547 16.627C274.328 16.7402 274.139 16.8965 273.979 17.0957C273.822 17.2949 273.699 17.5234 273.609 17.7812C273.523 18.0352 273.48 18.3047 273.48 18.5898ZM278.977 18.9004V18.7656C278.977 18.3086 279.043 17.8848 279.176 17.4941C279.309 17.0996 279.5 16.7578 279.75 16.4688C280 16.1758 280.303 15.9492 280.658 15.7891C281.014 15.625 281.412 15.543 281.854 15.543C282.299 15.543 282.699 15.625 283.055 15.7891C283.414 15.9492 283.719 16.1758 283.969 16.4688C284.223 16.7578 284.416 17.0996 284.549 17.4941C284.682 17.8848 284.748 18.3086 284.748 18.7656V18.9004C284.748 19.3574 284.682 19.7812 284.549 20.1719C284.416 20.5625 284.223 20.9043 283.969 21.1973C283.719 21.4863 283.416 21.7129 283.061 21.877C282.709 22.0371 282.311 22.1172 281.865 22.1172C281.42 22.1172 281.02 22.0371 280.664 21.877C280.309 21.7129 280.004 21.4863 279.75 21.1973C279.5 20.9043 279.309 20.5625 279.176 20.1719C279.043 19.7812 278.977 19.3574 278.977 18.9004ZM280.061 18.7656V18.9004C280.061 19.2168 280.098 19.5156 280.172 19.7969C280.246 20.0742 280.357 20.3203 280.506 20.5352C280.658 20.75 280.848 20.9199 281.074 21.0449C281.301 21.166 281.564 21.2266 281.865 21.2266C282.162 21.2266 282.422 21.166 282.645 21.0449C282.871 20.9199 283.059 20.75 283.207 20.5352C283.355 20.3203 283.467 20.0742 283.541 19.7969C283.619 19.5156 283.658 19.2168 283.658 18.9004V18.7656C283.658 18.4531 283.619 18.1582 283.541 17.8809C283.467 17.5996 283.354 17.3516 283.201 17.1367C283.053 16.918 282.865 16.7461 282.639 16.6211C282.416 16.4961 282.154 16.4336 281.854 16.4336C281.557 16.4336 281.295 16.4961 281.068 16.6211C280.846 16.7461 280.658 16.918 280.506 17.1367C280.357 17.3516 280.246 17.5996 280.172 17.8809C280.098 18.1582 280.061 18.4531 280.061 18.7656ZM287.191 16.6562V22H286.107V15.6602H287.162L287.191 16.6562ZM289.172 15.625L289.166 16.6328C289.076 16.6133 288.99 16.6016 288.908 16.5977C288.83 16.5898 288.74 16.5859 288.639 16.5859C288.389 16.5859 288.168 16.625 287.977 16.7031C287.785 16.7812 287.623 16.8906 287.49 17.0312C287.357 17.1719 287.252 17.3398 287.174 17.5352C287.1 17.7266 287.051 17.9375 287.027 18.168L286.723 18.3438C286.723 17.9609 286.76 17.6016 286.834 17.2656C286.912 16.9297 287.031 16.6328 287.191 16.375C287.352 16.1133 287.555 15.9102 287.801 15.7656C288.051 15.6172 288.348 15.543 288.691 15.543C288.77 15.543 288.859 15.5527 288.961 15.5723C289.062 15.5879 289.133 15.6055 289.172 15.625ZM293.678 20.916V17.6523C293.678 17.4023 293.627 17.1855 293.525 17.002C293.428 16.8145 293.279 16.6699 293.08 16.5684C292.881 16.4668 292.635 16.416 292.342 16.416C292.068 16.416 291.828 16.4629 291.621 16.5566C291.418 16.6504 291.258 16.7734 291.141 16.9258C291.027 17.0781 290.971 17.2422 290.971 17.418H289.887C289.887 17.1914 289.945 16.9668 290.062 16.7441C290.18 16.5215 290.348 16.3203 290.566 16.1406C290.789 15.957 291.055 15.8125 291.363 15.707C291.676 15.5977 292.023 15.543 292.406 15.543C292.867 15.543 293.273 15.6211 293.625 15.7773C293.98 15.9336 294.258 16.1699 294.457 16.4863C294.66 16.7988 294.762 17.1914 294.762 17.6641V20.6172C294.762 20.8281 294.779 21.0527 294.814 21.291C294.854 21.5293 294.91 21.7344 294.984 21.9062V22H293.854C293.799 21.875 293.756 21.709 293.725 21.502C293.693 21.291 293.678 21.0957 293.678 20.916ZM293.865 18.1562L293.877 18.918H292.781C292.473 18.918 292.197 18.9434 291.955 18.9941C291.713 19.041 291.51 19.1133 291.346 19.2109C291.182 19.3086 291.057 19.4316 290.971 19.5801C290.885 19.7246 290.842 19.8945 290.842 20.0898C290.842 20.2891 290.887 20.4707 290.977 20.6348C291.066 20.7988 291.201 20.9297 291.381 21.0273C291.564 21.1211 291.789 21.168 292.055 21.168C292.387 21.168 292.68 21.0977 292.934 20.957C293.188 20.8164 293.389 20.6445 293.537 20.4414C293.689 20.2383 293.771 20.041 293.783 19.8496L294.246 20.3711C294.219 20.5352 294.145 20.7168 294.023 20.916C293.902 21.1152 293.74 21.3066 293.537 21.4902C293.338 21.6699 293.1 21.8203 292.822 21.9414C292.549 22.0586 292.24 22.1172 291.896 22.1172C291.467 22.1172 291.09 22.0332 290.766 21.8652C290.445 21.6973 290.195 21.4727 290.016 21.1914C289.84 20.9062 289.752 20.5879 289.752 20.2363C289.752 19.8965 289.818 19.5977 289.951 19.3398C290.084 19.0781 290.275 18.8613 290.525 18.6895C290.775 18.5137 291.076 18.3809 291.428 18.291C291.779 18.2012 292.172 18.1562 292.605 18.1562H293.865Z" fill="#A8A8A8"/>
<path d="M25.6758 42.6089H27.082C27.0088 43.2827 26.8159 43.8857 26.5034 44.418C26.1909 44.9502 25.749 45.3726 25.1777 45.6851C24.6064 45.9927 23.8936 46.1465 23.0391 46.1465C22.4141 46.1465 21.8452 46.0293 21.3325 45.7949C20.8247 45.5605 20.3877 45.2285 20.0215 44.7988C19.6553 44.3643 19.3721 43.8442 19.1719 43.2388C18.9766 42.6284 18.8789 41.9497 18.8789 41.2026V40.1406C18.8789 39.3936 18.9766 38.7173 19.1719 38.1118C19.3721 37.5015 19.6577 36.979 20.0288 36.5444C20.4048 36.1099 20.8564 35.7754 21.3838 35.541C21.9111 35.3066 22.5044 35.1895 23.1636 35.1895C23.9692 35.1895 24.6504 35.3408 25.207 35.6436C25.7637 35.9463 26.1958 36.3662 26.5034 36.9033C26.8159 37.4355 27.0088 38.0532 27.082 38.7563H25.6758C25.6074 38.2583 25.4805 37.8311 25.2949 37.4746C25.1094 37.1133 24.8457 36.835 24.5039 36.6396C24.1621 36.4443 23.7153 36.3467 23.1636 36.3467C22.6899 36.3467 22.2725 36.437 21.9111 36.6177C21.5547 36.7983 21.2544 37.0547 21.0103 37.3867C20.771 37.7188 20.5903 38.1167 20.4683 38.5806C20.3462 39.0444 20.2852 39.5596 20.2852 40.126V41.2026C20.2852 41.7251 20.3389 42.2158 20.4463 42.6748C20.5586 43.1338 20.7271 43.5366 20.9517 43.8833C21.1763 44.23 21.4619 44.5034 21.8086 44.7036C22.1553 44.8989 22.5654 44.9966 23.0391 44.9966C23.6396 44.9966 24.1182 44.9014 24.4746 44.7109C24.8311 44.5205 25.0996 44.2471 25.2803 43.8906C25.4658 43.5342 25.5977 43.1069 25.6758 42.6089ZM33.4761 44.645V40.5654C33.4761 40.2529 33.4126 39.9819 33.2856 39.7524C33.1636 39.5181 32.978 39.3374 32.729 39.2104C32.48 39.0835 32.1724 39.02 31.8062 39.02C31.4644 39.02 31.1641 39.0786 30.9053 39.1958C30.6514 39.313 30.4512 39.4668 30.3047 39.6572C30.1631 39.8477 30.0923 40.0527 30.0923 40.2725H28.7373C28.7373 39.9893 28.8105 39.7085 28.957 39.4302C29.1035 39.1519 29.3135 38.9004 29.5869 38.6758C29.8652 38.4463 30.1973 38.2656 30.583 38.1338C30.9736 37.9971 31.4082 37.9287 31.8867 37.9287C32.4629 37.9287 32.9707 38.0264 33.4102 38.2217C33.8545 38.417 34.2012 38.7124 34.4502 39.1079C34.7041 39.4985 34.8311 39.9893 34.8311 40.5801V44.2715C34.8311 44.5352 34.853 44.8159 34.897 45.1138C34.9458 45.4116 35.0166 45.668 35.1094 45.8828V46H33.6958C33.6274 45.8438 33.5737 45.6362 33.5347 45.3774C33.4956 45.1138 33.4761 44.8696 33.4761 44.645ZM33.7104 41.1953L33.7251 42.1475H32.3555C31.9697 42.1475 31.6255 42.1792 31.3228 42.2427C31.02 42.3013 30.7661 42.3916 30.561 42.5137C30.356 42.6357 30.1997 42.7896 30.0923 42.9751C29.9849 43.1558 29.9312 43.3682 29.9312 43.6123C29.9312 43.8613 29.9873 44.0884 30.0996 44.2935C30.2119 44.4985 30.3804 44.6621 30.605 44.7842C30.8345 44.9014 31.1152 44.96 31.4473 44.96C31.8623 44.96 32.2285 44.8721 32.5459 44.6963C32.8633 44.5205 33.1147 44.3057 33.3003 44.0518C33.4907 43.7979 33.5933 43.5513 33.6079 43.312L34.1865 43.9639C34.1523 44.1689 34.0596 44.396 33.9082 44.645C33.7568 44.894 33.5542 45.1333 33.3003 45.3628C33.0513 45.5874 32.7534 45.7754 32.4067 45.9268C32.0649 46.0732 31.6792 46.1465 31.2495 46.1465C30.7124 46.1465 30.2412 46.0415 29.8359 45.8315C29.4355 45.6216 29.123 45.3408 28.8984 44.9893C28.6787 44.6328 28.5688 44.2349 28.5688 43.7954C28.5688 43.3706 28.6519 42.9971 28.8179 42.6748C28.9839 42.3477 29.2231 42.0767 29.5356 41.8618C29.8481 41.6421 30.2241 41.4761 30.6636 41.3638C31.103 41.2515 31.5938 41.1953 32.1357 41.1953H33.7104ZM42.8657 44.8867V46H37.1016V44.8867H42.8657ZM42.6533 39.0347L37.4092 46H36.5815V45.0039L41.7891 38.0752H42.6533V39.0347ZM42.0527 38.0752V39.1958H36.6401V38.0752H42.0527ZM49.0767 44.645V40.5654C49.0767 40.2529 49.0132 39.9819 48.8862 39.7524C48.7642 39.5181 48.5786 39.3374 48.3296 39.2104C48.0806 39.0835 47.7729 39.02 47.4067 39.02C47.0649 39.02 46.7646 39.0786 46.5059 39.1958C46.252 39.313 46.0518 39.4668 45.9053 39.6572C45.7637 39.8477 45.6929 40.0527 45.6929 40.2725H44.3379C44.3379 39.9893 44.4111 39.7085 44.5576 39.4302C44.7041 39.1519 44.9141 38.9004 45.1875 38.6758C45.4658 38.4463 45.7979 38.2656 46.1836 38.1338C46.5742 37.9971 47.0088 37.9287 47.4873 37.9287C48.0635 37.9287 48.5713 38.0264 49.0107 38.2217C49.4551 38.417 49.8018 38.7124 50.0508 39.1079C50.3047 39.4985 50.4316 39.9893 50.4316 40.5801V44.2715C50.4316 44.5352 50.4536 44.8159 50.4976 45.1138C50.5464 45.4116 50.6172 45.668 50.71 45.8828V46H49.2964C49.228 45.8438 49.1743 45.6362 49.1353 45.3774C49.0962 45.1138 49.0767 44.8696 49.0767 44.645ZM49.311 41.1953L49.3257 42.1475H47.9561C47.5703 42.1475 47.2261 42.1792 46.9233 42.2427C46.6206 42.3013 46.3667 42.3916 46.1616 42.5137C45.9565 42.6357 45.8003 42.7896 45.6929 42.9751C45.5854 43.1558 45.5317 43.3682 45.5317 43.6123C45.5317 43.8613 45.5879 44.0884 45.7002 44.2935C45.8125 44.4985 45.981 44.6621 46.2056 44.7842C46.4351 44.9014 46.7158 44.96 47.0479 44.96C47.4629 44.96 47.8291 44.8721 48.1465 44.6963C48.4639 44.5205 48.7153 44.3057 48.9009 44.0518C49.0913 43.7979 49.1938 43.5513 49.2085 43.312L49.7871 43.9639C49.7529 44.1689 49.6602 44.396 49.5088 44.645C49.3574 44.894 49.1548 45.1333 48.9009 45.3628C48.6519 45.5874 48.354 45.7754 48.0073 45.9268C47.6655 46.0732 47.2798 46.1465 46.8501 46.1465C46.313 46.1465 45.8418 46.0415 45.4365 45.8315C45.0361 45.6216 44.7236 45.3408 44.499 44.9893C44.2793 44.6328 44.1694 44.2349 44.1694 43.7954C44.1694 43.3706 44.2524 42.9971 44.4185 42.6748C44.5845 42.3477 44.8237 42.0767 45.1362 41.8618C45.4487 41.6421 45.8247 41.4761 46.2642 41.3638C46.7036 41.2515 47.1943 41.1953 47.7363 41.1953H49.311ZM57.5581 44.4619V34.75H58.9204V46H57.6753L57.5581 44.4619ZM52.2261 42.1255V41.9717C52.2261 41.3662 52.2993 40.8169 52.4458 40.3237C52.5972 39.8257 52.8096 39.3984 53.083 39.042C53.3613 38.6855 53.6909 38.4121 54.0718 38.2217C54.4575 38.0264 54.8872 37.9287 55.3608 37.9287C55.8589 37.9287 56.2935 38.0166 56.6646 38.1924C57.0405 38.3633 57.3579 38.6147 57.6167 38.9468C57.8804 39.2739 58.0879 39.6694 58.2393 40.1333C58.3906 40.5972 58.4956 41.1221 58.5542 41.708V42.3818C58.5005 42.9629 58.3955 43.4854 58.2393 43.9492C58.0879 44.4131 57.8804 44.8086 57.6167 45.1357C57.3579 45.4629 57.0405 45.7144 56.6646 45.8901C56.2886 46.061 55.8491 46.1465 55.3462 46.1465C54.8823 46.1465 54.4575 46.0464 54.0718 45.8462C53.6909 45.646 53.3613 45.3652 53.083 45.0039C52.8096 44.6426 52.5972 44.2178 52.4458 43.7295C52.2993 43.2363 52.2261 42.7017 52.2261 42.1255ZM53.5884 41.9717V42.1255C53.5884 42.521 53.6274 42.8921 53.7056 43.2388C53.7886 43.5854 53.9155 43.8906 54.0864 44.1543C54.2573 44.418 54.4746 44.6255 54.7383 44.7769C55.002 44.9233 55.3169 44.9966 55.6831 44.9966C56.1323 44.9966 56.501 44.9014 56.7891 44.7109C57.082 44.5205 57.3164 44.269 57.4922 43.9565C57.668 43.644 57.8047 43.3047 57.9023 42.9385V41.1733C57.8438 40.9048 57.7583 40.646 57.646 40.397C57.5386 40.1431 57.397 39.9185 57.2212 39.7231C57.0503 39.5229 56.8379 39.3643 56.584 39.2471C56.335 39.1299 56.0396 39.0713 55.6978 39.0713C55.3267 39.0713 55.0068 39.1494 54.7383 39.3057C54.4746 39.457 54.2573 39.667 54.0864 39.9355C53.9155 40.1992 53.7886 40.5068 53.7056 40.8584C53.6274 41.2051 53.5884 41.5762 53.5884 41.9717ZM60.6709 42.1255V41.957C60.6709 41.3857 60.7539 40.856 60.9199 40.3677C61.0859 39.8745 61.3252 39.4473 61.6377 39.0859C61.9502 38.7197 62.3286 38.4365 62.7729 38.2363C63.2173 38.0312 63.7153 37.9287 64.2671 37.9287C64.8237 37.9287 65.3242 38.0312 65.7686 38.2363C66.2178 38.4365 66.5986 38.7197 66.9111 39.0859C67.2285 39.4473 67.4702 39.8745 67.6362 40.3677C67.8022 40.856 67.8853 41.3857 67.8853 41.957V42.1255C67.8853 42.6968 67.8022 43.2266 67.6362 43.7148C67.4702 44.2031 67.2285 44.6304 66.9111 44.9966C66.5986 45.3579 66.2202 45.6411 65.7759 45.8462C65.3364 46.0464 64.8384 46.1465 64.2817 46.1465C63.7251 46.1465 63.2246 46.0464 62.7803 45.8462C62.3359 45.6411 61.9551 45.3579 61.6377 44.9966C61.3252 44.6304 61.0859 44.2031 60.9199 43.7148C60.7539 43.2266 60.6709 42.6968 60.6709 42.1255ZM62.0259 41.957V42.1255C62.0259 42.521 62.0723 42.8945 62.165 43.2461C62.2578 43.5928 62.397 43.9004 62.5825 44.1689C62.7729 44.4375 63.0098 44.6499 63.293 44.8062C63.5762 44.9575 63.9058 45.0332 64.2817 45.0332C64.6528 45.0332 64.9775 44.9575 65.2559 44.8062C65.5391 44.6499 65.7734 44.4375 65.959 44.1689C66.1445 43.9004 66.2837 43.5928 66.3765 43.2461C66.4741 42.8945 66.5229 42.521 66.5229 42.1255V41.957C66.5229 41.5664 66.4741 41.1978 66.3765 40.8511C66.2837 40.4995 66.1421 40.1895 65.9517 39.9209C65.7661 39.6475 65.5317 39.4326 65.2485 39.2764C64.9702 39.1201 64.6431 39.042 64.2671 39.042C63.896 39.042 63.5688 39.1201 63.2856 39.2764C63.0073 39.4326 62.7729 39.6475 62.5825 39.9209C62.397 40.1895 62.2578 40.4995 62.165 40.8511C62.0723 41.1978 62.0259 41.5664 62.0259 41.957ZM70.9395 39.3203V46H69.5845V38.0752H70.9028L70.9395 39.3203ZM73.415 38.0312L73.4077 39.291C73.2954 39.2666 73.188 39.252 73.0854 39.2471C72.9878 39.2373 72.8755 39.2324 72.7485 39.2324C72.436 39.2324 72.1602 39.2812 71.9209 39.3789C71.6816 39.4766 71.479 39.6133 71.313 39.7891C71.147 39.9648 71.0151 40.1748 70.9175 40.4189C70.8247 40.6582 70.7637 40.9219 70.7344 41.21L70.3535 41.4297C70.3535 40.9512 70.3999 40.502 70.4927 40.082C70.5903 39.6621 70.7393 39.291 70.9395 38.9688C71.1396 38.6416 71.3936 38.3877 71.7012 38.207C72.0137 38.0215 72.3848 37.9287 72.8145 37.9287C72.9121 37.9287 73.0244 37.9409 73.1514 37.9653C73.2783 37.9849 73.3662 38.0068 73.415 38.0312ZM79.0474 44.645V40.5654C79.0474 40.2529 78.9839 39.9819 78.8569 39.7524C78.7349 39.5181 78.5493 39.3374 78.3003 39.2104C78.0513 39.0835 77.7437 39.02 77.3774 39.02C77.0356 39.02 76.7354 39.0786 76.4766 39.1958C76.2227 39.313 76.0225 39.4668 75.876 39.6572C75.7344 39.8477 75.6636 40.0527 75.6636 40.2725H74.3086C74.3086 39.9893 74.3818 39.7085 74.5283 39.4302C74.6748 39.1519 74.8848 38.9004 75.1582 38.6758C75.4365 38.4463 75.7686 38.2656 76.1543 38.1338C76.5449 37.9971 76.9795 37.9287 77.458 37.9287C78.0342 37.9287 78.542 38.0264 78.9814 38.2217C79.4258 38.417 79.7725 38.7124 80.0215 39.1079C80.2754 39.4985 80.4023 39.9893 80.4023 40.5801V44.2715C80.4023 44.5352 80.4243 44.8159 80.4683 45.1138C80.5171 45.4116 80.5879 45.668 80.6807 45.8828V46H79.2671C79.1987 45.8438 79.145 45.6362 79.106 45.3774C79.0669 45.1138 79.0474 44.8696 79.0474 44.645ZM79.2817 41.1953L79.2964 42.1475H77.9268C77.541 42.1475 77.1968 42.1792 76.894 42.2427C76.5913 42.3013 76.3374 42.3916 76.1323 42.5137C75.9272 42.6357 75.771 42.7896 75.6636 42.9751C75.5562 43.1558 75.5024 43.3682 75.5024 43.6123C75.5024 43.8613 75.5586 44.0884 75.6709 44.2935C75.7832 44.4985 75.9517 44.6621 76.1763 44.7842C76.4058 44.9014 76.6865 44.96 77.0186 44.96C77.4336 44.96 77.7998 44.8721 78.1172 44.6963C78.4346 44.5205 78.686 44.3057 78.8716 44.0518C79.062 43.7979 79.1646 43.5513 79.1792 43.312L79.7578 43.9639C79.7236 44.1689 79.6309 44.396 79.4795 44.645C79.3281 44.894 79.1255 45.1333 78.8716 45.3628C78.6226 45.5874 78.3247 45.7754 77.978 45.9268C77.6362 46.0732 77.2505 46.1465 76.8208 46.1465C76.2837 46.1465 75.8125 46.0415 75.4072 45.8315C75.0068 45.6216 74.6943 45.3408 74.4697 44.9893C74.25 44.6328 74.1401 44.2349 74.1401 43.7954C74.1401 43.3706 74.2231 42.9971 74.3892 42.6748C74.5552 42.3477 74.7944 42.0767 75.1069 41.8618C75.4194 41.6421 75.7954 41.4761 76.2349 41.3638C76.6743 41.2515 77.165 41.1953 77.707 41.1953H79.2817ZM87.873 35.3359V46H86.4595V35.3359H87.873ZM92.3408 40.1333V41.2905H87.5654V40.1333H92.3408ZM93.0659 35.3359V36.4932H87.5654V35.3359H93.0659ZM97.6729 46.1465C97.1211 46.1465 96.6206 46.0537 96.1714 45.8682C95.7271 45.6777 95.3438 45.4116 95.0215 45.0698C94.7041 44.728 94.46 44.3228 94.2891 43.854C94.1182 43.3853 94.0327 42.8726 94.0327 42.3159V42.0083C94.0327 41.3638 94.1279 40.79 94.3184 40.2871C94.5088 39.7793 94.7676 39.3496 95.0947 38.998C95.4219 38.6465 95.793 38.3804 96.208 38.1997C96.623 38.019 97.0527 37.9287 97.4971 37.9287C98.0635 37.9287 98.5518 38.0264 98.9619 38.2217C99.377 38.417 99.7163 38.6904 99.98 39.042C100.244 39.3887 100.439 39.7988 100.566 40.2725C100.693 40.7412 100.756 41.2539 100.756 41.8105V42.4185H94.8384V41.3125H99.4014V41.21C99.3818 40.8584 99.3086 40.5166 99.1816 40.1846C99.0596 39.8525 98.8643 39.5791 98.5957 39.3643C98.3271 39.1494 97.9609 39.042 97.4971 39.042C97.1895 39.042 96.9062 39.1079 96.6475 39.2397C96.3887 39.3667 96.1665 39.5571 95.981 39.811C95.7954 40.0649 95.6514 40.375 95.5488 40.7412C95.4463 41.1074 95.395 41.5298 95.395 42.0083V42.3159C95.395 42.6919 95.4463 43.0459 95.5488 43.3779C95.6562 43.7051 95.8101 43.9932 96.0103 44.2422C96.2153 44.4912 96.4619 44.6865 96.75 44.8281C97.043 44.9697 97.375 45.0405 97.7461 45.0405C98.2246 45.0405 98.6299 44.9429 98.9619 44.7476C99.2939 44.5522 99.5845 44.291 99.8335 43.9639L100.654 44.6157C100.483 44.8745 100.266 45.1211 100.002 45.3555C99.7383 45.5898 99.4136 45.7803 99.0278 45.9268C98.647 46.0732 98.1953 46.1465 97.6729 46.1465ZM103.693 39.3203V46H102.338V38.0752H103.657L103.693 39.3203ZM106.169 38.0312L106.162 39.291C106.049 39.2666 105.942 39.252 105.839 39.2471C105.742 39.2373 105.629 39.2324 105.502 39.2324C105.19 39.2324 104.914 39.2812 104.675 39.3789C104.436 39.4766 104.233 39.6133 104.067 39.7891C103.901 39.9648 103.769 40.1748 103.671 40.4189C103.579 40.6582 103.518 40.9219 103.488 41.21L103.107 41.4297C103.107 40.9512 103.154 40.502 103.247 40.082C103.344 39.6621 103.493 39.291 103.693 38.9688C103.894 38.6416 104.147 38.3877 104.455 38.207C104.768 38.0215 105.139 37.9287 105.568 37.9287C105.666 37.9287 105.778 37.9409 105.905 37.9653C106.032 37.9849 106.12 38.0068 106.169 38.0312ZM108.776 39.3203V46H107.421V38.0752H108.74L108.776 39.3203ZM111.252 38.0312L111.245 39.291C111.132 39.2666 111.025 39.252 110.922 39.2471C110.825 39.2373 110.712 39.2324 110.585 39.2324C110.273 39.2324 109.997 39.2812 109.758 39.3789C109.519 39.4766 109.316 39.6133 109.15 39.7891C108.984 39.9648 108.852 40.1748 108.754 40.4189C108.662 40.6582 108.601 40.9219 108.571 41.21L108.19 41.4297C108.19 40.9512 108.237 40.502 108.33 40.082C108.427 39.6621 108.576 39.291 108.776 38.9688C108.977 38.6416 109.23 38.3877 109.538 38.207C109.851 38.0215 110.222 37.9287 110.651 37.9287C110.749 37.9287 110.861 37.9409 110.988 37.9653C111.115 37.9849 111.203 38.0068 111.252 38.0312ZM116.884 44.645V40.5654C116.884 40.2529 116.821 39.9819 116.694 39.7524C116.572 39.5181 116.386 39.3374 116.137 39.2104C115.888 39.0835 115.581 39.02 115.214 39.02C114.873 39.02 114.572 39.0786 114.313 39.1958C114.06 39.313 113.859 39.4668 113.713 39.6572C113.571 39.8477 113.5 40.0527 113.5 40.2725H112.146C112.146 39.9893 112.219 39.7085 112.365 39.4302C112.512 39.1519 112.722 38.9004 112.995 38.6758C113.273 38.4463 113.605 38.2656 113.991 38.1338C114.382 37.9971 114.816 37.9287 115.295 37.9287C115.871 37.9287 116.379 38.0264 116.818 38.2217C117.263 38.417 117.609 38.7124 117.858 39.1079C118.112 39.4985 118.239 39.9893 118.239 40.5801V44.2715C118.239 44.5352 118.261 44.8159 118.305 45.1138C118.354 45.4116 118.425 45.668 118.518 45.8828V46H117.104C117.036 45.8438 116.982 45.6362 116.943 45.3774C116.904 45.1138 116.884 44.8696 116.884 44.645ZM117.119 41.1953L117.133 42.1475H115.764C115.378 42.1475 115.034 42.1792 114.731 42.2427C114.428 42.3013 114.174 42.3916 113.969 42.5137C113.764 42.6357 113.608 42.7896 113.5 42.9751C113.393 43.1558 113.339 43.3682 113.339 43.6123C113.339 43.8613 113.396 44.0884 113.508 44.2935C113.62 44.4985 113.789 44.6621 114.013 44.7842C114.243 44.9014 114.523 44.96 114.855 44.96C115.271 44.96 115.637 44.8721 115.954 44.6963C116.271 44.5205 116.523 44.3057 116.708 44.0518C116.899 43.7979 117.001 43.5513 117.016 43.312L117.595 43.9639C117.561 44.1689 117.468 44.396 117.316 44.645C117.165 44.894 116.962 45.1333 116.708 45.3628C116.459 45.5874 116.162 45.7754 115.815 45.9268C115.473 46.0732 115.087 46.1465 114.658 46.1465C114.121 46.1465 113.649 46.0415 113.244 45.8315C112.844 45.6216 112.531 45.3408 112.307 44.9893C112.087 44.6328 111.977 44.2349 111.977 43.7954C111.977 43.3706 112.06 42.9971 112.226 42.6748C112.392 42.3477 112.631 42.0767 112.944 41.8618C113.256 41.6421 113.632 41.4761 114.072 41.3638C114.511 41.2515 115.002 41.1953 115.544 41.1953H117.119ZM121.726 39.3203V46H120.371V38.0752H121.689L121.726 39.3203ZM124.201 38.0312L124.194 39.291C124.082 39.2666 123.974 39.252 123.872 39.2471C123.774 39.2373 123.662 39.2324 123.535 39.2324C123.222 39.2324 122.946 39.2812 122.707 39.3789C122.468 39.4766 122.265 39.6133 122.099 39.7891C121.933 39.9648 121.801 40.1748 121.704 40.4189C121.611 40.6582 121.55 40.9219 121.521 41.21L121.14 41.4297C121.14 40.9512 121.186 40.502 121.279 40.082C121.376 39.6621 121.525 39.291 121.726 38.9688C121.926 38.6416 122.18 38.3877 122.487 38.207C122.8 38.0215 123.171 37.9287 123.601 37.9287C123.698 37.9287 123.811 37.9409 123.938 37.9653C124.064 37.9849 124.152 38.0068 124.201 38.0312ZM126.926 38.0752V46H125.563V38.0752H126.926ZM125.461 35.9731C125.461 35.7534 125.527 35.5679 125.659 35.4165C125.795 35.2651 125.996 35.1895 126.259 35.1895C126.518 35.1895 126.716 35.2651 126.853 35.4165C126.994 35.5679 127.065 35.7534 127.065 35.9731C127.065 36.1831 126.994 36.3638 126.853 36.5151C126.716 36.6616 126.518 36.7349 126.259 36.7349C125.996 36.7349 125.795 36.6616 125.659 36.5151C125.527 36.3638 125.461 36.1831 125.461 35.9731ZM130.712 35.3359L130.617 42.9897H129.394L129.292 35.3359H130.712ZM129.248 45.3188C129.248 45.0991 129.313 44.9136 129.445 44.7622C129.582 44.6108 129.782 44.5352 130.046 44.5352C130.305 44.5352 130.502 44.6108 130.639 44.7622C130.781 44.9136 130.852 45.0991 130.852 45.3188C130.852 45.5288 130.781 45.7095 130.639 45.8608C130.502 46.0122 130.305 46.0879 130.046 46.0879C129.782 46.0879 129.582 46.0122 129.445 45.8608C129.313 45.7095 129.248 45.5288 129.248 45.3188Z" fill="#E1E1E1"/>
<path d="M22.1426 61.4688V70H21.0293V61.4688H22.1426ZM24.8848 61.4688V62.3945H18.293V61.4688H24.8848ZM29.3027 68.5352V63.6602H30.3926V70H29.3555L29.3027 68.5352ZM29.5078 67.1992L29.959 67.1875C29.959 67.6094 29.9141 68 29.8242 68.3594C29.7383 68.7148 29.5977 69.0234 29.4023 69.2852C29.207 69.5469 28.9512 69.752 28.6348 69.9004C28.3184 70.0449 27.9336 70.1172 27.4805 70.1172C27.1719 70.1172 26.8887 70.0723 26.6309 69.9824C26.377 69.8926 26.1582 69.7539 25.9746 69.5664C25.791 69.3789 25.6484 69.1348 25.5469 68.834C25.4492 68.5332 25.4004 68.1719 25.4004 67.75V63.6602H26.4844V67.7617C26.4844 68.0469 26.5156 68.2832 26.5781 68.4707C26.6445 68.6543 26.7324 68.8008 26.8418 68.9102C26.9551 69.0156 27.0801 69.0898 27.2168 69.1328C27.3574 69.1758 27.502 69.1973 27.6504 69.1973C28.1113 69.1973 28.4766 69.1094 28.7461 68.9336C29.0156 68.7539 29.209 68.5137 29.3262 68.2129C29.4473 67.9082 29.5078 67.5703 29.5078 67.1992ZM36.1055 64.8789V72.4375H35.0156V63.6602H36.0117L36.1055 64.8789ZM40.377 66.7773V66.9004C40.377 67.3613 40.3223 67.7891 40.2129 68.1836C40.1035 68.5742 39.9434 68.9141 39.7324 69.2031C39.5254 69.4922 39.2695 69.7168 38.9648 69.877C38.6602 70.0371 38.3105 70.1172 37.916 70.1172C37.5137 70.1172 37.1582 70.0508 36.8496 69.918C36.541 69.7852 36.2793 69.5918 36.0645 69.3379C35.8496 69.084 35.6777 68.7793 35.5488 68.4238C35.4238 68.0684 35.3379 67.668 35.291 67.2227V66.5664C35.3379 66.0977 35.4258 65.6777 35.5547 65.3066C35.6836 64.9355 35.8535 64.6191 36.0645 64.3574C36.2793 64.0918 36.5391 63.8906 36.8438 63.7539C37.1484 63.6133 37.5 63.543 37.8984 63.543C38.2969 63.543 38.6504 63.6211 38.959 63.7773C39.2676 63.9297 39.5273 64.1484 39.7383 64.4336C39.9492 64.7188 40.1074 65.0605 40.2129 65.459C40.3223 65.8535 40.377 66.293 40.377 66.7773ZM39.2871 66.9004V66.7773C39.2871 66.4609 39.2539 66.1641 39.1875 65.8867C39.1211 65.6055 39.0176 65.3594 38.877 65.1484C38.7402 64.9336 38.5645 64.7656 38.3496 64.6445C38.1348 64.5195 37.8789 64.457 37.582 64.457C37.3086 64.457 37.0703 64.5039 36.8672 64.5977C36.668 64.6914 36.498 64.8184 36.3574 64.9785C36.2168 65.1348 36.1016 65.3145 36.0117 65.5176C35.9258 65.7168 35.8613 65.9238 35.8184 66.1387V67.6562C35.8965 67.9297 36.0059 68.1875 36.1465 68.4297C36.2871 68.668 36.4746 68.8613 36.709 69.0098C36.9434 69.1543 37.2383 69.2266 37.5938 69.2266C37.8867 69.2266 38.1387 69.166 38.3496 69.0449C38.5645 68.9199 38.7402 68.75 38.877 68.5352C39.0176 68.3203 39.1211 68.0742 39.1875 67.7969C39.2539 67.5156 39.2871 67.2168 39.2871 66.9004ZM44.3906 70.1172C43.9492 70.1172 43.5488 70.043 43.1895 69.8945C42.834 69.7422 42.5273 69.5293 42.2695 69.2559C42.0156 68.9824 41.8203 68.6582 41.6836 68.2832C41.5469 67.9082 41.4785 67.498 41.4785 67.0527V66.8066C41.4785 66.291 41.5547 65.832 41.707 65.4297C41.8594 65.0234 42.0664 64.6797 42.3281 64.3984C42.5898 64.1172 42.8867 63.9043 43.2188 63.7598C43.5508 63.6152 43.8945 63.543 44.25 63.543C44.7031 63.543 45.0938 63.6211 45.4219 63.7773C45.7539 63.9336 46.0254 64.1523 46.2363 64.4336C46.4473 64.7109 46.6035 65.0391 46.7051 65.418C46.8066 65.793 46.8574 66.2031 46.8574 66.6484V67.1348H42.123V66.25H45.7734V66.168C45.7578 65.8867 45.6992 65.6133 45.5977 65.3477C45.5 65.082 45.3438 64.8633 45.1289 64.6914C44.9141 64.5195 44.6211 64.4336 44.25 64.4336C44.0039 64.4336 43.7773 64.4863 43.5703 64.5918C43.3633 64.6934 43.1855 64.8457 43.0371 65.0488C42.8887 65.252 42.7734 65.5 42.6914 65.793C42.6094 66.0859 42.5684 66.4238 42.5684 66.8066V67.0527C42.5684 67.3535 42.6094 67.6367 42.6914 67.9023C42.7773 68.1641 42.9004 68.3945 43.0605 68.5938C43.2246 68.793 43.4219 68.9492 43.6523 69.0625C43.8867 69.1758 44.1523 69.2324 44.4492 69.2324C44.832 69.2324 45.1562 69.1543 45.4219 68.998C45.6875 68.8418 45.9199 68.6328 46.1191 68.3711L46.7754 68.8926C46.6387 69.0996 46.4648 69.2969 46.2539 69.4844C46.043 69.6719 45.7832 69.8242 45.4746 69.9414C45.1699 70.0586 44.8086 70.1172 44.3906 70.1172ZM52.1191 68.7695V61H53.209V70H52.2129L52.1191 68.7695ZM47.8535 66.9004V66.7773C47.8535 66.293 47.9121 65.8535 48.0293 65.459C48.1504 65.0605 48.3203 64.7188 48.5391 64.4336C48.7617 64.1484 49.0254 63.9297 49.3301 63.7773C49.6387 63.6211 49.9824 63.543 50.3613 63.543C50.7598 63.543 51.1074 63.6133 51.4043 63.7539C51.7051 63.8906 51.959 64.0918 52.166 64.3574C52.377 64.6191 52.543 64.9355 52.6641 65.3066C52.7852 65.6777 52.8691 66.0977 52.916 66.5664V67.1055C52.873 67.5703 52.7891 67.9883 52.6641 68.3594C52.543 68.7305 52.377 69.0469 52.166 69.3086C51.959 69.5703 51.7051 69.7715 51.4043 69.9121C51.1035 70.0488 50.752 70.1172 50.3496 70.1172C49.9785 70.1172 49.6387 70.0371 49.3301 69.877C49.0254 69.7168 48.7617 69.4922 48.5391 69.2031C48.3203 68.9141 48.1504 68.5742 48.0293 68.1836C47.9121 67.7891 47.8535 67.3613 47.8535 66.9004ZM48.9434 66.7773V66.9004C48.9434 67.2168 48.9746 67.5137 49.0371 67.791C49.1035 68.0684 49.2051 68.3125 49.3418 68.5234C49.4785 68.7344 49.6523 68.9004 49.8633 69.0215C50.0742 69.1387 50.3262 69.1973 50.6191 69.1973C50.9785 69.1973 51.2734 69.1211 51.5039 68.9688C51.7383 68.8164 51.9258 68.6152 52.0664 68.3652C52.207 68.1152 52.3164 67.8438 52.3945 67.5508V66.1387C52.3477 65.9238 52.2793 65.7168 52.1895 65.5176C52.1035 65.3145 51.9902 65.1348 51.8496 64.9785C51.7129 64.8184 51.543 64.6914 51.3398 64.5977C51.1406 64.5039 50.9043 64.457 50.6309 64.457C50.334 64.457 50.0781 64.5195 49.8633 64.6445C49.6523 64.7656 49.4785 64.9336 49.3418 65.1484C49.2051 65.3594 49.1035 65.6055 49.0371 65.8867C48.9746 66.1641 48.9434 66.4609 48.9434 66.7773ZM56.0742 63.6602V70H54.9844V63.6602H56.0742ZM54.9023 61.9785C54.9023 61.8027 54.9551 61.6543 55.0605 61.5332C55.1699 61.4121 55.3301 61.3516 55.541 61.3516C55.748 61.3516 55.9062 61.4121 56.0156 61.5332C56.1289 61.6543 56.1855 61.8027 56.1855 61.9785C56.1855 62.1465 56.1289 62.291 56.0156 62.4121C55.9062 62.5293 55.748 62.5879 55.541 62.5879C55.3301 62.5879 55.1699 62.5293 55.0605 62.4121C54.9551 62.291 54.9023 62.1465 54.9023 61.9785ZM61.8105 68.7695V61H62.9004V70H61.9043L61.8105 68.7695ZM57.5449 66.9004V66.7773C57.5449 66.293 57.6035 65.8535 57.7207 65.459C57.8418 65.0605 58.0117 64.7188 58.2305 64.4336C58.4531 64.1484 58.7168 63.9297 59.0215 63.7773C59.3301 63.6211 59.6738 63.543 60.0527 63.543C60.4512 63.543 60.7988 63.6133 61.0957 63.7539C61.3965 63.8906 61.6504 64.0918 61.8574 64.3574C62.0684 64.6191 62.2344 64.9355 62.3555 65.3066C62.4766 65.6777 62.5605 66.0977 62.6074 66.5664V67.1055C62.5645 67.5703 62.4805 67.9883 62.3555 68.3594C62.2344 68.7305 62.0684 69.0469 61.8574 69.3086C61.6504 69.5703 61.3965 69.7715 61.0957 69.9121C60.7949 70.0488 60.4434 70.1172 60.041 70.1172C59.6699 70.1172 59.3301 70.0371 59.0215 69.877C58.7168 69.7168 58.4531 69.4922 58.2305 69.2031C58.0117 68.9141 57.8418 68.5742 57.7207 68.1836C57.6035 67.7891 57.5449 67.3613 57.5449 66.9004ZM58.6348 66.7773V66.9004C58.6348 67.2168 58.666 67.5137 58.7285 67.791C58.7949 68.0684 58.8965 68.3125 59.0332 68.5234C59.1699 68.7344 59.3438 68.9004 59.5547 69.0215C59.7656 69.1387 60.0176 69.1973 60.3105 69.1973C60.6699 69.1973 60.9648 69.1211 61.1953 68.9688C61.4297 68.8164 61.6172 68.6152 61.7578 68.3652C61.8984 68.1152 62.0078 67.8438 62.0859 67.5508V66.1387C62.0391 65.9238 61.9707 65.7168 61.8809 65.5176C61.7949 65.3145 61.6816 65.1348 61.541 64.9785C61.4043 64.8184 61.2344 64.6914 61.0312 64.5977C60.832 64.5039 60.5957 64.457 60.3223 64.457C60.0254 64.457 59.7695 64.5195 59.5547 64.6445C59.3438 64.7656 59.1699 64.9336 59.0332 65.1484C58.8965 65.3594 58.7949 65.6055 58.7285 65.8867C58.666 66.1641 58.6348 66.4609 58.6348 66.7773ZM64.3008 66.9004V66.7656C64.3008 66.3086 64.3672 65.8848 64.5 65.4941C64.6328 65.0996 64.8242 64.7578 65.0742 64.4688C65.3242 64.1758 65.627 63.9492 65.9824 63.7891C66.3379 63.625 66.7363 63.543 67.1777 63.543C67.623 63.543 68.0234 63.625 68.3789 63.7891C68.7383 63.9492 69.043 64.1758 69.293 64.4688C69.5469 64.7578 69.7402 65.0996 69.873 65.4941C70.0059 65.8848 70.0723 66.3086 70.0723 66.7656V66.9004C70.0723 67.3574 70.0059 67.7812 69.873 68.1719C69.7402 68.5625 69.5469 68.9043 69.293 69.1973C69.043 69.4863 68.7402 69.7129 68.3848 69.877C68.0332 70.0371 67.6348 70.1172 67.1895 70.1172C66.7441 70.1172 66.3438 70.0371 65.9883 69.877C65.6328 69.7129 65.3281 69.4863 65.0742 69.1973C64.8242 68.9043 64.6328 68.5625 64.5 68.1719C64.3672 67.7812 64.3008 67.3574 64.3008 66.9004ZM65.3848 66.7656V66.9004C65.3848 67.2168 65.4219 67.5156 65.4961 67.7969C65.5703 68.0742 65.6816 68.3203 65.8301 68.5352C65.9824 68.75 66.1719 68.9199 66.3984 69.0449C66.625 69.166 66.8887 69.2266 67.1895 69.2266C67.4863 69.2266 67.7461 69.166 67.9688 69.0449C68.1953 68.9199 68.3828 68.75 68.5312 68.5352C68.6797 68.3203 68.791 68.0742 68.8652 67.7969C68.9434 67.5156 68.9824 67.2168 68.9824 66.9004V66.7656C68.9824 66.4531 68.9434 66.1582 68.8652 65.8809C68.791 65.5996 68.6777 65.3516 68.5254 65.1367C68.377 64.918 68.1895 64.7461 67.9629 64.6211C67.7402 64.4961 67.4785 64.4336 67.1777 64.4336C66.8809 64.4336 66.6191 64.4961 66.3926 64.6211C66.1699 64.7461 65.9824 64.918 65.8301 65.1367C65.6816 65.3516 65.5703 65.5996 65.4961 65.8809C65.4219 66.1582 65.3848 66.4531 65.3848 66.7656ZM75.5859 61V70H74.4961V61H75.5859ZM78.5039 61V70H77.4141V61H78.5039ZM82.875 70.1172C82.4336 70.1172 82.0332 70.043 81.6738 69.8945C81.3184 69.7422 81.0117 69.5293 80.7539 69.2559C80.5 68.9824 80.3047 68.6582 80.168 68.2832C80.0312 67.9082 79.9629 67.498 79.9629 67.0527V66.8066C79.9629 66.291 80.0391 65.832 80.1914 65.4297C80.3438 65.0234 80.5508 64.6797 80.8125 64.3984C81.0742 64.1172 81.3711 63.9043 81.7031 63.7598C82.0352 63.6152 82.3789 63.543 82.7344 63.543C83.1875 63.543 83.5781 63.6211 83.9062 63.7773C84.2383 63.9336 84.5098 64.1523 84.7207 64.4336C84.9316 64.7109 85.0879 65.0391 85.1895 65.418C85.291 65.793 85.3418 66.2031 85.3418 66.6484V67.1348H80.6074V66.25H84.2578V66.168C84.2422 65.8867 84.1836 65.6133 84.082 65.3477C83.9844 65.082 83.8281 64.8633 83.6133 64.6914C83.3984 64.5195 83.1055 64.4336 82.7344 64.4336C82.4883 64.4336 82.2617 64.4863 82.0547 64.5918C81.8477 64.6934 81.6699 64.8457 81.5215 65.0488C81.373 65.252 81.2578 65.5 81.1758 65.793C81.0938 66.0859 81.0527 66.4238 81.0527 66.8066V67.0527C81.0527 67.3535 81.0938 67.6367 81.1758 67.9023C81.2617 68.1641 81.3848 68.3945 81.5449 68.5938C81.709 68.793 81.9062 68.9492 82.1367 69.0625C82.3711 69.1758 82.6367 69.2324 82.9336 69.2324C83.3164 69.2324 83.6406 69.1543 83.9062 68.998C84.1719 68.8418 84.4043 68.6328 84.6035 68.3711L85.2598 68.8926C85.123 69.0996 84.9492 69.2969 84.7383 69.4844C84.5273 69.6719 84.2676 69.8242 83.959 69.9414C83.6543 70.0586 83.293 70.1172 82.875 70.1172ZM90.7148 63.6602H91.6992V69.8652C91.6992 70.4238 91.5859 70.9004 91.3594 71.2949C91.1328 71.6895 90.8164 71.9883 90.4102 72.1914C90.0078 72.3984 89.543 72.502 89.0156 72.502C88.7969 72.502 88.5391 72.4668 88.2422 72.3965C87.9492 72.3301 87.6602 72.2148 87.375 72.0508C87.0938 71.8906 86.8574 71.6738 86.666 71.4004L87.2344 70.7559C87.5 71.0762 87.7773 71.2988 88.0664 71.4238C88.3594 71.5488 88.6484 71.6113 88.9336 71.6113C89.2773 71.6113 89.5742 71.5469 89.8242 71.418C90.0742 71.2891 90.2676 71.0977 90.4043 70.8438C90.5449 70.5938 90.6152 70.2852 90.6152 69.918V65.0547L90.7148 63.6602ZM86.3496 66.9004V66.7773C86.3496 66.293 86.4062 65.8535 86.5195 65.459C86.6367 65.0605 86.8027 64.7188 87.0176 64.4336C87.2363 64.1484 87.5 63.9297 87.8086 63.7773C88.1172 63.6211 88.4648 63.543 88.8516 63.543C89.25 63.543 89.5977 63.6133 89.8945 63.7539C90.1953 63.8906 90.4492 64.0918 90.6562 64.3574C90.8672 64.6191 91.0332 64.9355 91.1543 65.3066C91.2754 65.6777 91.3594 66.0977 91.4062 66.5664V67.1055C91.3633 67.5703 91.2793 67.9883 91.1543 68.3594C91.0332 68.7305 90.8672 69.0469 90.6562 69.3086C90.4492 69.5703 90.1953 69.7715 89.8945 69.9121C89.5938 70.0488 89.2422 70.1172 88.8398 70.1172C88.4609 70.1172 88.1172 70.0371 87.8086 69.877C87.5039 69.7168 87.2422 69.4922 87.0234 69.2031C86.8047 68.9141 86.6367 68.5742 86.5195 68.1836C86.4062 67.7891 86.3496 67.3613 86.3496 66.9004ZM87.4336 66.7773V66.9004C87.4336 67.2168 87.4648 67.5137 87.5273 67.791C87.5938 68.0684 87.6934 68.3125 87.8262 68.5234C87.9629 68.7344 88.1367 68.9004 88.3477 69.0215C88.5586 69.1387 88.8105 69.1973 89.1035 69.1973C89.4629 69.1973 89.7598 69.1211 89.9941 68.9688C90.2285 68.8164 90.4141 68.6152 90.5508 68.3652C90.6914 68.1152 90.8008 67.8438 90.8789 67.5508V66.1387C90.8359 65.9238 90.7695 65.7168 90.6797 65.5176C90.5938 65.3145 90.4805 65.1348 90.3398 64.9785C90.2031 64.8184 90.0332 64.6914 89.8301 64.5977C89.627 64.5039 89.3887 64.457 89.1152 64.457C88.8184 64.457 88.5625 64.5195 88.3477 64.6445C88.1367 64.7656 87.9629 64.9336 87.8262 65.1484C87.6934 65.3594 87.5938 65.6055 87.5273 65.8867C87.4648 66.1641 87.4336 66.4609 87.4336 66.7773ZM97.084 68.916V65.6523C97.084 65.4023 97.0332 65.1855 96.9316 65.002C96.834 64.8145 96.6855 64.6699 96.4863 64.5684C96.2871 64.4668 96.041 64.416 95.748 64.416C95.4746 64.416 95.2344 64.4629 95.0273 64.5566C94.8242 64.6504 94.6641 64.7734 94.5469 64.9258C94.4336 65.0781 94.377 65.2422 94.377 65.418H93.293C93.293 65.1914 93.3516 64.9668 93.4688 64.7441C93.5859 64.5215 93.7539 64.3203 93.9727 64.1406C94.1953 63.957 94.4609 63.8125 94.7695 63.707C95.082 63.5977 95.4297 63.543 95.8125 63.543C96.2734 63.543 96.6797 63.6211 97.0312 63.7773C97.3867 63.9336 97.6641 64.1699 97.8633 64.4863C98.0664 64.7988 98.168 65.1914 98.168 65.6641V68.6172C98.168 68.8281 98.1855 69.0527 98.2207 69.291C98.2598 69.5293 98.3164 69.7344 98.3906 69.9062V70H97.2598C97.2051 69.875 97.1621 69.709 97.1309 69.502C97.0996 69.291 97.084 69.0957 97.084 68.916ZM97.2715 66.1562L97.2832 66.918H96.1875C95.8789 66.918 95.6035 66.9434 95.3613 66.9941C95.1191 67.041 94.916 67.1133 94.752 67.2109C94.5879 67.3086 94.4629 67.4316 94.377 67.5801C94.291 67.7246 94.248 67.8945 94.248 68.0898C94.248 68.2891 94.293 68.4707 94.3828 68.6348C94.4727 68.7988 94.6074 68.9297 94.7871 69.0273C94.9707 69.1211 95.1953 69.168 95.4609 69.168C95.793 69.168 96.0859 69.0977 96.3398 68.957C96.5938 68.8164 96.7949 68.6445 96.9434 68.4414C97.0957 68.2383 97.1777 68.041 97.1895 67.8496L97.6523 68.3711C97.625 68.5352 97.5508 68.7168 97.4297 68.916C97.3086 69.1152 97.1465 69.3066 96.9434 69.4902C96.7441 69.6699 96.5059 69.8203 96.2285 69.9414C95.9551 70.0586 95.6465 70.1172 95.3027 70.1172C94.873 70.1172 94.4961 70.0332 94.1719 69.8652C93.8516 69.6973 93.6016 69.4727 93.4219 69.1914C93.2461 68.9062 93.1582 68.5879 93.1582 68.2363C93.1582 67.8965 93.2246 67.5977 93.3574 67.3398C93.4902 67.0781 93.6816 66.8613 93.9316 66.6895C94.1816 66.5137 94.4824 66.3809 94.834 66.291C95.1855 66.2012 95.5781 66.1562 96.0117 66.1562H97.2715ZM100.957 64.6562V70H99.873V63.6602H100.928L100.957 64.6562ZM102.938 63.625L102.932 64.6328C102.842 64.6133 102.756 64.6016 102.674 64.5977C102.596 64.5898 102.506 64.5859 102.404 64.5859C102.154 64.5859 101.934 64.625 101.742 64.7031C101.551 64.7812 101.389 64.8906 101.256 65.0312C101.123 65.1719 101.018 65.3398 100.939 65.5352C100.865 65.7266 100.816 65.9375 100.793 66.168L100.488 66.3438C100.488 65.9609 100.525 65.6016 100.6 65.2656C100.678 64.9297 100.797 64.6328 100.957 64.375C101.117 64.1133 101.32 63.9102 101.566 63.7656C101.816 63.6172 102.113 63.543 102.457 63.543C102.535 63.543 102.625 63.5527 102.727 63.5723C102.828 63.5879 102.898 63.6055 102.938 63.625ZM107.443 68.916V65.6523C107.443 65.4023 107.393 65.1855 107.291 65.002C107.193 64.8145 107.045 64.6699 106.846 64.5684C106.646 64.4668 106.4 64.416 106.107 64.416C105.834 64.416 105.594 64.4629 105.387 64.5566C105.184 64.6504 105.023 64.7734 104.906 64.9258C104.793 65.0781 104.736 65.2422 104.736 65.418H103.652C103.652 65.1914 103.711 64.9668 103.828 64.7441C103.945 64.5215 104.113 64.3203 104.332 64.1406C104.555 63.957 104.82 63.8125 105.129 63.707C105.441 63.5977 105.789 63.543 106.172 63.543C106.633 63.543 107.039 63.6211 107.391 63.7773C107.746 63.9336 108.023 64.1699 108.223 64.4863C108.426 64.7988 108.527 65.1914 108.527 65.6641V68.6172C108.527 68.8281 108.545 69.0527 108.58 69.291C108.619 69.5293 108.676 69.7344 108.75 69.9062V70H107.619C107.564 69.875 107.521 69.709 107.49 69.502C107.459 69.291 107.443 69.0957 107.443 68.916ZM107.631 66.1562L107.643 66.918H106.547C106.238 66.918 105.963 66.9434 105.721 66.9941C105.479 67.041 105.275 67.1133 105.111 67.2109C104.947 67.3086 104.822 67.4316 104.736 67.5801C104.65 67.7246 104.607 67.8945 104.607 68.0898C104.607 68.2891 104.652 68.4707 104.742 68.6348C104.832 68.7988 104.967 68.9297 105.146 69.0273C105.33 69.1211 105.555 69.168 105.82 69.168C106.152 69.168 106.445 69.0977 106.699 68.957C106.953 68.8164 107.154 68.6445 107.303 68.4414C107.455 68.2383 107.537 68.041 107.549 67.8496L108.012 68.3711C107.984 68.5352 107.91 68.7168 107.789 68.916C107.668 69.1152 107.506 69.3066 107.303 69.4902C107.104 69.6699 106.865 69.8203 106.588 69.9414C106.314 70.0586 106.006 70.1172 105.662 70.1172C105.232 70.1172 104.855 70.0332 104.531 69.8652C104.211 69.6973 103.961 69.4727 103.781 69.1914C103.605 68.9062 103.518 68.5879 103.518 68.2363C103.518 67.8965 103.584 67.5977 103.717 67.3398C103.85 67.0781 104.041 66.8613 104.291 66.6895C104.541 66.5137 104.842 66.3809 105.193 66.291C105.545 66.2012 105.938 66.1562 106.371 66.1562H107.631ZM105.691 62.7227L106.828 61H108.135L106.564 62.7227H105.691ZM114.293 64.8789V72.4375H113.203V63.6602H114.199L114.293 64.8789ZM118.564 66.7773V66.9004C118.564 67.3613 118.51 67.7891 118.4 68.1836C118.291 68.5742 118.131 68.9141 117.92 69.2031C117.713 69.4922 117.457 69.7168 117.152 69.877C116.848 70.0371 116.498 70.1172 116.104 70.1172C115.701 70.1172 115.346 70.0508 115.037 69.918C114.729 69.7852 114.467 69.5918 114.252 69.3379C114.037 69.084 113.865 68.7793 113.736 68.4238C113.611 68.0684 113.525 67.668 113.479 67.2227V66.5664C113.525 66.0977 113.613 65.6777 113.742 65.3066C113.871 64.9355 114.041 64.6191 114.252 64.3574C114.467 64.0918 114.727 63.8906 115.031 63.7539C115.336 63.6133 115.688 63.543 116.086 63.543C116.484 63.543 116.838 63.6211 117.146 63.7773C117.455 63.9297 117.715 64.1484 117.926 64.4336C118.137 64.7188 118.295 65.0605 118.4 65.459C118.51 65.8535 118.564 66.293 118.564 66.7773ZM117.475 66.9004V66.7773C117.475 66.4609 117.441 66.1641 117.375 65.8867C117.309 65.6055 117.205 65.3594 117.064 65.1484C116.928 64.9336 116.752 64.7656 116.537 64.6445C116.322 64.5195 116.066 64.457 115.77 64.457C115.496 64.457 115.258 64.5039 115.055 64.5977C114.855 64.6914 114.686 64.8184 114.545 64.9785C114.404 65.1348 114.289 65.3145 114.199 65.5176C114.113 65.7168 114.049 65.9238 114.006 66.1387V67.6562C114.084 67.9297 114.193 68.1875 114.334 68.4297C114.475 68.668 114.662 68.8613 114.896 69.0098C115.131 69.1543 115.426 69.2266 115.781 69.2266C116.074 69.2266 116.326 69.166 116.537 69.0449C116.752 68.9199 116.928 68.75 117.064 68.5352C117.205 68.3203 117.309 68.0742 117.375 67.7969C117.441 67.5156 117.475 67.2168 117.475 66.9004ZM121.031 64.6562V70H119.947V63.6602H121.002L121.031 64.6562ZM123.012 63.625L123.006 64.6328C122.916 64.6133 122.83 64.6016 122.748 64.5977C122.67 64.5898 122.58 64.5859 122.479 64.5859C122.229 64.5859 122.008 64.625 121.816 64.7031C121.625 64.7812 121.463 64.8906 121.33 65.0312C121.197 65.1719 121.092 65.3398 121.014 65.5352C120.939 65.7266 120.891 65.9375 120.867 66.168L120.562 66.3438C120.562 65.9609 120.6 65.6016 120.674 65.2656C120.752 64.9297 120.871 64.6328 121.031 64.375C121.191 64.1133 121.395 63.9102 121.641 63.7656C121.891 63.6172 122.188 63.543 122.531 63.543C122.609 63.543 122.699 63.5527 122.801 63.5723C122.902 63.5879 122.973 63.6055 123.012 63.625ZM123.609 66.9004V66.7656C123.609 66.3086 123.676 65.8848 123.809 65.4941C123.941 65.0996 124.133 64.7578 124.383 64.4688C124.633 64.1758 124.936 63.9492 125.291 63.7891C125.646 63.625 126.045 63.543 126.486 63.543C126.932 63.543 127.332 63.625 127.688 63.7891C128.047 63.9492 128.352 64.1758 128.602 64.4688C128.855 64.7578 129.049 65.0996 129.182 65.4941C129.314 65.8848 129.381 66.3086 129.381 66.7656V66.9004C129.381 67.3574 129.314 67.7812 129.182 68.1719C129.049 68.5625 128.855 68.9043 128.602 69.1973C128.352 69.4863 128.049 69.7129 127.693 69.877C127.342 70.0371 126.943 70.1172 126.498 70.1172C126.053 70.1172 125.652 70.0371 125.297 69.877C124.941 69.7129 124.637 69.4863 124.383 69.1973C124.133 68.9043 123.941 68.5625 123.809 68.1719C123.676 67.7812 123.609 67.3574 123.609 66.9004ZM124.693 66.7656V66.9004C124.693 67.2168 124.73 67.5156 124.805 67.7969C124.879 68.0742 124.99 68.3203 125.139 68.5352C125.291 68.75 125.48 68.9199 125.707 69.0449C125.934 69.166 126.197 69.2266 126.498 69.2266C126.795 69.2266 127.055 69.166 127.277 69.0449C127.504 68.9199 127.691 68.75 127.84 68.5352C127.988 68.3203 128.1 68.0742 128.174 67.7969C128.252 67.5156 128.291 67.2168 128.291 66.9004V66.7656C128.291 66.4531 128.252 66.1582 128.174 65.8809C128.1 65.5996 127.986 65.3516 127.834 65.1367C127.686 64.918 127.498 64.7461 127.271 64.6211C127.049 64.4961 126.787 64.4336 126.486 64.4336C126.189 64.4336 125.928 64.4961 125.701 64.6211C125.479 64.7461 125.291 64.918 125.139 65.1367C124.99 65.3516 124.879 65.5996 124.805 65.8809C124.73 66.1582 124.693 66.4531 124.693 66.7656ZM131.824 65.0137V70H130.74V63.6602H131.766L131.824 65.0137ZM131.566 66.5898L131.115 66.5723C131.119 66.1387 131.184 65.7383 131.309 65.3711C131.434 65 131.609 64.6777 131.836 64.4043C132.062 64.1309 132.332 63.9199 132.645 63.7715C132.961 63.6191 133.311 63.543 133.693 63.543C134.006 63.543 134.287 63.5859 134.537 63.6719C134.787 63.7539 135 63.8867 135.176 64.0703C135.355 64.2539 135.492 64.4922 135.586 64.7852C135.68 65.0742 135.727 65.4277 135.727 65.8457V70H134.637V65.834C134.637 65.502 134.588 65.2363 134.49 65.0371C134.393 64.834 134.25 64.6875 134.062 64.5977C133.875 64.5039 133.645 64.457 133.371 64.457C133.102 64.457 132.855 64.5137 132.633 64.627C132.414 64.7402 132.225 64.8965 132.064 65.0957C131.908 65.2949 131.785 65.5234 131.695 65.7812C131.609 66.0352 131.566 66.3047 131.566 66.5898ZM140.027 63.6602V64.4922H136.6V63.6602H140.027ZM137.76 62.1191H138.844V68.4297C138.844 68.6445 138.877 68.8066 138.943 68.916C139.01 69.0254 139.096 69.0977 139.201 69.1328C139.307 69.168 139.42 69.1855 139.541 69.1855C139.631 69.1855 139.725 69.1777 139.822 69.1621C139.924 69.1426 140 69.127 140.051 69.1152L140.057 70C139.971 70.0273 139.857 70.0527 139.717 70.0762C139.58 70.1035 139.414 70.1172 139.219 70.1172C138.953 70.1172 138.709 70.0645 138.486 69.959C138.264 69.8535 138.086 69.6777 137.953 69.4316C137.824 69.1816 137.76 68.8457 137.76 68.4238V62.1191ZM140.895 66.9004V66.7656C140.895 66.3086 140.961 65.8848 141.094 65.4941C141.227 65.0996 141.418 64.7578 141.668 64.4688C141.918 64.1758 142.221 63.9492 142.576 63.7891C142.932 63.625 143.33 63.543 143.771 63.543C144.217 63.543 144.617 63.625 144.973 63.7891C145.332 63.9492 145.637 64.1758 145.887 64.4688C146.141 64.7578 146.334 65.0996 146.467 65.4941C146.6 65.8848 146.666 66.3086 146.666 66.7656V66.9004C146.666 67.3574 146.6 67.7812 146.467 68.1719C146.334 68.5625 146.141 68.9043 145.887 69.1973C145.637 69.4863 145.334 69.7129 144.979 69.877C144.627 70.0371 144.229 70.1172 143.783 70.1172C143.338 70.1172 142.938 70.0371 142.582 69.877C142.227 69.7129 141.922 69.4863 141.668 69.1973C141.418 68.9043 141.227 68.5625 141.094 68.1719C140.961 67.7812 140.895 67.3574 140.895 66.9004ZM141.979 66.7656V66.9004C141.979 67.2168 142.016 67.5156 142.09 67.7969C142.164 68.0742 142.275 68.3203 142.424 68.5352C142.576 68.75 142.766 68.9199 142.992 69.0449C143.219 69.166 143.482 69.2266 143.783 69.2266C144.08 69.2266 144.34 69.166 144.562 69.0449C144.789 68.9199 144.977 68.75 145.125 68.5352C145.273 68.3203 145.385 68.0742 145.459 67.7969C145.537 67.5156 145.576 67.2168 145.576 66.9004V66.7656C145.576 66.4531 145.537 66.1582 145.459 65.8809C145.385 65.5996 145.271 65.3516 145.119 65.1367C144.971 64.918 144.783 64.7461 144.557 64.6211C144.334 64.4961 144.072 64.4336 143.771 64.4336C143.475 64.4336 143.213 64.4961 142.986 64.6211C142.764 64.7461 142.576 64.918 142.424 65.1367C142.275 65.3516 142.164 65.5996 142.09 65.8809C142.016 66.1582 141.979 66.4531 141.979 66.7656ZM154.74 68.916V65.6523C154.74 65.4023 154.689 65.1855 154.588 65.002C154.49 64.8145 154.342 64.6699 154.143 64.5684C153.943 64.4668 153.697 64.416 153.404 64.416C153.131 64.416 152.891 64.4629 152.684 64.5566C152.48 64.6504 152.32 64.7734 152.203 64.9258C152.09 65.0781 152.033 65.2422 152.033 65.418H150.949C150.949 65.1914 151.008 64.9668 151.125 64.7441C151.242 64.5215 151.41 64.3203 151.629 64.1406C151.852 63.957 152.117 63.8125 152.426 63.707C152.738 63.5977 153.086 63.543 153.469 63.543C153.93 63.543 154.336 63.6211 154.688 63.7773C155.043 63.9336 155.32 64.1699 155.52 64.4863C155.723 64.7988 155.824 65.1914 155.824 65.6641V68.6172C155.824 68.8281 155.842 69.0527 155.877 69.291C155.916 69.5293 155.973 69.7344 156.047 69.9062V70H154.916C154.861 69.875 154.818 69.709 154.787 69.502C154.756 69.291 154.74 69.0957 154.74 68.916ZM154.928 66.1562L154.939 66.918H153.844C153.535 66.918 153.26 66.9434 153.018 66.9941C152.775 67.041 152.572 67.1133 152.408 67.2109C152.244 67.3086 152.119 67.4316 152.033 67.5801C151.947 67.7246 151.904 67.8945 151.904 68.0898C151.904 68.2891 151.949 68.4707 152.039 68.6348C152.129 68.7988 152.264 68.9297 152.443 69.0273C152.627 69.1211 152.852 69.168 153.117 69.168C153.449 69.168 153.742 69.0977 153.996 68.957C154.25 68.8164 154.451 68.6445 154.6 68.4414C154.752 68.2383 154.834 68.041 154.846 67.8496L155.309 68.3711C155.281 68.5352 155.207 68.7168 155.086 68.916C154.965 69.1152 154.803 69.3066 154.6 69.4902C154.4 69.6699 154.162 69.8203 153.885 69.9414C153.611 70.0586 153.303 70.1172 152.959 70.1172C152.529 70.1172 152.152 70.0332 151.828 69.8652C151.508 69.6973 151.258 69.4727 151.078 69.1914C150.902 68.9062 150.814 68.5879 150.814 68.2363C150.814 67.8965 150.881 67.5977 151.014 67.3398C151.146 67.0781 151.338 66.8613 151.588 66.6895C151.838 66.5137 152.139 66.3809 152.49 66.291C152.842 66.2012 153.234 66.1562 153.668 66.1562H154.928ZM163.16 63.6602V64.4922H159.732V63.6602H163.16ZM160.893 62.1191H161.977V68.4297C161.977 68.6445 162.01 68.8066 162.076 68.916C162.143 69.0254 162.229 69.0977 162.334 69.1328C162.439 69.168 162.553 69.1855 162.674 69.1855C162.764 69.1855 162.857 69.1777 162.955 69.1621C163.057 69.1426 163.133 69.127 163.184 69.1152L163.189 70C163.104 70.0273 162.99 70.0527 162.85 70.0762C162.713 70.1035 162.547 70.1172 162.352 70.1172C162.086 70.1172 161.842 70.0645 161.619 69.959C161.396 69.8535 161.219 69.6777 161.086 69.4316C160.957 69.1816 160.893 68.8457 160.893 68.4238V62.1191ZM168.311 68.5352V63.6602H169.4V70H168.363L168.311 68.5352ZM168.516 67.1992L168.967 67.1875C168.967 67.6094 168.922 68 168.832 68.3594C168.746 68.7148 168.605 69.0234 168.41 69.2852C168.215 69.5469 167.959 69.752 167.643 69.9004C167.326 70.0449 166.941 70.1172 166.488 70.1172C166.18 70.1172 165.896 70.0723 165.639 69.9824C165.385 69.8926 165.166 69.7539 164.982 69.5664C164.799 69.3789 164.656 69.1348 164.555 68.834C164.457 68.5332 164.408 68.1719 164.408 67.75V63.6602H165.492V67.7617C165.492 68.0469 165.523 68.2832 165.586 68.4707C165.652 68.6543 165.74 68.8008 165.85 68.9102C165.963 69.0156 166.088 69.0898 166.225 69.1328C166.365 69.1758 166.51 69.1973 166.658 69.1973C167.119 69.1973 167.484 69.1094 167.754 68.9336C168.023 68.7539 168.217 68.5137 168.334 68.2129C168.455 67.9082 168.516 67.5703 168.516 67.1992ZM175.207 61V70H174.117V61H175.207ZM180.826 68.5352V63.6602H181.916V70H180.879L180.826 68.5352ZM181.031 67.1992L181.482 67.1875C181.482 67.6094 181.438 68 181.348 68.3594C181.262 68.7148 181.121 69.0234 180.926 69.2852C180.73 69.5469 180.475 69.752 180.158 69.9004C179.842 70.0449 179.457 70.1172 179.004 70.1172C178.695 70.1172 178.412 70.0723 178.154 69.9824C177.9 69.8926 177.682 69.7539 177.498 69.5664C177.314 69.3789 177.172 69.1348 177.07 68.834C176.973 68.5332 176.924 68.1719 176.924 67.75V63.6602H178.008V67.7617C178.008 68.0469 178.039 68.2832 178.102 68.4707C178.168 68.6543 178.256 68.8008 178.365 68.9102C178.479 69.0156 178.604 69.0898 178.74 69.1328C178.881 69.1758 179.025 69.1973 179.174 69.1973C179.635 69.1973 180 69.1094 180.27 68.9336C180.539 68.7539 180.732 68.5137 180.85 68.2129C180.971 67.9082 181.031 67.5703 181.031 67.1992ZM187.676 63.6602H188.66V69.8652C188.66 70.4238 188.547 70.9004 188.32 71.2949C188.094 71.6895 187.777 71.9883 187.371 72.1914C186.969 72.3984 186.504 72.502 185.977 72.502C185.758 72.502 185.5 72.4668 185.203 72.3965C184.91 72.3301 184.621 72.2148 184.336 72.0508C184.055 71.8906 183.818 71.6738 183.627 71.4004L184.195 70.7559C184.461 71.0762 184.738 71.2988 185.027 71.4238C185.32 71.5488 185.609 71.6113 185.895 71.6113C186.238 71.6113 186.535 71.5469 186.785 71.418C187.035 71.2891 187.229 71.0977 187.365 70.8438C187.506 70.5938 187.576 70.2852 187.576 69.918V65.0547L187.676 63.6602ZM183.311 66.9004V66.7773C183.311 66.293 183.367 65.8535 183.48 65.459C183.598 65.0605 183.764 64.7188 183.979 64.4336C184.197 64.1484 184.461 63.9297 184.77 63.7773C185.078 63.6211 185.426 63.543 185.812 63.543C186.211 63.543 186.559 63.6133 186.855 63.7539C187.156 63.8906 187.41 64.0918 187.617 64.3574C187.828 64.6191 187.994 64.9355 188.115 65.3066C188.236 65.6777 188.32 66.0977 188.367 66.5664V67.1055C188.324 67.5703 188.24 67.9883 188.115 68.3594C187.994 68.7305 187.828 69.0469 187.617 69.3086C187.41 69.5703 187.156 69.7715 186.855 69.9121C186.555 70.0488 186.203 70.1172 185.801 70.1172C185.422 70.1172 185.078 70.0371 184.77 69.877C184.465 69.7168 184.203 69.4922 183.984 69.2031C183.766 68.9141 183.598 68.5742 183.48 68.1836C183.367 67.7891 183.311 67.3613 183.311 66.9004ZM184.395 66.7773V66.9004C184.395 67.2168 184.426 67.5137 184.488 67.791C184.555 68.0684 184.654 68.3125 184.787 68.5234C184.924 68.7344 185.098 68.9004 185.309 69.0215C185.52 69.1387 185.771 69.1973 186.064 69.1973C186.424 69.1973 186.721 69.1211 186.955 68.9688C187.189 68.8164 187.375 68.6152 187.512 68.3652C187.652 68.1152 187.762 67.8438 187.84 67.5508V66.1387C187.797 65.9238 187.73 65.7168 187.641 65.5176C187.555 65.3145 187.441 65.1348 187.301 64.9785C187.164 64.8184 186.994 64.6914 186.791 64.5977C186.588 64.5039 186.35 64.457 186.076 64.457C185.779 64.457 185.523 64.5195 185.309 64.6445C185.098 64.7656 184.924 64.9336 184.787 65.1484C184.654 65.3594 184.555 65.6055 184.488 65.8867C184.426 66.1641 184.395 66.4609 184.395 66.7773ZM194.045 68.916V65.6523C194.045 65.4023 193.994 65.1855 193.893 65.002C193.795 64.8145 193.646 64.6699 193.447 64.5684C193.248 64.4668 193.002 64.416 192.709 64.416C192.436 64.416 192.195 64.4629 191.988 64.5566C191.785 64.6504 191.625 64.7734 191.508 64.9258C191.395 65.0781 191.338 65.2422 191.338 65.418H190.254C190.254 65.1914 190.312 64.9668 190.43 64.7441C190.547 64.5215 190.715 64.3203 190.934 64.1406C191.156 63.957 191.422 63.8125 191.73 63.707C192.043 63.5977 192.391 63.543 192.773 63.543C193.234 63.543 193.641 63.6211 193.992 63.7773C194.348 63.9336 194.625 64.1699 194.824 64.4863C195.027 64.7988 195.129 65.1914 195.129 65.6641V68.6172C195.129 68.8281 195.146 69.0527 195.182 69.291C195.221 69.5293 195.277 69.7344 195.352 69.9062V70H194.221C194.166 69.875 194.123 69.709 194.092 69.502C194.061 69.291 194.045 69.0957 194.045 68.916ZM194.232 66.1562L194.244 66.918H193.148C192.84 66.918 192.564 66.9434 192.322 66.9941C192.08 67.041 191.877 67.1133 191.713 67.2109C191.549 67.3086 191.424 67.4316 191.338 67.5801C191.252 67.7246 191.209 67.8945 191.209 68.0898C191.209 68.2891 191.254 68.4707 191.344 68.6348C191.434 68.7988 191.568 68.9297 191.748 69.0273C191.932 69.1211 192.156 69.168 192.422 69.168C192.754 69.168 193.047 69.0977 193.301 68.957C193.555 68.8164 193.756 68.6445 193.904 68.4414C194.057 68.2383 194.139 68.041 194.15 67.8496L194.613 68.3711C194.586 68.5352 194.512 68.7168 194.391 68.916C194.27 69.1152 194.107 69.3066 193.904 69.4902C193.705 69.6699 193.467 69.8203 193.189 69.9414C192.916 70.0586 192.607 70.1172 192.264 70.1172C191.834 70.1172 191.457 70.0332 191.133 69.8652C190.812 69.6973 190.562 69.4727 190.383 69.1914C190.207 68.9062 190.119 68.5879 190.119 68.2363C190.119 67.8965 190.186 67.5977 190.318 67.3398C190.451 67.0781 190.643 66.8613 190.893 66.6895C191.143 66.5137 191.443 66.3809 191.795 66.291C192.146 66.2012 192.539 66.1562 192.973 66.1562H194.232ZM197.918 64.6562V70H196.834V63.6602H197.889L197.918 64.6562ZM199.898 63.625L199.893 64.6328C199.803 64.6133 199.717 64.6016 199.635 64.5977C199.557 64.5898 199.467 64.5859 199.365 64.5859C199.115 64.5859 198.895 64.625 198.703 64.7031C198.512 64.7812 198.35 64.8906 198.217 65.0312C198.084 65.1719 197.979 65.3398 197.9 65.5352C197.826 65.7266 197.777 65.9375 197.754 66.168L197.449 66.3438C197.449 65.9609 197.486 65.6016 197.561 65.2656C197.639 64.9297 197.758 64.6328 197.918 64.375C198.078 64.1133 198.281 63.9102 198.527 63.7656C198.777 63.6172 199.074 63.543 199.418 63.543C199.496 63.543 199.586 63.5527 199.688 63.5723C199.789 63.5879 199.859 63.6055 199.898 63.625ZM200.191 69.4258C200.191 69.2422 200.248 69.0879 200.361 68.9629C200.479 68.834 200.646 68.7695 200.865 68.7695C201.084 68.7695 201.25 68.834 201.363 68.9629C201.48 69.0879 201.539 69.2422 201.539 69.4258C201.539 69.6055 201.48 69.7578 201.363 69.8828C201.25 70.0078 201.084 70.0703 200.865 70.0703C200.646 70.0703 200.479 70.0078 200.361 69.8828C200.248 69.7578 200.191 69.6055 200.191 69.4258Z" fill="#A8A8A8"/>
<defs>
<filter id="filter0_b_1741_6388" x="-10" y="-10" width="335" height="101" filterUnits="userSpaceOnUse" color-interpolation-filters="sRGB">
<feFlood flood-opacity="0" result="BackgroundImageFix"/>
<feGaussianBlur in="BackgroundImageFix" stdDeviation="5"/>
<feComposite in2="SourceAlpha" operator="in" result="effect1_backgroundBlur_1741_6388"/>
<feBlend mode="normal" in="SourceGraphic" in2="effect1_backgroundBlur_1741_6388" result="shape"/>
</filter>
</defs>
</svg>
