<svg width="53" height="53" viewBox="0 0 53 53" fill="none" xmlns="http://www.w3.org/2000/svg">
<circle cx="26.5" cy="26.5" r="26.5" fill="#D9D9D9"/>
<circle cx="26.5" cy="26.5" r="25.5" stroke="#E10600" stroke-opacity="0.72" stroke-width="2"/>
<path d="M35.6369 41.3211C34.955 41.3211 34.2731 41.3211 33.5912 41.3211L33.6064 41.3363V40.3569C33.2684 40.3398 32.973 40.3256 32.6432 40.3085C32.628 40.0113 32.6139 39.7312 32.5967 39.4108H31.6801C31.6669 39.703 31.6538 39.9821 31.6396 40.2924H30.64L30.6552 40.3095V39.4138H27.7576V41.3292H28.6581V42.2894H26.7368V41.3645H24.7518V42.2844H22.7719V41.3554H20.8476C20.8294 41.6627 20.8122 41.9559 20.793 42.2824H19.8784V40.2843L19.8643 40.2964C20.1627 40.3105 20.4612 40.3236 20.8163 40.3397V38.4032H23.7654V37.4328H24.7569V39.3584H25.715V40.3055H26.7085V39.3916C27.0555 39.3755 27.3519 39.3614 27.6939 39.3453C27.7101 39.0228 27.7253 38.7125 27.7404 38.4011L27.7253 38.4142H29.6779V37.3865H30.642V36.4424H26.7125V37.4056L26.7267 37.3905H25.7261V35.4862C25.3983 35.469 25.1201 35.4539 24.7994 35.4368V33.5073H25.7018V34.4443H26.7085V33.5002H27.7101V35.4297H30.6339V33.4952H34.5806V32.5319C34.268 32.5178 33.9706 32.5047 33.6397 32.4906V31.5586H34.6231V30.5369L34.609 30.551H35.5772V32.4775C35.9303 32.4997 36.2237 32.5188 36.5565 32.54V33.4397C38.2218 33.4397 39.8446 33.4397 41.4694 33.4397L41.4552 33.4277C41.4775 33.7581 41.4997 34.0886 41.524 34.4584H42.4619V37.3673H41.52V36.4535C41.1487 36.4242 40.8209 36.399 40.4921 36.3739C40.4921 36.0796 40.4921 35.7854 40.4921 35.4862H39.5755V36.4283C39.9144 36.4031 40.2108 36.3809 40.5083 36.3587V37.3845H39.5208C39.5552 37.7442 39.5846 38.0586 39.6139 38.3729L39.626 38.3618H37.5834V39.3372C37.893 39.3553 38.2036 39.3735 38.5334 39.3926V41.3201H36.5241L36.5423 41.3363V38.4364H35.5802V39.3402C35.2453 39.3563 34.9499 39.3715 34.6413 39.3866V40.3418H35.5741C35.5913 40.7065 35.6055 41.0209 35.6197 41.3363L35.6389 41.3201L35.6369 41.3211ZM32.537 38.4495C32.5714 38.116 32.6068 37.7815 32.6432 37.4338H31.6345C31.6649 37.7976 31.6932 38.123 31.7205 38.4485C31.3806 38.4294 31.0396 38.4112 30.6987 38.3921V39.3382H31.6244C31.6538 39.0188 31.6811 38.7266 31.7053 38.4324C31.9856 38.4354 32.2658 38.4394 32.5461 38.4425C32.5876 38.7326 32.628 39.0228 32.6725 39.3372H33.5689V38.382C33.2007 38.4062 32.8688 38.4283 32.538 38.4495H32.537ZM32.5633 35.467H33.5649V34.5108H32.6483C32.623 34.8574 32.5997 35.1688 32.5774 35.4811H31.7003V36.3819H32.6341C32.6088 36.0534 32.5866 35.7602 32.5633 35.467ZM34.6413 34.4846V37.3633H37.5065V34.4846H34.6413ZM22.8043 39.3987V40.2944H23.7502V39.3987H22.8043Z" fill="black"/>
<path d="M15.8822 24.6906V25.6267C16.2272 25.6438 16.5357 25.6599 16.8959 25.6781V26.6161L16.9101 26.604H15.8822V27.6268L15.8963 27.6126C15.5544 27.6177 15.2114 27.6217 14.8694 27.6268V26.6071C14.4749 26.6252 14.142 26.6403 13.8092 26.6554C13.8506 26.339 13.8911 26.0237 13.9346 25.6942H12.9826V26.601C13.2891 26.6171 13.5552 26.6312 13.8213 26.6454C13.8375 26.9718 13.8527 27.2993 13.8689 27.6257C13.5744 27.6257 13.279 27.6257 12.9846 27.6257V28.587C13.3084 28.6011 13.5896 28.6132 13.8699 28.6253C13.8699 28.9296 13.8699 29.2339 13.8699 29.5382C13.5755 29.5533 13.2821 29.5684 12.9482 29.5855V30.5508L12.9644 30.5357H10.9632V34.4371H10.0122V25.6801H10.9217V26.5778H11.9203C11.9355 26.2927 11.9506 25.9995 11.9668 25.676C12.2845 25.6609 12.583 25.6458 12.9108 25.6307V24.7158H10.0233V21.7877H11.9102C11.9102 22.0588 11.9102 22.35 11.9102 22.6432C11.6036 22.6795 11.2951 22.7137 10.9693 22.75V23.6558H11.9577C11.9375 23.2911 11.9193 22.9616 11.9011 22.6321C12.2268 22.6633 12.5516 22.6936 13.0018 22.7359V19.7141L12.9917 19.7232C13.273 19.7464 13.5532 19.7695 13.878 19.7957C13.8972 20.1071 13.9174 20.4154 13.9387 20.755H14.8482V21.7434H13.9488V22.6492H15.8629L15.8498 22.6371C15.8609 22.9898 15.871 23.3425 15.8822 23.6951L15.8973 23.681H13.9508V24.7037H15.8973L15.8832 24.6916L15.8822 24.6906ZM11.9183 27.6509H10.9784V28.5789H11.9183V27.6509Z" fill="black"/>
<path d="M10 16.8064V10.0061H16.8493V16.8074H10V16.8064ZM10.9763 10.9915V15.8189H15.8497V10.9915H10.9763Z" fill="black"/>
<path d="M35.6348 10H42.4648V16.7932H35.6348V10ZM41.4774 11.0046H36.5848V15.8048H41.4774V11.0046Z" fill="black"/>
<path d="M16.8505 42.2914H10.0215V35.4922H16.8516V42.2914H16.8505ZM10.9826 36.4423V41.303H15.8631V36.4423H10.9826Z" fill="black"/>
<path d="M15.8627 22.6484C15.8789 22.3672 15.8951 22.0871 15.9133 21.7728C16.2229 21.7556 16.5163 21.7405 16.8451 21.7224V20.7823H15.9244V19.7727H16.836C16.8744 19.3878 16.9088 19.0432 16.9432 18.6986L16.9351 18.7077C17.2093 18.7449 17.4845 18.7822 17.8265 18.8286V14.901H19.8438V13.9004L19.8286 13.9145C20.4741 13.9145 21.1196 13.9145 21.764 13.9145L21.7469 13.8994V14.8677C21.4484 14.8818 21.1692 14.8949 20.8545 14.91V16.7922H21.756C21.7701 16.5061 21.7843 16.2149 21.8005 15.8945C22.1202 15.8562 22.4267 15.8189 22.7343 15.7826L22.7262 15.7745V17.8714C21.7671 17.8714 20.7888 17.8714 19.8125 17.8714C19.8125 17.2084 19.8125 16.5454 19.8125 15.8733H18.8554V17.8069C19.1963 17.824 19.512 17.8401 19.8266 17.8552V18.7711C19.4877 18.7873 19.1903 18.8014 18.8402 18.8185V19.7394C18.4942 19.7556 18.1998 19.7697 17.875 19.7848V21.7264H18.7866V22.6363C17.8113 22.6363 16.8309 22.6363 15.8506 22.6363L15.8627 22.6473V22.6484Z" fill="black"/>
<path d="M40.4433 28.6666C39.6592 28.6454 38.8741 28.6202 38.0901 28.6061C37.6065 28.5971 37.1218 28.6041 36.5968 28.6041V25.6821C36.8811 25.665 37.1765 25.6478 37.5083 25.6287V24.7088H36.5877C36.5695 24.3359 36.5543 24.0085 36.5381 23.681L36.5239 23.6941H37.5518V22.6694L37.5387 22.6835H38.5443V21.823H41.5349L41.5279 21.8149C41.5076 22.091 41.4864 22.3671 41.4631 22.6784C41.1636 22.6926 40.8713 22.7067 40.5273 22.7228C40.508 23.0513 40.4888 23.3727 40.4696 23.6941L40.4858 23.679H39.5065C39.5368 24.08 39.5611 24.3924 39.5854 24.7047H38.5453V26.6363H37.5741V27.5844H39.5398V26.6171H41.4995L41.4844 26.603V27.6005H40.5394C40.501 27.9945 40.4686 28.3341 40.4362 28.6746L40.4443 28.6656L40.4433 28.6666Z" fill="black"/>
<path d="M26.7246 15.8269V13.9276H25.7351V12.9341C25.3821 12.9149 25.0866 12.8988 24.776 12.8817C24.7599 12.5714 24.7457 12.2912 24.7285 11.9618C24.4159 11.9466 24.1215 11.9335 23.8018 11.9184V11.0156H25.6987C25.7119 11.3048 25.724 11.5829 25.7392 11.9235H27.706V14.8818H29.6434V15.8259L29.6576 15.8148C29.347 15.8349 29.0354 15.8561 28.7187 15.8763V16.8375H29.6576L29.6424 16.8234V18.757H27.7444V17.832H26.7094L26.7226 17.8461C26.7226 17.5055 26.7226 17.164 26.7226 16.8234L26.7084 16.8375H27.6807V15.8692C27.3347 15.8491 27.021 15.8309 26.7084 15.8128L26.7226 15.8239L26.7246 15.8269Z" fill="black"/>
<path d="M19.8449 13.9024H18.8363V12.9099H17.8711V10H18.8059V10.9441H20.7919C20.8071 10.6338 20.8223 10.3375 20.8384 10.0101H22.7476V12.8847C23.1047 12.9009 23.4133 12.914 23.7481 12.9291V13.9024C23.0804 13.9024 22.4137 13.9024 21.748 13.9024L21.7652 13.9175V12.8978H20.8405C20.8233 12.5674 20.8081 12.2762 20.7929 11.9749H19.8288V13.9175L19.8439 13.9034L19.8449 13.9024Z" fill="black"/>
<path d="M18.817 33.4749H20.7908C20.808 33.8084 20.8232 34.1167 20.8414 34.4704H22.7424V36.3787H21.7459L21.7661 36.3979V35.4911H20.8424V36.3979L20.8637 36.3787H18.8423V35.488C18.4932 35.4679 18.1998 35.4518 17.872 35.4326C17.8528 35.0951 17.8346 34.7817 17.8164 34.4694L17.8032 34.4825H18.8321V33.4587L18.817 33.4749Z" fill="black"/>
<path d="M16.8987 30.5508H17.8163C17.8355 30.2032 17.8507 29.91 17.8689 29.5896H18.7835V31.5433H17.8709V32.4814C18.1714 32.4965 18.4638 32.5126 18.8169 32.5308C18.8169 32.8542 18.8169 33.1645 18.8169 33.4749L18.8321 33.4588C18.4891 33.4588 18.1461 33.4588 17.8031 33.4588L17.8173 33.4719V32.5469H14.9016V33.487C14.5019 33.4638 14.1579 33.4447 13.814 33.4245L13.8241 33.4326C13.8393 32.8038 13.8544 32.1751 13.8706 31.5463L13.8565 31.5594H16.8542C16.8764 31.1614 16.8946 30.8491 16.9118 30.5367L16.9007 30.5508H16.8987Z" fill="black"/>
<path d="M40.4963 18.8236V20.7279H37.5825V19.7818H38.5285C38.5426 19.4523 38.5558 19.1591 38.571 18.8266C38.8755 18.8064 39.1699 18.7873 39.5048 18.7651C39.52 18.4649 39.5341 18.1858 39.5503 17.8694H42.4539V19.7254H41.514C41.4999 19.4312 41.4857 19.1379 41.4705 18.8236H40.4973H40.4963Z" fill="black"/>
<path d="M39.6099 38.3758H41.4563V39.3441C41.1629 39.3592 40.8644 39.3753 40.5316 39.3925V40.3003H42.4478V41.3139H41.521C41.5008 41.6596 41.4826 41.9669 41.4644 42.2893H39.62C39.62 40.9623 39.62 39.6645 39.62 38.3657L39.6089 38.3768L39.6099 38.3758Z" fill="black"/>
<path d="M32.5341 12.8545C32.5604 12.9149 32.61 12.9744 32.61 13.0349C32.614 14.6077 32.613 16.1806 32.613 17.7917H30.6533C30.6533 17.4713 30.6533 17.1579 30.6533 16.8436L30.6392 16.8597C30.9558 16.8436 31.2715 16.8274 31.6215 16.8103V14.918C31.3221 14.9019 31.0155 14.8858 30.6877 14.8677V13.9175H31.6317C31.6478 13.5689 31.663 13.2606 31.6782 12.9422C31.9837 12.9129 32.2609 12.8857 32.5381 12.8595L32.5331 12.8545H32.5341Z" fill="black"/>
<path d="M19.8766 40.2832H17.8784V37.4297H19.8604C19.8604 38.394 19.8604 39.3461 19.8604 40.2963L19.8755 40.2832H19.8766Z" fill="black"/>
<path d="M13.0019 19.7133C12.6711 19.7395 12.3403 19.7667 11.9538 19.7979V20.739H10.9785V18.8155H11.9315V17.8613H14.8554V18.7944H12.9331C12.9544 19.139 12.9726 19.4312 12.9908 19.7234C12.9918 19.7234 13.0019 19.7133 13.0019 19.7133Z" fill="black"/>
<path d="M32.5387 12.8595C32.565 12.2963 32.5984 11.734 32.6166 11.1708C32.6288 10.7889 32.6186 10.407 32.6186 10.001H34.5712V10.9552H33.6384V11.9084C33.9511 11.9265 34.2617 11.9456 34.5905 11.9648V12.8535C33.8995 12.8535 33.2176 12.8535 32.5347 12.8535L32.5387 12.8585V12.8595Z" fill="black"/>
<path d="M34.6179 22.6826C34.6038 22.3934 34.5896 22.1042 34.5754 21.815L34.5684 21.8241C34.879 21.7848 35.1885 21.7455 35.571 21.6971C35.5851 21.4201 35.6003 21.1158 35.6165 20.7893H36.5331C36.5463 21.0775 36.5604 21.3687 36.5766 21.7233C36.8872 21.7375 37.1927 21.7516 37.5388 21.7677V22.6856L37.5519 22.6715C37.2383 22.6916 36.9257 22.7118 36.5857 22.734C36.5645 23.0715 36.5442 23.3839 36.524 23.6962L36.5382 23.6831C36.2326 23.6831 35.9271 23.6831 35.6216 23.6821L35.6317 23.6962C35.6054 23.3728 35.5791 23.0493 35.5528 22.7279C35.2017 22.7078 34.9022 22.6896 34.6038 22.6725L34.6189 22.6836L34.6179 22.6826Z" fill="black"/>
<path d="M16.8971 26.6163H18.792V27.6189H17.8714C17.8521 27.9594 17.8349 28.2536 17.8127 28.6234H15.8833L15.8965 28.6375C15.8965 28.296 15.8965 27.9554 15.8965 27.6138L15.8823 27.6279H16.8556C16.8768 27.2289 16.893 26.9166 16.9102 26.6052L16.8961 26.6173L16.8971 26.6163Z" fill="black"/>
<path d="M26.7116 17.8341V18.7621H23.811V17.8552C24.0973 17.8401 24.3907 17.825 24.6912 17.8099C24.7459 17.4592 24.7985 17.1227 24.8511 16.7852V16.7892C25.1364 16.8063 25.4237 16.8234 25.71 16.8406L25.6979 16.8265C25.7141 17.1499 25.7303 17.4733 25.7485 17.8492H26.7248L26.7116 17.8351V17.8341Z" fill="black"/>
<path d="M35.5799 25.6802V26.6011H34.6208V27.5845H33.6304V25.6802H35.5789H35.5799Z" fill="black"/>
<path d="M40.4346 31.5958H42.4651V33.486C42.113 33.4669 41.7832 33.4488 41.4524 33.4306C41.4524 33.4306 41.4665 33.4427 41.4655 33.4417C41.4655 33.1435 41.4655 32.8472 41.4655 32.5298C41.1488 32.5157 40.8524 32.5026 40.5357 32.4875C40.5044 32.1701 40.475 31.8769 40.4457 31.5847L40.4356 31.5948L40.4346 31.5958Z" fill="black"/>
<path d="M40.4355 28.6757C41.0972 28.6425 41.7589 28.6092 42.458 28.574V29.5513H41.5161V30.5106C41.1286 30.5106 40.7866 30.5106 40.4447 30.5106L40.4608 30.5277C40.4558 29.907 40.4507 29.2863 40.4447 28.6667L40.4355 28.6757Z" fill="black"/>
<path d="M34.5898 17.8694H37.5198V18.7732H34.605V17.8523L34.5898 17.8694Z" fill="black"/>
<path d="M29.6666 10.9996V10.0142H31.6182V10.9845H29.6504L29.6666 10.9996Z" fill="black"/>
<path d="M34.6036 17.8522H33.6304V15.8743H34.5895C34.5895 16.5423 34.5895 17.2043 34.5895 17.8683L34.6036 17.8522Z" fill="black"/>
<path d="M17.8166 34.4694H15.9268V33.4718H17.8176L17.8035 33.4587C17.8035 33.8003 17.8035 34.1409 17.8035 34.4825L17.8166 34.4694Z" fill="black"/>
<path d="M40.4444 31.5856C39.8252 31.5846 39.2061 31.5826 38.5869 31.5816L38.6 31.5927C38.5788 31.2662 38.5576 30.9398 38.5312 30.5277C39.2091 30.5277 39.8364 30.5277 40.4616 30.5277C40.4616 30.5277 40.4454 30.5105 40.4454 30.5095C40.4424 30.8712 40.4393 31.233 40.4353 31.5957L40.4444 31.5856Z" fill="black"/>
<path d="M13.8144 33.4246C13.8568 33.747 13.8983 34.0684 13.9469 34.4362H11.9761V33.4346C12.6023 33.4346 13.2144 33.4346 13.8255 33.4346L13.8154 33.4256L13.8144 33.4246Z" fill="black"/>
<path d="M41.4844 24.7048H42.4617V26.6041H41.4844L41.4996 26.6182C41.4996 25.9754 41.4996 25.3325 41.4996 24.6897L41.4854 24.7048H41.4844Z" fill="black"/>
<path d="M33.5911 41.321V42.2904H31.6851V41.3362C32.3356 41.3362 32.9709 41.3362 33.6063 41.3362L33.5911 41.321Z" fill="black"/>
<path d="M40.4698 23.6963H41.4845C41.4845 24.058 41.4845 24.3814 41.4845 24.7049L41.4987 24.6898C41.1547 24.6958 40.8118 24.7008 40.4678 24.7069C40.4738 24.3653 40.4799 24.0227 40.486 23.6812L40.4698 23.6963Z" fill="black"/>
<path d="M34.6201 30.5379H33.6377V29.5998C33.9645 29.5655 34.2731 29.5343 34.5816 29.5021L34.5695 29.491C34.5816 29.8446 34.5938 30.1983 34.6059 30.552L34.6201 30.5379Z" fill="black"/>
<path d="M27.6829 10.9492H26.748V10H27.6829V10.9481V10.9492Z" fill="black"/>
<path d="M34.5816 13.9458V14.8657H33.6387V13.9458H34.5816Z" fill="black"/>
<path d="M25.7099 16.8396V15.8794C26.068 15.8613 26.3968 15.8441 26.7246 15.827L26.7105 15.8159C26.7105 16.1575 26.7105 16.4981 26.7105 16.8396L26.7246 16.8255C26.3827 16.8255 26.0397 16.8255 25.6978 16.8255L25.7099 16.8396Z" fill="black"/>
<path d="M29.6445 15.827H30.6421C30.6421 16.2048 30.6421 16.5323 30.6421 16.8598C30.6421 16.8598 30.6562 16.8437 30.6552 16.8447C30.3183 16.8386 29.9814 16.8326 29.6445 16.8255L29.6597 16.8396C29.6597 16.4981 29.6597 16.1575 29.6597 15.8159L29.6455 15.827H29.6445Z" fill="black"/>
<path d="M34.5755 21.8151C34.2659 21.7778 33.9573 21.7415 33.6255 21.7022V20.7874H34.5694C34.5694 21.135 34.5694 21.4786 34.5694 21.8232L34.5765 21.8151H34.5755Z" fill="black"/>
<path d="M27.7384 38.401H26.7236V37.3904L26.7095 37.4055H27.7222V38.4141L27.7374 38.401H27.7384Z" fill="black"/>
<path d="M41.5353 21.8241C41.5161 21.4946 41.4968 21.1641 41.4756 20.7983H42.4661V21.6981C42.1403 21.7384 41.8327 21.7757 41.5262 21.815C41.5262 21.816 41.5343 21.8241 41.5343 21.8241H41.5353Z" fill="black"/>
<path d="M34.6182 23.68H33.6348V22.7299C33.9595 22.7137 34.2893 22.6976 34.6192 22.6815L34.604 22.6704C34.604 23.012 34.604 23.3536 34.604 23.6941L34.6182 23.679V23.68Z" fill="black"/>
<path d="M15.8824 23.6953H16.8506V24.6918C16.5299 24.6918 16.2061 24.6918 15.8824 24.6918L15.8965 24.7039C15.8965 24.3633 15.8965 24.0217 15.8965 23.6812L15.8813 23.6953H15.8824Z" fill="black"/>
<path d="M30.6398 40.2922V41.3059H29.6948V40.3547C30.0267 40.3396 30.3413 40.3245 30.6549 40.3094L30.6398 40.2922Z" fill="black"/>
<path d="M35.6218 23.6812C35.6056 23.9945 35.5894 24.3069 35.5722 24.6525H34.6182V23.6802L34.604 23.6953C34.947 23.6953 35.2889 23.6953 35.6319 23.6953L35.6218 23.6812Z" fill="black"/>
<path d="M24.8508 16.7852C24.5109 16.8054 24.172 16.8245 23.7622 16.8487C23.7865 16.4497 23.8067 16.1131 23.827 15.7766L23.8179 15.7857C24.1082 15.8179 24.3996 15.8512 24.693 15.8834C24.7466 16.1938 24.7972 16.492 24.8488 16.7892L24.8508 16.7852Z" fill="black"/>
<path d="M29.6222 34.4583H28.7178V33.498H29.6222V34.4583Z" fill="black"/>
<path d="M15.8843 29.5402H16.8991C16.8991 29.9271 16.8991 30.2395 16.8991 30.5508L16.9102 30.5367H15.8965V29.5271L15.8833 29.5402H15.8843Z" fill="black"/>
<path d="M36.584 29.5754H37.5127V30.5054H36.584V29.5754Z" fill="black"/>
<path d="M38.5872 31.5818C38.569 31.8619 38.5498 32.141 38.5285 32.4654H37.5815V31.5354C37.9195 31.5545 38.2594 31.5727 38.5993 31.5918L38.5872 31.5807V31.5818Z" fill="black"/>
<path d="M29.6502 10.9834V11.9084H28.7134V10.9985C29.0402 10.9985 29.3528 10.9985 29.6664 10.9985L29.6502 10.9834Z" fill="black"/>
<path d="M16.9435 18.6985C16.6188 18.7428 16.294 18.7882 15.9268 18.8385V17.8662H16.8434C16.8747 18.1584 16.9041 18.4335 16.9344 18.7086L16.9435 18.6985Z" fill="black"/>
<path d="M23.8273 15.7766C23.4601 15.7766 23.0938 15.7766 22.7266 15.7766C22.7266 15.7766 22.7357 15.7857 22.7347 15.7847C22.7549 15.5056 22.7761 15.2265 22.7994 14.9202H23.7393C23.7646 15.2043 23.7909 15.4965 23.8172 15.7867L23.8273 15.7766Z" fill="black"/>
<path d="M15.8843 28.6233C15.8843 28.9286 15.8843 29.2349 15.8843 29.5402L15.8975 29.5271C15.5555 29.5311 15.2126 29.5342 14.8706 29.5382C14.8706 29.2329 14.8706 28.9276 14.8706 28.6233C15.2126 28.6283 15.5545 28.6324 15.8965 28.6374L15.8833 28.6233H15.8843Z" fill="black"/>
<path d="M34.5814 29.502C34.5976 29.2239 34.6148 28.9458 34.633 28.6365H35.5598V29.5756C35.2158 29.5463 34.893 29.5191 34.5703 29.4909L34.5814 29.502Z" fill="black"/>
<path d="M21.7449 36.3779C21.7601 36.6933 21.7742 37.0097 21.7904 37.3623H20.8101C20.8283 37.0298 20.8455 36.7034 20.8627 36.3779L20.8414 36.3971C21.149 36.3971 21.4565 36.3971 21.7651 36.3971L21.7449 36.3779Z" fill="black"/>
<path d="M13.8699 31.5463H12.9654C12.9654 31.1886 12.9654 30.8611 12.9654 30.5347L12.9492 30.5498C13.2548 30.5447 13.5603 30.5407 13.8658 30.5357C13.8628 30.8762 13.8587 31.2178 13.8557 31.5584L13.8699 31.5453V31.5463Z" fill="black"/>
<path d="M36.5211 41.321V42.2853H35.6369C35.6369 41.9639 35.6369 41.6425 35.6369 41.321L35.6177 41.3372C35.9252 41.3372 36.2328 41.3372 36.5393 41.3372L36.5211 41.321Z" fill="black"/>
<path d="M35.6226 36.3808V35.4941H36.5129V36.3808H35.6226Z" fill="black"/>
<path d="M13.8545 28.6375C13.8545 28.2959 13.8545 27.9544 13.8555 27.6128C14.1985 27.6128 14.5414 27.6128 14.8844 27.6128C14.8844 27.9544 14.8844 28.2949 14.8844 28.6365C14.5414 28.6365 14.1985 28.6365 13.8545 28.6375Z" fill="black"/>
<path d="M14.8844 29.5271V30.5508H13.8555C13.8555 30.2093 13.8555 29.8677 13.8545 29.5261C14.1975 29.5261 14.5404 29.5261 14.8844 29.5261V29.5271Z" fill="black"/>
<path d="M14.8695 11.9758V14.8545H11.978V11.9758H14.8695Z" fill="black"/>
<path d="M40.4647 11.9819V14.8657H37.5864V11.9819H40.4647Z" fill="black"/>
<path d="M14.8664 37.4348V40.2944H11.979V37.4348H14.8664Z" fill="black"/>
<path d="M39.5635 24.6897C39.871 24.6897 40.1786 24.6897 40.4862 24.6897V25.6147H39.5635V24.6897Z" fill="black"/>
<path fill-rule="evenodd" clip-rule="evenodd" d="M30.1834 28H30.2405V27.6893L30.3402 28H30.3925L30.4923 27.6893V28H30.5493V27.5982H30.4638L30.3687 27.9143L30.269 27.5982H30.1834V28ZM29.8509 27.6554H29.9649V27.9982H30.0267V27.6554H30.1407V27.5964H29.8509V27.6554ZM28.4572 28L32 24H30.2864L26.7436 28H28.4572ZM28.7438 25.3982H25.296C24.246 25.3982 24.0623 25.4625 23.6109 25.9714C23.1881 26.4482 21.8118 27.9964 21.8118 27.9964H23.3068L24.3553 26.8143C24.5881 26.5518 24.7116 26.525 25.201 26.525H27.7508L28.7438 25.3982ZM23.5634 25.7429C23.2546 26.075 21.9163 27.5982 21.5505 28H20C20 28 21.8926 25.7696 22.6084 24.9696C23.3449 24.1821 23.7107 24 25.0632 24H29.9823L28.918 25.2018H25.163C24.2127 25.2018 24.0005 25.2768 23.5634 25.7429Z" fill="black"/>
</svg>
