<svg width="385" height="505" viewBox="0 0 385 505" fill="none" xmlns="http://www.w3.org/2000/svg">
<rect x="63" y="175" width="260" height="260" rx="18" fill="#D9D9D9"/>
<path d="M246.081 391.471C242.196 391.471 238.31 391.471 234.425 391.471L234.511 391.557V385.977C232.586 385.879 230.902 385.799 229.023 385.701C228.936 384.007 228.856 382.411 228.758 380.585H223.535C223.46 382.25 223.385 383.841 223.304 385.609H217.609L217.695 385.707V380.603H201.184V391.517H206.315V396.989H195.368V391.718H184.057V396.96H172.775V391.666H161.81C161.707 393.417 161.609 395.088 161.499 396.948H156.288V385.563L156.207 385.632C157.908 385.712 159.608 385.787 161.632 385.879V374.844H178.436V369.315H184.086V380.287H189.545V385.684H195.206V380.476C197.184 380.384 198.873 380.304 200.821 380.212C200.913 378.375 201 376.607 201.086 374.833L201 374.907H212.126V369.051H217.62V363.671H195.229V369.16L195.31 369.074H189.609V358.223C187.741 358.125 186.155 358.039 184.328 357.941V346.947H189.47V352.286H195.206V346.906H200.913V357.901H217.574V346.878H240.063V341.389C238.281 341.309 236.586 341.234 234.701 341.154V335.843H240.305V330.021L240.224 330.101H245.741V341.079C247.753 341.205 249.425 341.314 251.321 341.435V346.562C260.81 346.562 270.057 346.562 279.316 346.562L279.235 346.493C279.362 348.376 279.488 350.259 279.627 352.366H284.971V368.942H279.604V363.734C277.488 363.568 275.62 363.424 273.747 363.281C273.747 361.604 273.747 359.928 273.747 358.223H268.524V363.591C270.455 363.447 272.144 363.321 273.839 363.195V369.039H268.212C268.408 371.089 268.576 372.88 268.743 374.672L268.812 374.609H257.173V380.166C258.937 380.27 260.707 380.373 262.586 380.482V391.465H251.137L251.241 391.557V375.033H245.758V380.183C243.85 380.275 242.167 380.361 240.409 380.448V385.89H245.724C245.822 387.969 245.902 389.76 245.983 391.557L246.093 391.465L246.081 391.471ZM228.418 375.108C228.614 373.208 228.815 371.302 229.023 369.321H223.275C223.448 371.393 223.61 373.248 223.765 375.102C221.828 374.993 219.886 374.89 217.943 374.781V380.172H223.218C223.385 378.352 223.541 376.687 223.679 375.011C225.276 375.028 226.873 375.051 228.47 375.068C228.706 376.721 228.936 378.375 229.19 380.166H234.298V374.723C232.199 374.861 230.308 374.988 228.423 375.108H228.418ZM228.568 358.114H234.275V352.665H229.052C228.908 354.64 228.775 356.414 228.648 358.194H223.65V363.327H228.971C228.827 361.455 228.7 359.784 228.568 358.114ZM240.409 352.516V368.919H256.735V352.516H240.409ZM172.96 380.516V385.621H178.35V380.516H172.96Z" fill="black"/>
<path d="M133.517 296.709V302.043C135.483 302.141 137.241 302.233 139.293 302.336V307.681L139.374 307.612H133.517V313.44L133.598 313.36C131.649 313.388 129.695 313.411 127.746 313.44V307.63C125.498 307.733 123.601 307.819 121.705 307.905C121.941 306.102 122.172 304.305 122.42 302.428H116.995V307.595C118.742 307.687 120.258 307.767 121.774 307.848C121.866 309.708 121.953 311.574 122.045 313.434C120.367 313.434 118.684 313.434 117.006 313.434V318.911C118.851 318.992 120.454 319.061 122.051 319.13C122.051 320.864 122.051 322.597 122.051 324.331C120.373 324.417 118.701 324.504 116.799 324.601V330.101L116.891 330.015H105.488V352.246H100.069V302.348H105.252V307.463H110.942C111.028 305.838 111.115 304.168 111.207 302.325C113.017 302.238 114.718 302.152 116.586 302.066V296.853H100.133V280.169H110.884C110.884 281.713 110.884 283.372 110.884 285.043C109.137 285.25 107.379 285.445 105.523 285.652V290.813H111.155C111.04 288.735 110.936 286.857 110.832 284.98C112.689 285.158 114.539 285.33 117.104 285.571V268.353L117.047 268.404C118.649 268.537 120.246 268.669 122.097 268.818C122.206 270.592 122.322 272.349 122.443 274.284H127.625V279.916H122.5V285.077H133.408L133.333 285.009C133.396 287.018 133.454 289.028 133.517 291.037L133.604 290.957H122.512V296.784H133.604L133.523 296.715L133.517 296.709ZM110.93 313.578H105.575V318.866H110.93V313.578Z" fill="black"/>
<path d="M100 251.783V213.034H139.028V251.789H100V251.783ZM105.563 218.65V246.156H133.332V218.65H105.563Z" fill="black"/>
<path d="M246.07 213H284.989V251.708H246.07V213ZM279.362 218.724H251.484V246.076H279.362V218.724Z" fill="black"/>
<path d="M139.034 397H100.121V358.257H139.04V397H139.034ZM105.598 363.671V391.368H133.407V363.671H105.598Z" fill="black"/>
<path d="M133.407 285.072C133.499 283.47 133.592 281.874 133.695 280.082C135.459 279.985 137.131 279.899 139.005 279.795V274.439H133.759V268.686H138.953C139.172 266.492 139.368 264.529 139.564 262.565L139.518 262.617C141.08 262.829 142.648 263.042 144.597 263.306V240.926H156.092V235.225L156.005 235.305C159.683 235.305 163.361 235.305 167.033 235.305L166.935 235.219V240.737C165.235 240.817 163.644 240.892 161.851 240.978V251.703H166.987C167.068 250.072 167.149 248.413 167.241 246.587C169.063 246.369 170.809 246.156 172.562 245.95L172.516 245.904V257.852C167.051 257.852 161.476 257.852 155.913 257.852C155.913 254.074 155.913 250.296 155.913 246.466H150.46V257.484C152.402 257.582 154.201 257.674 155.994 257.76V262.979C154.063 263.071 152.368 263.151 150.373 263.249V268.496C148.401 268.588 146.724 268.668 144.873 268.755V279.818H150.068V285.003C144.51 285.003 138.924 285.003 133.338 285.003L133.407 285.066V285.072Z" fill="black"/>
<path d="M273.471 319.365C269.003 319.244 264.529 319.101 260.062 319.02C257.306 318.969 254.545 319.009 251.553 319.009V302.359C253.173 302.261 254.856 302.164 256.747 302.055V296.813H251.501C251.397 294.688 251.311 292.822 251.218 290.957L251.138 291.031H256.995V285.192L256.92 285.273H262.65V280.369H279.691L279.651 280.323C279.535 281.897 279.414 283.47 279.282 285.244C277.575 285.324 275.909 285.405 273.949 285.496C273.84 287.368 273.73 289.2 273.621 291.031L273.713 290.945H268.132C268.305 293.23 268.444 295.01 268.582 296.79H262.656V307.796H257.122V313.199H268.323V307.687H279.489L279.403 307.607V313.291H274.018C273.799 315.535 273.615 317.47 273.43 319.411L273.477 319.359L273.471 319.365Z" fill="black"/>
<path d="M195.299 246.202V235.38H189.661V229.719C187.649 229.61 185.966 229.518 184.196 229.42C184.104 227.652 184.023 226.056 183.925 224.179C182.144 224.092 180.466 224.018 178.645 223.932V218.787H189.454C189.529 220.435 189.598 222.02 189.684 223.96H200.891V240.817H211.931V246.197L212.012 246.134C210.242 246.248 208.466 246.369 206.662 246.484V251.961H212.012L211.925 251.881V262.898H201.11V257.628H195.213L195.288 257.708C195.288 255.768 195.288 253.821 195.288 251.881L195.207 251.961H200.747V246.444C198.775 246.329 196.988 246.225 195.207 246.122L195.288 246.185L195.299 246.202Z" fill="black"/>
<path d="M156.098 235.236H150.35V229.581H144.851V213H150.177V218.38H161.494C161.58 216.611 161.667 214.923 161.759 213.057H172.637V229.438C174.672 229.529 176.43 229.604 178.339 229.69V235.236C174.534 235.236 170.735 235.236 166.942 235.236L167.04 235.323V229.512H161.77C161.672 227.629 161.586 225.97 161.499 224.253H156.006V235.323L156.092 235.242L156.098 235.236Z" fill="black"/>
<path d="M150.24 346.763H161.487C161.585 348.663 161.672 350.42 161.776 352.435H172.608V363.31H166.93L167.045 363.419V358.251H161.781V363.419L161.903 363.31H150.384V358.234C148.396 358.119 146.724 358.027 144.856 357.918C144.746 355.995 144.643 354.209 144.539 352.43L144.464 352.504H150.327V346.671L150.24 346.763Z" fill="black"/>
<path d="M139.31 330.101H144.539C144.649 328.121 144.735 326.45 144.839 324.624H150.05V335.757H144.85V341.102C146.563 341.188 148.229 341.28 150.241 341.383C150.241 343.226 150.241 344.994 150.241 346.763L150.327 346.671C148.373 346.671 146.419 346.671 144.464 346.671L144.545 346.746V341.475H127.931V346.832C125.654 346.7 123.693 346.591 121.733 346.476L121.791 346.522C121.878 342.939 121.964 339.356 122.056 335.774L121.976 335.848H139.057C139.184 333.581 139.287 331.801 139.385 330.021L139.322 330.101H139.31Z" fill="black"/>
<path d="M273.77 263.277V274.129H257.167V268.737H262.557C262.638 266.86 262.713 265.189 262.799 263.295C264.534 263.18 266.212 263.071 268.12 262.944C268.207 261.233 268.287 259.643 268.38 257.84H284.925V268.416H279.569C279.489 266.739 279.408 265.069 279.321 263.277H273.776H273.77Z" fill="black"/>
<path d="M268.72 374.689H279.241V380.206C277.569 380.293 275.868 380.384 273.971 380.482V385.655H284.89V391.431H279.609C279.494 393.4 279.39 395.151 279.287 396.988H268.777C268.777 389.427 268.777 382.032 268.777 374.632L268.714 374.695L268.72 374.689Z" fill="black"/>
<path d="M228.401 229.265C228.551 229.61 228.833 229.949 228.833 230.293C228.857 239.255 228.851 248.218 228.851 257.398H217.684C217.684 255.572 217.684 253.787 217.684 251.996L217.604 252.087C219.408 251.996 221.207 251.904 223.201 251.806V241.024C221.495 240.932 219.748 240.84 217.88 240.737V235.323H223.259C223.351 233.336 223.438 231.579 223.524 229.765C225.265 229.598 226.845 229.443 228.424 229.294L228.395 229.265H228.401Z" fill="black"/>
<path d="M156.276 385.557H144.891V369.298H156.184C156.184 374.792 156.184 380.218 156.184 385.632L156.27 385.557H156.276Z" fill="black"/>
<path d="M117.104 268.347C115.219 268.496 113.334 268.651 111.132 268.829V274.192H105.574V263.231H111.005V257.794H127.665V263.111H116.712C116.833 265.074 116.937 266.739 117.041 268.404C117.046 268.404 117.104 268.347 117.104 268.347Z" fill="black"/>
<path d="M228.429 229.294C228.579 226.085 228.769 222.881 228.873 219.671C228.942 217.496 228.885 215.32 228.885 213.006H240.011V218.443H234.696V223.874C236.477 223.978 238.247 224.087 240.12 224.196V229.26C236.183 229.26 232.298 229.26 228.406 229.26L228.429 229.288V229.294Z" fill="black"/>
<path d="M240.277 285.267C240.196 283.619 240.115 281.971 240.034 280.323L239.994 280.375C241.764 280.151 243.528 279.927 245.707 279.652C245.788 278.073 245.874 276.339 245.967 274.479H251.189C251.264 276.121 251.345 277.78 251.437 279.801C253.207 279.881 254.948 279.962 256.92 280.054V285.284L256.995 285.204C255.208 285.318 253.426 285.433 251.489 285.56C251.368 287.483 251.253 289.263 251.138 291.043L251.218 290.968C249.477 290.968 247.736 290.968 245.995 290.962L246.053 291.043C245.903 289.2 245.753 287.357 245.603 285.525C243.603 285.41 241.897 285.307 240.196 285.209L240.282 285.273L240.277 285.267Z" fill="black"/>
<path d="M139.299 307.681H150.096V313.394H144.85C144.741 315.334 144.643 317.011 144.516 319.118H133.522L133.597 319.198C133.597 317.252 133.597 315.311 133.597 313.365L133.517 313.446H139.062C139.183 311.172 139.276 309.392 139.374 307.618L139.293 307.687L139.299 307.681Z" fill="black"/>
<path d="M195.224 257.639V262.927H178.696V257.76C180.328 257.674 182 257.588 183.712 257.501C184.023 255.503 184.323 253.586 184.623 251.662V251.685C186.248 251.783 187.885 251.881 189.517 251.978L189.448 251.898C189.54 253.741 189.632 255.584 189.736 257.725H195.299L195.224 257.645V257.639Z" fill="black"/>
<path d="M245.758 302.347V307.595H240.293V313.199H234.649V302.347H245.753H245.758Z" fill="black"/>
<path d="M273.418 336.055H284.988V346.826C282.982 346.717 281.103 346.614 279.217 346.51C279.217 346.51 279.298 346.579 279.292 346.573C279.292 344.874 279.292 343.186 279.292 341.377C277.488 341.297 275.799 341.222 273.994 341.136C273.816 339.328 273.649 337.657 273.481 335.992L273.424 336.049L273.418 336.055Z" fill="black"/>
<path d="M273.424 319.417C277.194 319.227 280.964 319.038 284.948 318.837V324.406H279.581V329.872C277.373 329.872 275.424 329.872 273.476 329.872L273.568 329.969C273.539 326.433 273.51 322.896 273.476 319.365L273.424 319.417Z" fill="black"/>
<path d="M240.115 257.84H256.81V262.99H240.202V257.743L240.115 257.84Z" fill="black"/>
<path d="M212.063 218.695V213.08H223.183V218.609H211.971L212.063 218.695Z" fill="black"/>
<path d="M240.195 257.743H234.649V246.472H240.114C240.114 250.279 240.114 254.051 240.114 257.834L240.195 257.743Z" fill="black"/>
<path d="M144.539 352.43H133.771V346.746H144.545L144.464 346.671C144.464 348.617 144.464 350.558 144.464 352.504L144.539 352.43Z" fill="black"/>
<path d="M273.476 335.998C269.947 335.992 266.419 335.981 262.891 335.975L262.966 336.038C262.845 334.178 262.724 332.318 262.574 329.969C266.437 329.969 270.011 329.969 273.574 329.969C273.574 329.969 273.481 329.872 273.481 329.866C273.464 331.927 273.447 333.988 273.424 336.055L273.476 335.998Z" fill="black"/>
<path d="M121.734 346.476C121.976 348.313 122.212 350.145 122.489 352.24H111.259V346.533C114.827 346.533 118.315 346.533 121.797 346.533L121.739 346.482L121.734 346.476Z" fill="black"/>
<path d="M279.402 296.79H284.971V307.612H279.402L279.489 307.693C279.489 304.03 279.489 300.367 279.489 296.704L279.408 296.79H279.402Z" fill="black"/>
<path d="M234.424 391.471V396.994H223.563V391.557C227.27 391.557 230.891 391.557 234.511 391.557L234.424 391.471Z" fill="black"/>
<path d="M273.62 291.043H279.402C279.402 293.104 279.402 294.947 279.402 296.79L279.483 296.704C277.523 296.738 275.568 296.767 273.608 296.801C273.643 294.855 273.678 292.903 273.712 290.957L273.62 291.043Z" fill="black"/>
<path d="M240.288 330.027H234.69V324.681C236.552 324.486 238.311 324.308 240.069 324.125L240 324.061C240.069 326.077 240.138 328.092 240.207 330.107L240.288 330.027Z" fill="black"/>
<path d="M200.758 218.408H195.432V213H200.758V218.403V218.408Z" fill="black"/>
<path d="M240.069 235.483V240.725H234.696V235.483H240.069Z" fill="black"/>
<path d="M189.516 251.973V246.501C191.557 246.398 193.431 246.3 195.299 246.202L195.218 246.139C195.218 248.086 195.218 250.026 195.218 251.973L195.299 251.892C193.35 251.892 191.396 251.892 189.447 251.892L189.516 251.973Z" fill="black"/>
<path d="M211.937 246.202H217.621C217.621 248.355 217.621 250.221 217.621 252.087C217.621 252.087 217.701 251.995 217.696 252.001C215.776 251.967 213.856 251.932 211.937 251.892L212.023 251.973C212.023 250.026 212.023 248.086 212.023 246.139L211.942 246.202H211.937Z" fill="black"/>
<path d="M240.034 280.324C238.27 280.111 236.512 279.904 234.621 279.68V274.467H240C240 276.448 240 278.406 240 280.369L240.04 280.324H240.034Z" fill="black"/>
<path d="M201.075 374.832H195.293V369.074L195.212 369.16H200.983V374.907L201.069 374.832H201.075Z" fill="black"/>
<path d="M279.691 280.375C279.581 278.498 279.472 276.615 279.351 274.53H284.994V279.657C283.138 279.887 281.386 280.1 279.639 280.323C279.639 280.329 279.685 280.375 279.685 280.375H279.691Z" fill="black"/>
<path d="M240.276 290.951H234.673V285.537C236.523 285.445 238.403 285.353 240.282 285.261L240.196 285.198C240.196 287.144 240.196 289.091 240.196 291.031L240.276 290.945V290.951Z" fill="black"/>
<path d="M133.517 291.037H139.033V296.715C137.206 296.715 135.361 296.715 133.517 296.715L133.597 296.784C133.597 294.843 133.597 292.897 133.597 290.957L133.511 291.037H133.517Z" fill="black"/>
<path d="M217.609 385.609V391.385H212.225V385.965C214.115 385.879 215.908 385.793 217.695 385.707L217.609 385.609Z" fill="black"/>
<path d="M245.995 290.957C245.903 292.742 245.81 294.522 245.712 296.491H240.276V290.951L240.195 291.037C242.15 291.037 244.098 291.037 246.052 291.037L245.995 290.957Z" fill="black"/>
<path d="M184.622 251.663C182.685 251.777 180.754 251.886 178.419 252.024C178.557 249.751 178.673 247.833 178.788 245.915L178.736 245.967C180.391 246.151 182.051 246.34 183.723 246.524C184.028 248.292 184.316 249.992 184.61 251.685L184.622 251.663Z" fill="black"/>
<path d="M211.809 352.366H206.655V346.895H211.809V352.366Z" fill="black"/>
<path d="M133.528 324.343H139.31C139.31 326.547 139.31 328.327 139.31 330.101L139.374 330.021H133.597V324.268L133.522 324.343H133.528Z" fill="black"/>
<path d="M251.478 324.544H256.77V329.843H251.478V324.544Z" fill="black"/>
<path d="M262.891 335.975C262.788 337.571 262.678 339.161 262.557 341.01H257.161V335.711C259.087 335.82 261.024 335.923 262.961 336.032L262.891 335.969V335.975Z" fill="black"/>
<path d="M211.971 218.604V223.874H206.633V218.69C208.495 218.69 210.276 218.69 212.063 218.69L211.971 218.604Z" fill="black"/>
<path d="M139.564 262.565C137.714 262.818 135.863 263.076 133.771 263.363V257.823H138.993C139.172 259.488 139.339 261.055 139.512 262.623L139.564 262.565Z" fill="black"/>
<path d="M178.789 245.915C176.696 245.915 174.609 245.915 172.517 245.915C172.517 245.915 172.568 245.967 172.563 245.961C172.678 244.371 172.799 242.781 172.932 241.035H178.287C178.431 242.654 178.581 244.319 178.731 245.973L178.789 245.915Z" fill="black"/>
<path d="M133.528 319.118C133.528 320.858 133.528 322.603 133.528 324.343L133.603 324.268C131.655 324.291 129.7 324.308 127.752 324.331C127.752 322.592 127.752 320.852 127.752 319.118C129.7 319.147 131.649 319.17 133.598 319.198L133.523 319.118H133.528Z" fill="black"/>
<path d="M240.068 324.125C240.161 322.54 240.259 320.955 240.362 319.193H245.643V324.544C243.683 324.377 241.844 324.222 240.005 324.061L240.068 324.125Z" fill="black"/>
<path d="M166.924 363.304C167.011 365.101 167.092 366.904 167.184 368.913H161.598C161.701 367.018 161.799 365.158 161.897 363.304L161.776 363.413C163.529 363.413 165.281 363.413 167.04 363.413L166.924 363.304Z" fill="black"/>
<path d="M122.051 335.774H116.897C116.897 333.736 116.897 331.87 116.897 330.01L116.805 330.096C118.546 330.067 120.287 330.044 122.028 330.015C122.01 331.956 121.987 333.902 121.97 335.843L122.051 335.768V335.774Z" fill="black"/>
<path d="M251.12 391.471V396.966H246.081C246.081 395.134 246.081 393.303 246.081 391.471L245.972 391.563C247.724 391.563 249.477 391.563 251.223 391.563L251.12 391.471Z" fill="black"/>
<path d="M246.001 363.321V358.269H251.074V363.321H246.001Z" fill="black"/>
<path d="M121.964 319.198C121.964 317.252 121.964 315.306 121.97 313.359C123.924 313.359 125.878 313.359 127.832 313.359C127.832 315.306 127.832 317.246 127.832 319.193C125.878 319.193 123.924 319.193 121.964 319.198Z" fill="black"/>
<path d="M127.832 324.268V330.101H121.97C121.97 328.155 121.97 326.209 121.964 324.262C123.918 324.262 125.872 324.262 127.832 324.262V324.268Z" fill="black"/>
<path d="M127.746 224.259V240.662H111.271V224.259H127.746Z" fill="black"/>
<path d="M273.591 224.293V240.725H257.19V224.293H273.591Z" fill="black"/>
<path d="M127.729 369.327V385.621H111.276V369.327H127.729Z" fill="black"/>
<path d="M268.455 296.704C270.208 296.704 271.96 296.704 273.713 296.704V301.974H268.455V296.704Z" fill="black"/>
<path fill-rule="evenodd" clip-rule="evenodd" d="M217.789 315.996H218.14V314.286L218.755 315.996H219.077L219.692 314.286V315.996H220.043V313.785H219.516L218.931 315.525L218.316 313.785H217.789V315.996ZM215.739 314.109H216.442V315.996H216.823V314.109H217.525V313.785H215.739V314.109ZM207.152 315.997L229 294H218.431L196.583 315.997H207.152ZM208.915 301.696H187.66C181.189 301.696 180.047 302.05 177.266 304.852C174.66 307.476 166.176 315.986 166.176 315.986H175.399L181.862 309.481C183.297 308.036 184.058 307.889 187.074 307.889H202.796L208.915 301.696ZM176.973 303.584C175.07 305.412 166.813 313.788 164.559 316H155C155 316 166.667 303.731 171.088 299.337C175.626 295.003 177.881 294 186.225 294H216.557L209.999 300.605H186.84C180.984 300.605 179.667 301.018 176.973 303.584Z" fill="black"/>
<path d="M4.6857 13V4.81H0.695703V2.5H11.4757V4.81H7.4857V13H4.6857ZM15.4701 3.872H12.8101V2.22H15.4701V3.872ZM12.8101 13V4.6H15.4701V13H12.8101ZM21.2952 6.63C20.7352 6.63 20.3292 6.756 20.0772 7.008C19.8252 7.26 19.6992 7.624 19.6992 8.128V9.57C19.6992 10.13 19.8252 10.508 20.0772 10.69C20.3292 10.886 20.7352 10.97 21.2952 10.97H24.4452V13H21.2112C19.6992 13 18.6212 12.678 17.9632 12.02C17.2912 11.376 16.9692 10.466 16.9692 9.318V8.296C16.9692 7.148 17.2912 6.252 17.9632 5.594C18.6212 4.936 19.6992 4.6 21.2112 4.6H24.4452V6.63H21.2952ZM25.9585 13V2.5H28.6185V7.61H28.9125C29.1645 7.61 29.3605 7.596 29.5005 7.54C29.6405 7.498 29.7665 7.4 29.8925 7.246L31.9645 4.6H35.0165L31.5445 8.73L35.1285 13H31.9645L29.7805 10.242C29.6265 10.06 29.4865 9.948 29.3745 9.906C29.2625 9.878 29.0805 9.85 28.8565 9.85H28.6185V13H25.9585ZM43.9291 9.584H37.9231V9.64C37.9231 10.172 38.0351 10.536 38.2731 10.704C38.4971 10.886 38.9031 10.97 39.4771 10.97H43.7331V13H39.6311C38.8051 13 38.1051 12.916 37.5451 12.734C36.9851 12.552 36.5231 12.3 36.1871 11.964C35.8511 11.628 35.5991 11.236 35.4451 10.76C35.2911 10.298 35.2211 9.78 35.2211 9.22V8.156C35.2211 7.05 35.5431 6.168 36.1871 5.496C36.8311 4.824 37.8811 4.488 39.3511 4.488H39.9111C40.6951 4.488 41.3391 4.586 41.8711 4.768C42.3891 4.964 42.7951 5.23 43.1031 5.566C43.4111 5.902 43.6211 6.308 43.7471 6.784C43.8591 7.26 43.9291 7.792 43.9291 8.366V9.584ZM40.2191 6.364H39.1271C38.6791 6.364 38.3571 6.462 38.1891 6.658C38.0071 6.854 37.9231 7.19 37.9231 7.638V7.82H41.4091V7.638C41.4091 7.19 41.3111 6.854 41.1291 6.658C40.9471 6.462 40.6391 6.364 40.2191 6.364ZM44.7722 6.63V4.6H46.1302V2.892H48.5802V4.6H51.4502V6.63H48.5802V10.032C48.5802 10.396 48.6502 10.634 48.8042 10.774C48.9442 10.914 49.1962 10.97 49.5322 10.97H51.4502V13H49.2242C48.0622 13 47.2362 12.762 46.7322 12.272C46.2282 11.782 45.9902 11.04 45.9902 10.032V6.63H44.7722ZM65.2434 2.5V13H59.2794C58.2434 13 57.4314 12.664 56.8434 11.964C56.2554 11.278 55.9614 10.368 55.9614 9.22V8.38C55.9614 7.246 56.2554 6.336 56.8434 5.636C57.4314 4.95 58.2434 4.6 59.2794 4.6H62.5834V2.5H65.2434ZM60.1894 10.928H62.5834V6.672H60.1894C59.6154 6.672 59.2234 6.812 59.0134 7.064C58.7894 7.33 58.6914 7.736 58.6914 8.282V9.388C58.6914 9.948 58.7894 10.34 59.0134 10.578C59.2234 10.816 59.6154 10.928 60.1894 10.928ZM69.6927 3.872H67.0327V2.22H69.6927V3.872ZM67.0327 13V4.6H69.6927V13H67.0327ZM75.7838 15.1H71.7658V13.112H75.8118C76.5258 13.112 76.9878 13.028 77.2118 12.86C77.4218 12.692 77.5338 12.44 77.5338 12.104V11.922H74.4398C73.4458 11.922 72.6618 11.628 72.0738 11.012C71.4858 10.41 71.1918 9.57 71.1918 8.492V8.17C71.1918 7.064 71.4858 6.196 72.0738 5.552C72.6618 4.922 73.4458 4.6 74.4398 4.6H80.1938V11.852C80.1938 13.028 79.8438 13.854 79.1718 14.358C78.4858 14.862 77.3518 15.1 75.7838 15.1ZM75.2658 10.018H77.5338V6.644H75.2658C74.7618 6.644 74.4118 6.756 74.2158 6.952C74.0198 7.148 73.9218 7.498 73.9218 7.974V8.618C73.9218 9.094 74.0198 9.458 74.2158 9.682C74.4118 9.906 74.7618 10.018 75.2658 10.018ZM84.6498 3.872H81.9898V2.22H84.6498V3.872ZM81.9898 13V4.6H84.6498V13H81.9898ZM85.9109 6.63V4.6H87.2689V2.892H89.7189V4.6H94.2689V6.63H89.7189V10.032C89.7189 10.396 89.7889 10.634 89.9429 10.774C90.0829 10.914 90.3349 10.97 90.6709 10.97H92.0289V13H90.3629C89.2009 13 88.3749 12.762 87.8709 12.272C87.3669 11.782 87.1289 11.04 87.1289 10.032V6.63H85.9109ZM101.573 8.45V13H95.8189C94.9789 13 94.3349 12.818 93.8869 12.454C93.4389 12.09 93.2149 11.614 93.2149 11.026C93.2149 10.382 93.4249 9.878 93.8729 9.486C94.3069 9.094 94.8389 8.688 95.4549 8.268L97.8349 6.63H93.4109V4.6H97.0929C98.6889 4.6 99.8369 4.95 100.537 5.622C101.223 6.294 101.573 7.246 101.573 8.45ZM96.5749 10.97H99.0529V8.184L96.5189 10.158C96.3509 10.284 96.2389 10.382 96.1829 10.438C96.1129 10.494 96.0849 10.578 96.0849 10.662C96.0849 10.774 96.1129 10.844 96.1969 10.9C96.2669 10.956 96.3929 10.97 96.5749 10.97ZM103.359 2.5H106.019V13H103.359V2.5Z" fill="white"/>
<path d="M123 9H377.5C381.366 9 384.5 12.134 384.5 16V504.5" stroke="#03593B"/>
</svg>
