<svg width="73" height="84" viewBox="0 0 73 84" fill="none" xmlns="http://www.w3.org/2000/svg">
<g filter="url(#filter0_b_1630_6170)">
<path fill-rule="evenodd" clip-rule="evenodd" d="M36.5 0.386711C20.4837 0.38671 7.5 13.3705 7.5 29.3867C7.5 45.403 20.4837 58.3867 36.5 58.3867C52.5163 58.3867 65.5 45.403 65.5 29.3867C65.5 13.3705 52.5163 0.386713 36.5 0.386711ZM36.4987 6.05306C23.6121 6.05306 13.1654 16.4997 13.1654 29.3864C13.1654 42.273 23.6121 52.7197 36.4987 52.7197C49.3853 52.7197 59.832 42.273 59.832 29.3864C59.832 16.4998 49.3853 6.05306 36.4987 6.05306Z" fill="#0D0D0D" fill-opacity="0.5"/>
<path fill-rule="evenodd" clip-rule="evenodd" d="M36.5 0.386711C20.4837 0.38671 7.5 13.3705 7.5 29.3867C7.5 45.403 20.4837 58.3867 36.5 58.3867C52.5163 58.3867 65.5 45.403 65.5 29.3867C65.5 13.3705 52.5163 0.386713 36.5 0.386711ZM36.4987 6.05306C23.6121 6.05306 13.1654 16.4997 13.1654 29.3864C13.1654 42.273 23.6121 52.7197 36.4987 52.7197C49.3853 52.7197 59.832 42.273 59.832 29.3864C59.832 16.4998 49.3853 6.05306 36.4987 6.05306Z" fill="#8C8C8C" style="mix-blend-mode:color-dodge"/>
</g>
<path fill-rule="evenodd" clip-rule="evenodd" d="M7.5 29.3868C7.5 13.3705 20.4837 0.386776 36.5 0.386777C47.1645 0.386778 56.4845 6.14329 61.5223 14.7186L61.5137 14.7236C61.5486 14.7758 61.582 14.8295 61.6139 14.8846C62.3967 16.2406 61.9321 17.9745 60.5762 18.7573C59.2202 19.5402 57.4864 19.0756 56.7035 17.7196C56.6746 17.6696 56.6474 17.619 56.6218 17.5679C52.5662 10.6774 45.0725 6.05313 36.4987 6.05312C23.6121 6.05312 13.1654 16.4998 13.1654 29.3865C13.1654 42.2731 23.6121 52.7198 36.4987 52.7198L36.5 52.7198L36.5 52.7215C36.5546 52.7184 36.6097 52.7168 36.6651 52.7168C38.2308 52.7168 39.5001 53.9861 39.5001 55.5518C39.5001 57.1175 38.2308 58.3868 36.6651 58.3868C36.6097 58.3868 36.5546 58.3852 36.5 58.382L36.5 58.3868C20.4837 58.3868 7.5 45.403 7.5 29.3868ZM65.5 29.3933L65.5 29.3868L65.5 29.3803L65.5 29.3933Z" fill="white"/>
<path d="M43.5659 20.9333C42.7686 16.9467 40.0299 14 36.7366 14C33.4432 14 30.7046 16.9467 29.9072 20.9333H43.5659Z" stroke="#E10600" stroke-width="2" stroke-miterlimit="10"/>
<path d="M48.7667 22.6667H24.5V40H48.7667V22.6667Z" fill="#E10600" stroke="#E10600" stroke-width="2" stroke-linejoin="round"/>
<path fill-rule="evenodd" clip-rule="evenodd" d="M41.2559 33.3137H41.3206V33.0057L41.4337 33.3137H41.493L41.6062 33.0057V33.3137H41.6708V32.9154H41.5738L41.4661 33.2287L41.3529 32.9154H41.2559V33.3137ZM40.8787 32.9738H41.008V33.3137H41.0781V32.9738H41.2074V32.9154H40.8787V32.9738ZM39.2984 33.3138L43.3192 29.3524H41.3741L37.3532 33.3138H39.2984ZM39.6228 30.7384H35.7109C34.5201 30.7384 34.3099 30.8022 33.798 31.3066C33.3185 31.7793 31.7571 33.3118 31.7571 33.3118H33.4544L34.644 32.1404C34.9081 31.8802 35.0481 31.8536 35.6031 31.8536H38.4967L39.6228 30.7384ZM33.7442 31.0783C33.3939 31.4075 31.8743 32.916 31.4594 33.3143H29.7002C29.7002 33.3143 31.8475 31.1049 32.6611 30.3136C33.4963 29.533 33.9112 29.3524 35.4469 29.3524H41.0292L39.8222 30.5419H35.56C34.4824 30.5419 34.2399 30.6163 33.7442 31.0783Z" fill="white"/>
<path d="M3.57052 80.3867V70.7827H11.0185V72.1267H5.13852V74.8007H10.4025V76.1447H5.13852V79.0427H11.1025V80.3867H3.57052ZM12.8081 80.3867V73.0227H14.0121L14.1381 74.0727H14.2361C14.4135 73.8021 14.6235 73.5781 14.8661 73.4007C15.1088 73.2234 15.3748 73.0881 15.6641 72.9947C15.9628 72.9014 16.2895 72.8547 16.6441 72.8547C17.1108 72.8547 17.5215 72.9387 17.8761 73.1067C18.2308 73.2654 18.5061 73.5267 18.7021 73.8907C18.9075 74.2547 19.0101 74.7447 19.0101 75.3607V80.3867H17.5541V75.5847C17.5541 75.3047 17.5168 75.0714 17.4421 74.8847C17.3768 74.6981 17.2788 74.5487 17.1481 74.4367C17.0175 74.3247 16.8635 74.2454 16.6861 74.1987C16.5088 74.1521 16.3128 74.1287 16.0981 74.1287C15.7621 74.1287 15.4541 74.2127 15.1741 74.3807C14.9035 74.5394 14.6841 74.7634 14.5161 75.0527C14.3481 75.3421 14.2641 75.6827 14.2641 76.0747V80.3867H12.8081ZM25.5386 80.5547C25.1186 80.5547 24.7873 80.4754 24.5446 80.3167C24.3113 80.1487 24.1433 79.9387 24.0406 79.6867C23.9473 79.4254 23.9006 79.1501 23.9006 78.8607V74.2267H22.9766V73.0227H23.9286L24.1946 70.9647H25.3566V73.0227H26.6866V74.2267H25.3566V78.6927C25.3566 78.9074 25.4033 79.0707 25.4966 79.1827C25.5899 79.2947 25.7439 79.3507 25.9586 79.3507H26.6866V80.3307C26.5933 80.3681 26.4766 80.4007 26.3366 80.4287C26.2059 80.4661 26.0706 80.4941 25.9306 80.5127C25.7906 80.5407 25.6599 80.5547 25.5386 80.5547ZM27.9702 80.3867V73.0227H29.1742L29.3002 74.2127H29.3842C29.4682 73.9794 29.5756 73.7601 29.7062 73.5547C29.8462 73.3494 30.0236 73.1814 30.2382 73.0507C30.4622 72.9201 30.7329 72.8547 31.0502 72.8547C31.1996 72.8547 31.3302 72.8687 31.4422 72.8967C31.5636 72.9247 31.6569 72.9481 31.7222 72.9667V74.3387H31.2322C30.9336 74.3387 30.6676 74.3854 30.4342 74.4787C30.2102 74.5721 30.0189 74.7121 29.8602 74.8987C29.7109 75.0761 29.5989 75.2954 29.5242 75.5567C29.4589 75.8181 29.4262 76.1121 29.4262 76.4387V80.3867H27.9702ZM34.5354 80.5547C34.302 80.5547 34.05 80.5267 33.7794 80.4707C33.5087 80.4147 33.252 80.3121 33.0094 80.1627C32.776 80.0134 32.5847 79.8081 32.4354 79.5467C32.286 79.2761 32.2114 78.9261 32.2114 78.4967C32.2114 77.9927 32.328 77.5774 32.5614 77.2507C32.7947 76.9241 33.1214 76.6674 33.5414 76.4807C33.9614 76.2941 34.4607 76.1634 35.0394 76.0887C35.6274 76.0141 36.2667 75.9767 36.9574 75.9767V75.2487C36.9574 75.0061 36.9154 74.7914 36.8314 74.6047C36.7567 74.4181 36.612 74.2734 36.3974 74.1707C36.192 74.0681 35.8934 74.0167 35.5014 74.0167C35.1094 74.0167 34.8014 74.0681 34.5774 74.1707C34.3627 74.2641 34.2087 74.3854 34.1154 74.5347C34.0314 74.6747 33.9894 74.8287 33.9894 74.9967V75.2067H32.5894C32.58 75.1601 32.5754 75.1134 32.5754 75.0667C32.5754 75.0201 32.5754 74.9641 32.5754 74.8987C32.5754 74.4601 32.6967 74.0914 32.9394 73.7927C33.1914 73.4847 33.5414 73.2514 33.9894 73.0927C34.4374 72.9341 34.9554 72.8547 35.5434 72.8547C36.178 72.8547 36.7054 72.9481 37.1254 73.1347C37.5547 73.3121 37.8767 73.5687 38.0914 73.9047C38.306 74.2407 38.4134 74.6467 38.4134 75.1227V78.8607C38.4134 79.0381 38.4554 79.1641 38.5394 79.2387C38.6327 79.3134 38.74 79.3507 38.8614 79.3507H39.3654V80.3307C39.2534 80.3774 39.1134 80.4241 38.9454 80.4707C38.7774 80.5174 38.5814 80.5407 38.3574 80.5407C38.1054 80.5407 37.8907 80.4941 37.7134 80.4007C37.5454 80.3167 37.4054 80.1954 37.2934 80.0367C37.1907 79.8687 37.1207 79.6821 37.0834 79.4767H36.9994C36.8314 79.6914 36.626 79.8827 36.3834 80.0507C36.15 80.2094 35.8794 80.3307 35.5714 80.4147C35.2634 80.5081 34.918 80.5547 34.5354 80.5547ZM34.9414 79.3507C35.2307 79.3507 35.4967 79.3087 35.7394 79.2247C35.9914 79.1314 36.206 79.0054 36.3834 78.8467C36.5607 78.6787 36.7007 78.4827 36.8034 78.2587C36.906 78.0254 36.9574 77.7734 36.9574 77.5027V77.0127C36.3134 77.0127 35.7487 77.0501 35.2634 77.1247C34.778 77.1994 34.4 77.3394 34.1294 77.5447C33.8587 77.7407 33.7234 78.0161 33.7234 78.3707C33.7234 78.5854 33.77 78.7674 33.8634 78.9167C33.9567 79.0567 34.0967 79.1641 34.2834 79.2387C34.47 79.3134 34.6894 79.3507 34.9414 79.3507ZM40.3706 80.3867V73.0227H41.5746L41.7006 74.0727H41.7986C41.976 73.8021 42.186 73.5781 42.4286 73.4007C42.6713 73.2234 42.9373 73.0881 43.2266 72.9947C43.5253 72.9014 43.852 72.8547 44.2066 72.8547C44.6733 72.8547 45.084 72.9387 45.4386 73.1067C45.7933 73.2654 46.0686 73.5267 46.2646 73.8907C46.47 74.2547 46.5726 74.7447 46.5726 75.3607V80.3867H45.1166V75.5847C45.1166 75.3047 45.0793 75.0714 45.0046 74.8847C44.9393 74.6981 44.8413 74.5487 44.7106 74.4367C44.58 74.3247 44.426 74.2454 44.2486 74.1987C44.0713 74.1521 43.8753 74.1287 43.6606 74.1287C43.3246 74.1287 43.0166 74.2127 42.7366 74.3807C42.466 74.5394 42.2466 74.7634 42.0786 75.0527C41.9106 75.3421 41.8266 75.6827 41.8266 76.0747V80.3867H40.3706ZM51.112 80.5547C50.5987 80.5547 50.146 80.4987 49.754 80.3867C49.362 80.2747 49.0353 80.1207 48.774 79.9247C48.5127 79.7287 48.312 79.4954 48.172 79.2247C48.0413 78.9447 47.976 78.6367 47.976 78.3007C47.976 78.2541 47.976 78.2121 47.976 78.1747C47.9853 78.1374 47.99 78.1047 47.99 78.0767H49.432C49.432 78.1047 49.432 78.1327 49.432 78.1607C49.432 78.1794 49.432 78.2027 49.432 78.2307C49.432 78.5201 49.5113 78.7534 49.67 78.9307C49.8287 79.0987 50.0387 79.2201 50.3 79.2947C50.5707 79.3601 50.8647 79.3927 51.182 79.3927C51.462 79.3927 51.7187 79.3601 51.952 79.2947C52.1947 79.2201 52.3907 79.1127 52.54 78.9727C52.6987 78.8327 52.778 78.6554 52.778 78.4407C52.778 78.1607 52.68 77.9461 52.484 77.7967C52.288 77.6474 52.0313 77.5307 51.714 77.4467C51.3967 77.3534 51.0653 77.2554 50.72 77.1527C50.412 77.0687 50.104 76.9801 49.796 76.8867C49.4973 76.7841 49.2267 76.6534 48.984 76.4947C48.7413 76.3361 48.5453 76.1354 48.396 75.8927C48.2467 75.6501 48.172 75.3467 48.172 74.9827C48.172 74.6374 48.2467 74.3341 48.396 74.0727C48.5453 73.8114 48.7507 73.5921 49.012 73.4147C49.2827 73.2374 49.6 73.1021 49.964 73.0087C50.3373 72.9154 50.7433 72.8687 51.182 72.8687C51.6393 72.8687 52.0453 72.9201 52.4 73.0227C52.7547 73.1161 53.0533 73.2514 53.296 73.4287C53.548 73.6061 53.7393 73.8207 53.87 74.0727C54.0007 74.3154 54.066 74.5767 54.066 74.8567C54.066 74.9127 54.0613 74.9734 54.052 75.0387C54.052 75.0947 54.052 75.1321 54.052 75.1507H52.624V75.0247C52.624 74.8381 52.5727 74.6701 52.47 74.5207C52.3673 74.3714 52.204 74.2501 51.98 74.1567C51.7653 74.0634 51.476 74.0167 51.112 74.0167C50.8693 74.0167 50.6547 74.0401 50.468 74.0867C50.2813 74.1241 50.1273 74.1801 50.006 74.2547C49.8847 74.3294 49.7913 74.4181 49.726 74.5207C49.67 74.6234 49.642 74.7401 49.642 74.8707C49.642 75.0854 49.7167 75.2534 49.866 75.3747C50.0247 75.4867 50.23 75.5847 50.482 75.6687C50.734 75.7434 51.0047 75.8274 51.294 75.9207C51.63 76.0141 51.9707 76.1121 52.316 76.2147C52.6613 76.3081 52.9787 76.4294 53.268 76.5787C53.5667 76.7281 53.8047 76.9334 53.982 77.1947C54.1687 77.4561 54.262 77.8061 54.262 78.2447C54.262 78.6461 54.1827 78.9961 54.024 79.2947C53.8653 79.5934 53.6413 79.8361 53.352 80.0227C53.072 80.2001 52.7407 80.3307 52.358 80.4147C51.9753 80.5081 51.56 80.5547 51.112 80.5547ZM55.7378 71.7487V70.2647H57.1938V71.7487H55.7378ZM55.7378 80.3867V73.0227H57.1938V80.3867H55.7378ZM60.9077 80.5547C60.4877 80.5547 60.1564 80.4754 59.9137 80.3167C59.6804 80.1487 59.5124 79.9387 59.4097 79.6867C59.3164 79.4254 59.2697 79.1501 59.2697 78.8607V74.2267H58.3457V73.0227H59.2977L59.5637 70.9647H60.7257V73.0227H62.0557V74.2267H60.7257V78.6927C60.7257 78.9074 60.7724 79.0707 60.8657 79.1827C60.9591 79.2947 61.1131 79.3507 61.3277 79.3507H62.0557V80.3307C61.9624 80.3681 61.8457 80.4007 61.7057 80.4287C61.5751 80.4661 61.4397 80.4941 61.2997 80.5127C61.1597 80.5407 61.0291 80.5547 60.9077 80.5547ZM66.4754 80.5547C65.71 80.5547 65.0614 80.4194 64.5294 80.1487C64.0067 79.8687 63.61 79.4441 63.3394 78.8747C63.078 78.3054 62.9474 77.5821 62.9474 76.7047C62.9474 75.8181 63.078 75.0947 63.3394 74.5347C63.61 73.9654 64.0067 73.5454 64.5294 73.2747C65.0614 72.9947 65.71 72.8547 66.4754 72.8547C67.2594 72.8547 67.9127 72.9947 68.4354 73.2747C68.958 73.5454 69.35 73.9654 69.6114 74.5347C69.882 75.0947 70.0174 75.8181 70.0174 76.7047C70.0174 77.5821 69.882 78.3054 69.6114 78.8747C69.35 79.4441 68.958 79.8687 68.4354 80.1487C67.9127 80.4194 67.2594 80.5547 66.4754 80.5547ZM66.4754 79.3507C66.942 79.3507 67.3247 79.2621 67.6234 79.0847C67.922 78.8981 68.1414 78.6181 68.2814 78.2447C68.4307 77.8714 68.5054 77.4001 68.5054 76.8307V76.5787C68.5054 76.0094 68.4307 75.5381 68.2814 75.1647C68.1414 74.7914 67.922 74.5161 67.6234 74.3387C67.3247 74.1521 66.942 74.0587 66.4754 74.0587C66.018 74.0587 65.64 74.1521 65.3414 74.3387C65.0427 74.5161 64.8187 74.7914 64.6694 75.1647C64.5294 75.5381 64.4594 76.0094 64.4594 76.5787V76.8307C64.4594 77.4001 64.5294 77.8714 64.6694 78.2447C64.8187 78.6181 65.0427 78.8981 65.3414 79.0847C65.64 79.2621 66.018 79.3507 66.4754 79.3507Z" fill="white"/>
<defs>
<filter id="filter0_b_1630_6170" x="-42.5" y="-49.6133" width="158" height="158" filterUnits="userSpaceOnUse" color-interpolation-filters="sRGB">
<feFlood flood-opacity="0" result="BackgroundImageFix"/>
<feGaussianBlur in="BackgroundImageFix" stdDeviation="25"/>
<feComposite in2="SourceAlpha" operator="in" result="effect1_backgroundBlur_1630_6170"/>
<feBlend mode="normal" in="SourceGraphic" in2="effect1_backgroundBlur_1630_6170" result="shape"/>
</filter>
</defs>
</svg>
