<svg width="341" height="64" viewBox="0 0 341 64" fill="none" xmlns="http://www.w3.org/2000/svg">
<rect width="341" height="64" rx="7.5" fill="#D9D9D9" fill-opacity="0.6"/>
<path d="M107.076 6.41328L108.99 10.1549C109.391 11.1588 110.504 11.7577 112.004 11.7696C112.413 11.8325 112.985 12.5343 113.317 13.1377L112.989 49.789V49.8105V49.832C113.009 50.77 113.189 51.4674 113.539 51.9626C113.884 52.4513 114.407 52.7459 114.942 52.7541L116.555 52.7866L116.634 52.7881L116.712 52.7807C116.735 52.7785 116.756 52.7777 116.776 52.7777C116.822 52.7777 116.858 52.7822 116.892 52.7925L115.126 56.8762L108.015 41.7395L107.677 41.0206L106.885 40.9362L102.041 40.4209C98.1759 37.3715 95.9878 36.9066 95.0169 36.9066C94.9619 36.9066 94.9113 36.9081 94.8644 36.9111C94.8131 36.9081 94.7603 36.9066 94.7074 36.9066C94.0044 36.9066 92.6853 37.1258 89.3619 39.0217C88.1306 39.7243 87.0414 40.4187 86.502 40.7704C86.2573 40.7645 86.078 40.7408 85.9552 40.7156C85.0498 39.2816 83.9227 38.1422 82.6735 37.4019C81.597 36.7637 80.7786 36.6231 80.6261 36.6016L80.5383 36.589L80.449 36.5875L76.4732 36.5239C76.0997 36.4572 75.6912 36.4247 75.2285 36.4247C68.4158 36.4247 51.2216 44.1455 50.4933 44.4742L50.3728 44.529L50.2641 44.6045C50.029 44.7689 49.7158 44.8518 49.3334 44.8518C49.2404 44.8518 49.1534 44.8466 49.0745 44.8392L44.0482 38.1082L43.9983 38.0415L43.941 37.9816C43.5237 37.5418 42.9776 37.2997 42.4025 37.2997C41.3036 37.2997 40.329 38.1467 39.858 39.5096C39.6713 40.05 39.3916 40.8052 39.1684 41.3982L37.4275 41.3567L37.173 41.3508L36.9327 41.433L33.9575 42.4531C34.0587 41.8705 34.3712 40.7689 35.284 38.8144C35.8807 37.5381 36.5146 36.3714 36.8442 35.7821L106.336 6.63168L106.398 6.60577L106.456 6.57394C106.651 6.46955 106.88 6.42735 107.075 6.41254M107.256 5C106.835 5 106.288 5.06737 105.787 5.33611L35.851 34.6723C35.851 34.6723 30.4028 44.016 33.4003 44.016C33.6041 44.016 33.8459 43.973 34.1324 43.8812L37.3932 42.7633L40.1363 42.8292C40.1363 42.8292 40.8304 41.0206 41.1942 39.9679C41.4561 39.2098 41.9412 38.7071 42.4017 38.7071C42.5803 38.7071 42.7559 38.7826 42.9128 38.9484L48.2673 46.1178C48.2673 46.1178 48.7226 46.2592 49.3334 46.2592C49.8624 46.2592 50.5089 46.1526 51.0766 45.7557C51.0766 45.7557 68.6427 37.8313 75.2285 37.8313C75.6399 37.8313 76.0089 37.8624 76.3273 37.9283L80.4259 37.9942C80.4259 37.9942 82.9711 38.3562 84.9873 41.8424C84.9873 41.8424 85.4099 42.1785 86.6189 42.1785C86.7193 42.1785 86.8257 42.1763 86.9373 42.1711C86.9373 42.1711 92.689 38.314 94.7074 38.314C94.7647 38.314 94.8183 38.3169 94.8689 38.3236C94.8689 38.3236 94.9165 38.3147 95.0162 38.3147C95.5414 38.3147 97.5056 38.5701 101.479 41.7772L106.734 42.3362L114.336 58.5175C114.336 58.5175 114.718 58.7514 115.197 58.7514C115.438 58.7514 115.702 58.693 115.955 58.5175L118.5 52.6304C118.5 52.6304 118.078 51.3719 116.775 51.3719C116.714 51.3719 116.65 51.3748 116.584 51.3807L114.964 51.3482C114.964 51.3482 114.435 51.3482 114.402 49.8024L114.732 12.8142C114.732 12.8142 113.692 10.4792 112.072 10.3637C112.072 10.3637 112.063 10.3637 112.047 10.3637C111.85 10.3637 110.532 10.3355 110.287 9.59077L107.973 5.06737C107.973 5.06737 107.677 5 107.256 5Z" fill="url(#paint0_linear_1490_5700)"/>
<path d="M154.772 40.3757H144.164C143.252 40.3757 142.46 40.2797 141.788 40.0637C141.116 39.8477 140.588 39.5597 140.156 39.1997C139.724 38.8397 139.412 38.4077 139.22 37.9277C139.004 37.4477 138.908 36.9437 138.908 36.4157C138.908 35.3837 139.22 34.4717 139.844 33.6557C140.468 32.8637 141.452 32.0957 142.748 31.3517L149.756 27.4637C149.9 27.3917 150.02 27.2957 150.092 27.1997C150.14 27.1037 150.188 27.0077 150.188 26.8637C150.188 26.7197 150.116 26.5757 149.996 26.4797C149.876 26.3837 149.684 26.3357 149.444 26.3357H139.532V22.3757H149.42C151.484 22.3757 152.948 22.6877 153.812 23.3117C154.676 23.9357 155.108 24.8717 155.108 26.1677C155.108 27.0077 154.844 27.8237 154.316 28.6397C153.788 29.4557 152.9 30.2237 151.652 30.9437L144.356 35.0957C144.164 35.2157 144.02 35.3117 143.924 35.4077C143.828 35.5037 143.78 35.6477 143.78 35.8397C143.78 36.0557 143.852 36.1997 143.996 36.2957C144.14 36.3917 144.332 36.4157 144.596 36.4157H154.772V40.3757ZM171.841 32.3117V34.0397C171.841 36.0557 171.217 37.6397 170.017 38.8397C168.817 40.0397 167.089 40.6157 164.857 40.6157H163.177C160.921 40.6157 159.193 40.0397 157.993 38.8397C156.769 37.6397 156.169 36.0557 156.169 34.0397V32.3117C156.169 30.3197 156.769 28.7357 157.993 27.5357C159.193 26.3357 160.921 25.7357 163.177 25.7357H164.857C167.089 25.7357 168.817 26.3357 170.017 27.5357C171.217 28.7357 171.841 30.3197 171.841 32.3117ZM167.161 31.9277C167.161 31.0157 166.969 30.3197 166.633 29.8637C166.297 29.4077 165.673 29.1677 164.809 29.1677H163.225C162.337 29.1677 161.713 29.4077 161.377 29.8637C161.017 30.3197 160.849 31.0157 160.849 31.9277V34.3997C160.849 35.3597 161.017 36.0557 161.377 36.5117C161.713 36.9677 162.337 37.1837 163.225 37.1837H164.809C165.673 37.1837 166.297 36.9677 166.633 36.5117C166.969 36.0557 167.161 35.3597 167.161 34.3997V31.9277ZM174.111 40.3757V25.9757H183.039C185.127 25.9757 186.639 26.5037 187.599 27.5597C188.535 28.6157 189.015 30.0557 189.015 31.8557V40.3757H184.455V31.7357C184.455 31.0157 184.311 30.4877 184.071 30.1757C183.831 29.8637 183.351 29.6957 182.655 29.6957H178.671V40.3757H174.111ZM205.462 32.5757V40.3757H195.598C194.158 40.3757 193.054 40.0637 192.286 39.4397C191.518 38.8157 191.134 37.9997 191.134 36.9917C191.134 35.8877 191.494 35.0237 192.262 34.3517C193.006 33.6797 193.918 32.9837 194.974 32.2637L199.054 29.4557H191.47V25.9757H197.782C200.518 25.9757 202.486 26.5757 203.686 27.7277C204.862 28.8797 205.462 30.5117 205.462 32.5757ZM196.894 36.8957H201.142V32.1197L196.798 35.5037C196.51 35.7197 196.318 35.8877 196.222 35.9837C196.102 36.0797 196.054 36.2237 196.054 36.3677C196.054 36.5597 196.102 36.6797 196.246 36.7757C196.366 36.8717 196.582 36.8957 196.894 36.8957ZM222.929 22.3757C224.177 22.3757 225.281 22.4477 226.241 22.5917C227.201 22.7357 227.993 22.9517 228.617 23.2877C229.241 23.6237 229.721 24.0797 230.057 24.6557C230.393 25.2317 230.561 25.9757 230.561 26.8637V27.6557C230.561 28.3997 230.345 29.0957 229.937 29.7197C229.505 30.3437 228.761 30.8477 227.657 31.1837C228.857 31.5437 229.721 32.0477 230.249 32.6957C230.753 33.3437 231.017 34.0397 231.017 34.8077V35.6477C231.017 37.3517 230.417 38.5757 229.241 39.2957C228.041 40.0157 226.049 40.3757 223.217 40.3757H214.169V22.3757H222.929ZM223.265 25.7837H218.969V29.4797H223.145C224.153 29.4797 224.825 29.3597 225.161 29.1197C225.473 28.8797 225.641 28.4957 225.641 27.9437V27.3917C225.641 26.8637 225.473 26.4557 225.161 26.1917C224.849 25.9277 224.225 25.7837 223.265 25.7837ZM223.721 33.0317H218.969V36.9677H223.601C224.657 36.9677 225.329 36.8477 225.641 36.5597C225.929 36.2957 226.097 35.8877 226.097 35.3357V34.7597C226.097 34.2317 225.929 33.7997 225.641 33.4877C225.353 33.1997 224.705 33.0317 223.721 33.0317ZM233.126 31.3277C233.126 30.6557 233.222 29.9837 233.438 29.3357C233.63 28.7117 233.966 28.1357 234.422 27.6317C234.854 27.1517 235.43 26.7437 236.15 26.4317C236.87 26.1437 237.71 25.9757 238.718 25.9757H242.942V29.4557H239.75C238.934 29.4557 238.382 29.5997 238.094 29.8877C237.806 30.1757 237.686 30.6797 237.686 31.3757V40.3757H233.126V31.3277ZM259.404 32.3117V34.0397C259.404 36.0557 258.78 37.6397 257.58 38.8397C256.38 40.0397 254.652 40.6157 252.42 40.6157H250.74C248.484 40.6157 246.756 40.0397 245.556 38.8397C244.332 37.6397 243.732 36.0557 243.732 34.0397V32.3117C243.732 30.3197 244.332 28.7357 245.556 27.5357C246.756 26.3357 248.484 25.7357 250.74 25.7357H252.42C254.652 25.7357 256.38 26.3357 257.58 27.5357C258.78 28.7357 259.404 30.3197 259.404 32.3117ZM254.724 31.9277C254.724 31.0157 254.532 30.3197 254.196 29.8637C253.86 29.4077 253.236 29.1677 252.372 29.1677H250.788C249.9 29.1677 249.276 29.4077 248.94 29.8637C248.58 30.3197 248.412 31.0157 248.412 31.9277V34.3997C248.412 35.3597 248.58 36.0557 248.94 36.5117C249.276 36.9677 249.9 37.1837 250.788 37.1837H252.372C253.236 37.1837 253.86 36.9677 254.196 36.5117C254.532 36.0557 254.724 35.3597 254.724 34.3997V31.9277ZM261.673 40.3757V25.9757H270.601C272.689 25.9757 274.201 26.5037 275.161 27.5597C276.097 28.6157 276.577 30.0557 276.577 31.8557V40.3757H272.017V31.7357C272.017 31.0157 271.873 30.4877 271.633 30.1757C271.393 29.8637 270.913 29.6957 270.217 29.6957H266.233V40.3757H261.673ZM286.281 29.4557C285.321 29.4557 284.625 29.6717 284.193 30.1037C283.761 30.5357 283.545 31.1597 283.545 32.0237V34.4957C283.545 35.4557 283.761 36.1037 284.193 36.4157C284.625 36.7517 285.321 36.8957 286.281 36.8957H291.681V40.3757H286.137C283.545 40.3757 281.697 39.8237 280.569 38.6957C279.417 37.5917 278.865 36.0317 278.865 34.0637V32.3117C278.865 30.3437 279.417 28.8077 280.569 27.6797C281.697 26.5517 283.545 25.9757 286.137 25.9757H291.681V29.4557H286.281ZM308.23 34.5197H297.934V34.6157C297.934 35.5277 298.126 36.1517 298.534 36.4397C298.918 36.7517 299.614 36.8957 300.598 36.8957H307.894V40.3757H300.862C299.446 40.3757 298.246 40.2317 297.286 39.9197C296.326 39.6077 295.534 39.1757 294.958 38.5997C294.382 38.0237 293.95 37.3517 293.686 36.5357C293.422 35.7437 293.302 34.8557 293.302 33.8957V32.0717C293.302 30.1757 293.854 28.6637 294.958 27.5117C296.062 26.3597 297.862 25.7837 300.382 25.7837H301.342C302.686 25.7837 303.79 25.9517 304.702 26.2637C305.59 26.5997 306.286 27.0557 306.814 27.6317C307.342 28.2077 307.702 28.9037 307.918 29.7197C308.11 30.5357 308.23 31.4477 308.23 32.4317V34.5197ZM301.87 28.9997H299.998C299.23 28.9997 298.678 29.1677 298.39 29.5037C298.078 29.8397 297.934 30.4157 297.934 31.1837V31.4957H303.91V31.1837C303.91 30.4157 303.742 29.8397 303.43 29.5037C303.118 29.1677 302.59 28.9997 301.87 28.9997Z" fill="white"/>
<defs>
<linearGradient id="paint0_linear_1490_5700" x1="32.5001" y1="31.8753" x2="118.5" y2="31.8753" gradientUnits="userSpaceOnUse">
<stop stop-color="white"/>
<stop offset="0.99" stop-color="#5B4306"/>
</linearGradient>
</defs>
</svg>
