<svg width="341" height="64" viewBox="0 0 341 64" fill="none" xmlns="http://www.w3.org/2000/svg">
<rect width="341" height="64" rx="7.5" fill="#D9D9D9" fill-opacity="0.6"/>
<path d="M130.576 6.42026L132.49 10.1796C132.891 11.1885 134.004 11.7903 135.504 11.8022C135.914 11.8655 136.485 12.5708 136.817 13.1771L136.489 50.0095V50.0311V50.0527C136.509 50.9953 136.69 51.6961 137.039 52.1938C137.384 52.6849 137.907 52.981 138.442 52.9892L140.055 53.0219L140.134 53.0234L140.212 53.0159C140.235 53.0137 140.256 53.013 140.276 53.013C140.322 53.013 140.358 53.0174 140.392 53.0278L138.626 57.1317L131.515 41.9202L131.177 41.1978L130.385 41.1129L125.541 40.5951C121.676 37.5307 119.488 37.0634 118.516 37.0634C118.461 37.0634 118.411 37.0649 118.364 37.0679C118.312 37.0649 118.26 37.0634 118.207 37.0634C117.504 37.0634 116.185 37.2837 112.861 39.189C111.63 39.895 110.541 40.5929 110.001 40.9463C109.757 40.9403 109.577 40.9165 109.455 40.8912C108.549 39.4501 107.422 38.3052 106.173 37.5612C105.096 36.9199 104.278 36.7785 104.125 36.7569L104.038 36.7443L103.948 36.7428L99.9724 36.6788C99.599 36.6119 99.1905 36.5791 98.7278 36.5791C91.9151 36.5791 74.7209 44.3381 73.9926 44.6684L73.872 44.7235L73.7634 44.7994C73.5283 44.9646 73.2151 45.0479 72.8327 45.0479C72.7397 45.0479 72.6526 45.0427 72.5738 45.0352L67.5474 38.2709L67.4976 38.204L67.4403 38.1437C67.0229 37.7018 66.4768 37.4585 65.9017 37.4585C64.8029 37.4585 63.8283 38.3096 63.3573 39.6793C63.1706 40.2224 62.8908 40.9813 62.6676 41.5772L60.9267 41.5355L60.6723 41.5296L60.432 41.6122L57.4568 42.6374C57.558 42.0519 57.8704 40.9448 58.7833 38.9807C59.38 37.6981 60.0138 36.5255 60.3434 35.9333L129.836 6.63974L129.898 6.6137L129.957 6.58171C130.152 6.47681 130.381 6.4344 130.576 6.41952M130.756 5C130.335 5 129.788 5.0677 129.287 5.33777L59.351 34.8189C59.351 34.8189 53.9028 44.2087 56.9003 44.2087C57.1041 44.2087 57.3459 44.1655 57.6324 44.0733L60.8932 42.9498L63.6363 43.0161C63.6363 43.0161 64.3304 41.1985 64.6942 40.1406C64.9561 39.3787 65.4412 38.8736 65.9017 38.8736C66.0803 38.8736 66.2559 38.9494 66.4128 39.1161L71.7673 46.3208C71.7673 46.3208 72.2226 46.4629 72.8334 46.4629C73.3624 46.4629 74.0089 46.3558 74.5766 45.957C74.5766 45.957 92.1428 37.9934 98.7285 37.9934C99.1399 37.9934 99.5089 38.0247 99.8274 38.0909L103.926 38.1571C103.926 38.1571 106.471 38.5209 108.487 42.0243C108.487 42.0243 108.91 42.3621 110.119 42.3621C110.219 42.3621 110.326 42.3599 110.437 42.3547C110.437 42.3547 116.189 38.4785 118.207 38.4785C118.265 38.4785 118.318 38.4815 118.369 38.4882C118.369 38.4882 118.417 38.4792 118.516 38.4792C119.041 38.4792 121.006 38.7359 124.979 41.9589L130.234 42.5206L137.836 58.7818C137.836 58.7818 138.218 59.0169 138.698 59.0169C138.938 59.0169 139.202 58.9581 139.455 58.7818L142 52.8657C142 52.8657 141.578 51.6009 140.276 51.6009C140.214 51.6009 140.15 51.6039 140.084 51.6098L138.464 51.5771C138.464 51.5771 137.935 51.5771 137.902 50.0236L138.233 12.8527C138.233 12.8527 137.192 10.5062 135.572 10.3902C135.572 10.3902 135.563 10.3902 135.547 10.3902C135.35 10.3902 134.032 10.3619 133.787 9.61344L131.473 5.0677C131.473 5.0677 131.177 5 130.756 5Z" fill="url(#paint0_linear_1490_5698)"/>
<path d="M178.272 40.5084H167.664C166.752 40.5084 165.96 40.4124 165.288 40.1964C164.616 39.9804 164.088 39.6924 163.656 39.3324C163.224 38.9724 162.912 38.5404 162.72 38.0604C162.504 37.5804 162.408 37.0764 162.408 36.5484C162.408 35.5164 162.72 34.6044 163.344 33.7884C163.968 32.9964 164.952 32.2284 166.248 31.4844L173.256 27.5964C173.4 27.5244 173.52 27.4284 173.592 27.3324C173.64 27.2364 173.688 27.1404 173.688 26.9964C173.688 26.8524 173.616 26.7084 173.496 26.6124C173.376 26.5164 173.184 26.4684 172.944 26.4684H163.032V22.5084H172.92C174.984 22.5084 176.448 22.8204 177.312 23.4444C178.176 24.0684 178.608 25.0044 178.608 26.3004C178.608 27.1404 178.344 27.9564 177.816 28.7724C177.288 29.5884 176.4 30.3564 175.152 31.0764L167.856 35.2284C167.664 35.3484 167.52 35.4444 167.424 35.5404C167.328 35.6364 167.28 35.7804 167.28 35.9724C167.28 36.1884 167.352 36.3324 167.496 36.4284C167.64 36.5244 167.832 36.5484 168.096 36.5484H178.272V40.5084ZM195.341 32.4444V34.1724C195.341 36.1884 194.717 37.7724 193.517 38.9724C192.317 40.1724 190.589 40.7484 188.357 40.7484H186.677C184.421 40.7484 182.693 40.1724 181.493 38.9724C180.269 37.7724 179.669 36.1884 179.669 34.1724V32.4444C179.669 30.4524 180.269 28.8684 181.493 27.6684C182.693 26.4684 184.421 25.8684 186.677 25.8684H188.357C190.589 25.8684 192.317 26.4684 193.517 27.6684C194.717 28.8684 195.341 30.4524 195.341 32.4444ZM190.661 32.0604C190.661 31.1484 190.469 30.4524 190.133 29.9964C189.797 29.5404 189.173 29.3004 188.309 29.3004H186.725C185.837 29.3004 185.213 29.5404 184.877 29.9964C184.517 30.4524 184.349 31.1484 184.349 32.0604V34.5324C184.349 35.4924 184.517 36.1884 184.877 36.6444C185.213 37.1004 185.837 37.3164 186.725 37.3164H188.309C189.173 37.3164 189.797 37.1004 190.133 36.6444C190.469 36.1884 190.661 35.4924 190.661 34.5324V32.0604ZM197.611 40.5084V26.1084H206.539C208.627 26.1084 210.139 26.6364 211.099 27.6924C212.035 28.7484 212.515 30.1884 212.515 31.9884V40.5084H207.955V31.8684C207.955 31.1484 207.811 30.6204 207.571 30.3084C207.331 29.9964 206.851 29.8284 206.155 29.8284H202.171V40.5084H197.611ZM228.962 32.7084V40.5084H219.098C217.658 40.5084 216.554 40.1964 215.786 39.5724C215.018 38.9484 214.634 38.1324 214.634 37.1244C214.634 36.0204 214.994 35.1564 215.762 34.4844C216.506 33.8124 217.418 33.1164 218.474 32.3964L222.554 29.5884H214.97V26.1084H221.282C224.018 26.1084 225.986 26.7084 227.186 27.8604C228.362 29.0124 228.962 30.6444 228.962 32.7084ZM220.394 37.0284H224.642V32.2524L220.298 35.6364C220.01 35.8524 219.818 36.0204 219.722 36.1164C219.602 36.2124 219.554 36.3564 219.554 36.5004C219.554 36.6924 219.602 36.8124 219.746 36.9084C219.866 37.0044 220.082 37.0284 220.394 37.0284ZM256.125 32.7564C256.125 33.9564 255.933 35.0604 255.573 36.0444C255.213 37.0284 254.685 37.8684 253.965 38.5644C253.245 39.2604 252.333 39.7884 251.229 40.1724C250.125 40.5564 248.829 40.7484 247.389 40.7484H245.805C244.341 40.7484 243.069 40.5564 241.965 40.1724C240.861 39.7884 239.949 39.2604 239.229 38.5644C238.509 37.8684 237.957 37.0284 237.597 36.0444C237.237 35.0604 237.069 33.9564 237.069 32.7564V30.2604C237.069 29.0604 237.237 27.9804 237.597 26.9964C237.957 26.0124 238.509 25.1724 239.229 24.4764C239.949 23.7804 240.861 23.2284 241.965 22.8444C243.069 22.4604 244.341 22.2684 245.805 22.2684H247.389C248.829 22.2684 250.125 22.4604 251.229 22.8444C252.333 23.2284 253.245 23.7804 253.965 24.4764C254.685 25.1724 255.213 26.0124 255.573 26.9964C255.933 27.9804 256.125 29.0604 256.125 30.2604V32.7564ZM242.109 32.9484C242.109 34.3884 242.373 35.3964 242.901 35.9724C243.429 36.5724 244.365 36.8604 245.661 36.8604H247.533C248.829 36.8604 249.741 36.5724 250.269 35.9724C250.797 35.3964 251.085 34.3884 251.085 32.9484V30.0204C251.085 28.6044 250.797 27.5964 250.269 27.0204C249.741 26.4444 248.829 26.1324 247.533 26.1324H245.661C244.365 26.1324 243.429 26.4444 242.901 27.0204C242.373 27.5964 242.109 28.6044 242.109 30.0204V32.9484ZM258.478 31.4604C258.478 30.7884 258.574 30.1164 258.79 29.4684C258.982 28.8444 259.318 28.2684 259.774 27.7644C260.206 27.2844 260.782 26.8764 261.502 26.5644C262.222 26.2764 263.062 26.1084 264.07 26.1084H268.294V29.5884H265.102C264.286 29.5884 263.734 29.7324 263.446 30.0204C263.158 30.3084 263.038 30.8124 263.038 31.5084V40.5084H258.478V31.4604ZM284.755 32.4444V34.1724C284.755 36.1884 284.131 37.7724 282.931 38.9724C281.731 40.1724 280.003 40.7484 277.771 40.7484H276.091C273.835 40.7484 272.107 40.1724 270.907 38.9724C269.683 37.7724 269.083 36.1884 269.083 34.1724V32.4444C269.083 30.4524 269.683 28.8684 270.907 27.6684C272.107 26.4684 273.835 25.8684 276.091 25.8684H277.771C280.003 25.8684 281.731 26.4684 282.931 27.6684C284.131 28.8684 284.755 30.4524 284.755 32.4444ZM280.075 32.0604C280.075 31.1484 279.883 30.4524 279.547 29.9964C279.211 29.5404 278.587 29.3004 277.723 29.3004H276.139C275.251 29.3004 274.627 29.5404 274.291 29.9964C273.931 30.4524 273.763 31.1484 273.763 32.0604V34.5324C273.763 35.4924 273.931 36.1884 274.291 36.6444C274.627 37.1004 275.251 37.3164 276.139 37.3164H277.723C278.587 37.3164 279.211 37.1004 279.547 36.6444C279.883 36.1884 280.075 35.4924 280.075 34.5324V32.0604Z" fill="white"/>
<defs>
<linearGradient id="paint0_linear_1490_5698" x1="56.0001" y1="32.0081" x2="142" y2="32.0081" gradientUnits="userSpaceOnUse">
<stop stop-color="white"/>
<stop offset="1" stop-color="#EFB301"/>
</linearGradient>
</defs>
</svg>
