<svg width="341" height="64" viewBox="0 0 341 64" fill="none" xmlns="http://www.w3.org/2000/svg">
<rect width="341" height="64" rx="7.5" fill="#D9D9D9" fill-opacity="0.6"/>
<path d="M118.576 6.39356L120.49 10.0822C120.891 11.0721 122.004 11.6627 123.504 11.6744C123.914 11.7364 124.485 12.4285 124.817 13.0234L124.489 49.1634V49.1845V49.2057C124.509 50.1306 124.69 50.8183 125.039 51.3067C125.384 51.7884 125.907 52.079 126.442 52.087L128.055 52.1191L128.134 52.1206L128.212 52.1133C128.235 52.1111 128.256 52.1104 128.276 52.1104C128.322 52.1104 128.358 52.1148 128.392 52.125L126.626 56.1516L119.515 41.2261L119.177 40.5173L118.385 40.4341L113.541 39.926C109.676 36.9191 107.488 36.4607 106.517 36.4607C106.462 36.4607 106.411 36.4622 106.364 36.4651C106.313 36.4622 106.26 36.4607 106.207 36.4607C105.504 36.4607 104.185 36.6768 100.862 38.5463C99.6307 39.2391 98.5415 39.9238 98.0021 40.2706C97.7573 40.2647 97.578 40.2414 97.4553 40.2165C96.5498 38.8025 95.4227 37.6791 94.1736 36.9491C93.097 36.3198 92.2786 36.1811 92.1261 36.1599L92.0383 36.1475L91.949 36.1461L87.9732 36.0833C87.5997 36.0176 87.1913 35.9855 86.7285 35.9855C79.9159 35.9855 62.7217 43.5986 61.9933 43.9227L61.8728 43.9767L61.7641 44.0512C61.529 44.2133 61.2158 44.295 60.8334 44.295C60.7404 44.295 60.6534 44.2899 60.5745 44.2826L55.5482 37.6455L55.4983 37.5798L55.441 37.5206C55.0237 37.087 54.4776 36.8483 53.9025 36.8483C52.8036 36.8483 51.829 37.6834 51.3581 39.0274C51.1713 39.5603 50.8916 40.3049 50.6684 40.8896L48.9275 40.8487L48.673 40.8429L48.4327 40.9239L45.4575 41.9298C45.5587 41.3553 45.8712 40.2691 46.784 38.3419C47.3807 37.0834 48.0146 35.9329 48.3442 35.3518L117.836 6.60891L117.898 6.58336L117.957 6.55197C118.152 6.44904 118.381 6.40743 118.576 6.39283M118.756 5C118.335 5 117.788 5.06643 117.287 5.33142L47.351 34.2583C47.351 34.2583 41.9028 43.4716 44.9003 43.4716C45.1041 43.4716 45.3459 43.4292 45.6324 43.3387L48.8932 42.2364L51.6363 42.3014C51.6363 42.3014 52.3304 40.518 52.6942 39.48C52.9561 38.7324 53.4412 38.2368 53.9017 38.2368C54.0803 38.2368 54.2559 38.3112 54.4128 38.4748L59.7673 45.5441C59.7673 45.5441 60.2226 45.6835 60.8334 45.6835C61.3631 45.6835 62.0089 45.5784 62.5766 45.1871C62.5766 45.1871 80.1428 37.3732 86.7285 37.3732C87.1399 37.3732 87.5089 37.4039 87.8274 37.4688L91.926 37.5338C91.926 37.5338 94.4711 37.8908 96.4873 41.3283C96.4873 41.3283 96.9099 41.6597 98.1189 41.6597C98.2193 41.6597 98.3257 41.6575 98.4373 41.6524C98.4373 41.6524 104.189 37.8491 106.207 37.8491C106.265 37.8491 106.318 37.8521 106.369 37.8586C106.369 37.8586 106.417 37.8499 106.516 37.8499C107.041 37.8499 109.006 38.1017 112.979 41.2641L118.234 41.8152L125.836 57.7708C125.836 57.7708 126.218 58.0015 126.698 58.0015C126.938 58.0015 127.202 57.9438 127.455 57.7708L130 51.9658C130 51.9658 129.578 50.7248 128.276 50.7248C128.214 50.7248 128.15 50.7278 128.084 50.7336L126.464 50.7015C126.464 50.7015 125.935 50.7015 125.902 49.1772L126.233 12.7051C126.233 12.7051 125.192 10.4027 123.572 10.2888C123.572 10.2888 123.563 10.2888 123.547 10.2888C123.35 10.2888 122.032 10.2611 121.787 9.52671L119.473 5.06643C119.473 5.06643 119.177 5 118.756 5Z" fill="url(#paint0_linear_1490_5699)"/>
<path d="M166.272 40.0007H155.664C154.752 40.0007 153.96 39.9047 153.288 39.6887C152.616 39.4727 152.088 39.1847 151.656 38.8247C151.224 38.4647 150.912 38.0327 150.72 37.5527C150.504 37.0727 150.408 36.5687 150.408 36.0407C150.408 35.0087 150.72 34.0967 151.344 33.2807C151.968 32.4887 152.952 31.7207 154.248 30.9767L161.256 27.0887C161.4 27.0167 161.52 26.9207 161.592 26.8247C161.64 26.7287 161.688 26.6327 161.688 26.4887C161.688 26.3447 161.616 26.2007 161.496 26.1047C161.376 26.0087 161.184 25.9607 160.944 25.9607H151.032V22.0007H160.92C162.984 22.0007 164.448 22.3127 165.312 22.9367C166.176 23.5607 166.608 24.4967 166.608 25.7927C166.608 26.6327 166.344 27.4487 165.816 28.2647C165.288 29.0807 164.4 29.8487 163.152 30.5687L155.856 34.7207C155.664 34.8407 155.52 34.9367 155.424 35.0327C155.328 35.1287 155.28 35.2727 155.28 35.4647C155.28 35.6807 155.352 35.8247 155.496 35.9207C155.64 36.0167 155.832 36.0407 156.096 36.0407H166.272V40.0007ZM183.341 31.9367V33.6647C183.341 35.6807 182.717 37.2647 181.517 38.4647C180.317 39.6647 178.589 40.2407 176.357 40.2407H174.677C172.421 40.2407 170.693 39.6647 169.493 38.4647C168.269 37.2647 167.669 35.6807 167.669 33.6647V31.9367C167.669 29.9447 168.269 28.3607 169.493 27.1607C170.693 25.9607 172.421 25.3607 174.677 25.3607H176.357C178.589 25.3607 180.317 25.9607 181.517 27.1607C182.717 28.3607 183.341 29.9447 183.341 31.9367ZM178.661 31.5527C178.661 30.6407 178.469 29.9447 178.133 29.4887C177.797 29.0327 177.173 28.7927 176.309 28.7927H174.725C173.837 28.7927 173.213 29.0327 172.877 29.4887C172.517 29.9447 172.349 30.6407 172.349 31.5527V34.0247C172.349 34.9847 172.517 35.6807 172.877 36.1367C173.213 36.5927 173.837 36.8087 174.725 36.8087H176.309C177.173 36.8087 177.797 36.5927 178.133 36.1367C178.469 35.6807 178.661 34.9847 178.661 34.0247V31.5527ZM185.611 40.0007V25.6007H194.539C196.627 25.6007 198.139 26.1287 199.099 27.1847C200.035 28.2407 200.515 29.6807 200.515 31.4807V40.0007H195.955V31.3607C195.955 30.6407 195.811 30.1127 195.571 29.8007C195.331 29.4887 194.851 29.3207 194.155 29.3207H190.171V40.0007H185.611ZM216.962 32.2007V40.0007H207.098C205.658 40.0007 204.554 39.6887 203.786 39.0647C203.018 38.4407 202.634 37.6247 202.634 36.6167C202.634 35.5127 202.994 34.6487 203.762 33.9767C204.506 33.3047 205.418 32.6087 206.474 31.8887L210.554 29.0807H202.97V25.6007H209.282C212.018 25.6007 213.986 26.2007 215.186 27.3527C216.362 28.5047 216.962 30.1367 216.962 32.2007ZM208.394 36.5207H212.642V31.7447L208.298 35.1287C208.01 35.3447 207.818 35.5127 207.722 35.6087C207.602 35.7047 207.554 35.8487 207.554 35.9927C207.554 36.1847 207.602 36.3047 207.746 36.4007C207.866 36.4967 208.082 36.5207 208.394 36.5207ZM241.941 27.0887V28.8647C241.941 30.8327 241.341 32.1767 240.165 32.8967C238.965 33.6407 237.141 34.0007 234.669 34.0007H230.469V40.0007H225.669V22.0007H234.669C237.141 22.0007 238.965 22.4087 240.165 23.1767C241.341 23.9687 241.941 25.2647 241.941 27.0887ZM237.141 28.7207V27.3047C237.141 26.7527 236.949 26.3207 236.613 26.0087C236.277 25.6967 235.677 25.5287 234.813 25.5287H230.469V30.4727H234.813C235.677 30.4727 236.277 30.3287 236.613 30.0167C236.949 29.7047 237.141 29.2727 237.141 28.7207ZM244.469 22.0007H249.029V40.0007H244.469V22.0007ZM265.759 32.2007V40.0007H255.895C254.455 40.0007 253.351 39.6887 252.583 39.0647C251.815 38.4407 251.431 37.6247 251.431 36.6167C251.431 35.5127 251.791 34.6487 252.559 33.9767C253.303 33.3047 254.215 32.6087 255.271 31.8887L259.351 29.0807H251.767V25.6007H258.079C260.815 25.6007 262.783 26.2007 263.983 27.3527C265.159 28.5047 265.759 30.1367 265.759 32.2007ZM257.191 36.5207H261.439V31.7447L257.095 35.1287C256.807 35.3447 256.615 35.5127 256.519 35.6087C256.399 35.7047 256.351 35.8487 256.351 35.9927C256.351 36.1847 256.399 36.3047 256.543 36.4007C256.663 36.4967 256.879 36.5207 257.191 36.5207ZM267.621 29.0807V25.6007H269.949V22.6727H274.149V25.6007H281.949V29.0807H274.149V34.9127C274.149 35.5367 274.269 35.9447 274.533 36.1847C274.773 36.4247 275.205 36.5207 275.781 36.5207H278.109V40.0007H275.253C273.261 40.0007 271.845 39.5927 270.981 38.7527C270.117 37.9127 269.709 36.6407 269.709 34.9127V29.0807H267.621ZM294.47 32.2007V40.0007H284.606C283.166 40.0007 282.062 39.6887 281.294 39.0647C280.526 38.4407 280.142 37.6247 280.142 36.6167C280.142 35.5127 280.502 34.6487 281.27 33.9767C282.014 33.3047 282.926 32.6087 283.982 31.8887L288.062 29.0807H280.478V25.6007H286.79C289.526 25.6007 291.494 26.2007 292.694 27.3527C293.87 28.5047 294.47 30.1367 294.47 32.2007ZM285.902 36.5207H290.15V31.7447L285.806 35.1287C285.518 35.3447 285.326 35.5127 285.23 35.6087C285.11 35.7047 285.062 35.8487 285.062 35.9927C285.062 36.1847 285.11 36.3047 285.254 36.4007C285.374 36.4967 285.59 36.5207 285.902 36.5207Z" fill="white"/>
<defs>
<linearGradient id="paint0_linear_1490_5699" x1="44.0001" y1="31.5004" x2="130" y2="31.5004" gradientUnits="userSpaceOnUse">
<stop stop-color="white"/>
<stop offset="1" stop-color="#545454"/>
</linearGradient>
</defs>
</svg>
